<svg xmlns="http://www.w3.org/2000/svg" xmlns:xlink="http://www.w3.org/1999/xlink" width="180" height="180" viewBox="0 0 180 180">
  <defs>
    <clipPath id="clip-path">
      <rect id="Rectangle_1094" data-name="Rectangle 1094" width="180" height="180" transform="translate(337 2919)" fill="#fff" stroke="#707070" stroke-width="1"/>
    </clipPath>
  </defs>
  <g id="Mask_Group_43" data-name="Mask Group 43" transform="translate(-337 -2919)" clip-path="url(#clip-path)">
    <g id="mission.bc8f16b0" transform="translate(337.81 2918.999)">
      <path id="Path_506" data-name="Path 506" d="M169.652,30a62.79,62.79,0,0,1,0,88.651l-25.907,25.907a2.29,2.29,0,1,1-3.238-3.238l25.907-25.772A58.2,58.2,0,0,0,84.1,33.242L59.277,58.2a2.29,2.29,0,1,1-3.238-3.238L81,30A62.79,62.79,0,0,1,169.652,30Z" transform="translate(-9.588 -11.687)" fill="#ff9100"/>
      <path id="Path_507" data-name="Path 507" d="M72.476,120.556a11.647,11.647,0,0,1,0,16.327c-4.048,4.048-16.192,4.588-18.621,4.588a2.365,2.365,0,0,1-2.294-2.294c0-2.429.54-14.573,4.588-18.621A11.647,11.647,0,0,1,72.476,120.556ZM56.149,136.883c4.993-.27,11.334-1.349,13.088-3.1a7.06,7.06,0,0,0-9.985-9.985c-1.754,1.754-2.834,8.1-3.1,13.088Z" transform="translate(-9.834 -4.818)" fill="#ff9100"/>
      <path id="Path_508" data-name="Path 508" d="M176.785,120.9a2.2,2.2,0,0,1,0,3.238h0l-15.652,15.652a2.29,2.29,0,0,1-3.238-3.238L173.547,120.9a2.461,2.461,0,0,1,3.238,0Z" transform="translate(-2.959 -4.618)" fill="#ff9100"/>
      <path id="Path_509" data-name="Path 509" d="M73.5,16.007a2.2,2.2,0,0,1,0,3.238h0L31.533,61.074a2.29,2.29,0,1,1-3.238-3.238L70.258,15.872a2.326,2.326,0,0,1,3.238.135Z" transform="translate(-11.394 -11.453)" fill="#ff9100"/>
      <path id="Path_510" data-name="Path 510" d="M131.284,141.166a2.2,2.2,0,0,1,0,3.238h0l-7.016,7.016a2.29,2.29,0,1,1-3.238-3.238l7.016-7.016a2.461,2.461,0,0,1,3.238,0Z" transform="translate(-5.358 -3.299)" fill="#ff9100"/>
      <path id="Path_511" data-name="Path 511" d="M119.106,154.474a2.2,2.2,0,0,1,0,3.238h0L95.763,181.056a2.29,2.29,0,1,1-3.238-3.238l23.343-23.343a2.2,2.2,0,0,1,3.238,0Z" transform="translate(-7.213 -2.439)" fill="#ff9100"/>
      <path id="Path_512" data-name="Path 512" d="M53.083,61.866a2.2,2.2,0,0,1,0,3.238l-25.1,24.963a2.29,2.29,0,0,1-3.238-3.238L49.71,61.866a2.362,2.362,0,0,1,3.373,0Z" transform="translate(-11.625 -8.467)" fill="#ff9100"/>
      <path id="Path_513" data-name="Path 513" d="M23.347,90.371a2.2,2.2,0,0,1,0,3.238h0l-7.016,7.016a2.29,2.29,0,0,1-3.238-3.238l7.016-7.016a2.2,2.2,0,0,1,3.238,0Z" transform="translate(-12.384 -6.612)" fill="#ff9100"/>
      <path id="Path_514" data-name="Path 514" d="M156.4,142.686a2.2,2.2,0,0,1,0,3.238h0l-36.567,36.567a2.29,2.29,0,1,1-3.238-3.238l36.567-36.567a2.461,2.461,0,0,1,3.238,0Z" transform="translate(-5.647 -3.2)" fill="#ff9100"/>
      <path id="Path_515" data-name="Path 515" d="M26.131,61.36a2.2,2.2,0,0,1,0,3.238h0l-9.04,9.04A2.29,2.29,0,0,1,13.852,70.4l9.04-9.04a2.2,2.2,0,0,1,3.238,0Z" transform="translate(-12.334 -8.5)" fill="#ff9100"/>
      <path id="Path_516" data-name="Path 516" d="M134.11,60.112a17.747,17.747,0,1,0,0,25.1,17.836,17.836,0,0,0,0-25.1ZM113.2,81.026a11.831,11.831,0,1,1,16.732,0h0A11.891,11.891,0,0,1,113.2,81.026Z" transform="translate(-6.43 -8.871)" fill="#ff9100"/>
      <path id="Path_517" data-name="Path 517" d="M129.588,114.868c0-1.349-.135-2.834-.27-4.183h.135a72.707,72.707,0,0,0,38.591-76.777,3.2,3.2,0,0,0-2.429-2.429A72.707,72.707,0,0,0,88.838,70.071v.135a37.768,37.768,0,0,0-41.694,33.463,40.864,40.864,0,0,0-.27,4.183,3.308,3.308,0,0,0,.81,2.159,2.823,2.823,0,0,0,.81.54,2.9,2.9,0,0,0,3.1-.27l12.684-9.445a2.908,2.908,0,0,1,3.913.27l6.342,6.342-9.58,6.342a2.876,2.876,0,0,0-.81,4.048l.4.4,16.732,16.732a2.856,2.856,0,0,0,4.183,0l.4-.4,6.342-9.58,6.342,6.342a2.908,2.908,0,0,1,.27,3.913l-9.445,12.684a2.9,2.9,0,0,0-.27,3.1,2.823,2.823,0,0,0,.54.81,3.064,3.064,0,0,0,2.159.81A37.805,37.805,0,0,0,129.588,114.868Zm32.789-77.856a67.893,67.893,0,0,1-1.754,26.582L135.93,38.766a67.382,67.382,0,0,1,26.447-1.754ZM72.241,96.787a8.845,8.845,0,0,0-11.6-.81l-7.286,5.4A31.65,31.65,0,0,1,64.01,83.429h0A32.254,32.254,0,0,1,85.87,75.873L74.13,98.676Zm-1.079,19.835,7.556-4.992,9.175,9.175L82.9,128.362Zm7.421-13.628L93.156,74.658l.945-1.889a66.672,66.672,0,0,1,35.487-31.844l29.01,29.01a67.7,67.7,0,0,1-31.844,35.487l-1.889.945L96.529,120.94Zm19.565,43.043,5.4-7.286a8.845,8.845,0,0,0-.81-11.6l-1.889-1.754,22.8-11.739A31.966,31.966,0,0,1,98.148,146.038Z" transform="translate(-10.139 -10.464)" fill="#fff"/>
      <rect id="Rectangle_1096" data-name="Rectangle 1096" width="6.072" height="6.072" transform="translate(81.173 76.021) rotate(-45)" fill="#ff9100"/>
      <rect id="Rectangle_1097" data-name="Rectangle 1097" width="6.072" height="6.072" transform="translate(89.888 84.792) rotate(-45)" fill="#ff9100"/>
      <rect id="Rectangle_1098" data-name="Rectangle 1098" width="6.072" height="5.127" transform="translate(98.56 93.392) rotate(-45)" fill="#ff9100"/>
    </g>
  </g>
</svg>
