<svg xmlns="http://www.w3.org/2000/svg" xmlns:xlink="http://www.w3.org/1999/xlink" width="180" height="180" viewBox="0 0 180 180">
  <defs>
    <clipPath id="clip-path">
      <rect id="Rectangle_1095" data-name="Rectangle 1095" width="180" height="180" transform="translate(586 2919)" fill="#fff" stroke="#707070" stroke-width="1"/>
    </clipPath>
  </defs>
  <g id="Mask_Group_44" data-name="Mask Group 44" transform="translate(-586 -2919)" clip-path="url(#clip-path)">
    <g id="vision.02ec3389" transform="translate(586 2933.952)">
      <path id="Path_518" data-name="Path 518" d="M192.45,100.361a105.381,105.381,0,0,0-86.531-49.349V26.953H99.9V51.012a105.052,105.052,0,0,0-86.531,49.349,3.218,3.218,0,0,0,0,3.144A105.381,105.381,0,0,0,99.9,152.854v24.059h6.015V152.854A105.052,105.052,0,0,0,192.45,103.5,2.658,2.658,0,0,0,192.45,100.361ZM19.525,102A99.9,99.9,0,0,1,71.2,62.085,50.8,50.8,0,0,0,52.059,98.994h-24.2v6.015h24.2A50.8,50.8,0,0,0,71.2,141.918,99.362,99.362,0,0,1,19.525,102ZM99.9,129.068v17.908a44.984,44.984,0,0,1-41.83-41.83H75.982V99.13H58.074A44.984,44.984,0,0,1,99.9,57.3V75.208h6.015V57.163a44.984,44.984,0,0,1,41.83,41.83H129.978v6.015h17.908a44.984,44.984,0,0,1-41.83,41.83V129.068ZM186.436,102a99.9,99.9,0,0,1-51.673,39.916A50.8,50.8,0,0,0,153.9,105.009h24.2V98.994H153.9a50.8,50.8,0,0,0-19.138-36.909A99.9,99.9,0,0,1,186.436,102Z" transform="translate(-12.963 -26.953)" fill="#fff"/>
      <path id="Path_519" data-name="Path 519" d="M98.7,77.65A21.052,21.052,0,1,0,119.753,98.7h0A21.061,21.061,0,0,0,98.7,77.65Zm0,36.089A15.037,15.037,0,1,1,113.738,98.7,14.994,14.994,0,0,1,98.7,113.738Z" transform="translate(-8.753 -23.653)" fill="#ff9100"/>
      <path id="Path_520" data-name="Path 520" d="M29.96,26.953a3.034,3.034,0,0,0-3.007,3.007h0V54.019h6.015V32.968H54.019V26.953Z" transform="translate(-12.052 -26.953)" fill="#ff9100"/>
      <path id="Path_521" data-name="Path 521" d="M166.524,26.953H142.464v6.015h21.052V54.019h6.015V29.96A3.034,3.034,0,0,0,166.524,26.953Z" transform="translate(-4.534 -26.953)" fill="#ff9100"/>
      <path id="Path_522" data-name="Path 522" d="M163.516,142.464v21.052H142.464v6.015h24.059a3.034,3.034,0,0,0,3.007-3.007h0V142.464Z" transform="translate(-4.534 -19.434)" fill="#ff9100"/>
      <path id="Path_523" data-name="Path 523" d="M32.968,163.516V142.464H26.953v24.059a3.034,3.034,0,0,0,3.007,3.007H54.019v-6.015Z" transform="translate(-12.052 -19.434)" fill="#ff9100"/>
    </g>
  </g>
</svg>
