<svg xmlns="http://www.w3.org/2000/svg" xmlns:xlink="http://www.w3.org/1999/xlink" width="98" height="98" viewBox="0 0 98 98">
  <defs>
    <clipPath id="clip-path">
      <rect id="Rectangle_1024" data-name="Rectangle 1024" width="98" height="98" transform="translate(1598 9352)" fill="#fff"/>
    </clipPath>
  </defs>
  <g id="Mask_Group_30" data-name="Mask Group 30" transform="translate(-1598 -9352)" clip-path="url(#clip-path)">
    <g id="Layer_2" data-name="Layer 2" transform="translate(1598 9351.999)">
      <g id="Layer_1" data-name="Layer 1">
        <g id="outline">
          <path id="Path_400" data-name="Path 400" d="M96.367,94.733H88.2v-49A1.633,1.633,0,0,0,86.567,44.1h-9.8a1.633,1.633,0,0,0-1.633,1.633v49H71.867V58.8a1.633,1.633,0,0,0-1.633-1.633h-9.8A1.633,1.633,0,0,0,58.8,58.8V94.733H55.533V53.9A1.633,1.633,0,0,0,53.9,52.267H44.1A1.633,1.633,0,0,0,42.467,53.9V94.733H39.2v-34.3A1.633,1.633,0,0,0,37.567,58.8h-9.8a1.633,1.633,0,0,0-1.633,1.633v34.3H22.867V66.967a1.633,1.633,0,0,0-1.633-1.633h-9.8A1.633,1.633,0,0,0,9.8,66.967V94.733H1.633a1.633,1.633,0,0,0,0,3.267H96.367a1.633,1.633,0,0,0,0-3.267Zm-83.3,0V68.6H19.6V94.733Zm16.333,0V62.067h6.533V94.733Zm16.333,0v-39.2h6.533v39.2Zm16.333,0v-34.3H68.6v34.3Zm16.333,0V47.367h6.533V94.733Z" fill="#fff"/>
          <path id="Path_401" data-name="Path 401" d="M4.9,63.7a1.7,1.7,0,0,0,.643-.133l7.189-3.083a4.9,4.9,0,0,0,8.5-3.318v-.2l7.758-3.1a4.9,4.9,0,0,0,8.575-3.226v-.2l7.758-3.1a4.9,4.9,0,0,0,7.632-.339l7.485,2.246a4.9,4.9,0,1,0,9.383-2.2L78.992,38.4a4.9,4.9,0,0,0,6.942-6.533l5.533-5.216v1.115a1.633,1.633,0,1,0,3.267,0v-4.9A1.633,1.633,0,0,0,93.1,21.233H88.2a1.633,1.633,0,0,0,0,3.267h.782l-5.555,5.227A4.9,4.9,0,0,0,77,35.78l-9.416,8.871a4.888,4.888,0,0,0-6.194,1.464L53.9,43.869a4.9,4.9,0,0,0-9.8.231c0,.065,0,.133,0,.2l-7.758,3.1a4.9,4.9,0,0,0-8.575,3.226v.2l-7.758,3.1a4.9,4.9,0,0,0-8.575,3.226,2.786,2.786,0,0,0,.012.316L4.257,60.57A1.633,1.633,0,0,0,4.9,63.7ZM81.667,32.667A1.633,1.633,0,1,1,80.033,34.3,1.633,1.633,0,0,1,81.667,32.667Zm-16.333,14.7A1.633,1.633,0,1,1,63.7,49,1.633,1.633,0,0,1,65.333,47.367ZM49,42.467A1.633,1.633,0,1,1,47.367,44.1,1.633,1.633,0,0,1,49,42.467ZM32.667,49a1.633,1.633,0,1,1-1.633,1.633A1.633,1.633,0,0,1,32.667,49ZM16.333,55.533A1.633,1.633,0,1,1,14.7,57.167,1.633,1.633,0,0,1,16.333,55.533Z" fill="#fff"/>
          <path id="Path_402" data-name="Path 402" d="M34.388,40.462a1.633,1.633,0,1,0,2.089-2.511,19.737,19.737,0,0,1-3.5-3.793h7.146q.427,1.954,1,3.879a1.634,1.634,0,1,0,3.136-.919V37.1q-.437-1.464-.782-2.946H54.523q-.343,1.482-.78,2.946a1.633,1.633,0,1,0,3.124.956v-.018q.576-1.929,1-3.879h7.16a19.916,19.916,0,0,1-2.464,2.858,1.633,1.633,0,1,0,2.262,2.356,22.662,22.662,0,0,0,7.044-16.5A22.905,22.905,0,0,0,53.4.433c-.043-.01-.088-.02-.133-.027A22.867,22.867,0,0,0,34.388,40.462Zm-2.76-9.571a1.693,1.693,0,0,0-.484.071A19.563,19.563,0,0,1,29.467,24.5h9.469a53.1,53.1,0,0,0,.584,6.384Zm.492-17.967h7.734a52.878,52.878,0,0,0-.915,8.31H29.469a19.422,19.422,0,0,1,2.65-8.31Zm36.411,8.31H59.063a52.879,52.879,0,0,0-.917-8.31h7.734a19.422,19.422,0,0,1,2.65,8.31Zm-12.736,0H42.205a49.917,49.917,0,0,1,.978-8.316H54.821A49.7,49.7,0,0,1,55.795,21.233ZM42.828,30.89a49.612,49.612,0,0,1-.623-6.39H55.8a50.357,50.357,0,0,1-.623,6.384Zm23.545,0H58.479a52.691,52.691,0,0,0,.584-6.39h9.469a19.471,19.471,0,0,1-1.666,6.46,1.621,1.621,0,0,0-.494-.069ZM63.461,9.657H57.414A53.175,53.175,0,0,0,55.8,4.492a19.669,19.669,0,0,1,7.664,5.165ZM51.885,3.485a49.484,49.484,0,0,1,2.148,6.172H43.967a49.816,49.816,0,0,1,2.148-6.172,19.657,19.657,0,0,1,5.77,0ZM42.2,4.492a53.174,53.174,0,0,0-1.617,5.169H34.539A19.626,19.626,0,0,1,42.2,4.492Z" fill="#fff"/>
        </g>
      </g>
    </g>
  </g>
</svg>
