<svg id="Group_491" data-name="Group 491" xmlns="http://www.w3.org/2000/svg" width="50.85" height="46.311" viewBox="0 0 50.85 46.311">
  <path id="Path_199" data-name="Path 199" d="M8.33,18.1,16.779.464C12.675-.9,8.064.835,6.421,4.355L4.1,9.333A42.977,42.977,0,0,0,0,27.558v5.609c0,3.953,3.714,7.158,8.295,7.158h7.428c2.8,0,5.076-1.961,5.076-4.38V18.1Z" transform="translate(0 0)" fill="#fff"/>
  <path id="Path_200" data-name="Path 200" d="M8.33,18.1,16.779.464C12.675-.9,8.065.835,6.421,4.355L4.1,9.333A42.978,42.978,0,0,0,0,27.558v5.61c0,3.953,3.714,7.158,8.295,7.158h7.428c2.8,0,5.076-1.961,5.076-4.38V18.1Z" transform="translate(30.051 5.985)" fill="#fff"/>
</svg>
