<svg xmlns="http://www.w3.org/2000/svg" width="16" height="16" viewBox="0 0 16 16">
    <path d="M8,0a8,8,0,1,0,8,8A8,8,0,0,0,8,0Zm5.284,3.688a6.8,6.8,0,0,1,1.544,4.252,16.135,16.135,0,0,0-4.755-.217c-.052-.113-.1-.234-.148-.356-.139-.33-.3-.668-.451-.989A9.145,9.145,0,0,0,13.284,3.688ZM8,1.18A6.818,6.818,0,0,1,12.529,2.9,7.745,7.745,0,0,1,8.946,5.362a36.89,36.89,0,0,0-2.551-4A6.949,6.949,0,0,1,8,1.18Zm-2.907.642A43.119,43.119,0,0,1,7.627,5.77,25.626,25.626,0,0,1,1.31,6.6,6.865,6.865,0,0,1,5.093,1.822ZM1.163,8.009V7.8a24.967,24.967,0,0,0,7.02-.972c.2.382.382.772.555,1.163l-.269.078a10.863,10.863,0,0,0-5.553,4.5A6.817,6.817,0,0,1,1.163,8.009ZM8,14.837A6.786,6.786,0,0,1,3.809,13.4,9.382,9.382,0,0,1,9.171,9.128c.017-.009.026-.009.043-.017a28.247,28.247,0,0,1,1.458,5.18A6.721,6.721,0,0,1,8,14.837Zm3.809-1.171A29.4,29.4,0,0,0,10.482,8.8a9.979,9.979,0,0,1,4.252.3A6.775,6.775,0,0,1,11.809,13.666Z"
          fill="#fff" fill-rule="evenodd"/>
</svg>
