<svg xmlns="http://www.w3.org/2000/svg" xmlns:xlink="http://www.w3.org/1999/xlink" width="98" height="98" viewBox="0 0 98 98">
  <defs>
    <clipPath id="clip-path">
      <rect id="Rectangle_1023" data-name="Rectangle 1023" width="98" height="98" transform="translate(1140 9352)" fill="#fff"/>
    </clipPath>
  </defs>
  <g id="Mask_Group_29" data-name="Mask Group 29" transform="translate(-1140 -9352)" clip-path="url(#clip-path)">
    <g id="Layer_2" data-name="Layer 2" transform="translate(1140 9358.626)">
      <g id="Layer_1" data-name="Layer 1">
        <path id="Path_398" data-name="Path 398" d="M90.38,0H7.622A7.62,7.62,0,0,0,0,7.622v8.664a1.088,1.088,0,0,0,1.09,1.088H96.912A1.088,1.088,0,0,0,98,16.287V7.622A7.62,7.62,0,0,0,90.38,0ZM13.745,11.145A2.458,2.458,0,1,1,16.2,8.687a2.458,2.458,0,0,1-2.456,2.458Zm7.876,0a2.456,2.456,0,1,1,1.739-.719A2.458,2.458,0,0,1,21.621,11.145Zm7.878,0a2.458,2.458,0,1,1,2.456-2.458A2.458,2.458,0,0,1,29.5,11.145Z" fill="#fff"/>
        <path id="Path_399" data-name="Path 399" d="M96.912,21.732H1.09A1.088,1.088,0,0,0,0,22.819V77.126a7.622,7.622,0,0,0,7.622,7.622H90.38A7.622,7.622,0,0,0,98,77.126V22.819A1.088,1.088,0,0,0,96.912,21.732Zm-62.8,26.315-3.8,11.729a2.178,2.178,0,0,1-3.907.5l-2.928-4.589-2.928,4.589a2.18,2.18,0,0,1-3.91-.5L12.85,48.046A2.178,2.178,0,0,1,16.994,46.7l2.374,7.321,2.274-3.575a2.18,2.18,0,0,1,3.675,0l2.274,3.575L29.967,46.7A2.177,2.177,0,0,1,34.109,48.046Zm25.52,0-3.8,11.729a2.178,2.178,0,0,1-3.91.5l-2.929-4.589-2.91,4.589a2.18,2.18,0,0,1-3.91-.5l-3.8-11.729A2.178,2.178,0,0,1,42.515,46.7l2.374,7.321,2.274-3.575a2.18,2.18,0,0,1,3.675,0l2.274,3.575L55.487,46.7a2.178,2.178,0,0,1,4.144,1.343Zm25.52,0-3.8,11.729a2.18,2.18,0,0,1-3.91.5l-2.918-4.589-2.928,4.589a2.178,2.178,0,0,1-3.91-.5l-3.8-11.729A2.178,2.178,0,0,1,68.027,46.7L70.4,54.024l2.274-3.575a2.18,2.18,0,0,1,3.675,0l2.274,3.575L81,46.7a2.182,2.182,0,0,1,4.152,1.343Z" fill="#fff"/>
      </g>
    </g>
  </g>
</svg>
