<svg xmlns="http://www.w3.org/2000/svg" xmlns:xlink="http://www.w3.org/1999/xlink" width="98" height="98" viewBox="0 0 98 98">
  <defs>
    <clipPath id="clip-path">
      <rect id="Rectangle_1018" data-name="Rectangle 1018" width="98" height="98" transform="translate(225 9352)" fill="#fff"/>
    </clipPath>
  </defs>
  <g id="Mask_Group_27" data-name="Mask Group 27" transform="translate(-225 -9352)" clip-path="url(#clip-path)">
    <g id="Layer_2" data-name="Layer 2" transform="translate(224.998 9371.502)">
      <g id="Layer_1" data-name="Layer 1">
        <path id="Path_382" data-name="Path 382" d="M74.383,23.049c0,2.922.069,5.845-.018,8.763a7.494,7.494,0,0,1-5.084,7.263,11.678,11.678,0,0,1-5.217.4,7.581,7.581,0,0,1-4.09-1.742,8.142,8.142,0,0,1-2.68-5.7c-.079-.828-.085-1.666-.087-2.5q-.012-6.942,0-13.881a13.376,13.376,0,0,1,.722-4.6A7.114,7.114,0,0,1,64.2,6.223a11.874,11.874,0,0,1,4.112.15,7.166,7.166,0,0,1,5.835,6.246,20.119,20.119,0,0,1,.285,3.082c.04,2.449.012,4.9.012,7.348Zm-10.139-.186H64.23c0,2.767-.026,5.513.022,8.269a3.979,3.979,0,0,0,.455,1.745,1.241,1.241,0,0,0,2.163.107,2.965,2.965,0,0,0,.538-1.554c.036-5.675.026-11.35,0-17.026a4.625,4.625,0,0,0-.275-1.429,1.258,1.258,0,0,0-1.4-.791,1.128,1.128,0,0,0-1.232.858,5.337,5.337,0,0,0-.253,1.443C64.228,17.279,64.244,20.072,64.244,22.863Z" fill="#fff"/>
        <path id="Path_383" data-name="Path 383" d="M45.647,20.617a3.955,3.955,0,0,1,2.5-1.581c2.3-.279,4.521-.176,6.167,1.8a6.726,6.726,0,0,1,1.37,3.443,23.384,23.384,0,0,1-.263,9.342A8.219,8.219,0,0,1,52.976,37.9a6.42,6.42,0,0,1-3.971,1.581,21.234,21.234,0,0,1-4.222-.17,6.3,6.3,0,0,1-5.551-5.474,24.094,24.094,0,0,1-.445-4.262c-.061-3.645-.036-7.294-.01-10.941a28.793,28.793,0,0,1,.739-7.015,6.733,6.733,0,0,1,6.3-5.4,12.027,12.027,0,0,1,5.829.644,5.857,5.857,0,0,1,3.87,5.75v3.459H49.278c-.049-.791-.1-1.554-.15-2.327a3.362,3.362,0,0,0-.077-.482c-.229-1.02-.668-1.4-1.581-1.384a1.613,1.613,0,0,0-1.728,1.469,7.057,7.057,0,0,0-.1,1.137q0,2.8,0,5.608Zm-.04,8.453h.042v1.85a.96.96,0,0,0,0,.107,10.443,10.443,0,0,0,.2,1.384,1.422,1.422,0,0,0,1.581,1.121,1.182,1.182,0,0,0,1.247-1.243c.121-1.892.128-3.791.152-5.689a2.767,2.767,0,0,0-.229-.988,1.34,1.34,0,0,0-1.815-.812,1.514,1.514,0,0,0-1.038,1.4C45.663,27.15,45.651,28.111,45.607,29.07Z" fill="#fff"/>
        <path id="Path_384" data-name="Path 384" d="M33.8,21.264c.042.057.055.1.083.113a5.229,5.229,0,0,1,2.767,4.458,22.85,22.85,0,0,1-.291,7.735c-.66,2.645-2.018,4.744-4.78,5.574a12.764,12.764,0,0,1-6.76.109,6.3,6.3,0,0,1-4.647-5.221,20.544,20.544,0,0,1-.354-3.232c-.059-1.243-.014-2.491-.014-3.756h6.652V28c.036,1.322,0,2.651.138,3.953a1.54,1.54,0,0,0,1.738,1.611,1.23,1.23,0,0,0,1.228-.731,2.827,2.827,0,0,0,.336-1.075,47.246,47.246,0,0,0-.067-4.881,2.589,2.589,0,0,0-3.02-2.57.86.86,0,0,1-.188-.034V18.538c.385-.055.779-.091,1.16-.174A2.532,2.532,0,0,0,30,16.017a8.644,8.644,0,0,0-.14-2.42,1.342,1.342,0,0,0-1.609-1.186c-.807.043-1.176.362-1.334,1.295-.14.816-.2,1.647-.293,2.5H19.953c-.016-3.149.081-6.223,2.872-8.381a7.36,7.36,0,0,1,3.517-1.336,12.754,12.754,0,0,1,5.023.186,6.479,6.479,0,0,1,5,5.114,14.474,14.474,0,0,1,.107,6.152A4.136,4.136,0,0,1,33.8,21.264Z" fill="#fff"/>
        <path id="Path_385" data-name="Path 385" d="M66.984,55.942V59l-9.018-7.832,8.99-7.846v2.951a1.665,1.665,0,0,0,.346.085A45.449,45.449,0,0,0,82.748,43.66,28.574,28.574,0,0,0,93.6,36.917a16.755,16.755,0,0,0,3.422-5.078,8.753,8.753,0,0,1,.884,3.034c.55,4.675-1.249,8.476-4.414,11.734a28.984,28.984,0,0,1-11.7,6.982,45.79,45.79,0,0,1-14.035,2.352Z" fill="#fff"/>
        <path id="Path_386" data-name="Path 386" d="M31.035,46.348V43.29l9.024,7.871-9,7.82V55.872c-.886,0-1.714.038-2.538,0a41.265,41.265,0,0,1-18.054-4.817A21.8,21.8,0,0,1,2.1,43.528,12.713,12.713,0,0,1,.668,32.482c.069-.217.16-.431.275-.729.158.332.279.593.405.846a19.827,19.827,0,0,0,7.189,7.7,37.172,37.172,0,0,0,14.181,5.337,49.7,49.7,0,0,0,7.844.708Z" fill="#fff"/>
        <path id="Path_387" data-name="Path 387" d="M4.556,35.654a14.654,14.654,0,0,1-3-5.039.927.927,0,0,1,.14-.642A19.155,19.155,0,0,1,7.215,23.83,35.121,35.121,0,0,1,20.55,17.98a24.076,24.076,0,0,1,6.618-.771c.176,0,.356-.156.542-.2.259-.063.528-.091.838-.142-.352.51-.352.51-2.837.706v8c.83-.2,1.668-.593,2.455,0a4.962,4.962,0,0,1,.727.9l-1.437.117-.1-.508H18.842c0,.443-.028.907,0,1.366.03.411-.091.581-.516.7A33.142,33.142,0,0,0,6.814,33.733C6.055,34.324,5.337,34.988,4.556,35.654Z" fill="#fff"/>
        <path id="Path_388" data-name="Path 388" d="M93.432,35.692a26.64,26.64,0,0,0-6.355-4.624A39.366,39.366,0,0,0,75.81,27.243c-.3-.055-.443-.128-.441-.468.012-2.993,0-5.988.01-8.98a1.7,1.7,0,0,1,.059-.253c1.269.291,2.54.544,3.789.878a33.108,33.108,0,0,1,11.981,5.715,19.311,19.311,0,0,1,5.14,5.845.915.915,0,0,1,.049.858,15.3,15.3,0,0,1-2.965,4.855Z" fill="#fff"/>
        <path id="Path_389" data-name="Path 389" d="M88.324,9.174c0,1.542.042,3.086-.01,4.626a4.079,4.079,0,0,1-4.388,4.288,7.033,7.033,0,0,1-1.779-.168,4.018,4.018,0,0,1-3.07-4.112c-.049-3.1-.065-6.2,0-9.3.043-1.779.65-3.337,2.461-4.07a5.568,5.568,0,0,1,4.4.04,4.048,4.048,0,0,1,2.358,3.914c.075,1.593.016,3.192.016,4.788Zm-5.48-.111c0,1.487-.01,2.965,0,4.46a2.109,2.109,0,0,0,.21.933.664.664,0,0,0,1.218.024,2.494,2.494,0,0,0,.281-1.133c.022-2.793.014-5.586,0-8.377a6.176,6.176,0,0,0-.095-1.028.741.741,0,0,0-.759-.65.694.694,0,0,0-.773.613,6.343,6.343,0,0,0-.095,1.024Q82.843,6.995,82.845,9.063Z" fill="#fff"/>
      </g>
    </g>
  </g>
</svg>
