<svg id="Group_3978" data-name="Group 3978" xmlns="http://www.w3.org/2000/svg" xmlns:xlink="http://www.w3.org/1999/xlink" width="138.294" height="167.852" viewBox="0 0 138.294 167.852">
  <defs>
    <clipPath id="clip-path">
      <rect id="Rectangle_1227" data-name="Rectangle 1227" width="111.532" height="142.501" fill="none"/>
    </clipPath>
    <clipPath id="clip-path-2">
      <rect id="Rectangle_1222" data-name="Rectangle 1222" width="251.063" height="167.375" fill="none"/>
    </clipPath>
    <linearGradient id="linear-gradient" x1="0.5" y1="0.13" x2="0.5" y2="0.581" gradientUnits="objectBoundingBox">
      <stop offset="0" stop-color="#ff8900"/>
      <stop offset="1" stop-color="#ff3014"/>
    </linearGradient>
    <linearGradient id="linear-gradient-2" x1="0.434" y1="0.314" x2="0.25" y2="-0.202" gradientUnits="objectBoundingBox">
      <stop offset="0" stop-color="#fff"/>
      <stop offset="1" stop-color="#f5f7f7" stop-opacity="0"/>
    </linearGradient>
    <linearGradient id="linear-gradient-3" x1="0.509" y1="0.559" x2="0.201" y2="-1.554" xlink:href="#linear-gradient-2"/>
    <linearGradient id="linear-gradient-4" x1="20.535" y1="0.874" x2="-20.538" y2="0.126" xlink:href="#linear-gradient-2"/>
    <linearGradient id="linear-gradient-5" x1="-1.769" y1="0.314" x2="-1.953" y2="-0.202" xlink:href="#linear-gradient-2"/>
    <linearGradient id="linear-gradient-6" x1="-3.836" y1="0.559" x2="-4.144" y2="-1.554" xlink:href="#linear-gradient-2"/>
    <linearGradient id="linear-gradient-7" x1="-18095.213" y1="0.874" x2="-18135.688" y2="0.126" xlink:href="#linear-gradient-2"/>
    <linearGradient id="linear-gradient-8" x1="0.5" y1="0.11" x2="0.5" y2="1.061" gradientUnits="objectBoundingBox">
      <stop offset="0" stop-color="#b5200e"/>
      <stop offset="1" stop-color="#b5200e" stop-opacity="0"/>
    </linearGradient>
    <linearGradient id="linear-gradient-9" x1="0.501" y1="-161.821" x2="0.501" y2="2460.86" xlink:href="#linear-gradient-8"/>
    <linearGradient id="linear-gradient-10" x1="0.5" y1="0.869" x2="0.5" y2="10.936" gradientUnits="objectBoundingBox">
      <stop offset="0" stop-color="#a21c0d"/>
      <stop offset="1" stop-color="#b5200e"/>
    </linearGradient>
    <linearGradient id="linear-gradient-12" x1="0.5" y1="-0.012" x2="0.5" y2="0.894" xlink:href="#linear-gradient-10"/>
    <linearGradient id="linear-gradient-13" x1="0.5" y1="0.237" x2="0.5" y2="1.249" xlink:href="#linear-gradient-8"/>
    <linearGradient id="linear-gradient-14" x1="0.5" y1="0.061" x2="0.5" y2="0.538" xlink:href="#linear-gradient-10"/>
    <linearGradient id="linear-gradient-15" x1="0.5" y1="0.233" x2="0.5" y2="0.9" xlink:href="#linear-gradient-8"/>
    <linearGradient id="linear-gradient-17" x1="0.5" y1="-0.721" x2="0.5" y2="0.985" gradientUnits="objectBoundingBox">
      <stop offset="0" stop-color="#310903"/>
      <stop offset="1" stop-color="#1f0602"/>
    </linearGradient>
    <linearGradient id="linear-gradient-18" y1="0.5" x2="1" y2="0.5" gradientUnits="objectBoundingBox">
      <stop offset="0" stop-color="#4f0e06"/>
      <stop offset="1" stop-color="#310903"/>
    </linearGradient>
    <linearGradient id="linear-gradient-23" x1="-1.577" y1="2.23" x2="-0.578" y2="2.23" xlink:href="#linear-gradient-18"/>
    <linearGradient id="linear-gradient-24" x1="0.5" y1="-0.129" x2="0.5" y2="2.434" xlink:href="#linear-gradient-17"/>
    <linearGradient id="linear-gradient-25" x1="0.5" y1="-8.346" x2="0.5" y2="17.4" xlink:href="#linear-gradient-17"/>
    <linearGradient id="linear-gradient-26" x1="0.5" y1="-0.781" x2="0.5" y2="3.89" xlink:href="#linear-gradient-17"/>
    <linearGradient id="linear-gradient-27" x1="0.5" y1="-6.254" x2="0.5" y2="11.644" xlink:href="#linear-gradient-17"/>
    <linearGradient id="linear-gradient-28" x1="0.5" y1="-4.331" x2="0.5" y2="8.821" xlink:href="#linear-gradient-17"/>
    <linearGradient id="linear-gradient-29" x1="0.5" y1="-17.636" x2="0.5" y2="41.452" xlink:href="#linear-gradient-17"/>
    <linearGradient id="linear-gradient-30" x1="0.5" y1="-5.7" x2="0.5" y2="12.599" xlink:href="#linear-gradient-17"/>
    <linearGradient id="linear-gradient-31" x1="0.5" y1="-0.976" x2="0.5" y2="4.489" xlink:href="#linear-gradient-17"/>
    <linearGradient id="linear-gradient-32" x1="0.5" y1="0.202" x2="0.5" y2="2.191" xlink:href="#linear-gradient-17"/>
    <linearGradient id="linear-gradient-34" x1="0.5" y1="-3.461" x2="0.5" y2="7.643" xlink:href="#linear-gradient-17"/>
    <linearGradient id="linear-gradient-35" x1="0.5" y1="-6.46" x2="0.5" y2="12.1" xlink:href="#linear-gradient-17"/>
    <linearGradient id="linear-gradient-36" x1="0.5" y1="-6.337" x2="0.5" y2="11.801" xlink:href="#linear-gradient-17"/>
    <linearGradient id="linear-gradient-37" x1="0.5" y1="-6.994" x2="0.5" y2="12.713" xlink:href="#linear-gradient-17"/>
    <linearGradient id="linear-gradient-38" x1="0.5" y1="-12.062" x2="0.5" y2="20.539" xlink:href="#linear-gradient-17"/>
    <linearGradient id="linear-gradient-39" x1="0.5" y1="-4.564" x2="0.5" y2="9.125" xlink:href="#linear-gradient-17"/>
    <linearGradient id="linear-gradient-40" x1="0.5" y1="-4.785" x2="0.5" y2="9.533" xlink:href="#linear-gradient-17"/>
    <linearGradient id="linear-gradient-41" x1="0.5" y1="-3.832" x2="0.5" y2="8.265" xlink:href="#linear-gradient-17"/>
    <linearGradient id="linear-gradient-42" x1="0.5" y1="-6.098" x2="0.5" y2="11.651" xlink:href="#linear-gradient-17"/>
    <linearGradient id="linear-gradient-43" x1="0.5" y1="-7.103" x2="0.5" y2="12.911" xlink:href="#linear-gradient-17"/>
    <linearGradient id="linear-gradient-44" x1="0.5" y1="-3.685" x2="0.5" y2="7.92" xlink:href="#linear-gradient-17"/>
    <linearGradient id="linear-gradient-45" x1="0.5" y1="-6.824" x2="0.5" y2="12.643" xlink:href="#linear-gradient-17"/>
    <linearGradient id="linear-gradient-46" x1="0.5" y1="-3.677" x2="0.5" y2="7.853" xlink:href="#linear-gradient-17"/>
    <linearGradient id="linear-gradient-47" x1="0.5" y1="-6.322" x2="0.5" y2="11.746" xlink:href="#linear-gradient-17"/>
    <linearGradient id="linear-gradient-48" x1="0.5" y1="0.313" x2="0.5" y2="1.231" xlink:href="#linear-gradient-10"/>
    <linearGradient id="linear-gradient-50" x1="0.5" y1="0.168" x2="0.5" y2="2.17" xlink:href="#linear-gradient-17"/>
    <linearGradient id="linear-gradient-52" x1="0.5" y1="0.411" x2="0.5" y2="1.828" xlink:href="#linear-gradient-17"/>
  </defs>
  <g id="Group_3977" data-name="Group 3977" transform="translate(0 0)">
    <path id="Path_9527" data-name="Path 9527" d="M-884.667,1240.973v-7.09h-6.993a3.5,3.5,0,0,1-3.5,3.5,3.487,3.487,0,0,1-3.474-3.273v-.224h-7.015a3.5,3.5,0,0,1-3.485,3.5,3.5,3.5,0,0,1-3.485-3.5h-7.015a3.5,3.5,0,0,1-3.485,3.5,3.5,3.5,0,0,1-3.485-3.5h-7.016a3.5,3.5,0,0,1-3.485,3.5c-.078,0-.151-.017-.227-.022a3.626,3.626,0,0,1-.458-.047,3.428,3.428,0,0,1-.592-.18c-.014-.005-.029-.007-.042-.013a3.5,3.5,0,0,1-2.151-3.1v-.131H-947.6a3.5,3.5,0,0,1-3.479,3.494,3.5,3.5,0,0,1-3.479-3.494h-7.016a3.5,3.5,0,0,1-2.79,3.425c-.053.011-.11.008-.164.017a3.466,3.466,0,0,1-.53.053,3.5,3.5,0,0,1-3.485-3.5h-7.016a3.5,3.5,0,0,1-3.485,3.5,3.5,3.5,0,0,1-3.485-3.5h-7.016a3.5,3.5,0,0,1-3.485,3.5,3.5,3.5,0,0,1-3.485-3.5h-6.993a3.5,3.5,0,0,1-3.5,3.5,3.5,3.5,0,0,1-3.5-3.5h-6.993v7.09a3.5,3.5,0,0,1,3.5,3.5,3.5,3.5,0,0,1-3.5,3.5v7.186a3.5,3.5,0,0,1,3.5,3.5,3.5,3.5,0,0,1-3.5,3.5v7.186a3.5,3.5,0,0,1,3.5,3.5,3.5,3.5,0,0,1-3.5,3.5v7.186a3.5,3.5,0,0,1,3.5,3.5,3.5,3.5,0,0,1-3.5,3.5v7.186a3.5,3.5,0,0,1,3.5,3.5,3.5,3.5,0,0,1-3.5,3.5v7.186a3.5,3.5,0,0,1,3.494,3.468,3.5,3.5,0,0,1-3.494,3.468v7.186a3.5,3.5,0,0,1,3.5,3.5,3.5,3.5,0,0,1-3.5,3.5v7.186a3.5,3.5,0,0,1,3.5,3.5,3.5,3.5,0,0,1-3.5,3.5v7.186a3.5,3.5,0,0,1,3.5,3.5,3.5,3.5,0,0,1-3.5,3.5v7.186a3.5,3.5,0,0,1,3.5,3.5,3.5,3.5,0,0,1-3.5,3.5v7.186a3.5,3.5,0,0,1,3.5,3.5,3.5,3.5,0,0,1-3.5,3.5v7.089h6.993a3.5,3.5,0,0,1,3.5-3.5,3.5,3.5,0,0,1,3.5,3.5h6.993a3.5,3.5,0,0,1,3.485-3.5,3.5,3.5,0,0,1,3.485,3.5h7.016a3.5,3.5,0,0,1,3.485-3.5,3.5,3.5,0,0,1,3.485,3.5h7.016a3.5,3.5,0,0,1,3.485-3.5c.078,0,.151.017.227.022a3.493,3.493,0,0,1,.458.047,3.433,3.433,0,0,1,.593.18c.014.006.028.008.042.014a3.5,3.5,0,0,1,2.152,3.1v.131h7.029a3.5,3.5,0,0,1,3.479-3.495,3.5,3.5,0,0,1,3.479,3.495h7.029v-.131a3.5,3.5,0,0,1,2.151-3.1c.014-.006.029-.008.042-.014a3.427,3.427,0,0,1,.592-.18,3.5,3.5,0,0,1,.458-.047c.076-.005.15-.022.227-.022a3.5,3.5,0,0,1,3.485,3.5h7.016a3.5,3.5,0,0,1,3.485-3.5,3.5,3.5,0,0,1,3.485,3.5h7.015a3.5,3.5,0,0,1,3.485-3.5,3.5,3.5,0,0,1,3.485,3.5h7.015v-.224a3.487,3.487,0,0,1,3.474-3.273,3.5,3.5,0,0,1,3.5,3.5h6.993V1389.7a3.5,3.5,0,0,1-3.5-3.5,3.5,3.5,0,0,1,3.5-3.5v-7.186a3.5,3.5,0,0,1-3.5-3.5,3.5,3.5,0,0,1,3.5-3.5v-7.186a3.5,3.5,0,0,1-3.5-3.5,3.5,3.5,0,0,1,3.5-3.5v-7.186a3.5,3.5,0,0,1-3.5-3.5,3.5,3.5,0,0,1,3.5-3.5v-7.186a3.5,3.5,0,0,1-3.5-3.5,3.5,3.5,0,0,1,3.5-3.5V1318.8a3.5,3.5,0,0,1-3.494-3.468,3.5,3.5,0,0,1,3.494-3.468v-7.186a3.5,3.5,0,0,1-3.5-3.5,3.5,3.5,0,0,1,3.5-3.5V1290.5a3.5,3.5,0,0,1-3.5-3.5,3.5,3.5,0,0,1,3.5-3.5v-7.186a3.5,3.5,0,0,1-3.5-3.5,3.5,3.5,0,0,1,3.5-3.5v-7.186a3.5,3.5,0,0,1-3.5-3.5,3.5,3.5,0,0,1,3.5-3.5v-7.186a3.5,3.5,0,0,1-3.5-3.5A3.5,3.5,0,0,1-884.667,1240.973Z" transform="translate(1022.961 -1228.938)" fill="#68888e" opacity="0.4"/>
    <path id="Path_9528" data-name="Path 9528" d="M-905.244,1222.354v-7.09h-6.993a3.5,3.5,0,0,1-3.5,3.5,3.487,3.487,0,0,1-3.474-3.273v-.223h-7.015a3.5,3.5,0,0,1-3.485,3.5,3.5,3.5,0,0,1-3.485-3.5h-7.015a3.5,3.5,0,0,1-3.485,3.5,3.5,3.5,0,0,1-3.485-3.5h-7.016a3.5,3.5,0,0,1-3.486,3.5c-.077,0-.151-.017-.227-.022a3.6,3.6,0,0,1-.458-.047,3.425,3.425,0,0,1-.592-.18c-.014-.005-.029-.007-.043-.013a3.5,3.5,0,0,1-2.151-3.1v-.131h-7.029a3.5,3.5,0,0,1-3.479,3.495,3.5,3.5,0,0,1-3.479-3.495h-7.015a3.5,3.5,0,0,1-2.791,3.425c-.053.011-.11.009-.164.017a3.5,3.5,0,0,1-.53.053,3.5,3.5,0,0,1-3.485-3.5h-7.015a3.5,3.5,0,0,1-3.485,3.5,3.5,3.5,0,0,1-3.485-3.5h-7.016a3.5,3.5,0,0,1-3.485,3.5,3.5,3.5,0,0,1-3.485-3.5h-6.993a3.5,3.5,0,0,1-3.5,3.5,3.5,3.5,0,0,1-3.5-3.5h-6.993v7.09a3.5,3.5,0,0,1,3.5,3.5,3.5,3.5,0,0,1-3.5,3.5v7.186a3.5,3.5,0,0,1,3.5,3.5,3.5,3.5,0,0,1-3.5,3.5v7.186a3.5,3.5,0,0,1,3.5,3.5,3.5,3.5,0,0,1-3.5,3.5v7.186a3.5,3.5,0,0,1,3.5,3.5,3.5,3.5,0,0,1-3.5,3.5v7.186a3.5,3.5,0,0,1,3.5,3.5,3.5,3.5,0,0,1-3.5,3.5v7.186a3.5,3.5,0,0,1,3.494,3.468,3.5,3.5,0,0,1-3.494,3.468v7.186a3.5,3.5,0,0,1,3.5,3.5,3.5,3.5,0,0,1-3.5,3.5v7.186a3.5,3.5,0,0,1,3.5,3.5,3.5,3.5,0,0,1-3.5,3.5v7.186a3.5,3.5,0,0,1,3.5,3.5,3.5,3.5,0,0,1-3.5,3.5v7.186a3.5,3.5,0,0,1,3.5,3.5,3.5,3.5,0,0,1-3.5,3.5v7.186a3.5,3.5,0,0,1,3.5,3.5,3.5,3.5,0,0,1-3.5,3.5v7.089h6.993a3.5,3.5,0,0,1,3.5-3.5,3.5,3.5,0,0,1,3.5,3.5h6.993a3.5,3.5,0,0,1,3.485-3.495,3.5,3.5,0,0,1,3.485,3.495h7.016a3.5,3.5,0,0,1,3.485-3.495,3.5,3.5,0,0,1,3.485,3.495h7.015a3.5,3.5,0,0,1,3.486-3.495c.078,0,.151.017.227.022a3.452,3.452,0,0,1,.458.047,3.416,3.416,0,0,1,.592.18c.013.005.029.008.042.013a3.5,3.5,0,0,1,2.152,3.1v.131h7.029a3.5,3.5,0,0,1,3.479-3.495,3.5,3.5,0,0,1,3.479,3.495h7.029v-.131a3.5,3.5,0,0,1,2.151-3.1c.014-.006.029-.008.043-.013a3.413,3.413,0,0,1,.592-.18,3.447,3.447,0,0,1,.458-.047c.076-.005.15-.022.227-.022a3.5,3.5,0,0,1,3.486,3.495h7.016a3.5,3.5,0,0,1,3.485-3.495,3.5,3.5,0,0,1,3.485,3.495h7.015a3.5,3.5,0,0,1,3.485-3.495,3.5,3.5,0,0,1,3.485,3.495h7.015v-.224a3.486,3.486,0,0,1,3.474-3.273,3.5,3.5,0,0,1,3.5,3.5h6.993v-7.089a3.5,3.5,0,0,1-3.5-3.5,3.5,3.5,0,0,1,3.5-3.5V1356.9a3.5,3.5,0,0,1-3.5-3.5,3.5,3.5,0,0,1,3.5-3.5v-7.186a3.5,3.5,0,0,1-3.5-3.5,3.5,3.5,0,0,1,3.5-3.5v-7.186a3.5,3.5,0,0,1-3.5-3.5,3.5,3.5,0,0,1,3.5-3.5v-7.186a3.5,3.5,0,0,1-3.5-3.5,3.5,3.5,0,0,1,3.5-3.5v-7.186a3.5,3.5,0,0,1-3.494-3.468,3.5,3.5,0,0,1,3.494-3.468v-7.186a3.5,3.5,0,0,1-3.5-3.5,3.5,3.5,0,0,1,3.5-3.5v-7.186a3.5,3.5,0,0,1-3.5-3.5,3.5,3.5,0,0,1,3.5-3.5V1257.7a3.5,3.5,0,0,1-3.5-3.5,3.5,3.5,0,0,1,3.5-3.5v-7.186a3.5,3.5,0,0,1-3.5-3.5,3.5,3.5,0,0,1,3.5-3.5v-7.186a3.5,3.5,0,0,1-3.5-3.5A3.5,3.5,0,0,1-905.244,1222.354Z" transform="translate(1038.073 -1215.264)" fill="#e9eef4"/>
    <g id="Group_3976" data-name="Group 3976" transform="translate(10.648 8.929)">
      <g id="Group_3975" data-name="Group 3975" clip-path="url(#clip-path)">
        <g id="Group_3974" data-name="Group 3974" transform="translate(-69.765 -11.164)">
          <g id="Group_3941" data-name="Group 3941">
            <g id="Group_3940" data-name="Group 3940" clip-path="url(#clip-path-2)">
              <rect id="Rectangle_1221" data-name="Rectangle 1221" width="251.063" height="167.375" fill="url(#linear-gradient)"/>
              <g id="Group_3936" data-name="Group 3936" transform="translate(17.337 11.556)">
                <path id="Path_9529" data-name="Path 9529" d="M-1148.832,1313.867a5.034,5.034,0,0,0-4.727-3.307,5.022,5.022,0,0,0-3.619,1.536,3.844,3.844,0,0,0-3.074-1.536,3.839,3.839,0,0,0-1.849.472,6.858,6.858,0,0,0-5.945-3.437,6.851,6.851,0,0,0-5.606,2.908,5.012,5.012,0,0,0-2.95-.959,5.04,5.04,0,0,0-4.621,3.03,3.834,3.834,0,0,0-2.58-1,3.847,3.847,0,0,0-3.6,2.487l-7.966,1.142h51.468Z" transform="translate(1195.366 -1292.392)" fill="#fff" opacity="0.3" style="mix-blend-mode: overlay;isolation: isolate"/>
                <path id="Path_9530" data-name="Path 9530" d="M-837.756,1256.63a5.034,5.034,0,0,0-4.727-3.307,5.024,5.024,0,0,0-3.619,1.536,3.844,3.844,0,0,0-3.074-1.536,3.835,3.835,0,0,0-1.848.472,6.858,6.858,0,0,0-5.945-3.437,6.851,6.851,0,0,0-5.606,2.908,5.012,5.012,0,0,0-2.95-.959,5.04,5.04,0,0,0-4.621,3.03,3.834,3.834,0,0,0-2.58-1,3.848,3.848,0,0,0-3.6,2.488l-7.966,1.142h51.468Z" transform="translate(966.918 -1250.358)" fill="#fff" opacity="0.3" style="mix-blend-mode: overlay;isolation: isolate"/>
                <path id="Path_9531" data-name="Path 9531" d="M-562.5,1316.808a5.035,5.035,0,0,1,4.727-3.307,5.022,5.022,0,0,1,3.618,1.536,3.844,3.844,0,0,1,3.074-1.536,3.837,3.837,0,0,1,1.849.472,6.857,6.857,0,0,1,5.945-3.437,6.852,6.852,0,0,1,5.606,2.908,5.01,5.01,0,0,1,2.95-.959,5.04,5.04,0,0,1,4.621,3.03,3.836,3.836,0,0,1,2.58-1,3.848,3.848,0,0,1,3.6,2.488l7.966,1.142h-51.468Z" transform="translate(734.227 -1294.552)" fill="#fff" opacity="0.3" style="mix-blend-mode: overlay;isolation: isolate"/>
              </g>
              <g id="Group_3939" data-name="Group 3939" transform="translate(-1.545 -2.55)">
                <g id="Group_3937" data-name="Group 3937">
                  <path id="Path_9532" data-name="Path 9532" d="M-1266.456,1197.251v61.982a23.737,23.737,0,0,0,12.5-20.91,23.634,23.634,0,0,0-3.846-12.952,18.98,18.98,0,0,0,11.242-9.2,19.52,19.52,0,0,0,13.509,5.41,19.594,19.594,0,0,0,17.977-11.8,17.649,17.649,0,0,0,9.934,3.042,17.721,17.721,0,0,0,15.163-8.535,15.04,15.04,0,0,0,9.792,3.609,15.106,15.106,0,0,0,14.429-10.643Z" transform="translate(1266.456 -1197.251)" opacity="0.42" fill="url(#linear-gradient-2)" style="mix-blend-mode: overlay;isolation: isolate"/>
                  <path id="Path_9533" data-name="Path 9533" d="M-1266.456,1197.251V1212.4a19.013,19.013,0,0,0,7.414-7.567,19.52,19.52,0,0,0,13.509,5.41,19.594,19.594,0,0,0,17.977-11.8,17.649,17.649,0,0,0,9.934,3.042,17.659,17.659,0,0,0,11.505-4.24Z" transform="translate(1266.456 -1197.251)" opacity="0.42" fill="url(#linear-gradient-3)" style="mix-blend-mode: overlay;isolation: isolate"/>
                  <path id="Path_9534" data-name="Path 9534" d="M-1266.456,1307.451c.008-.249.018-.5.018-.748q0-.459-.018-.913Z" transform="translate(1266.456 -1276.96)" opacity="0.42" fill="url(#linear-gradient-4)" style="mix-blend-mode: overlay;isolation: isolate"/>
                </g>
                <g id="Group_3938" data-name="Group 3938" transform="translate(157.556)">
                  <path id="Path_9535" data-name="Path 9535" d="M-572.595,1197.251v61.982a23.737,23.737,0,0,1-12.5-20.91,23.631,23.631,0,0,1,3.846-12.952,18.98,18.98,0,0,1-11.242-9.2,19.521,19.521,0,0,1-13.509,5.41,19.594,19.594,0,0,1-17.977-11.8,17.65,17.65,0,0,1-9.934,3.042,17.721,17.721,0,0,1-15.163-8.535,15.041,15.041,0,0,1-9.793,3.609,15.105,15.105,0,0,1-14.429-10.643Z" transform="translate(673.29 -1197.251)" opacity="0.42" fill="url(#linear-gradient-5)" style="mix-blend-mode: overlay;isolation: isolate"/>
                  <path id="Path_9536" data-name="Path 9536" d="M-461.017,1197.251V1212.4a19.009,19.009,0,0,1-7.414-7.567,19.521,19.521,0,0,1-13.509,5.41,19.594,19.594,0,0,1-17.977-11.8,17.649,17.649,0,0,1-9.934,3.042,17.659,17.659,0,0,1-11.505-4.24Z" transform="translate(561.713 -1197.251)" opacity="0.42" fill="url(#linear-gradient-6)" style="mix-blend-mode: overlay;isolation: isolate"/>
                  <path id="Path_9537" data-name="Path 9537" d="M-294.242,1307.451c-.008-.249-.018-.5-.018-.748q0-.459.018-.913Z" transform="translate(394.938 -1276.96)" opacity="0.42" fill="url(#linear-gradient-7)" style="mix-blend-mode: overlay;isolation: isolate"/>
                </g>
              </g>
            </g>
          </g>
          <g id="Group_3973" data-name="Group 3973">
            <g id="Group_3972" data-name="Group 3972" clip-path="url(#clip-path-2)">
              <g id="Group_3945" data-name="Group 3945" transform="translate(10.621 21.089)">
                <g id="Group_3942" data-name="Group 3942" transform="translate(28.377 8.22)" opacity="0.68">
                  <path id="Path_9538" data-name="Path 9538" d="M-1037.828,1353.986a.452.452,0,0,0-.462-.441v-2.16h.231v-.464h-2.727v-7.255c-.015.007-.033.006-.033-.014v-3.2c0-.02.018-.022.033-.016v-2.416h.871v-.462h-.451v-1.593a.326.326,0,0,0-.316-.23V1335h.391a.1.1,0,0,0,.1-.1.1.1,0,0,0-.1-.1h-.062c0-.753-.54-.775-.54-.774a.531.531,0,0,0-.5-.454v-.349a.041.041,0,0,0-.042-.039.041.041,0,0,0-.042.039v.349a.532.532,0,0,0-.5.454l-.05.006.018,0v-3.667h.393v-.2H-1042v-.733c.822-1.062.155-3.037-1.751-3.625h0v-.436h-.116v-.33h.116v-.123h-.457a1.719,1.719,0,0,1-.544-.686,1.766,1.766,0,0,1-.043-.194h.09a.082.082,0,0,0,.085-.081.083.083,0,0,0-.085-.08h-.113c0-.018,0-.036-.006-.053h.066a.063.063,0,0,0,.064-.062.063.063,0,0,0-.064-.061h-.076c-.007-.112-.007-.187-.007-.187a.311.311,0,0,0,.282-.328.3.3,0,0,0-.271-.3v-.013l-.005-.1h.076a.063.063,0,0,0,.064-.061.063.063,0,0,0-.064-.061h-.082l0-.069h.139a.083.083,0,0,0,.085-.081.083.083,0,0,0-.085-.081h-.148l-.074-1.336-.075,1.336h-.148a.082.082,0,0,0-.084.081.082.082,0,0,0,.084.081h.139l0,.069h-.083a.063.063,0,0,0-.064.061.063.063,0,0,0,.064.061h.076l-.005.1v.013a.3.3,0,0,0-.271.3.311.311,0,0,0,.283.328s0,.075-.007.187h-.076a.063.063,0,0,0-.064.061.063.063,0,0,0,.064.062h.066l0,.053h-.114a.082.082,0,0,0-.084.08.082.082,0,0,0,.084.081h.091a1.957,1.957,0,0,1-.044.194,1.711,1.711,0,0,1-.544.686h-.456v.123h.115v.33h-.115v.431a2.541,2.541,0,0,0-1.749,3.63v.733h-.393v.2h.393v3.667l.011,0-.044-.006a.531.531,0,0,0-.5-.454v-.349a.041.041,0,0,0-.042-.039.04.04,0,0,0-.041.039v.349a.53.53,0,0,0-.5.454s-.54,0-.54.774h-.062a.1.1,0,0,0-.1.1.1.1,0,0,0,.1.1h.391v.728a.327.327,0,0,0-.316.23v1.593h-.45v.462h.872v2.909c.015-.006.033-.005.033.015v2.782c0,.02-.018.023-.033.017v4.532h0v-.721h-.388a.326.326,0,0,0-.316-.23v-.728h.39a.1.1,0,0,0,.1-.1.1.1,0,0,0-.1-.1h-.061c0-.753-.54-.775-.54-.774a.532.532,0,0,0-.5-.453v-.349a.041.041,0,0,0-.042-.04.041.041,0,0,0-.042.04v.349a.532.532,0,0,0-.5.453s-.54,0-.54.774h-.061a.1.1,0,0,0-.1.1.1.1,0,0,0,.1.1h.39v.728a.326.326,0,0,0-.315.23h-.529a.326.326,0,0,0-.316-.23v-.728h.391a.1.1,0,0,0,.1-.1.1.1,0,0,0-.1-.1h-.061c0-.753-.541-.775-.541-.774a.531.531,0,0,0-.5-.453v-.349a.041.041,0,0,0-.042-.04.041.041,0,0,0-.042.04v.349a.531.531,0,0,0-.5.453s-.54,0-.54.774h-.061a.1.1,0,0,0-.1.1.1.1,0,0,0,.1.1h.39v.728a.327.327,0,0,0-.316.23h-.529a.326.326,0,0,0-.316-.23v-.728h.391a.1.1,0,0,0,.1-.1.1.1,0,0,0-.1-.1h-.062c0-.753-.54-.775-.54-.774a.532.532,0,0,0-.5-.453v-.349a.041.041,0,0,0-.042-.04.04.04,0,0,0-.041.04v.349a.531.531,0,0,0-.5.453s-.54,0-.54.774H-1057a.1.1,0,0,0-.1.1.1.1,0,0,0,.1.1h.391v.728a.326.326,0,0,0-.316.23h-.53a.325.325,0,0,0-.315-.23v-.728h.391a.1.1,0,0,0,.1-.1.1.1,0,0,0-.1-.1h-.061c0-.753-.54-.775-.54-.774a.532.532,0,0,0-.5-.453v-.349a.041.041,0,0,0-.042-.04.04.04,0,0,0-.041.04v.349a.531.531,0,0,0-.5.453s-.54,0-.54.774h-.062a.1.1,0,0,0-.1.1.1.1,0,0,0,.1.1h.391v.728a.326.326,0,0,0-.316.23h-.529a.326.326,0,0,0-.316-.23.344.344,0,0,1,.1.015v-.743h.292a.1.1,0,0,0,.1-.1.1.1,0,0,0-.1-.1h-.061a.78.78,0,0,0-.25-.65c.006.005.012.007.018.013v-3.869h.016V1340.5h-.016v-2.384a.573.573,0,0,1-.082.008.472.472,0,0,0,.1-.019v-.853a.471.471,0,0,0-.1-.019.461.461,0,0,1,.082.008V1335.4c0-1.2,3.338-4.23-.076-5.876a1.362,1.362,0,0,0-.768-1.336v-1.136a.489.489,0,0,0-.394-.44l.009,0v-3.017s.05-.528-.384-.528-.384.528-.384.528v3.017l.009,0a.488.488,0,0,0-.393.44v1.136a1.361,1.361,0,0,0-.768,1.336,2.522,2.522,0,0,0-1.443,1.423v-.005a10.529,10.529,0,0,0-5.9-4.232h.02a.437.437,0,0,0,.161-.338.46.46,0,0,0-.471-.449.46.46,0,0,0-.471.449.437.437,0,0,0,0,.065l-.01-.006a.49.49,0,0,0,.005-.059.461.461,0,0,0-.472-.449.478.478,0,0,0-.319.123s0-.007.008-.01a17.8,17.8,0,0,1-2.672-2.075l.034,0v-.943c0-.612,1.707-1.683-.04-2.525a.7.7,0,0,0-.392-.682v-.581c0-.116-.094-.19-.214-.227.005,0,.012,0,.017,0v-1.542s.026-.271-.2-.271-.2.271-.2.271v1.542c.006,0,.013,0,.019,0-.121.037-.215.11-.215.227v.581a.7.7,0,0,0-.393.682c-1.746.841-.039,1.931-.039,2.525v.943a.23.23,0,0,1,.041,0,17.769,17.769,0,0,1-2.673,2.077s0,.007.007.009a.478.478,0,0,0-.318-.122.46.46,0,0,0-.471.449.491.491,0,0,0,0,.059l-.01.006a.406.406,0,0,0,.006-.065.461.461,0,0,0-.472-.449.46.46,0,0,0-.471.449.44.44,0,0,0,.16.338,10.523,10.523,0,0,0-5.882,4.213c0,.006,0,.011,0,.017a2.528,2.528,0,0,0-1.44-1.415,1.362,1.362,0,0,0-.768-1.336v-1.136a.49.49,0,0,0-.4-.441l.013,0v-3.017s.05-.528-.385-.528-.384.528-.384.528v3.017l.008,0a.488.488,0,0,0-.393.44v1.136a1.363,1.363,0,0,0-.768,1.336c-3.415,1.646-.076,4.677-.076,5.876v1.845a.443.443,0,0,1,.081-.008.475.475,0,0,0-.123.024v.844a.466.466,0,0,0,.123.024.549.549,0,0,1-.081-.008v2.384h-.042v1.387h.042v3.861l.014-.01a.785.785,0,0,0-.246.655h-.062a.1.1,0,0,0-.1.1.1.1,0,0,0,.1.1h.293v.743a.333.333,0,0,1,.1-.015.326.326,0,0,0-.315.23h-.529a.325.325,0,0,0-.315-.23v-.728h.39a.1.1,0,0,0,.1-.1.1.1,0,0,0-.1-.1h-.061c0-.753-.54-.775-.54-.774a.532.532,0,0,0-.5-.453v-.349a.041.041,0,0,0-.042-.04.041.041,0,0,0-.042.04v.349a.532.532,0,0,0-.5.453s-.54,0-.54.774h-.061a.1.1,0,0,0-.1.1.1.1,0,0,0,.1.1h.391v.728a.326.326,0,0,0-.316.23h-.529a.326.326,0,0,0-.316-.23v-.728h.391a.1.1,0,0,0,.1-.1.1.1,0,0,0-.1-.1h-.062c0-.753-.54-.775-.539-.774a.532.532,0,0,0-.5-.453v-.349a.04.04,0,0,0-.041-.04.041.041,0,0,0-.042.04v.349a.531.531,0,0,0-.5.453s-.54,0-.54.774h-.062a.1.1,0,0,0-.1.1.1.1,0,0,0,.1.1h.391v.728a.328.328,0,0,0-.316.23h-.528a.326.326,0,0,0-.316-.23v-.728h.391a.1.1,0,0,0,.1-.1.1.1,0,0,0-.1-.1h-.062c0-.753-.54-.775-.54-.774a.532.532,0,0,0-.5-.453v-.349a.041.041,0,0,0-.042-.04.04.04,0,0,0-.041.04v.349a.531.531,0,0,0-.5.453s-.54,0-.54.774h-.062a.1.1,0,0,0-.1.1.1.1,0,0,0,.1.1h.391v.728a.326.326,0,0,0-.316.23h-.529a.327.327,0,0,0-.316-.23v-.728h.391a.1.1,0,0,0,.1-.1.1.1,0,0,0-.1-.1h-.062c0-.753-.54-.775-.54-.774a.533.533,0,0,0-.5-.453v-.349a.041.041,0,0,0-.042-.04.041.041,0,0,0-.042.04v.349a.532.532,0,0,0-.5.453s-.54,0-.54.774h-.061a.1.1,0,0,0-.1.1.1.1,0,0,0,.1.1h.391v.728a.326.326,0,0,0-.316.23h-.388v.721h0v-4.846h.5v-.463h-.5v-4.946h.871v-.462h-.45v-1.593a.327.327,0,0,0-.315-.23V1335h.39a.1.1,0,0,0,.1-.1.1.1,0,0,0-.1-.1h-.062c0-.753-.54-.775-.54-.774a.532.532,0,0,0-.5-.454v-.349a.04.04,0,0,0-.042-.039.041.041,0,0,0-.041.039v.349a.531.531,0,0,0-.5.454l-.05.006.018,0v-3.667h.392v-.2h-.392v-.733c.822-1.062.155-3.037-1.751-3.625h0v-.436h-.115v-.33h.115v-.123H-1106a1.713,1.713,0,0,1-.544-.686,1.957,1.957,0,0,1-.044-.194h.091a.082.082,0,0,0,.085-.081.082.082,0,0,0-.085-.08h-.113c0-.018,0-.036-.006-.053h.066a.063.063,0,0,0,.064-.062.063.063,0,0,0-.064-.061h-.076c-.007-.112-.007-.187-.007-.187a.311.311,0,0,0,.282-.328.3.3,0,0,0-.271-.3v-.013l-.005-.1h.076a.063.063,0,0,0,.064-.061.063.063,0,0,0-.064-.061h-.083l0-.069h.139a.082.082,0,0,0,.085-.081.083.083,0,0,0-.085-.081h-.148l-.074-1.336-.075,1.336h-.148a.083.083,0,0,0-.085.081.083.083,0,0,0,.085.081h.139l0,.069h-.082a.063.063,0,0,0-.065.061.063.063,0,0,0,.065.061h.075l-.005.1v.013a.3.3,0,0,0-.271.3.311.311,0,0,0,.283.328s0,.075-.007.187h-.075a.063.063,0,0,0-.065.061.063.063,0,0,0,.065.062h.065c0,.017,0,.035-.005.053h-.114a.083.083,0,0,0-.085.08.082.082,0,0,0,.085.081h.091a1.957,1.957,0,0,1-.044.194,1.712,1.712,0,0,1-.544.686h-.456v.123h.115v.33h-.115v.431a2.541,2.541,0,0,0-1.749,3.63v.733h-.393v.2h.393v3.667l.011,0-.044-.006a.531.531,0,0,0-.5-.454v-.349a.041.041,0,0,0-.042-.039.041.041,0,0,0-.041.039v.349a.531.531,0,0,0-.5.454s-.54,0-.54.774h-.062a.1.1,0,0,0-.1.1.1.1,0,0,0,.1.1h.391v.728a.327.327,0,0,0-.316.23v1.593h-.45v.462h.872v4.946h-.5v.463h.5v7.5h-2.728v.464h.187v2.16h.044a.452.452,0,0,0-.462.441.451.451,0,0,0,.462.44h-.044l.032.013.008,0,.082.038.021.011c.034.017.073.038.118.063l.034.021c.044.026.092.055.144.089l.047.032q.077.053.162.118l.057.045c.056.045.115.095.174.149l.065.06c.059.056.119.118.18.183l.069.074c.06.068.121.143.181.221A5.42,5.42,0,0,1-1111,1358.1h-.112a.3.3,0,0,0-.306.3.3.3,0,0,0,.306.3h.181c.016.216.026.44.026.677v9.687h70.161v-9.687a6.078,6.078,0,0,1,1.108-3.818c.066-.087.133-.169.2-.245l.057-.062c.064-.069.128-.135.191-.194l.057-.052c.062-.056.122-.108.181-.154l.052-.041c.058-.044.113-.085.166-.12l.045-.03c.052-.035.1-.065.146-.091l.033-.019c.045-.026.084-.046.119-.063l.02-.01.082-.038.008,0,.032-.013h-.045A.451.451,0,0,0-1037.828,1353.986Z" transform="translate(1113.817 -1317.192)" fill="url(#linear-gradient-8)"/>
                  <path id="Path_9539" data-name="Path 9539" d="M-968.192,1350.051a.463.463,0,0,0-.083.016.463.463,0,0,1,.08-.016h.007a.448.448,0,0,1,.093.019A.454.454,0,0,0-968.192,1350.051Z" transform="translate(1006.934 -1341.323)" fill="url(#linear-gradient-9)"/>
                </g>
                <g id="Group_3943" data-name="Group 3943" transform="translate(0 15.611)">
                  <path id="Path_9540" data-name="Path 9540" d="M-1209.31,1351.321h5.886a2.332,2.332,0,0,0-1.527-3.411l-.02.015.019-.015a5.628,5.628,0,0,1-1.005-.778c-.325-.337-.377-.509-.47-.544v-.231h.05s.072,0,.072-.066a.066.066,0,0,0-.068-.066h-.054v-.506h.019s.051,0,.051-.047a.047.047,0,0,0-.048-.047h-.022v-.538a.066.066,0,0,0-.062-.068.066.066,0,0,0-.063.068v.538h-.022a.047.047,0,0,0-.048.047c0,.047.052.047.052.047h.019v.506h-.054a.066.066,0,0,0-.068.066c0,.065.072.066.072.066h.05v.231c-.092.035-.144.206-.469.544a5.621,5.621,0,0,1-1,.778l.017.014-.018-.014a2.332,2.332,0,0,0-1.527,3.411Zm4.337-3.4-.027.019-.019.011Zm-.087.053-.015.008-.014.007Zm-.124.06-.033.015-.041.015Zm-.166.063-.065.023-.083.022C-1205.442,1348.133-1205.394,1348.118-1205.348,1348.1Zm-.179.054c-.068.017-.142.035-.225.05l-.028,0C-1205.686,1348.194-1205.6,1348.175-1205.527,1348.156Zm-.974.11c.133,0,.255-.006.369-.015l-.03,0c-.1.008-.218.012-.339.012s-.216,0-.314-.01l-.054-.005C-1206.756,1348.26-1206.635,1348.266-1206.5,1348.266Zm-.723-.057h0c-.088-.014-.164-.032-.236-.051C-1207.39,1348.176-1207.311,1348.193-1207.224,1348.209Zm-.28-.063-.062-.017c-.023-.007-.038-.014-.06-.022C-1207.587,1348.12-1207.549,1348.133-1207.5,1348.146Zm-.227-.077-.033-.012-.035-.017Zm-.15-.068-.024-.011-.023-.014Zm-.081-.047-.017-.01-.023-.017Z" transform="translate(1212.714 -1345.019)" fill="url(#linear-gradient-10)"/>
                  <path id="Path_9541" data-name="Path 9541" d="M-1048.527,1351.321h5.886a2.332,2.332,0,0,0-1.528-3.411l-.018.014.017-.014a5.623,5.623,0,0,1-1.005-.778c-.325-.337-.377-.509-.47-.544v-.231h.051s.072,0,.072-.066a.066.066,0,0,0-.068-.066h-.054v-.506h.019s.052,0,.052-.047a.047.047,0,0,0-.048-.047h-.022v-.538a.066.066,0,0,0-.062-.068.066.066,0,0,0-.062.068v.538h-.022a.047.047,0,0,0-.048.047c0,.047.052.047.052.047h.019v.506h-.054a.066.066,0,0,0-.068.066c0,.065.072.066.072.066h.051v.231c-.092.035-.145.206-.47.544a5.628,5.628,0,0,1-1.005.778l.02.015-.02-.015a2.332,2.332,0,0,0-1.527,3.411Zm4.336-3.395-.023.017-.017.01Zm-.075.048-.023.014-.025.012Zm-.125.063-.038.019-.036.013Zm-.176.069c-.021.007-.037.015-.061.022l-.063.017C-1044.645,1348.133-1044.606,1348.12-1044.567,1348.107Zm-.165.05c-.072.019-.148.037-.236.051h0C-1044.882,1348.193-1044.8,1348.176-1044.732,1348.157Zm-.96.109c.133,0,.255-.006.368-.015l-.054.005c-.1.006-.2.01-.314.01s-.235,0-.339-.012l-.029,0C-1045.947,1348.26-1045.826,1348.266-1045.693,1348.266Zm-.723-.057-.026,0c-.083-.015-.156-.032-.225-.05C-1046.591,1348.175-1046.508,1348.194-1046.415,1348.209Zm-.282-.062-.083-.022-.064-.023C-1046.8,1348.118-1046.752,1348.133-1046.7,1348.148Zm-.243-.08-.037-.014-.03-.014Zm-.166-.074-.014-.007-.014-.008Zm-.068-.037-.02-.011-.028-.019Z" transform="translate(1094.639 -1345.019)" fill="url(#linear-gradient-10)"/>
                  <path id="Path_9542" data-name="Path 9542" d="M-1168.73,1400.695v-8.108a3.459,3.459,0,0,1,1.068-2.24v-.785h-.292v-3.487h.292v-.785h-.834v-5.857a2.538,2.538,0,0,1,.834-1.9v-.785h-.292v-3.487h.292v-.785h-1.437V1369.6h.459v-.852h-6.154v.852h.46v2.879h-1.437v.785h.291v3.487h-.291v.785h.019a2.538,2.538,0,0,1,.834,1.9v5.857h-.853v.785h.291v3.487h-.291v.785a3.459,3.459,0,0,1,1.068,2.24v1.961h-36.732v-1.961a3.459,3.459,0,0,1,1.068-2.24v-.785h-.292v-3.487h.292v-.785h-.853v-5.857a2.539,2.539,0,0,1,.834-1.9h.019v-.785h-.292v-3.487h.292v-.785h-1.437V1369.6h.46v-.852h-6.155v.852h.46v2.879h-1.437v.785h.292v3.487h-.292v.785a2.538,2.538,0,0,1,.834,1.9v5.857h-.834v.785h.292v3.487h-.292v.785a3.459,3.459,0,0,1,1.068,2.24v8.108h-3.239l.21.4v1.827l.254.416v3.713h-.254v1.828l.254.415v3.686h-.254v1.828s2.364.543,2.364,2.085h-.442v.738h.55v.738h-.55v.737h.442v19.682h50.012v-19.682h.442v-.737h-.55v-.738h.55v-.738h-.442c0-1.542,2.364-2.085,2.364-2.085v-1.828h-.255V1409.3l.255-.415v-1.828h-.255v-3.713l.255-.416V1401.1l.21-.4Z" transform="translate(1220.651 -1362.445)" fill="url(#linear-gradient-12)"/>
                </g>
                <path id="Path_9543" data-name="Path 9543" d="M-682.859,1351.917a.763.763,0,0,0-.764-.764.764.764,0,0,0-.764.764.763.763,0,0,0-.764-.764v-.458a.343.343,0,0,0,.344-.342.339.339,0,0,0-.294-.333c.575-1.535,1.481-5.6-3.965-7.651a13.64,13.64,0,0,1-2.434-1.885c-.786-.817-.912-1.231-1.137-1.316v-.558h.122s.173,0,.173-.159a.161.161,0,0,0-.164-.16h-.132v-1.222h.047s.123,0,.123-.114a.113.113,0,0,0-.116-.113h-.053v-1.3a.159.159,0,0,0-.151-.165.158.158,0,0,0-.15.165v1.3h-.053a.113.113,0,0,0-.117.113c0,.112.125.114.125.114h.046v1.222h-.131a.162.162,0,0,0-.165.16c0,.157.175.159.175.159h.121v.558c-.225.085-.349.5-1.137,1.316a13.582,13.582,0,0,1-2.433,1.885l.026.021c-5.474,2.016-4.573,6.109-4.011,7.635a.339.339,0,0,0-.273.329.343.343,0,0,0,.343.342v.458a.763.763,0,0,0-.764.764.763.763,0,0,0-.764-.764.763.763,0,0,0-.763.764.764.764,0,0,0-.764-.764.763.763,0,0,0-.764.764.764.764,0,0,0-.764-.764.762.762,0,0,0-.762.748v-13.664a.76.76,0,0,0-.012-.123s0,.007,0,.01v-6.358h.292v-.908h-.292s.345-2.146,1.586-2.146c0,0,.088-.586-1.282-.895V1322.8h.684v-.908h-.684s.179-2.365-1.538-2.791c.039.01.082.016.12.028a1.122,1.122,0,0,0-.344-.745l.011.007h0s.071-1.475-.347-1.894c-.419.419-.348,1.894-.348,1.894h0l.013-.007a1.113,1.113,0,0,0-.344.746c.037-.012.079-.018.118-.027-1.717.426-1.537,2.79-1.537,2.79h-.684v.908h.684v5.021c-1.371.309-1.283.895-1.283.895,1.241,0,1.586,2.146,1.586,2.146h-.292v.908h.292v5.741c.006,0,.011.006.017.009a.752.752,0,0,0-.239-.042.756.756,0,0,0-.347.087l.014-.009a8.281,8.281,0,0,0-4.408-3.285s-3.868-2.625-4.245-4.192v-.663h.145s.208,0,.208-.19a.192.192,0,0,0-.2-.191h-.157v-1.453h.056s.147,0,.147-.136a.136.136,0,0,0-.139-.134h-.064l-.178-2.893-.179,2.893h-.064a.136.136,0,0,0-.138.134c0,.134.147.136.147.136h.056v1.453h-.157a.192.192,0,0,0-.2.191c0,.187.208.19.208.19h.145v.663c-.3,1.777-4.245,4.192-4.245,4.192a8.278,8.278,0,0,0-4.407,3.285c.006,0,.01.007.015.01a.754.754,0,0,0-.349-.088.76.76,0,0,0-.265.05l.009,0v-5.752h.292v-.908h-.292s.345-2.146,1.586-2.146c0,0,.088-.586-1.283-.895V1322.8h.685v-.908h-.685s.18-2.366-1.539-2.791c.039.01.082.016.12.028a1.114,1.114,0,0,0-.344-.746l.013.007h0s.071-1.475-.348-1.894c-.418.419-.347,1.894-.347,1.894h0l.012-.007a1.116,1.116,0,0,0-.343.745c.036-.012.077-.017.114-.026-1.713.428-1.534,2.789-1.534,2.789h-.684v.908h.684v5.021c-1.371.309-1.282.895-1.282.895,1.24,0,1.586,2.146,1.586,2.146h-.292v.908h.292l.024,6.471v13.68a.763.763,0,0,0-.764-.764.764.764,0,0,0-.764.764.763.763,0,0,0-.764-.764.763.763,0,0,0-.763.764.764.764,0,0,0-.764-.764.763.763,0,0,0-.764.764.763.763,0,0,0-.763-.764v-.458a.342.342,0,0,0,.342-.342.342.342,0,0,0-.342-.343h-.088c.549-1.689,1.085-5.463-4.1-7.373l.025-.021a13.584,13.584,0,0,1-2.433-1.885c-.787-.817-.912-1.231-1.137-1.316v-.558h.122s.175,0,.175-.159a.162.162,0,0,0-.165-.16h-.132v-1.222h.046s.125,0,.125-.114a.114.114,0,0,0-.118-.113h-.053v-1.3a.158.158,0,0,0-.15-.165.159.159,0,0,0-.151.165v1.3h-.053a.113.113,0,0,0-.116.113c0,.112.123.114.123.114h.046v1.222h-.132a.161.161,0,0,0-.164.16c0,.157.173.159.173.159h.122v.558c-.224.085-.351.5-1.136,1.316a13.627,13.627,0,0,1-2.435,1.885c-5.388,2.03-4.558,6.03-3.982,7.6a.341.341,0,0,0-.028.135.342.342,0,0,0,.211.316c.06.132.1.207.1.207h.032v.277a.763.763,0,0,0-.764.764.763.763,0,0,0-.764-.764.763.763,0,0,0-.746.6v20.306h72.659v-20.9a.757.757,0,0,0-.133-.013A.763.763,0,0,0-682.859,1351.917Z" transform="translate(878.407 -1308.46)" opacity="0.62" fill="url(#linear-gradient-13)"/>
                <g id="Group_3944" data-name="Group 3944" transform="translate(184.508 16.235)">
                  <path id="Path_9544" data-name="Path 9544" d="M-523.849,1376.161l.005-1.888h0v19.345h-.366l.339.93h.026v7.488h-.366l.358,1.1h.007v11.518l-.485,0,.478,1.028h.007v3.579h17.688a181.58,181.58,0,0,1-.192-18.266,59.829,59.829,0,0,1,.821-7.747c.055-.284.11-.561.169-.829a5.789,5.789,0,0,1,5.279-4.861,5.765,5.765,0,0,1,5.968,4.24c.06.2.117.406.173.615.033.124.065.251.1.379.038.151.076.3.113.456.092.394.177.807.26,1.229l.02.129h0c1.421,7.431,1.375,18.748,1.28,24.656h16.487v-3.58h.079l.478-1.028-.557,0V1403.14h.079l.358-1.1h-.438v-7.488h.091l.347-.93h-.438v-18.153l.008.842.971-1.561,1.2-1.921v-2.068h-4.695v-5.639h-1.7v-4.448h-2.44v-7.346h-7.85v-1.758h-2.111a9.935,9.935,0,0,0-5.1-2.774v-.95a14.963,14.963,0,0,0-4.279-.464,14.819,14.819,0,0,0-3.141.4v.99c.4-.109.8-.193,1.2-.259a10.019,10.019,0,0,0-5.778,3.052H-511.4v1.758h-7.638v7.346h-1.7v4.448h-2.122v5.639h-3.156v2.068l1.1,1.692Zm23.278-27.825a14.916,14.916,0,0,1,3.172.454,16.264,16.264,0,0,0-3.925-.465c-.08,0-.163,0-.245,0C-501.223,1348.318-500.889,1348.323-500.571,1348.335Z" transform="translate(526.016 -1347.37)" fill="url(#linear-gradient-14)"/>
                </g>
                <path id="Path_9545" data-name="Path 9545" d="M-756.522,1314.774l-.417,11.236h4.783l-.416-11.237c.018-.025.326-.422,1.346-.422,0,0-.227-.5-1.391-.761l-.307-8.3h.176a.3.3,0,0,0,.3-.3.3.3,0,0,0-.3-.3h-.2l-.1-2.159c.041-.052.36-.413,1.339-.413,0,0,.075-.5-1.089-.76V1297.1h.581v-.771h-.581a3.113,3.113,0,0,0-1.3-2.944c.037.023.077.044.112.067h0s.009-.669-.351-.882a.513.513,0,0,1,.054.03h0a4.655,4.655,0,0,0-.116-1.265c0,.006,0,.011.007.017l-.186-5.109-.184,5.109,0,0a4.7,4.7,0,0,0-.112,1.251h0a.522.522,0,0,1,.053-.029c-.358.214-.349.881-.349.881h0c.029-.02.064-.038.1-.057a3.118,3.118,0,0,0-1.287,2.934h-.581v.771h.581v4.265c-1.165.262-1.09.76-1.09.76,1.054,0,1.347.423,1.347.423h.023l-.076,2.149h-.2a.3.3,0,0,0-.3.3.3.3,0,0,0,.3.3h.177l-.308,8.3c-1.165.262-1.39.761-1.39.761C-756.815,1314.351-756.522,1314.774-756.522,1314.774Z" transform="translate(880.793 -1286.247)" opacity="0.62" fill="url(#linear-gradient-15)"/>
                <path id="Path_9546" data-name="Path 9546" d="M-496.907,1314.774l-.417,11.236h4.783l-.415-11.237c.018-.025.326-.422,1.346-.422,0,0-.227-.5-1.391-.761l-.307-8.3h.176a.3.3,0,0,0,.3-.3.3.3,0,0,0-.3-.3h-.2l-.1-2.159c.041-.052.36-.413,1.338-.413,0,0,.075-.5-1.089-.76V1297.1h.581v-.771h-.581a3.113,3.113,0,0,0-1.3-2.944c.037.023.077.044.112.067h0s.009-.669-.351-.882a.519.519,0,0,1,.054.03h0a4.653,4.653,0,0,0-.116-1.265c0,.006,0,.011.007.017l-.186-5.109-.184,5.109,0,0a4.7,4.7,0,0,0-.112,1.251h0a.558.558,0,0,1,.053-.029c-.358.214-.349.881-.349.881h0c.03-.02.064-.038.1-.057a3.118,3.118,0,0,0-1.287,2.934h-.581v.771h.581v4.265c-1.165.262-1.09.76-1.09.76,1.054,0,1.347.423,1.347.423h.023l-.076,2.149h-.2a.3.3,0,0,0-.3.3.3.3,0,0,0,.3.3h.177l-.308,8.3c-1.165.262-1.39.761-1.39.761C-497.2,1314.351-496.907,1314.774-496.907,1314.774Z" transform="translate(690.136 -1286.247)" opacity="0.62" fill="url(#linear-gradient-15)"/>
              </g>
              <rect id="Rectangle_1223" data-name="Rectangle 1223" width="251.398" height="59.92" transform="translate(-0.167 109.136)" fill="url(#linear-gradient-17)"/>
              <g id="Group_3946" data-name="Group 3946" transform="translate(23.986 16.694)">
                <path id="Path_9547" data-name="Path 9547" d="M-636.3,1339.371a5.138,5.138,0,0,0-3.825,1.379,6.956,6.956,0,0,0-1.317-.965,6.3,6.3,0,0,0-2.117-.751.151.151,0,0,0-.164.1.15.15,0,0,0,.089.193h0a5.783,5.783,0,0,1,1.769,1.065,5.813,5.813,0,0,1,1.267,1.538.546.546,0,0,0,.224.219.546.546,0,0,0,.738-.229,4.422,4.422,0,0,1,3.339-2.247.152.152,0,0,0,.133-.138A.151.151,0,0,0-636.3,1339.371Z" transform="translate(783.609 -1320.616)" fill="url(#linear-gradient-18)"/>
                <path id="Path_9548" data-name="Path 9548" d="M-385.089,1301.563a5.139,5.139,0,0,0-3.825,1.379,6.948,6.948,0,0,0-1.317-.965,6.3,6.3,0,0,0-2.117-.751.151.151,0,0,0-.164.1.15.15,0,0,0,.089.193h0a5.782,5.782,0,0,1,1.769,1.065,5.806,5.806,0,0,1,1.267,1.538.549.549,0,0,0,.224.219.547.547,0,0,0,.738-.229,4.422,4.422,0,0,1,3.339-2.247.152.152,0,0,0,.133-.138A.151.151,0,0,0-385.089,1301.563Z" transform="translate(599.123 -1292.851)" fill="url(#linear-gradient-18)"/>
                <path id="Path_9549" data-name="Path 9549" d="M-1096.231,1270.037a5.138,5.138,0,0,0-3.825,1.379,6.937,6.937,0,0,0-1.318-.965,6.29,6.29,0,0,0-2.117-.751.15.15,0,0,0-.164.1.15.15,0,0,0,.089.193h0a5.789,5.789,0,0,1,1.77,1.065,5.811,5.811,0,0,1,1.267,1.538.547.547,0,0,0,.224.219.547.547,0,0,0,.738-.229,4.422,4.422,0,0,1,3.339-2.247.152.152,0,0,0,.133-.138A.151.151,0,0,0-1096.231,1270.037Z" transform="translate(1121.372 -1269.699)" fill="url(#linear-gradient-18)"/>
                <path id="Path_9550" data-name="Path 9550" d="M-910.551,1306.165a5.137,5.137,0,0,0-3.825,1.379,6.962,6.962,0,0,0-1.317-.965,6.3,6.3,0,0,0-2.117-.751.151.151,0,0,0-.164.1.151.151,0,0,0,.089.193h0a5.784,5.784,0,0,1,1.769,1.064,5.814,5.814,0,0,1,1.267,1.538.548.548,0,0,0,.224.219.547.547,0,0,0,.738-.229,4.422,4.422,0,0,1,3.339-2.247.152.152,0,0,0,.133-.138A.15.15,0,0,0-910.551,1306.165Z" transform="translate(985.012 -1296.23)" fill="url(#linear-gradient-18)"/>
                <path id="Path_9551" data-name="Path 9551" d="M-607.631,1270.372a5.136,5.136,0,0,0-3.825,1.379,6.959,6.959,0,0,0-1.317-.965,6.3,6.3,0,0,0-2.117-.751.151.151,0,0,0-.164.1.15.15,0,0,0,.089.193h0a5.78,5.78,0,0,1,1.77,1.064,5.817,5.817,0,0,1,1.267,1.538.547.547,0,0,0,.224.219.546.546,0,0,0,.738-.229,4.422,4.422,0,0,1,3.339-2.247.152.152,0,0,0,.133-.138A.15.15,0,0,0-607.631,1270.372Z" transform="translate(762.554 -1269.945)" fill="url(#linear-gradient-18)"/>
                <path id="Path_9552" data-name="Path 9552" d="M-1162.9,1381.91a5.137,5.137,0,0,0-3.736,1.6,6.933,6.933,0,0,0-1.372-.885,6.3,6.3,0,0,0-2.158-.624.151.151,0,0,0-.158.106.151.151,0,0,0,.1.188h0a5.786,5.786,0,0,1,1.83.958,5.817,5.817,0,0,1,1.356,1.46.548.548,0,0,0,.236.206.547.547,0,0,0,.724-.273,4.422,4.422,0,0,1,3.2-2.441.151.151,0,0,0,.125-.146A.15.15,0,0,0-1162.9,1381.91Z" transform="translate(1170.334 -1352.104)" fill="url(#linear-gradient-23)"/>
              </g>
              <g id="Group_3971" data-name="Group 3971" transform="translate(-3.335 33.81)">
                <path id="Path_9553" data-name="Path 9553" d="M-1150.993,1485.62c2.3-3.38,1.7-8.658-1.7-9.362s-3.627,1.894-4.438,2.544-.433.974-.433.974a1.314,1.314,0,0,1,.758.325c.216.27,0,.758.325,1.028s.6.271.541-.433,1.481-2.318,2.293-2.1,2.3,1.689.9,4.222c-1.548,2.8-5.086,3.13-7.2,3.076s-3.193-1.245-4.763-.65a4.072,4.072,0,0,0-2.165,1.895c-4.6-.758-8.66.758-8.931,2.706s2.057,1.624,2.057,1.624.271.65-1.949.217a10.71,10.71,0,0,0-7.986,1.336c-.049.017-.1.032-.146.052a3.641,3.641,0,0,0-.488.28l-.479.306a15.854,15.854,0,0,0-1.877,1.391,9.113,9.113,0,0,0-2.7,3.914,21.71,21.71,0,0,0-.7,4.514,6.01,6.01,0,0,1-1.443,3.686,1.893,1.893,0,0,0-.684-.039,1.282,1.282,0,0,0-1,.6,2.171,2.171,0,0,0-.128,1.161,1.233,1.233,0,0,1-.4,1.09,5.414,5.414,0,0,0,1.57-.877c.422-.321,1.192-1.23.959-1.7a4.8,4.8,0,0,0,1.306-1.568,8.088,8.088,0,0,0,.754-2.212c.144-.741.268-1.472.413-2.184a11.893,11.893,0,0,1,.563-2.042,7.8,7.8,0,0,1,1.922-2.771,10.359,10.359,0,0,0-.263,3.828c.071.756.193,1.506.329,2.252a11.574,11.574,0,0,1,.089,2.11.216.216,0,0,1,0,.063c0,.005,0,.012,0,.017-.163,1.462-3.951,5.792-4.059,6.225s-1.516,3.734-.974,4.979,4.384,1.083,5.359.92,1.083-.7.758-1.3-1.515-1.624-1.353-2.707,4.06-2.869,4.114-2.652a38.46,38.46,0,0,1,.325,4.222c-.054.812-.379,1.678.65,1.948a13.7,13.7,0,0,0,4.6.217c.487-.271-.054-.812-.65-1.678a3.958,3.958,0,0,1-.6-2.652c0-1.137-.054-3.844.758-4.493s5.25-1.786,5.954-1.516-.379,2.815-.379,2.815-.975,5.521-1.137,5.954-.7,2.49-.433,2.922a4.831,4.831,0,0,0,2.436,1.137,7.73,7.73,0,0,0,3.68-.379c.541-.271.216-.975-.271-1.624a6.577,6.577,0,0,1-1.137-2,27.707,27.707,0,0,1,1.137-2.761c.487-1.245.649-2.923,1.083-2.869s.325.595.92,1.786a14.377,14.377,0,0,1,1.245,3.626c.054.649-.325,1.624-.217,2s.866.812,1.84.974,3.626.054,4.114-.432-.054-.975-.7-1.732a4.3,4.3,0,0,1-1.028-2.6c-.192-1.033-.468-2.054-.732-3.07-.37-1.422-.754-2.842-1.18-4.249a23.406,23.406,0,0,1-.823-5.8,8.772,8.772,0,0,1,.46-3.625,5.532,5.532,0,0,1,5.075-3.377,1.83,1.83,0,0,0,1.189-.38c.03-.023.461-.438.45-.445l-1.083-.65a5.016,5.016,0,0,0,3.365-1.138,9.435,9.435,0,0,0,1.533-1.607,10.215,10.215,0,0,1-2.873,1.172,9.109,9.109,0,0,1-1.324.11A22.343,22.343,0,0,0-1150.993,1485.62Z" transform="translate(1214.834 -1438.42)" fill="url(#linear-gradient-24)"/>
                <g id="Group_3949" data-name="Group 3949" transform="translate(195.706 50.642)">
                  <path id="Path_9554" data-name="Path 9554" d="M-528.964,1590.237s-4.2.181-4.38,2.844a11.975,11.975,0,0,1,5.388,1.38.478.478,0,0,0,.734-.414l-.027-1.553Z" transform="translate(534.157 -1572.854)" fill="url(#linear-gradient-25)"/>
                  <g id="Group_3947" data-name="Group 3947" transform="translate(3.312)">
                    <path id="Path_9555" data-name="Path 9555" d="M-486.083,1545.017l-1.839-14.061a6.523,6.523,0,0,0-1.674-3.578,8.038,8.038,0,0,0-5.906-2.586h-20.485a3.245,3.245,0,0,0-2.837,1.674l.32.013c.729.029.628.48.47,1.225l-1.377,5.285a1.965,1.965,0,0,1-1.844,1.284H-523.2a5.791,5.791,0,0,0-.407,4.746,26.24,26.24,0,0,0,6.473,9.477h1.49l.858-.994h17.405a1.68,1.68,0,0,0,1.567-1.074l.583-1.506a1.259,1.259,0,0,1,1.175-.806h3.84a1.26,1.26,0,0,1,1.114.671l.537,1.017a1.321,1.321,0,0,0,1.169.7A1.322,1.322,0,0,0-486.083,1545.017Zm-11.243-10.094a3.992,3.992,0,0,1-1.169,2.823l-.42.42a6.354,6.354,0,0,0-1.861,4.486c0,.871,0,1.792,0,2.476a1.1,1.1,0,0,1-1.083,1.1c-.977.016-2.073,0-2.86-.01a1.1,1.1,0,0,1-1.079-1.1v-10.468a.647.647,0,0,0-.647-.647h-.9a.647.647,0,0,0-.647.647V1545.4a1.1,1.1,0,0,1-1.1,1.1h-5.478a2.6,2.6,0,0,1-2.6-2.6l.01-10.9c0-.646.356-5.464,2.464-5.83l15.781-.182a1.579,1.579,0,0,1,1.6,1.578Z" transform="translate(523.934 -1524.793)" fill="url(#linear-gradient-26)"/>
                  </g>
                  <g id="Group_3948" data-name="Group 3948" transform="translate(0 17.95)">
                    <path id="Path_9556" data-name="Path 9556" d="M-533.311,1600.776a3.093,3.093,0,0,0-3.093,3.093,3.093,3.093,0,0,0,3.093,3.093,3.093,3.093,0,0,0,3.093-3.093A3.093,3.093,0,0,0-533.311,1600.776Z" transform="translate(536.404 -1598.543)" fill="url(#linear-gradient-27)"/>
                    <path id="Path_9557" data-name="Path 9557" d="M-416.134,1592.371a4.209,4.209,0,0,0-4.209,4.209,4.209,4.209,0,0,0,4.209,4.209,4.209,4.209,0,0,0,4.209-4.209A4.209,4.209,0,0,0-416.134,1592.371Z" transform="translate(451.171 -1592.371)" fill="url(#linear-gradient-28)"/>
                  </g>
                  <path id="Path_9558" data-name="Path 9558" d="M-478.077,1581.4h-4.7a.94.94,0,0,1-.937-.937h0a.94.94,0,0,1,.937-.937h4.7a.94.94,0,0,1,.937.937h0A.94.94,0,0,1-478.077,1581.4Z" transform="translate(497.706 -1564.989)" fill="url(#linear-gradient-29)"/>
                  <rect id="Rectangle_1224" data-name="Rectangle 1224" width="4.831" height="6.05" transform="translate(14.855 15.984)" fill="url(#linear-gradient-30)"/>
                  <rect id="Rectangle_1225" data-name="Rectangle 1225" width="1.045" height="20.258" transform="translate(20.563 1.264)" fill="url(#linear-gradient-31)"/>
                </g>
                <g id="Group_3950" data-name="Group 3950" transform="translate(0 20.918)">
                  <path id="Path_9559" data-name="Path 9559" d="M-409.187,1418.434l1.576-1.363a10.874,10.874,0,0,0-8.708,4.582,17.384,17.384,0,0,1,8.188-7.623c-4.276-3.276-8.175,1.546-8.175,1.546l.291-1.437c-3.013,1.923-2.881,5.61-2.364,8.093-2.58-6.573-8.032-5.45-7.349-5.274a2.428,2.428,0,0,1,1.247.97,6.39,6.39,0,0,0-2.889-.338,4.7,4.7,0,0,0-4.306,3.855c6.6-1.882,10.87.534,12.818,2.125l-.038.052a9.819,9.819,0,0,0-5.227-1.284c-4.346-.038-7.853,4.133-6.591,3.242a3.607,3.607,0,0,1,2.47-.691s-2.763.079-5.042,3.889a6.365,6.365,0,0,0-.456,5.117c.77-1.346,2.491-3.233,5.841-5.878a17.73,17.73,0,0,1,2.911-1.864c-3.462,2.871-3.956,7.318-3.35,6.445a10.3,10.3,0,0,1,1.633-1.8c-.529.6-1.2,1.83-1.158,4.242.061,3.964,4.308,5.108,4.308,5.108s-3.077-10.772,4.7-15.53l.006.005a3.177,3.177,0,0,1,.711-.436c.427.567.839,1.143,1.231,1.731a40.707,40.707,0,0,1,2.457,4.234,48.229,48.229,0,0,1,3.442,9.076c1.693,6.237,3.709,21.288,2.036,29.322l6.779-.251c0-8.955-2.838-24.2-5.639-30.188a59.8,59.8,0,0,0-4.946-8.959,42.245,42.245,0,0,0-3.15-3.993c-.373-.417-.758-.822-1.148-1.221,8.187.484,13.111,5.358,14.043,7.076l.1-.026c.266-4.436-3.824-6.226-3.824-6.226l1.442-.059a8.127,8.127,0,0,0-6.269-2.682c.366-.073.746-.14,1.142-.2,4.759-.7,10.018,2.069,10.018,2.069C-401.368,1416.287-409.187,1418.434-409.187,1418.434Z" transform="translate(656.955 -1412.889)" fill="url(#linear-gradient-32)"/>
                  <path id="Path_9560" data-name="Path 9560" d="M-1264.428,1418.434l-1.576-1.363a10.874,10.874,0,0,1,8.708,4.582,17.382,17.382,0,0,0-8.188-7.623c4.276-3.276,8.175,1.546,8.175,1.546l-.291-1.437c3.013,1.923,2.881,5.61,2.364,8.093,2.58-6.573,8.032-5.45,7.349-5.274a2.429,2.429,0,0,0-1.247.97,6.391,6.391,0,0,1,2.889-.338,4.7,4.7,0,0,1,4.305,3.855c-6.6-1.882-10.87.534-12.818,2.125l.038.052a9.818,9.818,0,0,1,5.227-1.284c4.346-.038,7.853,4.133,6.591,3.242a3.607,3.607,0,0,0-2.47-.691s2.764.079,5.042,3.889a6.364,6.364,0,0,1,.455,5.117c-.77-1.346-2.491-3.233-5.841-5.878a17.732,17.732,0,0,0-2.911-1.864c3.462,2.871,3.957,7.318,3.35,6.445a10.3,10.3,0,0,0-1.633-1.8c.529.6,1.2,1.83,1.158,4.242-.062,3.964-4.308,5.108-4.308,5.108s3.077-10.772-4.7-15.53l-.005.005a3.18,3.18,0,0,0-.711-.436c-.427.567-.839,1.143-1.231,1.731a40.7,40.7,0,0,0-2.458,4.234,48.24,48.24,0,0,0-3.442,9.076c-1.693,6.237-3.709,21.288-2.036,29.322l-6.779-.251c0-8.955,2.838-24.2,5.639-30.188a59.816,59.816,0,0,1,4.947-8.959,42.23,42.23,0,0,1,3.15-3.993c.373-.417.758-.822,1.148-1.221-8.187.484-13.111,5.358-14.043,7.076l-.1-.026c-.266-4.436,3.824-6.226,3.824-6.226l-1.442-.059a8.127,8.127,0,0,1,6.269-2.682c-.366-.073-.746-.14-1.143-.2-4.759-.7-10.018,2.069-10.018,2.069C-1272.247,1416.287-1264.428,1418.434-1264.428,1418.434Z" transform="translate(1273.195 -1412.889)" fill="url(#linear-gradient-32)"/>
                </g>
                <g id="Group_3967" data-name="Group 3967" transform="translate(7.864 66.646)">
                  <g id="Group_3961" data-name="Group 3961">
                    <g id="Group_3951" data-name="Group 3951">
                      <path id="Path_9561" data-name="Path 9561" d="M-1243.581,1595.017a14.069,14.069,0,0,1,.177-2.732,15.4,15.4,0,0,1,.68-2.628,15.177,15.177,0,0,1,1.121-2.441,13.765,13.765,0,0,1,1.526-2.169,18.032,18.032,0,0,0-1.062,2.384,17.053,17.053,0,0,0-.684,2.475,16.84,16.84,0,0,0-.3,2.516,18.11,18.11,0,0,0,.052,2.5Z" transform="translate(1243.589 -1585.047)" fill="url(#linear-gradient-34)"/>
                    </g>
                    <g id="Group_3952" data-name="Group 3952" transform="translate(0.566 4.024)">
                      <path id="Path_9562" data-name="Path 9562" d="M-1241.457,1605.49a16.648,16.648,0,0,1,.919-1.475c.337-.472.683-.935,1.056-1.376s.752-.873,1.161-1.278.822-.8,1.263-1.166c-.292.493-.579.981-.854,1.474s-.544.984-.791,1.485-.5,1-.724,1.5-.456,1.005-.682,1.505Z" transform="translate(1241.457 -1600.196)" fill="url(#linear-gradient-35)"/>
                    </g>
                    <g id="Group_3953" data-name="Group 3953" transform="translate(3.333 4.171)">
                      <path id="Path_9563" data-name="Path 9563" d="M-1231.04,1605.575a11.994,11.994,0,0,0,1.371-.9,10.666,10.666,0,0,0,1.257-1.1,10.83,10.83,0,0,0,1.094-1.315,11.764,11.764,0,0,0,.9-1.508,8.2,8.2,0,0,1-.447,1.746,9.381,9.381,0,0,1-.808,1.649,9.585,9.585,0,0,1-1.134,1.483,8.567,8.567,0,0,1-1.438,1.226Z" transform="translate(1231.04 -1600.751)" fill="url(#linear-gradient-36)"/>
                    </g>
                    <g id="Group_3954" data-name="Group 3954" transform="translate(7.81 4.782)">
                      <path id="Path_9564" data-name="Path 9564" d="M-1214.186,1607.578a9.607,9.607,0,0,0,.932-.906,8.241,8.241,0,0,0,.816-1.06,8.428,8.428,0,0,0,.655-1.212,9.333,9.333,0,0,0,.468-1.348,6.192,6.192,0,0,1,.028,1.475,7.178,7.178,0,0,1-.3,1.479,7.354,7.354,0,0,1-.619,1.411,6.551,6.551,0,0,1-.938,1.253Z" transform="translate(1214.186 -1603.051)" fill="url(#linear-gradient-37)"/>
                    </g>
                    <g id="Group_3955" data-name="Group 3955" transform="translate(11.963 6.453)">
                      <path id="Path_9565" data-name="Path 9565" d="M-1197.18,1612.737a4.366,4.366,0,0,1-.6-.751,5.324,5.324,0,0,1-.427-.847,5.115,5.115,0,0,1-.261-.892,4.168,4.168,0,0,1-.082-.906c.179.243.358.472.544.687a7.822,7.822,0,0,0,.58.6,7.776,7.776,0,0,0,.61.515c.2.163.414.307.617.454Z" transform="translate(1198.55 -1609.341)" fill="url(#linear-gradient-38)"/>
                    </g>
                    <g id="Group_3956" data-name="Group 3956" transform="translate(46.334 2.403)">
                      <path id="Path_9566" data-name="Path 9566" d="M-1069.153,1600.784a3.563,3.563,0,0,0,1.435-.98,4.752,4.752,0,0,0,.966-1.621,6.764,6.764,0,0,0,.364-1.981,12.214,12.214,0,0,0-.115-2.107,9.325,9.325,0,0,1,.625,2.072,6.809,6.809,0,0,1,.033,2.24,5.474,5.474,0,0,1-.861,2.183,4.45,4.45,0,0,1-1.888,1.592Z" transform="translate(1069.153 -1594.095)" fill="url(#linear-gradient-39)"/>
                    </g>
                    <g id="Group_3957" data-name="Group 3957" transform="translate(50.142 2.489)">
                      <path id="Path_9567" data-name="Path 9567" d="M-1054.814,1601.355a11.2,11.2,0,0,0,.876-1.536,10.392,10.392,0,0,0,.631-1.692,10.563,10.563,0,0,0,.337-1.815,11.232,11.232,0,0,0,.018-1.895,8.311,8.311,0,0,1,.494,1.881,9.429,9.429,0,0,1,.073,1.982,9.619,9.619,0,0,1-.35,1.986,8.685,8.685,0,0,1-.8,1.882Z" transform="translate(1054.814 -1594.418)" fill="url(#linear-gradient-40)"/>
                    </g>
                    <g id="Group_3958" data-name="Group 3958" transform="translate(59.638 0.562)">
                      <path id="Path_9568" data-name="Path 9568" d="M-1013.38,1596.314a15.357,15.357,0,0,1-2.013-1.916,16.864,16.864,0,0,1-1.636-2.221,16.642,16.642,0,0,1-1.238-2.436,15.084,15.084,0,0,1-.8-2.58,20.2,20.2,0,0,0,1.255,2.348,18.96,18.96,0,0,0,1.541,2.123,18.784,18.784,0,0,0,1.795,1.87,20.457,20.457,0,0,0,2,1.606Z" transform="translate(1019.066 -1587.162)" fill="url(#linear-gradient-41)"/>
                    </g>
                    <g id="Group_3959" data-name="Group 3959" transform="translate(58.11 3.527)">
                      <path id="Path_9569" data-name="Path 9569" d="M-1021.632,1604.562a9.546,9.546,0,0,1-1.217-1.35,10.82,10.82,0,0,1-.943-1.532,10.6,10.6,0,0,1-.665-1.646,9.313,9.313,0,0,1-.363-1.709,14.9,14.9,0,0,0,.828,1.5,13.105,13.105,0,0,0,.983,1.351,12.918,12.918,0,0,0,1.122,1.194,15.482,15.482,0,0,0,1.225,1.045Z" transform="translate(1024.819 -1598.324)" fill="url(#linear-gradient-42)"/>
                    </g>
                    <g id="Group_3960" data-name="Group 3960" transform="translate(55.379 4.783)">
                      <path id="Path_9570" data-name="Path 9570" d="M-1035.1,1608.047c.167-.38.336-.764.48-1.161s.281-.8.4-1.218.2-.843.287-1.279.13-.88.171-1.335a7.96,7.96,0,0,1,.341,1.334,9.393,9.393,0,0,1,.129,1.392,9.58,9.58,0,0,1-.082,1.413,8.11,8.11,0,0,1-.319,1.392Z" transform="translate(1035.1 -1603.054)" fill="url(#linear-gradient-43)"/>
                    </g>
                  </g>
                  <g id="Group_3966" data-name="Group 3966" transform="translate(179.681 0.647)">
                    <g id="Group_3962" data-name="Group 3962">
                      <path id="Path_9571" data-name="Path 9571" d="M-567.128,1597.008a13.329,13.329,0,0,1,.382-2.692,14.588,14.588,0,0,1,.894-2.542,14.37,14.37,0,0,1,1.333-2.307,13.022,13.022,0,0,1,1.725-1.983,16.846,16.846,0,0,0-1.284,2.242,16.011,16.011,0,0,0-.9,2.376,15.788,15.788,0,0,0-.509,2.453,16.836,16.836,0,0,0-.136,2.469Z" transform="translate(567.128 -1587.484)" fill="url(#linear-gradient-44)"/>
                    </g>
                    <g id="Group_3963" data-name="Group 3963" transform="translate(1.692 3.651)">
                      <path id="Path_9572" data-name="Path 9572" d="M-560.758,1606.6a9.431,9.431,0,0,1,.559-1.565,10.913,10.913,0,0,1,.805-1.437,10.71,10.71,0,0,1,1-1.282,9.24,9.24,0,0,1,1.176-1.09c-.275.455-.528.913-.754,1.379a14.122,14.122,0,0,0-.592,1.416,14.028,14.028,0,0,0-.43,1.443c-.123.482-.212.968-.294,1.45Z" transform="translate(560.758 -1601.231)" fill="url(#linear-gradient-45)"/>
                    </g>
                    <g id="Group_3964" data-name="Group 3964" transform="translate(54.016 0.147)">
                      <path id="Path_9573" data-name="Path 9573" d="M-360,1597.546a11.105,11.105,0,0,0-.068-2.567,11.3,11.3,0,0,0-.66-2.534,11.484,11.484,0,0,0-1.243-2.36,11.432,11.432,0,0,0-1.8-2.047,9.838,9.838,0,0,1,2.2,1.723,11.069,11.069,0,0,1,1.692,2.285,11.268,11.268,0,0,1,1.072,2.682,10.287,10.287,0,0,1,.314,2.913Z" transform="translate(363.768 -1588.037)" fill="url(#linear-gradient-46)"/>
                    </g>
                    <g id="Group_3965" data-name="Group 3965" transform="translate(51.963 3.582)">
                      <path id="Path_9574" data-name="Path 9574" d="M-367.869,1607.1c-.2-.546-.406-1.091-.652-1.625a16.277,16.277,0,0,0-.813-1.578,16.413,16.413,0,0,0-.994-1.505c-.361-.487-.753-.959-1.169-1.419a11.3,11.3,0,0,1,1.539,1.065,12.926,12.926,0,0,1,1.375,1.3,13.111,13.111,0,0,1,1.181,1.509,11.455,11.455,0,0,1,.931,1.691Z" transform="translate(371.497 -1600.971)" fill="url(#linear-gradient-47)"/>
                    </g>
                  </g>
                </g>
                <g id="Group_3970" data-name="Group 3970" transform="translate(69.877)">
                  <g id="Group_3968" data-name="Group 3968" transform="translate(14.338 18.969)">
                    <path id="Path_9575" data-name="Path 9575" d="M-949.627,1431.554h-.677l-.213-7.937h.51a.327.327,0,0,0,.327-.327v-.1a.327.327,0,0,0-.327-.327h-.53l-.213-7.937h0l-.021-.756h.384a.327.327,0,0,0,.327-.327v-.1a.327.327,0,0,0-.327-.328h-.243v-2.6l-.007-.428h.25a.327.327,0,0,0,.327-.327v-.1a.327.327,0,0,0-.327-.327h-.137a2.184,2.184,0,0,0-1.817-2.146v-1.555a.378.378,0,0,0-.232-.348.381.381,0,0,0-.148-.03.379.379,0,0,0-.38.378v1.555a2.184,2.184,0,0,0-1.817,2.146h-.137a.327.327,0,0,0-.327.327v.1a.327.327,0,0,0,.327.327h.243v3.024h-.243a.327.327,0,0,0-.327.328v.1a.327.327,0,0,0,.327.327h.384l-.02.756h0l-.213,7.938h-.53a.327.327,0,0,0-.327.327v.1a.327.327,0,0,0,.327.327h.51l-.213,7.938h-.677a.327.327,0,0,0-.328.327v.1a.327.327,0,0,0,.328.327h.657l-.123,4.565h-.534a.327.327,0,0,0-.328.327v.1a.327.327,0,0,0,.328.327h6.189a.327.327,0,0,0,.327-.327v-.1a.327.327,0,0,0-.327-.327h-.534l-.123-4.565h.657a.327.327,0,0,0,.327-.327v-.1A.327.327,0,0,0-949.627,1431.554Zm-4.045-18.521h-.95v-1.512a.379.379,0,0,1,.38-.378.379.379,0,0,1,.38.378h.19Zm1.521,0h-1.141v-1.512h.19a.379.379,0,0,1,.38-.378.379.379,0,0,1,.38.378h.19Zm1.33,0h-.95v-1.512h.19a.379.379,0,0,1,.38-.378.379.379,0,0,1,.38.378Z" transform="translate(956.143 -1405.553)" fill="url(#linear-gradient-48)"/>
                    <path id="Path_9576" data-name="Path 9576" d="M-639.181,1431.554h-.677l-.214-7.937h.51a.327.327,0,0,0,.327-.327v-.1a.327.327,0,0,0-.327-.327h-.531l-.213-7.937h0l-.021-.756h.384a.327.327,0,0,0,.327-.327v-.1a.327.327,0,0,0-.327-.328h-.243v-2.6l-.007-.428h.25a.327.327,0,0,0,.327-.327v-.1a.327.327,0,0,0-.327-.327h-.137a2.184,2.184,0,0,0-1.817-2.146v-1.555a.378.378,0,0,0-.232-.348.381.381,0,0,0-.148-.03.379.379,0,0,0-.38.378v1.555a2.184,2.184,0,0,0-1.817,2.146h-.137a.327.327,0,0,0-.327.327v.1a.327.327,0,0,0,.327.327h.243v3.024h-.243a.327.327,0,0,0-.327.328v.1a.327.327,0,0,0,.327.327h.384l-.021.756h0l-.213,7.938h-.531a.327.327,0,0,0-.327.327v.1a.327.327,0,0,0,.327.327h.51l-.213,7.938h-.677a.327.327,0,0,0-.327.327v.1a.327.327,0,0,0,.327.327h.657l-.123,4.565h-.534a.327.327,0,0,0-.327.327v.1a.327.327,0,0,0,.327.327h6.189a.327.327,0,0,0,.327-.327v-.1a.327.327,0,0,0-.327-.327h-.534l-.123-4.565h.657a.327.327,0,0,0,.327-.327v-.1A.327.327,0,0,0-639.181,1431.554Zm-4.045-18.521h-.95v-1.512a.379.379,0,0,1,.38-.378.379.379,0,0,1,.38.378h.19Zm1.521,0h-1.141v-1.512h.19a.379.379,0,0,1,.38-.378.379.379,0,0,1,.38.378h.19Zm1.331,0h-.95v-1.512h.19a.379.379,0,0,1,.38-.378.379.379,0,0,1,.38.378Z" transform="translate(728.157 -1405.553)" fill="url(#linear-gradient-48)"/>
                  </g>
                  <g id="Group_3969" data-name="Group 3969">
                    <path id="Path_9577" data-name="Path 9577" d="M-998.89,1465.024h-1.167l-.368-13.684h.879a.564.564,0,0,0,.564-.564v-.175a.564.564,0,0,0-.564-.564h-.915l-.368-13.684h0l-.035-1.3h.662a.564.564,0,0,0,.564-.564v-.175a.564.564,0,0,0-.564-.564h-.419v-4.476l-.013-.737h.432a.564.564,0,0,0,.564-.564v-.175a.564.564,0,0,0-.564-.564h-.236a3.766,3.766,0,0,0-3.132-3.7v-2.681a.651.651,0,0,0-.4-.6.659.659,0,0,0-.255-.051.653.653,0,0,0-.655.652v2.681a3.766,3.766,0,0,0-3.132,3.7h-.236a.564.564,0,0,0-.564.564v.175a.564.564,0,0,0,.564.564h.419v5.213h-.419a.564.564,0,0,0-.564.564v.175a.564.564,0,0,0,.564.564h.662l-.035,1.3h0l-.368,13.684h-.914a.564.564,0,0,0-.564.564v.175a.564.564,0,0,0,.564.564h.879l-.368,13.684h-1.167a.564.564,0,0,0-.564.564v.175a.564.564,0,0,0,.564.564h1.132l-.212,7.871h-.92a.564.564,0,0,0-.564.564v.175a.564.564,0,0,0,.564.564h10.67a.564.564,0,0,0,.564-.564v-.175a.564.564,0,0,0-.564-.564h-.92l-.212-7.871h1.132a.564.564,0,0,0,.564-.564v-.175A.564.564,0,0,0-998.89,1465.024Zm-6.974-31.93h-1.639v-2.606a.654.654,0,0,1,.656-.652.653.653,0,0,1,.655.652h.328Zm2.622,0h-1.966v-2.606h.328a.653.653,0,0,1,.655-.652.654.654,0,0,1,.656.652h.328Zm2.294,0h-1.639v-2.606h.328a.654.654,0,0,1,.656-.652.654.654,0,0,1,.656.652Z" transform="translate(1010.124 -1397.338)" fill="url(#linear-gradient-50)"/>
                    <path id="Path_9578" data-name="Path 9578" d="M-598.735,1466.162a.563.563,0,0,0,.121-.179.559.559,0,0,0,.044-.22v-.175a.564.564,0,0,0-.564-.564H-600.3l-.368-13.684h.88a.562.562,0,0,0,.4-.166.562.562,0,0,0,.165-.4h0v-.175a.564.564,0,0,0-.564-.564h-.915l-.368-13.684h0l-.035-1.3h.662a.563.563,0,0,0,.4-.165.564.564,0,0,0,.165-.4v-.175a.562.562,0,0,0-.165-.4.562.562,0,0,0-.4-.165h-.419v-5.213h.419a.564.564,0,0,0,.564-.564h0v-.175a.565.565,0,0,0-.044-.22.564.564,0,0,0-.52-.345h-.236a3.708,3.708,0,0,0-.207-1.2,3.724,3.724,0,0,0-.585-1.078c-.037-.048-.067-.1-.107-.148a3.8,3.8,0,0,0-1.588-1.1,3.815,3.815,0,0,0-.645-.172v-2.681a.647.647,0,0,0-.192-.461.654.654,0,0,0-.464-.191h0a.654.654,0,0,0-.463.191.647.647,0,0,0-.192.461v2.681a3.815,3.815,0,0,0-.645.172,3.757,3.757,0,0,0-2.487,3.528h-.236a.564.564,0,0,0-.52.345.564.564,0,0,0-.044.22v.175h0a.564.564,0,0,0,.564.564h.419v5.213h-.419a.561.561,0,0,0-.4.165.562.562,0,0,0-.165.4v.175a.563.563,0,0,0,.165.4.563.563,0,0,0,.4.165h.662l-.035,1.3h0l-.368,13.684h-.915a.564.564,0,0,0-.564.564v.175h0a.562.562,0,0,0,.165.4.561.561,0,0,0,.4.166h.88l-.368,13.684H-609.8a.564.564,0,0,0-.564.564v.175a.56.56,0,0,0,.044.22.564.564,0,0,0,.121.179.581.581,0,0,0,.087.058.555.555,0,0,0,.093.062.56.56,0,0,0,.22.044h1.132l-.212,7.871h-.92a.564.564,0,0,0-.52.345.561.561,0,0,0-.044.22v.175h0a.549.549,0,0,0,.093.292.555.555,0,0,0,.471.272h10.67a.555.555,0,0,0,.471-.272.549.549,0,0,0,.093-.292h0v-.175a.56.56,0,0,0-.044-.22.564.564,0,0,0-.52-.345h-.92l-.212-7.871h1.132A.563.563,0,0,0-598.735,1466.162Zm-7.372-33.068h-1.639v-2.606a.652.652,0,0,1,.4-.6.661.661,0,0,1,.255-.051.653.653,0,0,1,.655.652h.328Zm2.622,0h-1.966v-2.606h.328a.647.647,0,0,1,.192-.461.655.655,0,0,1,.463-.191.656.656,0,0,1,.464.191.648.648,0,0,1,.192.461h.328Zm2.294,0h-1.639v-2.606h.328a.652.652,0,0,1,.4-.6.659.659,0,0,1,.255-.051.656.656,0,0,1,.6.4.647.647,0,0,1,.052.254Z" transform="translate(716.551 -1397.338)" fill="url(#linear-gradient-50)"/>
                    <path id="Path_9579" data-name="Path 9579" d="M-867.678,1377.527a.737.737,0,0,0-.737.737v5.9h-1.475v-3.687a.737.737,0,0,0-.737-.737.737.737,0,0,0-.738.737v3.687h-10v-2.205h-2.022V1376.5h.369a.737.737,0,0,0,.737-.737.737.737,0,0,0-.737-.737,4.789,4.789,0,0,0-4.055-4.73v-3.012a.737.737,0,0,0-.738-.737h0a.737.737,0,0,0-.737.737v3.012a4.79,4.79,0,0,0-4.055,4.73.737.737,0,0,0-.737.737.737.737,0,0,0,.737.737h.369v5.461h-1.119s0-.005-.007-.007h-1.192v-7.258h-2.212v-2.212a11.262,11.262,0,0,0,1.507-2.693,10.152,10.152,0,0,0,.645-2.785c0-.01,0-.019,0-.03s0-.032,0-.047q.047-.53.045-1.08v0h0a13.958,13.958,0,0,0-1.1-5.324,16.333,16.333,0,0,0-3.977-5.646c-.427-.4-.851-.783-1.271-1.162-.134-.121-.266-.238-.4-.357q-.439-.392-.87-.771l-.43-.376q-.456-.4-.9-.783l-.379-.329h.118a.737.737,0,0,0,.738-.737.737.737,0,0,0-.738-.737h-1.811l-.208-.183-.53-.466-.272-.241-.461-.411-.287-.259q-.213-.193-.422-.385l-.29-.269c-.135-.127-.268-.253-.4-.379l-.272-.263c-.131-.129-.258-.257-.384-.384-.082-.083-.165-.167-.244-.249-.131-.137-.255-.273-.379-.409-.065-.071-.132-.142-.194-.213-.175-.2-.341-.4-.494-.592l-.012-.014a2.2,2.2,0,0,0,1.131-1.919,2.189,2.189,0,0,0-.851-1.731,2.22,2.22,0,0,0-.624-.345v-1.815a1.491,1.491,0,0,0,.4-.36,1.438,1.438,0,0,0,.335-.91,1.456,1.456,0,0,0-.437-1.04,1.5,1.5,0,0,0-.3-.23v-1.679a.736.736,0,0,0-.058-.287.735.735,0,0,0-.056-.083.749.749,0,0,0-.1-.151.746.746,0,0,0-.1-.068.732.732,0,0,0-.134-.09.766.766,0,0,0-.118-.024.706.706,0,0,0-.167-.034h0a.737.737,0,0,0-.737.738v1.679a1.468,1.468,0,0,0-.737,1.27,1.468,1.468,0,0,0,.737,1.27v1.815a2.206,2.206,0,0,0-1.475,2.077,2.2,2.2,0,0,0,1.134,1.921,40.133,40.133,0,0,1-4.848,4.716h-1.817a.737.737,0,0,0-.737.737.737.737,0,0,0,.737.737h.123c-1.343,1.162-2.778,2.407-4.249,3.777a15,15,0,0,0-5.033,12.078c0,.02,0,.041.007.061a9.939,9.939,0,0,0,.8,3.147,9.283,9.283,0,0,0,1.349,2.32v2.212h-2.212v6.6c.007-.014.029-.015.029,0v.769h-1.306s0,.007-.007.007h-1.561V1376.5h.369a.737.737,0,0,0,.737-.737.737.737,0,0,0-.737-.737,4.79,4.79,0,0,0-4.056-4.73v-3.012a.737.737,0,0,0-.737-.737h0a.737.737,0,0,0-.737.737v3.012a4.79,4.79,0,0,0-4.056,4.73.737.737,0,0,0-.737.737.737.737,0,0,0,.737.737h.369v5.578h-1.58v2.205h-10v-3.687a.738.738,0,0,0-.737-.737.738.738,0,0,0-.737.737v3.687H-954.7v-5.9a.737.737,0,0,0-.737-.737.737.737,0,0,0-.737.737v33.92h4.1v-5.956c0-3.637,3.687-3.886,3.687-4.368,0,.481,3.687.731,3.687,4.368v5.956h5.162v-5.956c0-3.637,4.056-3.886,4.056-4.368,0,.481,4.055.731,4.055,4.368v5.956H-921.1v-16.96c0-8.6,9.586-9.186,9.586-10.323,0,1.137,9.586,1.727,9.586,10.323v16.96h7.418v-.116h2.82v-5.956c0-3.637,4.056-3.886,4.056-4.368,0,.481,4.056.731,4.056,4.368v5.956h5.162v-5.956c0-3.637,3.687-3.886,3.687-4.368,0,.481,3.687.731,3.687,4.368v5.956h4.1v-33.919A.737.737,0,0,0-867.678,1377.527Zm-77.021,20.763h-7.374v-5.956c0-3.637,3.687-3.887,3.687-4.368,0,.481,3.687.731,3.687,4.368Zm11.9-20.318a.737.737,0,0,1,.737.737v3.365h-1.475v-3.365A.737.737,0,0,1-932.8,1377.972Zm-2.95,0a1.475,1.475,0,0,1,1.475,1.475v2.628h-2.95v-2.628A1.475,1.475,0,0,1-935.745,1377.972Zm-3.687.737a.737.737,0,0,1,.737-.737.737.737,0,0,1,.737.737v3.365h-1.475Zm8.006,19.581h-8.111v-5.956c0-3.637,4.056-3.887,4.056-4.368,0,.481,4.055.731,4.055,4.368Zm46.56-20.318a.737.737,0,0,1,.737.737v3.249H-885.6v-3.249A.737.737,0,0,1-884.866,1377.972Zm-2.95,0a1.475,1.475,0,0,1,1.475,1.475v2.512h-2.95v-2.512A1.475,1.475,0,0,1-887.815,1377.972Zm-3.687.737a.737.737,0,0,1,.737-.737.737.737,0,0,1,.737.737v3.249H-891.5Zm7.921,19.464h-8.111v-5.956c0-3.637,4.056-3.886,4.056-4.368,0,.481,4.056.731,4.056,4.368Zm12.536,0h-7.374v-5.956c0-3.637,3.687-3.886,3.687-4.368,0,.481,3.687.731,3.687,4.368Z" transform="translate(970.506 -1334.137)" fill="url(#linear-gradient-52)"/>
                  </g>
                </g>
              </g>
            </g>
          </g>
        </g>
      </g>
    </g>
  </g>
  <text id="INDIA" transform="translate(36.825 27.981)" fill="#fff" font-size="18" font-family="Gilroy-Semibold, Gilroy" font-weight="600"><tspan x="-22.995" y="0">INDIA</tspan></text>
</svg>
