<svg xmlns="http://www.w3.org/2000/svg" width="302.598" height="68.238" viewBox="0 0 302.598 68.238">
  <g id="Group_3650" data-name="Group 3650" transform="translate(180.475 -125.314)">
    <g id="Group_3647" data-name="Group 3647" transform="translate(-180.475 125.314)">
      <g id="Group_3646" data-name="Group 3646">
        <g id="Group_3642" data-name="Group 3642">
          <path id="Path_7247" data-name="Path 7247" d="M-141.078,125.314l-19.7,34.119-19.7-34.119Z" transform="translate(180.475 -125.314)" fill="#fff"/>
        </g>
        <g id="Group_3643" data-name="Group 3643" transform="translate(19.699)">
          <path id="Path_7248" data-name="Path 7248" d="M-171.51,159.434l19.7-34.119,19.7,34.119Z" transform="translate(171.51 -125.314)" fill="#fff"/>
        </g>
        <g id="Group_3644" data-name="Group 3644" transform="translate(0 34.119)">
          <path id="Path_7249" data-name="Path 7249" d="M-141.078,174.962l-19.7-34.119-19.7,34.119Z" transform="translate(180.475 -140.843)" fill="#fff"/>
        </g>
        <g id="Group_3645" data-name="Group 3645" transform="translate(19.699 34.119)">
          <path id="Path_7250" data-name="Path 7250" d="M-171.51,140.843l19.7,34.119,19.7-34.119Z" transform="translate(171.51 -140.843)" fill="#fff"/>
        </g>
      </g>
    </g>
    <g id="Group_3648" data-name="Group 3648" transform="translate(-94.358 133.156)">
      <path id="Path_7251" data-name="Path 7251" d="M-119.777,152.016V129.343h7.328v37.168h-5.574l-15.93-22.726v22.726h-7.328V129.343h5.574Z" transform="translate(141.281 -128.332)" fill="#fff"/>
      <path id="Path_7252" data-name="Path 7252" d="M-107.409,148.513V134.176h6.851v26.549h-6.851v-2.973q-2.442,3.718-7.912,3.718a9.7,9.7,0,0,1-7.22-2.92,11.267,11.267,0,0,1-2.815-8.072v-16.3h6.851v15.451a5.516,5.516,0,0,0,1.406,4.036,5.148,5.148,0,0,0,3.849,1.435,5.58,5.58,0,0,0,4.276-1.672A6.943,6.943,0,0,0-107.409,148.513Z" transform="translate(160.346 -122.546)" fill="#fff"/>
      <path id="Path_7253" data-name="Path 7253" d="M-82.241,129.343H-74.7v37.168h-7.275V142.405l-10.461,17.257h-.85l-10.459-17.2v24.053h-7.328V129.343h7.539l10.674,17.575Z" transform="translate(177.446 -128.332)" fill="#fff"/>
      <path id="Path_7254" data-name="Path 7254" d="M-64.965,150.671H-84.984q1.328,4.99,7.488,4.99a7.007,7.007,0,0,0,5.948-2.654l5.522,3.186q-3.932,5.682-11.577,5.682-6.582,0-10.566-3.984a13.607,13.607,0,0,1-3.981-10.035,13.759,13.759,0,0,1,3.929-9.984,13.363,13.363,0,0,1,10.09-4.034,12.473,12.473,0,0,1,9.611,4.034,13.965,13.965,0,0,1,3.823,9.984A19.078,19.078,0,0,1-64.965,150.671Zm-20.124-5.311h13.541a6.693,6.693,0,0,0-2.364-3.981A6.682,6.682,0,0,0-78.133,140,7.209,7.209,0,0,0-82.7,141.4,6.735,6.735,0,0,0-85.089,145.36Z" transform="translate(200.099 -122.951)" fill="#fff"/>
      <path id="Path_7255" data-name="Path 7255" d="M-61.414,138.227v6.585h-6v11.043a2.632,2.632,0,0,0,.69,2.019,3.172,3.172,0,0,0,2.019.716,29.925,29.925,0,0,0,3.291-.026v6.211q-6.957.8-9.9-1.3t-2.946-7.62V144.812h-4.621v-6.585h4.621v-5.363l6.849-2.072v7.435Z" transform="translate(215.982 -126.598)" fill="#fff"/>
      <path id="Path_7256" data-name="Path 7256" d="M-61.69,134.466v4.566a7.064,7.064,0,0,1,3.078-3.8,9.561,9.561,0,0,1,4.992-1.3v7.648a7.806,7.806,0,0,0-5.629,1.272q-2.442,1.648-2.441,5.469v12.691h-6.851V134.466Z" transform="translate(228.365 -122.836)" fill="#fff"/>
      <path id="Path_7257" data-name="Path 7257" d="M-56.106,137.327a4.022,4.022,0,0,1-2.946-1.248,4.022,4.022,0,0,1-1.248-2.946,4.117,4.117,0,0,1,1.248-2.975,3.99,3.99,0,0,1,2.946-1.274,4.052,4.052,0,0,1,3,1.274,4.117,4.117,0,0,1,1.248,2.975,4.022,4.022,0,0,1-1.248,2.946A4.085,4.085,0,0,1-56.106,137.327Zm3.452,29.735H-59.5V140.513h6.851Z" transform="translate(238.231 -128.883)" fill="#fff"/>
      <path id="Path_7258" data-name="Path 7258" d="M-40.579,161.874a13.627,13.627,0,0,1-10.037-4.036,13.654,13.654,0,0,1-3.981-9.982,13.662,13.662,0,0,1,3.981-9.984,13.626,13.626,0,0,1,10.037-4.034,13.758,13.758,0,0,1,7.062,1.859,12.35,12.35,0,0,1,4.832,4.99l-5.893,3.452a6.025,6.025,0,0,0-2.417-2.6,7.022,7.022,0,0,0-3.636-.956,6.861,6.861,0,0,0-5.1,2.043,7.129,7.129,0,0,0-2.017,5.232,7.262,7.262,0,0,0,2.017,5.2,6.908,6.908,0,0,0,5.1,2.017,7.3,7.3,0,0,0,3.689-.927,5.85,5.85,0,0,0,2.417-2.577l5.948,3.4a12.964,12.964,0,0,1-4.966,5.045A13.822,13.822,0,0,1-40.579,161.874Z" transform="translate(245.059 -122.951)" fill="#fff"/>
    </g>
    <g id="Group_3649" data-name="Group 3649" transform="translate(59.123 173.755)">
      <path id="Path_7259" data-name="Path 7259" d="M-66.915,156.179a2.174,2.174,0,0,1-.664,1.593,2.181,2.181,0,0,1-1.593.664,2.17,2.17,0,0,1-1.593-.664,2.166,2.166,0,0,1-.664-1.593,2.165,2.165,0,0,1,.664-1.593,2.162,2.162,0,0,1,1.593-.664,2.172,2.172,0,0,1,1.593.664A2.174,2.174,0,0,1-66.915,156.179Z" transform="translate(71.428 -139.505)" fill="#fff"/>
      <path id="Path_7260" data-name="Path 7260" d="M-55.542,157.956l2.254-8.178h3.639l-4.221,13.275h-3.265l-2.443-8.044-2.443,8.044h-3.265l-4.221-13.275h3.636l2.257,8.152,2.417-8.152h3.239Z" transform="translate(73.728 -144.467)" fill="#fff"/>
      <path id="Path_7261" data-name="Path 7261" d="M-48.178,161.61a6.786,6.786,0,0,1-4.992,2.017,6.786,6.786,0,0,1-4.992-2.017,6.786,6.786,0,0,1-2.017-4.992,6.746,6.746,0,0,1,2.017-4.963,6.79,6.79,0,0,1,4.992-2.046,6.787,6.787,0,0,1,4.992,2.046,6.757,6.757,0,0,1,2.043,4.963A6.793,6.793,0,0,1-48.178,161.61Zm-7.567-2.364a3.488,3.488,0,0,0,2.575,1.035,3.488,3.488,0,0,0,2.575-1.035,3.553,3.553,0,0,0,1.035-2.628,3.55,3.55,0,0,0-1.035-2.628,3.5,3.5,0,0,0-2.575-1.037,3.5,3.5,0,0,0-2.575,1.037,3.669,3.669,0,0,0-1.009,2.628A3.669,3.669,0,0,0-55.745,159.246Z" transform="translate(84.895 -144.67)" fill="#fff"/>
      <path id="Path_7262" data-name="Path 7262" d="M-49.263,149.923v2.283a3.539,3.539,0,0,1,1.54-1.9,4.758,4.758,0,0,1,2.5-.653v3.823a3.9,3.9,0,0,0-2.815.639,3.053,3.053,0,0,0-1.222,2.733V163.2h-3.425V149.923Z" transform="translate(93.863 -144.612)" fill="#fff"/>
      <path id="Path_7263" data-name="Path 7263" d="M-41.641,159.23l5.5,6.717h-3.984l-4.832-6.027v6.027h-3.425V147.361h3.425v11.153l4.566-5.842h4.089Z" transform="translate(99.014 -147.361)" fill="#fff"/>
    </g>
  </g>
</svg>
