<svg xmlns="http://www.w3.org/2000/svg" xmlns:xlink="http://www.w3.org/1999/xlink" width="272.155" height="61.8" viewBox="0 0 272.155 61.8">
  <defs>
    <clipPath id="clip-path">
      <path id="Path_4064" data-name="Path 4064" d="M-2034.474-792q.411-.022.827-.023a14.851,14.851,0,0,1,14.851,14.851,14.851,14.851,0,0,1-14.851,14.851h-29.6s-5.39-16.741,13.092-22.622v4.761Z" transform="translate(2063.98 792.018)" fill="#fff"/>
    </clipPath>
    <clipPath id="clip-path-2">
      <path id="Path_4068" data-name="Path 4068" d="M-2048.3-995.558q-.411.023-.827.023a14.85,14.85,0,0,1-14.851-14.85,14.85,14.85,0,0,1,14.851-14.85h29.6s5.391,16.741-13.092,22.622v-4.761Z" transform="translate(2063.98 1025.236)" fill="#fff"/>
    </clipPath>
  </defs>
  <g id="Group_3606" data-name="Group 3606" transform="translate(0 0)">
    <g id="Group_3612" data-name="Group 3612" transform="translate(0 0)">
      <g id="Group_3608" data-name="Group 3608" transform="translate(0 32.099)">
        <path id="Path_4061" data-name="Path 4061" d="M-2034.474-792q.411-.022.827-.023a14.851,14.851,0,0,1,14.851,14.851,14.851,14.851,0,0,1-14.851,14.851h-29.6s-5.39-16.741,13.092-22.622v4.761Z" transform="translate(2063.98 792.018)" fill="#fff"/>
        <g id="Group_3607" data-name="Group 3607">
          <path id="Path_4062" data-name="Path 4062" d="M-2034.474-792q.411-.022.827-.023a14.851,14.851,0,0,1,14.851,14.851,14.851,14.851,0,0,1-14.851,14.851h-29.6s-5.39-16.741,13.092-22.622v4.761Z" transform="translate(2063.98 792.018)" fill="#fff"/>
          <g id="Group_3606-2" data-name="Group 3606" clip-path="url(#clip-path)">
            <path id="Path_4063" data-name="Path 4063" d="M-2092.744-785.662s57.407-12.742,41.305-40.885l-39.905,11.2Z" transform="translate(2088.785 821.795)" fill="#fff"/>
          </g>
        </g>
      </g>
      <g id="Group_3611" data-name="Group 3611" transform="translate(0)">
        <path id="Path_4065" data-name="Path 4065" d="M-2048.3-995.558q-.411.023-.827.023a14.85,14.85,0,0,1-14.851-14.85,14.85,14.85,0,0,1,14.851-14.85h29.6s5.391,16.741-13.092,22.622v-4.761Z" transform="translate(2063.98 1025.236)" fill="#fff"/>
        <g id="Group_3610" data-name="Group 3610">
          <path id="Path_4066" data-name="Path 4066" d="M-2048.3-995.558q-.411.023-.827.023a14.85,14.85,0,0,1-14.851-14.85,14.85,14.85,0,0,1,14.851-14.85h29.6s5.391,16.741-13.092,22.622v-4.761Z" transform="translate(2063.98 1025.236)" fill="#fff"/>
          <g id="Group_3609" data-name="Group 3609" clip-path="url(#clip-path-2)">
            <path id="Path_4067" data-name="Path 4067" d="M-1983.58-1071.967s-57.407,12.742-41.305,40.885l39.905-11.2Z" transform="translate(2032.723 1065.535)" fill="#fff"/>
          </g>
        </g>
      </g>
    </g>
    <g id="Group_3613" data-name="Group 3613" transform="translate(65.475 15.712)">
      <path id="Path_4069" data-name="Path 4069" d="M-1588.268-884.247l1.9-4.261a16.363,16.363,0,0,0,9.746,3.248c4.6,0,6.539-1.645,6.539-3.839,0-6.371-17.551-2.194-17.551-13.163,0-4.767,3.8-8.818,11.9-8.818a18.673,18.673,0,0,1,9.83,2.616l-1.73,4.261a16.413,16.413,0,0,0-8.143-2.32c-4.557,0-6.413,1.772-6.413,4.008,0,6.286,17.509,2.194,17.509,13.037,0,4.725-3.839,8.775-11.94,8.775C-1581.222-880.7-1585.821-882.138-1588.268-884.247Z" transform="translate(1588.268 911.08)" fill="#fff"/>
      <path id="Path_4070" data-name="Path 4070" d="M-1256.863-890.844l-4.683,4.81v7.552h-5.485v-29.533h5.485v15.146l14.6-15.146h6.16l-12.4,13.205,13.163,16.327h-6.413Z" transform="translate(1311.245 908.437)" fill="#fff"/>
      <path id="Path_4071" data-name="Path 4071" d="M-911.081-883.081v4.6H-933.23v-29.533h21.559v4.6h-16.074v7.679h14.26v4.514h-14.26v8.143Z" transform="translate(1023.386 908.437)" fill="#fff"/>
      <path id="Path_4072" data-name="Path 4072" d="M-617.511-908.015h12.91c9.577,0,16.116,5.907,16.116,14.766s-6.539,14.766-16.116,14.766h-12.91Zm12.657,24.892c6.581,0,10.843-4.008,10.843-10.125s-4.261-10.125-10.843-10.125h-7.172v20.251Z" transform="translate(751.121 908.437)" fill="#fff"/>
      <path id="Path_4073" data-name="Path 4073" d="M-277.659-888.9v10.421h-5.485v-10.336l-11.6-19.2h5.864l8.649,14.386,8.733-14.386h5.4Z" transform="translate(472.78 908.437)" fill="#fff"/>
    </g>
  </g>
</svg>
