<svg xmlns="http://www.w3.org/2000/svg" viewBox="0 0 1956.9 702.48"><defs><style>.cls-1{fill:#fff;}</style></defs><g id="Layer_2" data-name="Layer 2"><g id="Layer_1-2" data-name="Layer 1"><path class="cls-1" d="M600.19,601.16q-102.29,101.33-249,101.32t-249-101.32Q0,499.84,0,351.24T102.28,101.32Q204.55,0,351.24,0t249,101.32Q702.46,202.65,702.48,351.24T600.19,601.16ZM154.39,351.24q0,88.78,56,144.74t140.88,56q84,0,139.92-56,56.93-56.93,56.93-144.74T491.16,206.5q-56-56-139.92-56-84.93,0-140.88,56T154.39,351.24Z"/><path class="cls-1" d="M789.32,13.51H1045q100.35,0,167.9,67.55,68.5,68.52,68.51,164t-68.51,164q-67.56,67.55-167.9,67.54H943.71V689H789.32ZM943.71,331.94H1045q35.68,0,58.86-25.09t23.16-61.75q0-36.66-23.16-61.76T1045,158.25H943.71Z"/><path class="cls-1" d="M1358.63,13.51h270.19q138.95,0,233.51,97.46t94.57,240.27q0,143.79-94.57,241.24Q1768.73,689,1628.82,689H1358.63ZM1513,540.37h115.8q80.07,0,129.3-51.14,50.16-51.14,50.17-138t-50.17-137q-49.21-52.11-129.3-52.11H1513Z"/></g></g></svg>