<svg xmlns="http://www.w3.org/2000/svg" width="278.507" height="53.812" viewBox="0 0 278.507 53.812">
  <g id="Group_4677" data-name="Group 4677" transform="translate(-86.843 -85.043)">
    <g id="Group_119" data-name="Group 119" transform="translate(86.843 85.043)">
      <path id="Path_39" data-name="Path 39" d="M2379.3,63.462c1.55-1.564,3.061-3.1,4.585-4.624,7.03-7.025,14.036-14.075,21.111-21.055a10.383,10.383,0,0,1,17.563,5.847,9.956,9.956,0,0,1-3.006,8.941q-16.43,16.422-32.863,32.842a10.458,10.458,0,0,1-14.855.008q-7.3-7.249-14.558-14.549a9.958,9.958,0,0,1-2.715-10.208,9.84,9.84,0,0,1,7.571-7.285,10.081,10.081,0,0,1,9.914,2.875c2.349,2.308,4.669,4.646,7,6.971C2379.106,63.279,2379.163,63.331,2379.3,63.462Z" transform="translate(-2354.132 -34.721)" fill="#fff"/>
      <path id="Path_40" data-name="Path 40" d="M2733.759,78.375c1.657-1.64,3.306-3.261,4.941-4.895q17.686-17.659,35.365-35.325a10.386,10.386,0,0,1,17.475,4.581,10.134,10.134,0,0,1-2.89,10.215q-16.265,16.25-32.529,32.5a10.4,10.4,0,0,1-15.01.279C2738.618,83.383,2736.26,80.888,2733.759,78.375Z" transform="translate(-2689.062 -34.984)" fill="#fff"/>
    </g>
    <g id="Group_122" data-name="Group 122" transform="translate(211.209 91.727)">
      <path id="Path_41" data-name="Path 41" d="M4011.728,130.854h-7.969v-40.4h.6c5.356,0,10.714-.006,16.07.01a13.479,13.479,0,0,1,12.747,10.839,13.082,13.082,0,0,1-7.087,14.078c-.138.068-.271.145-.5.266l8.906,15.178c-.273.017-.471.04-.669.041-2.436,0-4.871-.008-7.305.02a.91.91,0,0,1-.907-.548c-2.491-4.311-5-8.61-7.486-12.925a.991.991,0,0,0-1-.584c-1.771.028-3.542.011-5.4.011Zm0-21.041a3.1,3.1,0,0,0,.323.038c2.726,0,5.454.027,8.18-.015a4.822,4.822,0,0,0,1.742-.413,6.137,6.137,0,0,0,3.42-6.328,5.761,5.761,0,0,0-5.71-5.228c-2.432.078-4.869.03-7.3.006-.519-.005-.7.117-.7.671.025,3.561.013,7.122.015,10.684C4011.7,109.418,4011.719,109.608,4011.73,109.813Z" transform="translate(-3943.36 -90.445)" fill="#fff"/>
      <path id="Path_43" data-name="Path 43" d="M3417.781,90.41c-.843,2.5-1.649,4.889-2.453,7.278q-3.776,11.207-7.548,22.414c-1.147,3.4-2.309,6.8-3.446,10.211a.615.615,0,0,1-.692.512q-4.412-.023-8.824,0a.655.655,0,0,1-.74-.536q-5.152-15.388-10.33-30.767-1.466-4.363-2.934-8.726c-.036-.107-.068-.215-.116-.368.188-.015.335-.036.482-.036,2.552,0,5.1.012,7.656-.009a.6.6,0,0,1,.689.514q4.682,14.772,9.385,29.538c.088.277.179.552.311.954.1-.24.173-.377.219-.523q4.729-14.938,9.441-29.88a.7.7,0,0,1,.806-.6c2.493.028,4.987.015,7.48.016Z" transform="translate(-3380.697 -90.386)" fill="#fff"/>
      <path id="Path_44" data-name="Path 44" d="M4474.058,98.328H4457.99v9.619h15.592c.02.243.046.411.046.579,0,2.16-.014,4.319.011,6.479.005.479-.157.581-.6.58-4.792-.01-9.582,0-14.372.005h-.711v15.565h-7.979V90.8h24.084Z" transform="translate(-4335.522 -90.75)" fill="#fff"/>
      <path id="Path_45" data-name="Path 45" d="M4711.9,90.667h7.875V131.03H4711.9Z" transform="translate(-4565.637 -90.634)" fill="#fff"/>
      <path id="Path_46" data-name="Path 46" d="M4312.706,90.763h7.851V131.1h-7.851Z" transform="translate(-4213.836 -90.719)" fill="#fff"/>
      <path id="Path_4575" data-name="Path 4575" d="M4312.706,90.763h7.851V131.1h-7.851Z" transform="translate(-4267.891 -90.719)" fill="#fff"/>
    </g>
  </g>
</svg>
