<svg xmlns="http://www.w3.org/2000/svg" width="299.444" height="87.571" viewBox="0 0 299.444 87.571">
  <g id="Group_3666" data-name="Group 3666" transform="translate(-116.808 -72.188)">
    <g id="Group_3664" data-name="Group 3664" transform="translate(116.808 72.188)">
      <path id="Path_7409" data-name="Path 7409" d="M180.772,82.219a11.447,11.447,0,0,1,22.8,1.052,11.494,11.494,0,0,1-12.314,11.843,10.007,10.007,0,0,0-7.485,2.734c-3.053,2.754-5.547,5.884-5.852,10.183a25.883,25.883,0,0,0,.326,4.776c.217,1.855.673,3.688.794,5.546a9.805,9.805,0,0,0,14.1,8.344c6.225-2.952,12.724-1.159,16.272,4.49a12.055,12.055,0,0,1-.46,13.492,12.251,12.251,0,0,1-22.031-5.11c-.149-.969-.172-1.965-.4-2.915a9.624,9.624,0,0,0-14.2-5.841,17.346,17.346,0,0,1-10.974,2.631,10.655,10.655,0,0,0-3.692.449,13.969,13.969,0,0,0-9.722,14.915,9.286,9.286,0,0,1-18.255,3.411,9.166,9.166,0,0,1,8.073-10.923c5.918-.445,8.884-4.258,11.043-9.029a11.86,11.86,0,0,0,.138-8.517,34.091,34.091,0,0,1-1.109-6.014,6.441,6.441,0,0,0-3.2-5.262c-1.7-.977-3.435-1.91-5.2-2.758a11.709,11.709,0,0,0-9.734-.145A9.373,9.373,0,1,1,123.4,91.927a9.156,9.156,0,0,1,11.51,5.871c2.09,6.927,12.2,12.5,20.055,7a15.286,15.286,0,0,1,10.88-2.36,15.1,15.1,0,0,0,4.887-.4c4.588-1.026,10.843-7.589,10.332-13.568M173.35,117.9a9.686,9.686,0,0,0-9.829-9.837,9.871,9.871,0,1,0,9.829,9.837Z" transform="translate(-116.808 -72.188)" fill="#fff"/>
      <path id="Path_7410" data-name="Path 7410" d="M410.779,208.824a8.481,8.481,0,1,1,8.4,8.549A8.314,8.314,0,0,1,410.779,208.824Z" transform="translate(-341.268 -170.092)" fill="#fff"/>
      <path id="Path_7411" data-name="Path 7411" d="M259.586,111.181a8.026,8.026,0,1,1,8.132-8A8.03,8.03,0,0,1,259.586,111.181Z" transform="translate(-219.714 -89.706)" fill="#fff"/>
      <path id="Path_7412" data-name="Path 7412" d="M314.653,358.092a6.816,6.816,0,0,1,6.935,6.817,6.9,6.9,0,0,1-7,6.923,6.8,6.8,0,0,1-6.819-6.922A6.723,6.723,0,0,1,314.653,358.092Z" transform="translate(-262.613 -290.488)" fill="#fff"/>
      <path id="Path_7413" data-name="Path 7413" d="M169.056,284.5a6.308,6.308,0,1,1,6.363-6.355A6.23,6.23,0,0,1,169.056,284.5Z" transform="translate(-151.876 -224.665)" fill="#fff"/>
    </g>
    <g id="Group_3665" data-name="Group 3665" transform="translate(234.208 84.998)">
      <path id="Path_7414" data-name="Path 7414" d="M645.574,178.081l-17.048-1.827v22.68H613.305V141.246h15.221V161.11l16.972,1.75-.152-21.386,15.221-.3.381,58.373-15.221-.076Z" transform="translate(-613.305 -137.669)" fill="#fff"/>
      <path id="Path_7415" data-name="Path 7415" d="M900.51,213.419v40.26h-14.46V249.95a12.984,12.984,0,0,1-4.871,3.463,16.236,16.236,0,0,1-6.393,1.256q-7.839,0-11.8-5.213T859.184,234.2l.229-20.929h14.079l-.076,20.168a7.037,7.037,0,0,0,1.56,4.909,6.341,6.341,0,0,0,9.361-.761,10.45,10.45,0,0,0,1.788-6.279v.076l.076-17.961Z" transform="translate(-801.04 -192.718)" fill="#fff"/>
      <path id="Path_7416" data-name="Path 7416" d="M1111.432,149.386a23.188,23.188,0,0,1,8.562,17.771,24.432,24.432,0,0,1-2.283,10.5,19.774,19.774,0,0,1-6.165,7.725,13.858,13.858,0,0,1-8.372,2.854,21.126,21.126,0,0,1-7.23-1.294,18.506,18.506,0,0,1-5.936-3.349v4.262h-14.841V127.582l15.221-1.218-.152,23.593q5.174-3.881,13.166-3.653A13.282,13.282,0,0,1,1111.432,149.386Zm-9.209,24.734a8.852,8.852,0,0,0,2.968-3.082,7.8,7.8,0,0,0-1.294-9.628,7.585,7.585,0,0,0-5.518-2.4,8,8,0,0,0-5.746,2.4,7.481,7.481,0,0,0-1.294,9.589,9.291,9.291,0,0,0,3.083,3.12,7.4,7.4,0,0,0,3.958,1.18A7.094,7.094,0,0,0,1102.223,174.121Z" transform="translate(-965.957 -126.364)" fill="#fff"/>
      <path id="Path_7417" data-name="Path 7417" d="M1283.912,141.17l10.807,1.142v56.623h-16.667V157.076h-10.731V141.17Z" transform="translate(-1112.675 -137.669)" fill="#fff"/>
    </g>
  </g>
</svg>
