<svg id="Group_4735" data-name="Group 4735" xmlns="http://www.w3.org/2000/svg" xmlns:xlink="http://www.w3.org/1999/xlink" width="290.356" height="46.642" viewBox="0 0 290.356 46.642">
  <defs>
    <clipPath id="clip-path">
      <rect id="Rectangle_1387" data-name="Rectangle 1387" width="290.356" height="46.642" fill="#fff"/>
    </clipPath>
  </defs>
  <g id="Group_4734" data-name="Group 4734" clip-path="url(#clip-path)">
    <path id="Path_10305" data-name="Path 10305" d="M.007,23.3V.388C.007,0,.008,0,.387,0Q12.9.032,25.411.071a7.286,7.286,0,0,1,2.022.464,15.54,15.54,0,0,1,11.4,14.047c.014.208.018.418.05.623.037.234-.057.276-.273.275-1.748-.009-3.5,0-5.243,0-.665,0-1.331-.006-2,0-.177,0-.233-.046-.253-.225a9.8,9.8,0,0,0-.419-2.066,8.044,8.044,0,0,0-5.1-5.1,5.063,5.063,0,0,0-1.827-.311c-3.069.011-6.137-.006-9.205-.016q-3.2-.011-6.4-.038c-.25,0-.332.043-.332.319q.013,15.268,0,30.537c0,.251.07.308.314.307,2.373-.009,4.747,0,7.12-.011.246,0,.314.063.313.312q-.015,3.545,0,7.091c0,.267-.073.328-.332.327Q7.811,46.6.378,46.61c-.3,0-.379-.066-.378-.372Q.014,34.768.007,23.3" transform="translate(0 0)" fill="#fff"/>
    <path id="Path_10306" data-name="Path 10306" d="M130.132,118.218c0,1.49-.031,2.98.01,4.468a9.692,9.692,0,0,1-.456,3.1,15.845,15.845,0,0,1-11.8,11.327,13.833,13.833,0,0,1-2.919.364c-.664.032-1.33.041-1.994.074-.184.009-.235-.043-.235-.228q.009-3.634,0-7.269c0-.2.071-.243.255-.251a15.826,15.826,0,0,0,3.109-.277,8.381,8.381,0,0,0,5.471-4.252,7.406,7.406,0,0,0,.814-3.7q.039-4.5.068-9c0-.258.047-.351.335-.349q3.545.02,7.09,0c.269,0,.325.071.324.33-.012,1.887-.006,3.773-.006,5.66h-.066" transform="translate(-91.325 -90.911)" fill="#fff"/>
    <path id="Path_10307" data-name="Path 10307" d="M646.245,70.732q1.309-4.289,2.617-8.577c.741-2.443,1.5-4.883,2.189-7.34.165-.586.424-.71.986-.691,2.612.086,2.61.07,3.365,2.587q1.956,6.522,3.918,13.042a2.235,2.235,0,0,0,.522.952c.519-2.693,1.031-5.387,1.558-8.079.485-2.477,1.018-4.945,1.46-7.43a1.009,1.009,0,0,1,1.109-.983c1.01-.023,2.022-.075,3.031-.055,1.332.027,1.4.13,1.153,1.423-.611,3.257-1.2,6.517-1.841,9.768-.917,4.675-1.884,9.34-2.781,14.019-.12.628-.364.748-.926.736-1.485-.032-2.973-.047-4.457.006-.638.022-.851-.229-1.028-.8-1.21-3.881-2.458-7.751-3.7-11.623-.125-.389-.286-.766-.457-1.221a9.636,9.636,0,0,0-1.03,2.578c-1.1,3.422-2.174,6.85-3.211,10.29-.179.594-.423.8-1.036.77-1.294-.056-2.591-.04-3.887-.043a1.351,1.351,0,0,1-1.522-1.28c-1.382-7.189-2.814-14.367-4.228-21.55-.14-.712-.239-1.432-.391-2.142-.134-.627.151-.907.727-.919,1.359-.029,2.718-.019,4.077-.043.539-.009.477.39.539.715q1.318,6.929,2.635,13.857c.13.681.277,1.359.417,2.038l.189-.009" transform="translate(-516.522 -43.842)" fill="#fff"/>
    <path id="Path_10308" data-name="Path 10308" d="M1171.521,70.285c0-.348,0-.649,0-.95.05-4.805.114-9.61.135-14.416,0-.661.175-.858.84-.83,1.262.055,2.529.036,3.793.006.507-.012.717.092.715.665q-.027,12.282,0,24.565c0,.575-.148.773-.743.753q-1.99-.064-3.983,0a1.207,1.207,0,0,1-1.2-.677q-4.394-7.079-8.831-14.132c-.184-.293-.375-.582-.573-.888-.314.23-.16.536-.164.785-.067,4.678-.138,9.357-.158,14.036,0,.718-.2.911-.9.88-1.357-.059-2.719-.039-4.077-.006-.534.013-.706-.145-.7-.692q.1-12.234.162-24.469c0-.488.14-.657.636-.664,1.264-.017,2.53-.051,3.789-.154a1.34,1.34,0,0,1,1.428.754q4.552,7.371,9.179,14.7c.155.247.224.589.658.738" transform="translate(-936.169 -43.815)" fill="#fff"/>
    <path id="Path_10309" data-name="Path 10309" d="M1304.537,66.986c0-4.016.012-8.032-.012-12.047,0-.61.071-.89.8-.877q7.823.134,15.649.176c.589,0,.757.174.735.754-.044,1.168-.046,2.341,0,3.509.024.594-.171.739-.746.744-3.319.029-6.638.121-9.958.14-.67,0-.863.187-.831.849.056,1.136.052,2.278,0,3.414-.028.609.195.732.753.737,2.845.028,5.69.128,8.535.129.768,0,.964.243.949.964a26.936,26.936,0,0,0,.123,3.126c.063.648-.139.807-.763.8-2.877-.029-5.755.018-8.632-.032-.812-.014-1.009.238-.968,1.009a31.368,31.368,0,0,1,0,3.7c-.053.84.269.969,1.016.96,3.256-.039,6.514,0,9.77-.032.689-.007.956.14.916.881-.064,1.166-.034,2.339-.009,3.509.01.481-.128.662-.64.66q-8.016-.024-16.031,0c-.7,0-.655-.369-.654-.836q.008-6.118,0-12.237" transform="translate(-1056.753 -43.793)" fill="#fff"/>
    <path id="Path_10310" data-name="Path 10310" d="M1434.113,79.457a9.81,9.81,0,0,1-7.409-2.649,8.877,8.877,0,0,1-2.5-4.89c-.108-.519.045-.812.643-.9a22.558,22.558,0,0,1,4.163-.089,1.165,1.165,0,0,1,1.027.861,3.945,3.945,0,0,0,4.042,2.538,10.3,10.3,0,0,0,2.731-.186,1.875,1.875,0,0,0,1.554-1.681,2.044,2.044,0,0,0-1.018-2.257,14.907,14.907,0,0,0-3.378-1.2c-1.215-.338-2.445-.624-3.649-1-3.883-1.2-6.029-4.112-5.812-7.834.2-3.457,2.865-6.2,6.728-6.905a12.429,12.429,0,0,1,7.858.942,7.261,7.261,0,0,1,4.262,5.652c.086.543-.012.732-.587.706-1.262-.055-2.527-.061-3.791-.078a1.857,1.857,0,0,1-1.459-.738,5.128,5.128,0,0,0-6.04-1.192,2.206,2.206,0,0,0-1.4,1.976,2.018,2.018,0,0,0,1.363,1.873,29.59,29.59,0,0,0,5.222,1.641,12.769,12.769,0,0,1,4.422,1.848,7.821,7.821,0,0,1,2.737,7.869,7.469,7.469,0,0,1-6.244,5.473,21.835,21.835,0,0,1-3.458.214" transform="translate(-1153.674 -42.954)" fill="#fff"/>
    <path id="Path_10311" data-name="Path 10311" d="M905.651,64.729a94.778,94.778,0,0,1-.128,10.046,6.4,6.4,0,0,1-5.885,6.122A17.05,17.05,0,0,1,895,80.9a6.637,6.637,0,0,1-5.82-5.864c-.258-1.636-.258-1.637,1.365-1.636.569,0,1.14.034,1.707,0,1.262-.068,2.3.045,2.883,1.5a2.761,2.761,0,0,0,5.019-1.592c.052-5.817.122-11.634.14-17.451,0-.764.227-.951.949-.913a25.033,25.033,0,0,0,3.412-.007c.9-.076,1.024.272,1.012,1.057-.043,2.908-.017,5.817-.017,8.726" transform="translate(-720.195 -44.502)" fill="#fff"/>
    <path id="Path_10312" data-name="Path 10312" d="M376.6,63.173a6.892,6.892,0,0,0-.431-2.126,9.419,9.419,0,0,0-8.755-5.977c-3.664-.069-7.33-.011-10.995-.067-.757-.012-.864.252-.859.915.028,3.981.014,7.962.014,11.944h-.162q0,6.067,0,12.133c0,.392-.132.832.557.822,4.357-.065,8.718.123,13.067-.344,3.132-.336,7.4-3.5,7.465-7.731.047-3.189.2-6.377.1-9.567M371.138,71.4c-.1,2.726-1.658,3.992-4.251,4.271-1.719.185-3.47.061-5.205.123-.632.022-.62-.314-.617-.763.011-2.369.005-4.737.005-7.106,0-2.305.035-4.612-.02-6.916-.018-.739.21-.9.9-.864,1.89.089,3.791-.116,5.675.156a3.693,3.693,0,0,1,3.47,3.715,64.533,64.533,0,0,1,.046,7.383" transform="translate(-287.9 -44.555)" fill="#fff"/>
    <path id="Path_10313" data-name="Path 10313" d="M1031.661,61.168a8.193,8.193,0,0,0-3.018-5.685c-3.227-2.8-10.123-3.034-13.792-.738a8.022,8.022,0,0,0-4.033,6.469c-.12,1.538-.021,3.093-.021,4.641h-.165c0,1.485-.046,2.972.009,4.456.18,4.873,3.282,8.5,7.951,9.164a17.407,17.407,0,0,0,6.317-.241,8.854,8.854,0,0,0,6.753-7.841,61.867,61.867,0,0,0,0-10.224m-5.5,5.569c0,1.265-.021,2.53.005,3.794a3.721,3.721,0,0,1-2.676,3.723,5.967,5.967,0,0,1-4.265.062,3.816,3.816,0,0,1-2.877-3.6,58.107,58.107,0,0,1,.078-8.812,3.515,3.515,0,0,1,3.155-3.488,6.575,6.575,0,0,1,4.861.653,3.181,3.181,0,0,1,1.548,2.367,36.458,36.458,0,0,1,.169,5.3" transform="translate(-818.665 -43.085)" fill="#fff"/>
    <path id="Path_10314" data-name="Path 10314" d="M520.48,62.293a9.256,9.256,0,0,0-9.209-8.758c-1.108-.016-2.209.032-3.314.1a9.461,9.461,0,0,0-6.155,2.789,6.821,6.821,0,0,0-2.265,5.037c-.007,1.77,0,3.539,0,5.309a28.459,28.459,0,0,0-.056,4.834,8.656,8.656,0,0,0,7.535,8.093,21.075,21.075,0,0,0,5.575-.062c4.233-.555,7.157-3.243,7.7-7.4a55.574,55.574,0,0,0,.186-9.94m-5.626,8.339c-.13,2.6-1.261,3.826-3.849,4.226a5.916,5.916,0,0,1-4.02-.741,3.7,3.7,0,0,1-2.053-3.09,71.886,71.886,0,0,1,0-8.433,4.063,4.063,0,0,1,3.817-3.992,5.784,5.784,0,0,1,5.637,1.941,1.657,1.657,0,0,1,.47,1.177c-.022,1.485-.008,2.971-.008,4.457h.021c0,1.485.061,2.974-.013,4.456" transform="translate(-404.55 -43.364)" fill="#fff"/>
  </g>
</svg>
