<svg id="Group_4737" data-name="Group 4737" xmlns="http://www.w3.org/2000/svg" xmlns:xlink="http://www.w3.org/1999/xlink" width="227.519" height="88.994" viewBox="0 0 227.519 88.994">
  <defs>
    <clipPath id="clip-path">
      <rect id="Rectangle_1388" data-name="Rectangle 1388" width="227.519" height="88.994" fill="#fff"/>
    </clipPath>
  </defs>
  <g id="Group_4736" data-name="Group 4736" clip-path="url(#clip-path)">
    <path id="Path_10315" data-name="Path 10315" d="M103.719,99.377a18.853,18.853,0,0,1,12.461-7.22c4.882-.7,9.624-.567,13.846,2.44a15.171,15.171,0,0,1,6.313,8.819,6.981,6.981,0,0,1,.139,1.7q.007,21.149.028,42.3c0,.8-.195,1.019-1,.995q-2.977-.091-5.959,0c-.785.023-.926-.246-.924-.967.021-12.807-.076-25.614.05-38.42.071-7.219-5.6-11.128-11.077-11.358-5.195-.218-9.205,2.122-12.3,6.149a6.945,6.945,0,0,0-1.4,4.377c.022,13.047,0,26.094.034,39.141,0,.861-.193,1.125-1.079,1.092-1.984-.072-3.974-.051-5.96-.007-.7.016-.922-.171-.913-.9.04-3.186.017-6.373.017-9.56q0-22.186-.016-44.372c0-.8.168-1.089,1.027-1.059,1.954.068,3.913.052,5.869,0,.692-.016.871.206.857.868-.04,1.893-.014,3.787-.014,5.974" transform="translate(-78.622 -75.204)" fill="#fff"/>
    <path id="Path_10316" data-name="Path 10316" d="M.018,37.7Q.018,19.983,0,2.262C0,1.447.189,1.2,1.029,1.221c2.256.062,4.516.067,6.772,0,.859-.027.964.291.961,1.027-.026,6.133-.015,12.265-.015,18.4q0,21.464,0,42.929c0,3.216,0,6.433.061,9.648.017.826-.243,1-1.017.981q-3.43-.076-6.863,0C.152,74.22,0,73.965,0,73.238Q.036,55.471.018,37.7" transform="translate(0 -0.997)" fill="#fff"/>
    <path id="Path_10317" data-name="Path 10317" d="M489.743,47.78a34.4,34.4,0,0,0-6.8-4.052,129.882,129.882,0,0,1-11.991-6.039,6.735,6.735,0,0,1-3.71-5.42c-.321-4.43,1.335-8.221,6.134-9.824a16.245,16.245,0,0,1,8.818-.259c3.275.726,6.024,2.512,8.709,4.412l1.14.8c0-2.677-.024-5.163.017-7.647a.945.945,0,0,0-.786-1.078,34.424,34.424,0,0,0-18.605-.793A16.416,16.416,0,0,0,463,23.605a19.017,19.017,0,0,0-2.419,5q-4.821,12.136-9.733,24.236c-.849,2.1-1.633,4.219-2.409,6.585-.434-1.392-.718-2.594-1.176-3.725q-7.356-18.155-14.749-36.3a1.081,1.081,0,0,0-.81-.729,46.844,46.844,0,0,0-14.8-1.8A26.346,26.346,0,0,0,405.73,19.77c-4.13,2.265-6.776,5.595-7.248,10.415-.12.777-.018,1.559-.061,2.337-.009.154.137.465-.257.375a22.514,22.514,0,0,0-2.011-3.822c-5.256-8.013-12.45-12.69-22.272-12.529-2.821.047-5.644.27-8.473.265q-11.517-.021-23.035.016c-.876,0-1.132-.266-1.163-1.106a24.814,24.814,0,0,1,.007-3.416c.477-4.8,3.807-7.549,8.664-7.307,4.148.207,7.865,1.332,10.887,4.3.142.139.3.363.526.266s.143-.372.144-.566c.011-1.894.011-3.789.012-5.683,0-2.022,0-2.03-2.013-2.5A36.156,36.156,0,0,0,349.2.072a15.027,15.027,0,0,0-13.74,9.366,20.367,20.367,0,0,0-1.7,6.507c-.066.668-.286.9-.988.881-1.835-.054-3.673,0-5.51-.028-.5-.007-.686.135-.673.656.032,1.292.049,2.587-.006,3.878-.028.666.22.79.823.777,1.685-.038,3.374.038,5.057-.034.869-.038,1.1.2,1.093,1.08q-.045,20.387-.022,40.773c0,2.766.031,5.533-.029,8.3-.018.832.252,1,1.02.979,1.925-.053,3.855-.063,5.78,0,.876.03,1.152-.158,1.15-1.109-.035-16.357-.021-32.715-.043-49.072,0-.739.169-.955.934-.95,5.33.035,10.659.017,15.989.024.218,0,.471-.109.7.141a32.585,32.585,0,0,0-2.908,2.822,32.139,32.139,0,0,0-1.667,39.79c4.663,6.242,10.823,10.057,18.7,10.56,7.643.488,14.105-2.345,19.33-7.84,5.836-6.138,8.42-13.587,8.387-22a35.926,35.926,0,0,0-.4-4.9c.169.109.26.139.3.2a16.022,16.022,0,0,0,5.146,4.452,96.246,96.246,0,0,0,9.618,4.531,35.549,35.549,0,0,1,8.023,4.445c5.274,4.2,4.558,11.154-1.489,14.123a17.191,17.191,0,0,1-11.467,1.006c-4.181-.889-7.623-3.173-10.812-5.9l-1.245-1.065c0,2.781.092,5.337-.038,7.882a2.214,2.214,0,0,0,1.555,2.431A28.523,28.523,0,0,0,410.56,75.2a28.932,28.932,0,0,0,14.4-2.624c7.424-3.587,9.7-10.483,8.546-17.207-.64-3.741-3.017-6.4-6.032-8.541-2.888-2.054-6.156-3.376-9.314-4.92a81.939,81.939,0,0,1-9.272-4.823,6.612,6.612,0,0,1-2.859-3.269c-1.035-2.985-.511-7.966,3.5-10.386a14.363,14.363,0,0,1,8.864-1.818c2.35.195,4.666.633,6.52,2.293a12.907,12.907,0,0,1,3.043,4.951q7.727,18.636,15.434,37.28a1.629,1.629,0,0,1-.114,1.438c-3.089,6.944-6.266,13.844-9.952,20.5-.482.871-.464.885.556.886,1.777,0,3.558-.075,5.328.029a1.732,1.732,0,0,0,1.96-1.3c6.772-15.913,13.266-31.941,19.846-47.933a1.475,1.475,0,0,1,.464-.813,12.584,12.584,0,0,0,3.779,5.051,29.745,29.745,0,0,0,5.956,3.536c3.249,1.565,6.644,2.813,9.83,4.514A24.544,24.544,0,0,1,485.448,55a8.02,8.02,0,0,1-1.8,13.444A17.282,17.282,0,0,1,471.86,69.6c-4.181-.889-7.626-3.168-10.811-5.9-.741-.636-1.466-1.291-2.207-1.945-.088.13-.144.174-.144.219-.008,2.947,0,5.893-.025,8.839a.913.913,0,0,0,.477.793,13.144,13.144,0,0,0,3.475,1.891,30.675,30.675,0,0,0,22.8-.413,14.538,14.538,0,0,0,9.288-11.245c1.038-5.627-.337-10.415-4.974-14.06M386.81,63.72a15.88,15.88,0,0,1-9.57,6.32,14,14,0,0,1-11.977-3.126,23.014,23.014,0,0,1-7.818-12.758c-2.068-8.238-1.3-16.161,3.2-23.511a16.664,16.664,0,0,1,9.693-7.78c5.413-1.545,10.106.053,14.12,3.769,3.955,3.662,6.082,8.347,7.188,13.546a34.72,34.72,0,0,1,.649,6.441c-.113,6.249-1.619,12.06-5.488,17.1" transform="translate(-267.525 0)" fill="#fff"/>
  </g>
</svg>
