<svg xmlns="http://www.w3.org/2000/svg" width="299.443" height="69.245" viewBox="0 0 299.443 69.245">
  <g id="Group_3624" data-name="Group 3624" transform="translate(-2617.1 -452.511)">
    <g id="Group_3621" data-name="Group 3621" transform="translate(2617.1 452.511)">
      <path id="Path_4074" data-name="Path 4074" d="M2670.225,505.239a25.889,25.889,0,1,1,0-36.211v-11.16a34.623,34.623,0,1,0,0,58.531Z" transform="translate(-2617.1 -452.511)" fill="#fff"/>
      <path id="Path_4075" data-name="Path 4075" d="M2907.608,497.451a15.675,15.675,0,0,0-15.145,6.726V489.253a34.771,34.771,0,0,0-2.7-2.272v55.208a34.715,34.715,0,0,0,2.7-2.271V511.25C2895.081,511.209,2906.172,510.276,2907.608,497.451Z" transform="translate(-2834.242 -479.963)" fill="#fff"/>
      <path id="Path_4076" data-name="Path 4076" d="M2739.376,538.664s1.924,25.421,28.021,22.822C2767.4,561.486,2766.253,536.948,2739.376,538.664Z" transform="translate(-2714.479 -521.054)" fill="#fff"/>
    </g>
    <g id="Group_3623" data-name="Group 3623" transform="translate(2704.331 465.458)">
      <g id="Group_3622" data-name="Group 3622" transform="translate(0 0)">
        <path id="Path_4077" data-name="Path 4077" d="M3070.165,544.318a10.082,10.082,0,0,1,5.361,9.323,10.957,10.957,0,0,1-3.671,8.507,12.969,12.969,0,0,1-9.031,3.321h-17.306V524.681H3061.6a12.66,12.66,0,0,1,8.8,3.263,10.6,10.6,0,0,1,3.613,8.216A9.946,9.946,0,0,1,3070.165,544.318ZM3061.6,532.2h-8.041v8.973h8.041a4.182,4.182,0,0,0,3.117-1.282,4.4,4.4,0,0,0,1.253-3.2,4.459,4.459,0,0,0-1.224-3.2A4.159,4.159,0,0,0,3061.6,532.2Zm-8.041,25.755h9.265a4.531,4.531,0,0,0,3.379-1.369,4.754,4.754,0,0,0,1.34-3.467,4.682,4.682,0,0,0-1.34-3.409,4.534,4.534,0,0,0-3.379-1.369h-9.265Z" transform="translate(-3045.517 -522.933)" fill="#fff"/>
        <path id="Path_4078" data-name="Path 4078" d="M3224.453,558.632h-7.517V516.1h7.517Z" transform="translate(-3182.033 -516.096)" fill="#fff"/>
        <path id="Path_4079" data-name="Path 4079" d="M3306.516,604.247A15.546,15.546,0,1,1,3311,593.293,14.881,14.881,0,0,1,3306.516,604.247Zm-16.607-5.186a8.165,8.165,0,0,0,11.3,0,8.459,8.459,0,0,0,0-11.537,8.165,8.165,0,0,0-11.3,0,8.62,8.62,0,0,0,0,11.537Z" transform="translate(-3232.398 -565.324)" fill="#fff"/>
        <path id="Path_4080" data-name="Path 4080" d="M3476.5,604.247a15.546,15.546,0,1,1,4.486-10.954A14.881,14.881,0,0,1,3476.5,604.247Zm-16.607-5.186a8.165,8.165,0,0,0,11.3,0,8.457,8.457,0,0,0,0-11.537,8.165,8.165,0,0,0-11.3,0,8.621,8.621,0,0,0,0,11.537Z" transform="translate(-3367.775 -565.324)" fill="#fff"/>
        <path id="Path_4081" data-name="Path 4081" d="M3659.815,577.91a10.362,10.362,0,0,1,8.012,3.263,12.411,12.411,0,0,1,3,8.74V607.86h-7.517V590.438a5.974,5.974,0,0,0-1.282-4.079,4.561,4.561,0,0,0-3.613-1.457,4.94,4.94,0,0,0-3.991,1.69,7.391,7.391,0,0,0-1.428,4.894V607.86h-7.517V590.438a5.976,5.976,0,0,0-1.281-4.079,4.563,4.563,0,0,0-3.613-1.457,5.01,5.01,0,0,0-3.991,1.719,7.215,7.215,0,0,0-1.486,4.865V607.86h-7.517V578.726h7.517v3.088q2.622-3.9,8.1-3.9,5.419,0,7.925,4.2Q3653.987,577.91,3659.815,577.91Z" transform="translate(-3509.076 -565.324)" fill="#fff"/>
        <path id="Path_4082" data-name="Path 4082" d="M3871.722,528.509a4.677,4.677,0,0,1-4.6-4.6,4.518,4.518,0,0,1,1.369-3.263,4.375,4.375,0,0,1,3.234-1.4,4.444,4.444,0,0,1,3.292,1.4,4.522,4.522,0,0,1,1.369,3.263,4.423,4.423,0,0,1-1.369,3.234A4.49,4.49,0,0,1,3871.722,528.509Zm3.788,32.63h-7.517V532h7.517Z" transform="translate(-3699.831 -518.603)" fill="#fff"/>
        <path id="Path_4083" data-name="Path 4083" d="M3958.311,582.164v-3.438h7.517V607.86h-7.517v-3.438a11.439,11.439,0,0,1-9.5,4.253,13.331,13.331,0,0,1-10.022-4.428,16.495,16.495,0,0,1,0-21.851,13.255,13.255,0,0,1,10.022-4.487A11.442,11.442,0,0,1,3958.311,582.164Zm-13.868,17.073a8.458,8.458,0,0,0,11.537,0,8.052,8.052,0,0,0,2.331-5.943,7.86,7.86,0,0,0-2.331-5.885,8.3,8.3,0,0,0-11.537,0,7.963,7.963,0,0,0-2.272,5.885A8.16,8.16,0,0,0,3944.443,599.236Z" transform="translate(-3753.615 -565.324)" fill="#fff"/>
      </g>
    </g>
  </g>
</svg>
