<svg xmlns="http://www.w3.org/2000/svg" width="244.043" fill='#fff' height="50.752" viewBox="0 0 244.043 50.752">
  <g id="Group_3669" data-name="Group 3669" transform="translate(-49.837 -76.318)">
    <path id="Path_7418" data-name="Path 7418" d="M82.043,94.961a18.908,18.908,0,0,0-25.56-1.031v-11a6.62,6.62,0,0,0-6.63-6.61V107.51c-.01.25-.016.5-.016.751a18.866,18.866,0,1,0,32.206-13.3M68.8,120.46a12.231,12.231,0,0,1-12.331-12.2c0-.071,0-.143,0-.214h.013v-.414A12.235,12.235,0,1,1,68.8,120.46" transform="translate(0 0)" fill="#fff"/>
    <path id="Path_7419" data-name="Path 7419" d="M221.594,202.113h-6.63V176.081a6.63,6.63,0,0,1,6.63,6.63Z" transform="translate(-123.956 -75.043)" fill="#fff"/>
    <path id="Path_7420" data-name="Path 7420" d="M219.2,132.754a4.472,4.472,0,1,0-4.472,4.472,4.472,4.472,0,0,0,4.472-4.472" transform="translate(-120.485 -39.055)" fill="#fff"/>
    <path id="Path_7421" data-name="Path 7421" d="M326.6,163.575a5.763,5.763,0,0,1,4.4,1.968,7.16,7.16,0,0,1,0,9.584,5.745,5.745,0,0,1-4.4,1.943,4.945,4.945,0,0,1-4.141-1.866v1.508h-3.3V158.821h3.3v6.619a4.947,4.947,0,0,1,4.141-1.866m-3.144,9.355a3.71,3.71,0,0,0,5.061,0,3.532,3.532,0,0,0,1.022-2.607,3.447,3.447,0,0,0-1.022-2.581,3.642,3.642,0,0,0-5.061,0,3.493,3.493,0,0,0-1,2.581,3.579,3.579,0,0,0,1,2.607" transform="translate(-202.285 -62.029)" fill="#fff"/>
    <path id="Path_7422" data-name="Path 7422" d="M386.629,178.553v2.2a3.406,3.406,0,0,1,1.482-1.827,4.593,4.593,0,0,1,2.4-.626v3.68a3.757,3.757,0,0,0-2.709.613,2.94,2.94,0,0,0-1.176,2.633v6.109h-3.3v-12.78Z" transform="translate(-250.479 -76.657)" fill="#fff"/>
    <path id="Path_7423" data-name="Path 7423" d="M425.588,179.753v-1.508h3.3v12.78h-3.3v-1.508a5.018,5.018,0,0,1-4.166,1.866,5.848,5.848,0,0,1-4.4-1.943,7.235,7.235,0,0,1,0-9.584,5.814,5.814,0,0,1,4.4-1.968,5.02,5.02,0,0,1,4.166,1.866m-6.083,7.489a3.71,3.71,0,0,0,5.061,0,3.533,3.533,0,0,0,1.022-2.607,3.448,3.448,0,0,0-1.022-2.581,3.642,3.642,0,0,0-5.061,0,3.493,3.493,0,0,0-1,2.581,3.579,3.579,0,0,0,1,2.607" transform="translate(-274.426 -76.349)" fill="#fff"/>
    <path id="Path_7424" data-name="Path 7424" d="M482.528,160.937a2.051,2.051,0,0,1-2.019-2.019,1.981,1.981,0,0,1,.6-1.431,1.919,1.919,0,0,1,1.419-.614,1.948,1.948,0,0,1,1.444.614,1.982,1.982,0,0,1,.6,1.431,1.94,1.94,0,0,1-.6,1.418,1.968,1.968,0,0,1-1.444.6m1.661,14.313h-3.3V162.47h3.3Z" transform="translate(-323.463 -60.565)" fill="#fff"/>
    <path id="Path_7425" data-name="Path 7425" d="M514.471,177.887a4.534,4.534,0,0,1,3.45,1.406,5.361,5.361,0,0,1,1.38,3.885v7.847H516v-7.438a2.658,2.658,0,0,0-.677-1.943,2.479,2.479,0,0,0-1.853-.69,2.681,2.681,0,0,0-2.057.8,3.34,3.34,0,0,0-.754,2.364v6.9h-3.3v-12.78h3.3v1.431a4.219,4.219,0,0,1,3.808-1.789" transform="translate(-343.64 -76.348)" fill="#fff"/>
    <path id="Path_7426" data-name="Path 7426" d="M592.623,160.937a2.051,2.051,0,0,1-2.019-2.019,1.981,1.981,0,0,1,.6-1.431,1.919,1.919,0,0,1,1.419-.614,1.947,1.947,0,0,1,1.444.614,1.981,1.981,0,0,1,.6,1.431,1.939,1.939,0,0,1-.6,1.418,1.967,1.967,0,0,1-1.444.6m1.661,14.313h-3.3V162.47h3.3Z" transform="translate(-406.152 -60.565)" fill="#fff"/>
    <path id="Path_7427" data-name="Path 7427" d="M624.566,177.887a4.535,4.535,0,0,1,3.45,1.406,5.361,5.361,0,0,1,1.38,3.885v7.847h-3.3v-7.438a2.658,2.658,0,0,0-.677-1.943,2.479,2.479,0,0,0-1.853-.69,2.681,2.681,0,0,0-2.057.8,3.34,3.34,0,0,0-.754,2.364v6.9h-3.3v-12.78h3.3v1.431a4.219,4.219,0,0,1,3.808-1.789" transform="translate(-426.331 -76.348)" fill="#fff"/>
    <path id="Path_7428" data-name="Path 7428" d="M676.669,188.268l3.118-8.946h3.629L678.56,192.1H674.8l-4.856-12.779h3.629Z" transform="translate(-465.753 -77.426)" fill="#fff"/>
    <path id="Path_7429" data-name="Path 7429" d="M738.7,185.989H729.06q.638,2.4,3.6,2.4a3.371,3.371,0,0,0,2.863-1.278l2.658,1.534a6.339,6.339,0,0,1-5.572,2.735,6.875,6.875,0,0,1-5.086-1.917,6.549,6.549,0,0,1-1.917-4.831,6.618,6.618,0,0,1,1.891-4.805,6.43,6.43,0,0,1,4.856-1.943,6,6,0,0,1,4.626,1.943,6.72,6.72,0,0,1,1.84,4.805,9.118,9.118,0,0,1-.128,1.355m-9.687-2.556h6.517a3.1,3.1,0,0,0-3.169-2.581,3.469,3.469,0,0,0-2.2.677,3.236,3.236,0,0,0-1.15,1.9" transform="translate(-507.56 -76.349)" fill="#fff"/>
    <path id="Path_7430" data-name="Path 7430" d="M794.937,177.887a4.534,4.534,0,0,1,3.45,1.406,5.361,5.361,0,0,1,1.38,3.885v7.847h-3.3v-7.438a2.658,2.658,0,0,0-.677-1.943,2.479,2.479,0,0,0-1.853-.69,2.681,2.681,0,0,0-2.057.8,3.34,3.34,0,0,0-.754,2.364v6.9h-3.3v-12.78h3.3v1.431a4.219,4.219,0,0,1,3.808-1.789" transform="translate(-554.293 -76.348)" fill="#fff"/>
    <path id="Path_7431" data-name="Path 7431" d="M850.982,168.549v3.169h-2.888v5.316a1.264,1.264,0,0,0,.332.971,1.524,1.524,0,0,0,.971.345,14.254,14.254,0,0,0,1.584-.013v2.99q-3.348.383-4.767-.626t-1.418-3.668v-5.316h-2.224v-3.169H844.8v-2.581l3.3-1v3.578Z" transform="translate(-595.464 -66.648)" fill="#fff"/>
    <path id="Path_7432" data-name="Path 7432" d="M892.976,189.44a6.819,6.819,0,1,1,1.968-4.805,6.527,6.527,0,0,1-1.968,4.805m-7.284-2.275a3.581,3.581,0,0,0,4.958,0,3.71,3.71,0,0,0,0-5.061,3.582,3.582,0,0,0-4.958,0,3.781,3.781,0,0,0,0,5.061" transform="translate(-624.629 -76.349)" fill="#fff"/>
    <path id="Path_7433" data-name="Path 7433" d="M948.276,178.553v2.2a3.406,3.406,0,0,1,1.482-1.827,4.593,4.593,0,0,1,2.4-.626v3.68a3.758,3.758,0,0,0-2.71.613,2.94,2.94,0,0,0-1.175,2.633v6.109h-3.3v-12.78Z" transform="translate(-672.338 -76.657)" fill="#fff"/>
    <path id="Path_7434" data-name="Path 7434" d="M983.784,187.911l2.837-8.588h3.527L985.5,192.1a8.42,8.42,0,0,1-2.645,4,6.081,6.081,0,0,1-4.1,1.112v-3.067a3.322,3.322,0,0,0,2.1-.562,3.884,3.884,0,0,0,1.252-1.891l-5.239-12.37h3.6Z" transform="translate(-696.268 -77.477)" fill="#fff"/>
  </g>
</svg>
