<svg id="Group_4739" data-name="Group 4739" xmlns="http://www.w3.org/2000/svg" xmlns:xlink="http://www.w3.org/1999/xlink" width="293.95" height="91.19" viewBox="0 0 293.95 91.19">
  <defs>
    <clipPath id="clip-path">
      <rect id="Rectangle_1389" data-name="Rectangle 1389" width="293.95" height="91.19" fill="#fff"/>
    </clipPath>
  </defs>
  <g id="Group_4738" data-name="Group 4738" clip-path="url(#clip-path)">
    <path id="Path_10318" data-name="Path 10318" d="M531.69,16.552c.947-.918,1.691-1.667,2.465-2.383A9.32,9.32,0,0,1,539.7,11.58a6.1,6.1,0,0,1,6.89,6.118c.029,3.861.006,7.722.007,11.583a3.056,3.056,0,0,0,2.962,3.258c.846.054.643.551.691,1.027.065.645-.331.644-.789.643q-4.775-.011-9.55,0c-1.08,0-.969-.02-.964-.968,0-.166.018-.333.033-.608a3.548,3.548,0,0,0,3.075-1.4,2.036,2.036,0,0,0,.538-1.376c-.009-4.073.022-8.146-.007-12.219a3.243,3.243,0,0,0-3.433-3.316,9.446,9.446,0,0,0-6.908,3.568,2.193,2.193,0,0,0-.44,1.549c.012,3.437,0,6.874.009,10.31a3.171,3.171,0,0,0,2.675,2.9c.314.031.764-.2.909.207a3.153,3.153,0,0,1,.04,1.135.371.371,0,0,1-.422.369c-.3,0-.594.007-.891.007-9.72,0-19.439-.019-29.158.029a2.155,2.155,0,0,1-2.035-1.12c-3.454-5.087-6.951-10.145-10.436-15.211-.165-.239-.348-.466-.607-.81-1.091,1.2-2.138,2.355-3.192,3.505a1.118,1.118,0,0,0-.212.837c0,2.673-.016,5.346.006,8.019a3.671,3.671,0,0,0,2.946,3.027,7.632,7.632,0,0,0,.764,0c.325-.014.424.149.464.453.14,1.079,0,1.267-1.075,1.268q-5.6.007-11.2,0a.965.965,0,0,1-1-1.448c.15-.394.5-.293.754-.259a2.652,2.652,0,0,0,2.166-.848,3.644,3.644,0,0,0,1.323-3c-.055-7.764-.027-15.529-.028-23.293a3.457,3.457,0,0,0-3.5-3.763c-.678-.029-.747-.327-.742-.868,0-.519.015-.868.721-.862q5.921.046,11.841,0c.727-.005.68.389.7.883.022.569-.109.925-.765.826a2.805,2.805,0,0,0-2.453,1.074,3.2,3.2,0,0,0-1.053,2.472c.05,3.945.018,7.891.025,11.837a1.516,1.516,0,0,0,.09.869c.384.081.487-.269.662-.464q5.475-6.119,10.933-12.253c.813-.913.826-1.079.122-2.069-.631-.887-1.321-1.678-2.591-1.47-.681.112-.732-.327-.733-.859s.045-.853.734-.847c3.565.032,7.13.011,10.7.017.91,0,.913.017.918.886a.875.875,0,0,1-.163.674c-1.47-.215-2.587.656-3.727,1.455a14.481,14.481,0,0,0-2.291,2.013q-3.682,3.964-7.363,7.929c-.71.766-.712.778-.127,1.554Q501,21.826,506.485,29.084a8.532,8.532,0,0,0,4.145,3.051,3.9,3.9,0,0,0,4.358-.786,2.718,2.718,0,0,0,.851-2.021c-.038-4.243-.013-8.486-.02-12.729a3.086,3.086,0,0,0-2.94-3.025c-.974-.019-.808-.267-.839-1-.019-.452.194-.594.61-.59,1.019.01,2.037,0,3.056,0,1.188,0,2.377.022,3.565-.009.581-.015.848.133.818.779-.049,1.058-.013,2.121-.013,3.182q0,6.619,0,13.238a3.071,3.071,0,0,0,3.174,3.175,9.476,9.476,0,0,1,1.018.006c1.434.168,2.271-.714,3.059-1.7a1.787,1.787,0,0,0,.258-1.215c0-4.328.01-8.656,0-12.983a3.222,3.222,0,0,0-2.826-2.9c-.934-.068-.961-.131-.918-1.024.023-.473.246-.551.642-.549,1.91.01,3.82.026,5.73-.009.587-.011.715.31.795.755.215,1.2.429,2.393.685,3.826" transform="translate(-418.189 -0.026)" fill="#fff"/>
    <path id="Path_10319" data-name="Path 10319" d="M31.054,5.619,18.8,34.805,6.633,5.13l-.24.017V6.319q0,11.267,0,22.533a3.532,3.532,0,0,0,3.483,3.686.93.93,0,0,1,.806,1.38c-.129.3-.4.258-.647.258-3.141,0-6.283,0-9.424.006-.409,0-.656-.1-.6-.569.037-.33-.085-.678.178-1.089A3.3,3.3,0,0,0,3.371,31.25a3.038,3.038,0,0,0,.846-2.167c.014-6.662.069-13.324.109-19.987q.012-1.973.011-3.946A3.464,3.464,0,0,0,1.006,1.73C-.105,1.726.043,1.579,0,.626-.023.082.253.012.7.013,3.543.024,6.387.044,9.231,0c.672-.01.849.324,1.052.838,1.493,3.783,3.011,7.556,4.52,11.332q2.522,6.314,5.042,12.628c.125.312.265.617.409.953.485-.291.531-.79.7-1.2Q25.889,12.837,30.8,1.117c.46-1.1.462-1.1,1.623-1.1,2.292,0,4.585-.006,6.877,0a.959.959,0,0,1,.8,1.467c-.157.28-.434.244-.675.221-1.623-.158-2.418.98-3.261,2.053a1.631,1.631,0,0,0-.223,1.1q0,12.285,0,24.57a3.544,3.544,0,0,0,3.309,3.194c.913.034.9.05.917.917.011.584-.162.821-.794.817-3.863-.025-7.726-.007-11.589-.017-.785,0-.763-.037-.8-.911-.021-.567.091-.813.753-.826a3.482,3.482,0,0,0,3.561-3.715q0-11.584,0-23.169l-.255-.1" transform="translate(0 0)" fill="#fff"/>
    <path id="Path_10320" data-name="Path 10320" d="M1253.3,454.528c.841-.8,1.573-1.492,2.3-2.189a8.4,8.4,0,0,1,4.683-2.361c3.364-.5,6.192,1.014,7.026,4.561a12.106,12.106,0,0,0,1.876-1.7,9.645,9.645,0,0,1,4.71-2.624c3.43-.659,6.425.976,7.4,4.054a6.942,6.942,0,0,1,.234,2.138q0,5.41,0,10.82a3.72,3.72,0,0,0,3.134,3.493c.674.064.564.442.6.858.044.536-.139.757-.706.748-1.7-.026-3.4-.009-5.093-.009-1.486,0-2.971,0-4.457,0-.5,0-1.022.126-.973-.738.037-.656.209-.836.869-.858a3.01,3.01,0,0,0,2.722-2.951q.02-5.983.016-11.966a3.158,3.158,0,0,0-3.412-3.286,8.415,8.415,0,0,0-5.961,3.017,2.459,2.459,0,0,0-.6,1.752c.019,3.522,0,7.044.012,10.566a2.943,2.943,0,0,0,2.765,2.892c.274.021.674-.137.756.258a2.764,2.764,0,0,1-.028,1.125c-.046.208-.349.187-.56.187-3.353,0-6.707-.009-10.06.011-.587,0-.716-.256-.692-.769.021-.442-.023-.786.629-.834a2.96,2.96,0,0,0,2.909-3.135q.008-5.792.006-11.584a3.264,3.264,0,0,0-3.753-3.464,8.353,8.353,0,0,0-5.665,3.068,2.851,2.851,0,0,0-.649,2c.016,3.437,0,6.874.01,10.311a2.932,2.932,0,0,0,2.73,2.934c.7.037.847.271.849.907,0,.691-.358.73-.888.727-2.419-.015-4.839-.007-7.258-.007-.849,0-1.7-.027-2.546.008-.619.026-.679-.31-.672-.8.007-.456,0-.774.634-.831a2.964,2.964,0,0,0,2.94-3.248q0-6.174,0-12.348a2.948,2.948,0,0,0-2.931-3.249c-.626-.055-.645-.356-.643-.822s.012-.82.653-.809c1.867.03,3.735.018,5.6,0a.588.588,0,0,1,.682.556c.236,1.156.516,2.3.806,3.577" transform="translate(-1086.805 -392.545)" fill="#fff"/>
    <path id="Path_10321" data-name="Path 10321" d="M850.389,379.824a13.862,13.862,0,0,1-12.311,9.622c-4.7.226-8.909-.938-12.346-4.292a16.845,16.845,0,0,1-4.675-8.587,21.36,21.36,0,0,1,1.119-13.453,14.113,14.113,0,0,1,10.245-8.691,15.416,15.416,0,0,1,7.549.241c1.1.3,2.214.581,3.337.79a3.081,3.081,0,0,0,2.98-.631,1.24,1.24,0,0,1,.95-.247c.386-.017.53.182.527.538,0,.212,0,.424,0,.636q0,4.962,0,9.925a1.992,1.992,0,0,1-.129,1.033c-.191.016-.4.028-.607.053-.486.058-.623-.165-.7-.638a12.8,12.8,0,0,0-4-7.341,9.729,9.729,0,0,0-10.985-1.722,7.94,7.94,0,0,0-4.041,4.22,14.929,14.929,0,0,0-1.27,4.9,47.878,47.878,0,0,0,.152,10.792,11.178,11.178,0,0,0,10.981,9.752,17.348,17.348,0,0,0,3.3-.2,10.391,10.391,0,0,0,7.606-5.589c.719-1.28.73-1.274,2.323-1.108" transform="translate(-715.896 -308.937)" fill="#fff"/>
    <path id="Path_10322" data-name="Path 10322" d="M2128.979,469.517c.406-.238.458-.649.6-.987q2.08-4.844,4.128-9.7a2.348,2.348,0,0,0-2.032-3.36c-.277-.03-.677.115-.763-.258a2.949,2.949,0,0,1,.02-1.128c.042-.246.324-.215.53-.215,2.588,0,5.177,0,7.765,0,.461,0,.6.241.554.638-.042.34.21.869-.357.938-2.007.244-2.957,1.7-3.679,3.293-2.323,5.131-4.56,10.3-6.855,15.443-1.83,4.1-3.7,8.182-5.547,12.271-.1.228-.221.449-.372.754l-1.813-.84c-.148-.426.126-.686.263-.973,1.647-3.437,3.277-6.883,4.977-10.295a2.023,2.023,0,0,0-.012-1.993c-2.255-4.743-4.456-9.511-6.7-14.258-.783-1.655-1.85-3.026-3.814-3.4-.628-.119-.317-.686-.358-1.062s.174-.523.543-.518c.849.011,1.7,0,2.546,0,2.631,0,5.261.014,7.892-.011.595-.006.831.159.821.787-.009.573-.128.9-.776.831-1.119-.122-1.674.648-2.215,1.428a1.469,1.469,0,0,0-.158,1.55c1.617,3.682,3.209,7.375,4.811,11.069" transform="translate(-1845.854 -396.009)" fill="#fff"/>
    <path id="Path_10323" data-name="Path 10323" d="M1344.4,109.7c.354-.805.594-1.339.823-1.877q1.939-4.56,3.87-9.123a2.344,2.344,0,0,0-1.962-3.215c-.958-.1-.92-.1-.938-1.033-.011-.579.218-.714.745-.7,1.315.028,2.631.009,3.947.009,1.061,0,2.122-.006,3.183,0,1.046.007,1.047.013,1.054,1.017,0,.124-.023.248-.041.427-2.118.187-3.227,1.659-4,3.388-4.053,9.091-8.033,18.215-12.192,27.259-.124.269-.242.541-.357.815-.146.347-.356.363-.7.231-1.552-.6-1.556-.584-.82-2.11,1.6-3.319,3.185-6.647,4.818-9.951a1.685,1.685,0,0,0,0-1.654c-2.312-4.858-4.571-9.741-6.89-14.595a5.063,5.063,0,0,0-3.573-3.146c-.75-.148-.391-.711-.459-1.107-.075-.439.156-.582.585-.58q5.284.017,10.567,0c.7,0,.542.473.572.875.033.445-.06.773-.6.7-1.167-.166-1.782.587-2.36,1.4a1.546,1.546,0,0,0-.152,1.662c1.614,3.682,3.187,7.382,4.874,11.311" transform="translate(-1161.269 -81.801)" fill="#fff"/>
    <path id="Path_10324" data-name="Path 10324" d="M1060.9,96.293c-1.267.091-1.267.091-1.631-.907a7.02,7.02,0,0,0-7.355-4.683,2.808,2.808,0,0,0-2.751,2.048,2.837,2.837,0,0,0,1.457,3.345,35.991,35.991,0,0,0,4.837,2.235c.812.36,1.645.672,2.466,1.013a9.154,9.154,0,0,1,1.982,1.132,6.468,6.468,0,0,1-3.191,11.653,9.712,9.712,0,0,1-4.387-.448,25.26,25.26,0,0,0-2.432-.729,2.437,2.437,0,0,0-2.294.361,1.284,1.284,0,0,1-.426.255c-.568.175-.845-.03-.863-.659-.021-.72-.005-1.442-.005-2.163,0-1.357-.005-2.714,0-4.071,0-.357-.119-.8.485-.832.5-.024.894-.014,1.028.632a7.783,7.783,0,0,0,4.437,5.4,7.455,7.455,0,0,0,5.2.55,2.689,2.689,0,0,0,2.29-2.1,3.219,3.219,0,0,0-.945-3.137,6.447,6.447,0,0,0-2.039-1.268c-1.942-.842-3.89-1.669-5.822-2.533a10.332,10.332,0,0,1-2.777-1.769c-2.034-1.853-2.341-4.138-1.572-6.634.736-2.39,2.543-3.474,4.908-3.815a8.976,8.976,0,0,1,4.381.448,12.9,12.9,0,0,0,1.7.5,1.955,1.955,0,0,0,1.922-.3,1.007,1.007,0,0,1,.706-.219c.457-.025.7.106.693.631-.021,1.989-.009,3.979-.009,6.07" transform="translate(-912.864 -77.717)" fill="#fff"/>
    <path id="Path_10325" data-name="Path 10325" d="M332.609,96.5a9.158,9.158,0,0,0,0-3.579,3.279,3.279,0,0,0-3.085-2.728,5.76,5.76,0,0,0-6.366,3.58,11.533,11.533,0,0,0-.219,9.039,7.622,7.622,0,0,0,7.142,5.026,7.113,7.113,0,0,0,7.083-3.535c.307-.507.344-.485,1.42-.36a9.463,9.463,0,0,1-8.421,7.717c-7.3.663-10.714-4.695-11.377-9.324a13.953,13.953,0,0,1,1.04-7.949,10.614,10.614,0,0,1,16.408-3.714c.869.762.879.756.259,1.737-.7,1.11-1.446,2.2-2.1,3.334a1.383,1.383,0,0,1-1.783.755" transform="translate(-278.006 -76.996)" fill="#fff"/>
    <path id="Path_10326" data-name="Path 10326" d="M758.307,8.629a2.743,2.743,0,0,1,2.894,2.848,2.929,2.929,0,0,1-3.137,2.943,2.855,2.855,0,0,1-2.776-2.879,2.889,2.889,0,0,1,3.018-2.912" transform="translate(-659.026 -7.529)" fill="#fff"/>
    <path id="Path_10327" data-name="Path 10327" d="M1809.755,470.021a2.853,2.853,0,0,1-2.919-2.936c-.006-3.861-.09-7.725.024-11.583a6.2,6.2,0,0,0-7.359-6.249,10.063,10.063,0,0,0-5.614,3.01c-.6.58-1.19,1.168-1.815,1.782a1.173,1.173,0,0,1-.291-.777c-.17-1-.35-2-.507-3.008-.052-.331-.151-.565-.536-.564q-3.056,0-6.112,0c-.3,0-.44.134-.486.447-.132.883.032,1.114.912,1.182a3.16,3.16,0,0,1,2.879,3.113q.008,6.237,0,12.474a2.158,2.158,0,0,1-.3,1.46c-.787.987-1.634,1.856-3.07,1.665a8.236,8.236,0,0,0-1.018-.007,3.109,3.109,0,0,1-3.193-3.177c0-3.649-.051-7.3.012-10.947a6.142,6.142,0,0,0-4.7-6.3,14.306,14.306,0,0,0-6.3-.346,10.934,10.934,0,0,0-5.64,2.749c-.422.374-.527.658-.162,1.16.672.925,1.263,1.909,1.888,2.868.738,1.132.738,1.132,2.142.857a10.651,10.651,0,0,1-.587-2.46,3.088,3.088,0,0,1,2.839-3.55,8.254,8.254,0,0,1,2.786.025,3.94,3.94,0,0,1,3.594,3.823c.079.97.005,1.952.061,2.925.038.659-.243.849-.857.953-1.671.283-3.328.643-4.988.988a11.305,11.305,0,0,0-5,2.087,5.63,5.63,0,0,0-1.981,6.045,5.549,5.549,0,0,0,4.44,4.38,5.9,5.9,0,0,0,4.594-.977,14.141,14.141,0,0,0,3.265-3c.171-.2.264-.572.686-.445.115,1.05.224,2.1.349,3.156.116.968.124.983,1.056.984q8.532.007,17.063,0c.927,0,.9-.037.914-.909.013-.639-.325-.633-.795-.667a3.147,3.147,0,0,1-2.912-3.08c-.009-3.352.009-6.7-.011-10.056a2.691,2.691,0,0,1,.69-1.982,9.836,9.836,0,0,1,6.023-3.259,3.429,3.429,0,0,1,4.127,3.644q.012,5.664,0,11.329a3.046,3.046,0,0,1-3.049,3.166c-.677.023-.743.305-.743.85,0,.52.124.759.7.756,3.31-.02,6.621-.027,9.932,0,.719.007.684-.387.706-.882.025-.562-.2-.712-.742-.718m-33.7-4.44a7.865,7.865,0,0,1-4.364,3.5,3.467,3.467,0,0,1-4.485-3.2,3.852,3.852,0,0,1,2.561-4.234,55.725,55.725,0,0,1,6.448-1.746c0,1.77,0,3.42,0,5.071a1.023,1.023,0,0,1-.161.6" transform="translate(-1538.536 -391.833)" fill="#fff"/>
    <path id="Path_10328" data-name="Path 10328" d="M513.532,389.27a2.93,2.93,0,0,1-1.918-.453c-1.92-1.473-3.815-2.973-5.654-4.545-.466-.4-.584-.678-.23-1.254a16.229,16.229,0,0,0,2.454-7.8,5.8,5.8,0,0,1,2.2-4.129,1.9,1.9,0,0,1,1.592-.64c.746.108.662-.409.694-.885.038-.56-.195-.733-.734-.731q-5.349.022-10.7,0c-.51,0-.808.125-.766.712.034.467-.073.973.667.945a4.359,4.359,0,0,1,1.611.343,4.275,4.275,0,0,1,2.994,3.2,12.517,12.517,0,0,1-1.549,8.747c-.274-.221-.478-.368-.663-.536-4.433-4.023-8.792-8.123-12.911-12.47a5.127,5.127,0,0,0-1.722-1.251,6.37,6.37,0,0,1-3.654-4.169c-.962-3.134.634-5.65,3.828-6.38,4.537-1.037,8.364,2.414,9.507,5.519.1.277.127.582.23.859.214.578.719.28,1.1.325.4.048.481-.228.48-.567,0-2.249-.013-4.5.007-6.748,0-.517-.211-.678-.683-.638-.331.029-.689-.074-.962.207a1.928,1.928,0,0,1-1.554.381,8.732,8.732,0,0,1-2.238-.449,13.53,13.53,0,0,0-6.045-.374,6.77,6.77,0,0,0-5.75,4.916,9.94,9.94,0,0,0-.194,4.415,10.971,10.971,0,0,0,2.412,5.22c-.136.346-.427.463-.651.645a12.489,12.489,0,0,0-4.283,6.612,10.309,10.309,0,0,0,8.568,13.136,15.161,15.161,0,0,0,12.358-3.441c.473-.4.747-.478,1.249-.016a11.044,11.044,0,0,0,4.666,2.491c2.172.592,4.387.322,6.586.38a.473.473,0,0,0,.442-.2.92.92,0,0,0-.781-1.379m-16.93-.823c-5.5,1.32-11.377-1.979-12.789-7.309a9.243,9.243,0,0,1,2.415-9.157c2.395,2.627,4.78,5.092,7.228,7.5,2.418,2.373,4.927,4.649,7.522,6.945a10.927,10.927,0,0,1-4.376,2.025" transform="translate(-418.871 -310.885)" fill="#fff"/>
    <path id="Path_10329" data-name="Path 10329" d="M1575.021,453.32a7.551,7.551,0,0,0-6.971-4.927,8.426,8.426,0,0,0-7.847,3.824c-.21.3-.293.7-.736.967-.2-1.2-.405-2.341-.567-3.493-.065-.46-.239-.666-.724-.659-2,.03-3.99.035-5.986.048-.217,0-.411.023-.514.264a.9.9,0,0,0,.836,1.346,2.958,2.958,0,0,1,2.881,3.049c0,7.809-.009,15.618.018,23.427a2.7,2.7,0,0,1-.841,2.033,2.544,2.544,0,0,1-2.242.955c-.236-.033-.515-.064-.654.242a.89.89,0,0,0,.836,1.345c2.462.01,4.925,0,7.387,0q1.4,0,2.8,0c.253,0,.528.021.675-.244a.91.91,0,0,0-.817-1.352,3.013,3.013,0,0,1-2.916-3.016q-.011-4.265.005-8.53c0-.262-.144-.583.193-.822.226.323.427.636.655.93a7.367,7.367,0,0,0,4.3,2.767,8.513,8.513,0,0,0,9.86-4.731,15.611,15.611,0,0,0,.372-13.422m-3.349,11.561a5.593,5.593,0,0,1-5.835,4.482,6.442,6.442,0,0,1-6.152-4.96,8.675,8.675,0,0,1-.2-1.892c.014-1.271.07-2.547-.012-3.812a7.565,7.565,0,0,1,1.643-4.953,6.075,6.075,0,0,1,5.976-2.6c2.533.266,4.286,2.14,4.784,5.034a19.517,19.517,0,0,1,.318,3.881,16.938,16.938,0,0,1-.521,4.821" transform="translate(-1353.815 -391.23)" fill="#fff"/>
    <path id="Path_10330" data-name="Path 10330" d="M1095.343,456.3a10.889,10.889,0,0,0-20.876-.431,15.025,15.025,0,0,0-.678,4.374,11.267,11.267,0,0,0,10.885,11.584,10.68,10.68,0,0,0,10.378-7.159,13.318,13.318,0,0,0,.291-8.368m-3.724,3.63a37.2,37.2,0,0,1-.212,3.8c-.547,5.111-4.441,6.264-7.791,5.758-2.822-.426-4.392-2.229-5-4.9a20.706,20.706,0,0,1-.411-6.193,20.48,20.48,0,0,1,.387-3.277,6.648,6.648,0,0,1,10.3-3.8,6.3,6.3,0,0,1,2.43,4.31,23.113,23.113,0,0,1,.3,4.306" transform="translate(-936.928 -391.153)" fill="#fff"/>
    <path id="Path_10331" data-name="Path 10331" d="M1204.05,105.985c-1.921,3.2-5.032,3.984-8.508,3.163a8.48,8.48,0,0,1-6.123-7.5c-.126-1.138-.11-1.138,1.116-1.23,3.765-.285,7.533-.552,11.292-.9.755-.071,1.818.306,2.216-.442.343-.645.031-1.575-.078-2.375a7.6,7.6,0,0,0-5.951-6.505,9.484,9.484,0,0,0-9.955,4.114,13.26,13.26,0,0,0-.131,14.421,9.588,9.588,0,0,0,8.977,4.533c4.6-.275,7.73-3.071,8.793-7.8-.678.06-1.219-.194-1.65.525M1191.4,93.717a6.3,6.3,0,0,1,6.766-1.59,3.486,3.486,0,0,1,2.145,2.352,8.348,8.348,0,0,1,.239,2.9c-.025.522-.251.721-.78.759-2.028.144-4.052.346-6.08.5a40.269,40.269,0,0,1-4.335.291,8.557,8.557,0,0,1,2.046-5.207" transform="translate(-1034.724 -78.497)" fill="#fff"/>
  </g>
</svg>
