<svg xmlns="http://www.w3.org/2000/svg" width="268.188" height="73.915" viewBox="0 0 268.188 73.915">
  <g id="Group_3635" data-name="Group 3635" transform="translate(-61.912 -59.608)">
    <g id="Group_3631" data-name="Group 3631" transform="translate(132.155 60.403)">
      <path id="Path_4084" data-name="Path 4084" d="M205.819,62.16v7.109H193.586V75.5h12v7.11h-12V94.473H186.2V62.16Z" transform="translate(-186.2 -61.513)" fill="#fff"/>
      <path id="Path_4085" data-name="Path 4085" d="M252.712,94.473h-8.079L243.018,89.4h-12L229.4,94.473h-8.078L232.308,62.16h9.417Zm-15.7-23.866-3.785,11.865h7.57Z" transform="translate(-201.472 -61.513)" fill="#fff"/>
      <path id="Path_4086" data-name="Path 4086" d="M273.6,62.16h24v7.109h-8.31v25.2h-7.386v-25.2H273.6Z" transform="translate(-224.203 -61.513)" fill="#fff"/>
      <path id="Path_4087" data-name="Path 4087" d="M344.784,89.775a16.8,16.8,0,0,1-28.713-11.956,16.8,16.8,0,1,1,28.713,11.956ZM323.457,77.818a9.369,9.369,0,0,0,2.677,6.924,9.764,9.764,0,0,0,13.433,0,10.163,10.163,0,0,0,0-13.849,9.763,9.763,0,0,0-13.433,0A9.371,9.371,0,0,0,323.457,77.818Z" transform="translate(-242.672 -61.015)" fill="#fff"/>
      <path id="Path_4088" data-name="Path 4088" d="M382.068,84.041V62.16h7.386V83.394q0,4.524,5.078,4.524t5.078-4.524V62.16H407V84.041a10,10,0,0,1-3.509,8.078,14.865,14.865,0,0,1-17.911,0A10,10,0,0,1,382.068,84.041Z" transform="translate(-271.37 -61.513)" fill="#fff"/>
      <path id="Path_4089" data-name="Path 4089" d="M460.5,94.473h-7.94l-6.094-10.618h-3.508V94.473H435.57V62.16H448.5a11.032,11.032,0,0,1,11.079,11.078,9.874,9.874,0,0,1-1.638,5.448,11.16,11.16,0,0,1-4.317,3.924Zm-12-25.389h-5.539v8.308H448.5a3.392,3.392,0,0,0,2.608-1.2,4.565,4.565,0,0,0,0-5.909A3.394,3.394,0,0,0,448.5,69.084Z" transform="translate(-294.635 -61.513)" fill="#fff"/>
      <path id="Path_4090" data-name="Path 4090" d="M512.291,94.473h-8.078L502.6,89.4h-12l-1.616,5.077H480.9L491.887,62.16H501.3ZM496.6,70.607,492.81,82.471h7.571Z" transform="translate(-314.346 -61.513)" fill="#fff"/>
      <path id="Path_4091" data-name="Path 4091" d="M357.39,183.63a2.049,2.049,0,1,1-.6-1.477A2.008,2.008,0,0,1,357.39,183.63Z" transform="translate(-258.833 -113.429)" fill="#fff"/>
      <path id="Path_4092" data-name="Path 4092" d="M386.459,167.327l6.14-20.081h2.446l-7.293,23.082h-2.539L378.8,150.662l-6.417,19.665H369.84l-7.293-23.082h2.446l6.14,20.081,6.463-20.081H380Z" transform="translate(-262.882 -98.511)" fill="#fff"/>
      <path id="Path_4093" data-name="Path 4093" d="M436.766,170.445a11.913,11.913,0,0,1-8.633-3.462,11.673,11.673,0,0,1-3.508-8.586,11.527,11.527,0,0,1,3.508-8.541,12.262,12.262,0,0,1,17.173,0,11.455,11.455,0,0,1,3.555,8.541,11.98,11.98,0,0,1-12.095,12.048Zm-6.971-5.078a10.037,10.037,0,1,0-2.816-6.97A9.481,9.481,0,0,0,429.8,165.367Z" transform="translate(-289.876 -98.121)" fill="#fff"/>
      <path id="Path_4094" data-name="Path 4094" d="M479.615,147v4.524q2.077-4.847,7.709-4.847v2.216a7.485,7.485,0,0,0-5.562,2.17,8.424,8.424,0,0,0-2.147,6.186v12.834h-2.308V147Z" transform="translate(-312.784 -98.263)" fill="#fff"/>
      <path id="Path_4095" data-name="Path 4095" d="M508.082,151.222l12.88,12h-3.139l-12.233-11.356v11.356h-2.308V130.911h2.308v19.711l11.68-10.479H520.5Z" transform="translate(-324.078 -91.408)" fill="#fff"/>
    </g>
    <g id="Group_3634" data-name="Group 3634" transform="translate(61.912 59.608)">
      <g id="Group_3633" data-name="Group 3633">
        <path id="Path_4096" data-name="Path 4096" d="M72.153,59.608a9.054,9.054,0,0,1,9.055,9.054v55.807a9.055,9.055,0,0,1-9.055,9.054H70.966a9.054,9.054,0,0,1-9.054-9.054l.008-53.917" transform="translate(-61.912 -59.608)" fill="#fff"/>
        <path id="Path_4097" data-name="Path 4097" d="M61.912,136.63v17.563a11.117,11.117,0,0,1,10.327-7h8.969V136.63Z" transform="translate(-61.912 -93.1)" fill="#fff" opacity="0.3"/>
        <path id="Path_4098" data-name="Path 4098" d="M87.952,105.962a1.082,1.082,0,0,0-1.082-1.082H84.331a4.793,4.793,0,0,1,0-9.563H86.87a1.082,1.082,0,0,0,1.082-1.082V92.778A1.082,1.082,0,0,0,86.87,91.7H78.5a1.082,1.082,0,0,0-1.082,1.082v15.566a1.082,1.082,0,0,0,1.082,1.082H86.87a1.082,1.082,0,0,0,1.082-1.082Z" transform="translate(-68.656 -73.561)" fill="#fff" opacity="0.3"/>
        <g id="Group_3632" data-name="Group 3632">
          <circle id="Ellipse_134" data-name="Ellipse 134" cx="10.894" cy="10.894" r="10.894" transform="translate(38.874 31.338)" fill="#fff" opacity="0.3"/>
          <path id="Path_4099" data-name="Path 4099" d="M101.18,59.608H72.506A10.594,10.594,0,0,0,61.912,70.2h0c0,.118,0,.233.008.349s-.008.232-.008.349v30.968h0v17.562a11.117,11.117,0,0,1,10.327-7H85.8a10.594,10.594,0,0,0,9.758-10.558h0A10.6,10.6,0,0,0,84.963,91.274H83.1v-.007H77.329a5.237,5.237,0,0,1,0-10.473h8.029l.081,0H101.18A10.6,10.6,0,0,0,111.775,70.2h0A10.6,10.6,0,0,0,101.18,59.608Z" transform="translate(-61.912 -59.608)" fill="#fff"/>
          <circle id="Ellipse_135" data-name="Ellipse 135" cx="10.559" cy="10.559" r="10.559" transform="translate(39.303 31.673)" fill="#fff"/>
        </g>
      </g>
    </g>
  </g>
</svg>
