<svg xmlns="http://www.w3.org/2000/svg" width="299.443" height="85.558" viewBox="0 0 299.443 85.558">
  <g id="Group_3663" data-name="Group 3663" transform="translate(-39.95 -24.482)">
    <g id="Group_3659" data-name="Group 3659" transform="translate(39.95 24.482)">
      <g id="Group_3653" data-name="Group 3653" transform="translate(17.73 14.463)">
        <g id="Group_3652" data-name="Group 3652">
          <g id="Group_3651" data-name="Group 3651">
            <path id="Path_7264" data-name="Path 7264" d="M105.675,64.222a.375.375,0,0,1-.015.369,2.437,2.437,0,0,1-.3.521c-.1.1-.081.286-.21.382a.6.6,0,0,0-.247.356c-.011.043-.076.065-.114.1a2.505,2.505,0,0,1-.318.332,3.965,3.965,0,0,1-.419.208.383.383,0,0,0-.249.372c-.064.025-.124.047-.183.068a.437.437,0,0,0,.05-.205,6.84,6.84,0,0,1,.305-2.07.44.44,0,0,0,.308.129h0a.434.434,0,0,0,.423-.333c.041-.163.076-.328.111-.493.019-.09.039-.176.058-.262h0a.929.929,0,0,1,.611.393C105.535,64.152,105.62,64.184,105.675,64.222Z" transform="translate(-52.487 -35.746)" fill="#fff" fill-rule="evenodd"/>
            <path id="Path_7265" data-name="Path 7265" d="M108.95,58.114a9.663,9.663,0,0,0-1.255.912,11.7,11.7,0,0,0-2.978,4.377c-.072.163-.137.326-.2.487a1.033,1.033,0,0,1-.273-.425.734.734,0,0,0-.506-.5c-.091.116-.191.238-.3.371.1.234.19.47.294.7a.271.271,0,0,0,.111.109c.066.039.137.065.2.094a1.129,1.129,0,0,0,.2.506,6.082,6.082,0,0,0-.063,3.1l.065.319a1.008,1.008,0,0,0,.227.453.421.421,0,0,0,.19.135.8.8,0,0,0-.184.114,1.886,1.886,0,0,1-.946.417.423.423,0,0,0-.2.106.655.655,0,0,1-.39.2c-.08-.068-.172-.142-.26-.218-.019-.017-.045-.039-.05-.063a4.7,4.7,0,0,1-.193-.783.552.552,0,0,0-.069-.31c-.155-.255-.305-.51-.443-.774a1.141,1.141,0,0,0-.539-.565,1.479,1.479,0,0,1-.235-.161c-.038-.236-.066-.439-.107-.641a.623.623,0,0,0-.345-.467.49.49,0,0,1-.264-.281,1.194,1.194,0,0,0-.314-.464.533.533,0,0,1-.147-.234.589.589,0,0,0-.248-.354.419.419,0,0,1-.193-.38c0-.079-.009-.155-.013-.229-.116-.024-.133.057-.144.118-.026.155-.041.315-.07.539a5.318,5.318,0,0,0-.567-1.02c-.088.082-.054.176-.019.264.063.163.135.324.2.488.013.024.018.057.038.072.226.163.266.462.416.678.161.231.349.438.543.676a.62.62,0,0,0-.017.214.728.728,0,0,0,.12.255,2.11,2.11,0,0,0,.234.277.594.594,0,0,1,.163.311c.067.321.163.635.253.971a1.183,1.183,0,0,1,.569.914.409.409,0,0,0,.26.318,1.4,1.4,0,0,1,.618.521.366.366,0,0,0,.268.212.349.349,0,0,1,.142.064c.114.069.129.142.075.309-.009.024-.017.05-.034.1a1.325,1.325,0,0,0,.284.414.3.3,0,0,0,.451.05,2.591,2.591,0,0,1,.528-.231,1.781,1.781,0,0,1,.513-.146,1.593,1.593,0,0,0,.4-.124c.1-.032.188-.071.31-.12a1.345,1.345,0,0,1,.035.221,2.454,2.454,0,0,1-.227,1.073.6.6,0,0,0-.069.231,1.5,1.5,0,0,1-.306.834q-.409.576-.85,1.123a8.088,8.088,0,0,1-.574.611,1.45,1.45,0,0,0-.331.449.722.722,0,0,1-.218.282,1.554,1.554,0,0,0-.425.665,1.477,1.477,0,0,1-.146.281.556.556,0,0,0-.066.65.8.8,0,0,1,.055.275c.013.122.009.249.019.371a1.388,1.388,0,0,0,.453.9c-.041.377.044.759-.011,1.145a.186.186,0,0,0,0,.035c-.223-.017-.44-.026-.654-.03-.127,0-.251,0-.377,0a27.3,27.3,0,0,0-4.5.442c-.637.1-1.278.227-1.931.362a.42.42,0,0,0-.068-.1s-.087-.1-.107-.116l-.309-.314c-.178-.184-.358-.364-.536-.543.006-.057.006-.107.017-.158a.955.955,0,0,0-.133-.706.593.593,0,0,1-.083-.393,1.266,1.266,0,0,0-.157-.705c-.107-.228-.27-.414-.367-.648a1,1,0,0,0-.228-.275c-.083-.084-.18-.159-.267-.24a.934.934,0,0,1-.376-.7.516.516,0,0,0,.1-.161,4.076,4.076,0,0,0,.2-1.328.329.329,0,0,0-.182-.291,2.983,2.983,0,0,1-.294-.2c-.131.028-.307.058-.477.1-.129.035-.269.015-.306-.094-.058-.174-.255-.178-.307-.352-.019-.067-.111-.109-.17-.159a.315.315,0,0,0-.293-.065,3.058,3.058,0,0,0-1.389.565.246.246,0,0,1-.253.052c-.062-.022-.122-.043-.182-.069a.759.759,0,0,0-.639,0c-.155.065-.3.146-.453.222-.437.231-.589.21-.925-.148-.146-.155-.281-.32-.439-.462a.744.744,0,0,0-.526-.277,1.466,1.466,0,0,1-.247-.459,2,2,0,0,0-.51-.766.443.443,0,0,1-.1-.209.4.4,0,0,0-.249-.287.257.257,0,0,1-.2-.264,1.434,1.434,0,0,0-.2-.711c.084-.079.159-.146.251-.231,0-.078.013-.174.011-.27a.661.661,0,0,1,.08-.434.374.374,0,0,0,0-.428.64.64,0,0,1-.045-.636c-.09-.051-.163-.094-.253-.149a.394.394,0,0,1-.022-.093.7.7,0,0,1,.122-.428,1.178,1.178,0,0,0,.209-.569.329.329,0,0,1,.164-.264.42.42,0,0,0,.189-.341.941.941,0,0,1,.19-.445c.122-.193.237-.388.361-.6a3.7,3.7,0,0,0,.521-.283,5.111,5.111,0,0,0,.482-.462,2.942,2.942,0,0,0-.022-.43,1.153,1.153,0,0,1,.352-1.077.333.333,0,0,1,.056-.054,1.4,1.4,0,0,0,.622-.8.307.307,0,0,1,.074-.087,1.049,1.049,0,0,0,.637.067,4.556,4.556,0,0,1,.528.019c.127-.228.393-.324.6-.492a.69.69,0,0,1,.36-.118c.32-.034.641-.042.959-.064a.479.479,0,0,0,.186-.022.651.651,0,0,1,.608.019c.247-.217.508-.318.792-.028a.815.815,0,0,1-.024.146.308.308,0,0,0,.094.364c.12.107.118.183.045.32-.026.049-.063.088-.091.133s-.034.07-.057.118a1.713,1.713,0,0,0,.463.43.552.552,0,0,0,.217.063c.177.032.354.064.532.088a.318.318,0,0,1,.3.27,1.393,1.393,0,0,0,.076.2,2.057,2.057,0,0,1,.83.3.263.263,0,0,0,.4-.221c.009-.067-.006-.137,0-.208a.388.388,0,0,1,.335-.427,1.034,1.034,0,0,1,.229-.03c.09,0,.177.013.27.019.051.088.094.168.14.249.085,0,.162,0,.236,0s.142,0,.184.039a.729.729,0,0,0,.466.152c.2.027.4.077.6.12a.3.3,0,0,0,.32-.087,1.039,1.039,0,0,1,.085-.083.383.383,0,0,1,.53-.05,2.573,2.573,0,0,0,.24.133.3.3,0,0,0,.384-.1.811.811,0,0,0,.137-.247,3.7,3.7,0,0,0,.1-.4c.052-.24.1-.482.152-.725a.336.336,0,0,0,.026-.117.85.85,0,0,1,.069-.637c-.076-.1-.125-.07-.17-.051-.144.057-.283.133-.432.177a.618.618,0,0,1-.589-.07.305.305,0,0,0-.477.053.33.33,0,0,1-.424.074,3.455,3.455,0,0,0-.414-.127,3.1,3.1,0,0,0-.153-.425c-.037-.079-.124-.129-.2-.2a.536.536,0,0,0-.111-.508.176.176,0,0,1,0-.251.4.4,0,0,1,.384-.144.456.456,0,0,0,.414-.148v-.161c.022-.011.043-.032.063-.032a1.814,1.814,0,0,0,.978-.319c.065-.041.131-.087.2-.122a.367.367,0,0,1,.371,0c.044.029.1.034.14.064a1.329,1.329,0,0,0,.925.213c.14-.009.282,0,.424-.013a.924.924,0,0,0,.26-.065.2.2,0,0,0,.1-.273c-.157-.253-.253-.558-.569-.678a7.261,7.261,0,0,1-.72-.388c-.14-.075-.17-.231-.264-.334.025-.035.047-.07.068-.1a.819.819,0,0,0,.148-.667c.118-.085.317-.069.38-.279a.326.326,0,0,0-.362.032c-.222.159-.517.18-.7.423-.022.031-.092.021-.14.036-.081.026-.161.058-.273.1.183.136.333.249.491.356l.009.006c.017.011.05,0,.082-.006a.062.062,0,0,1,.028,0l.014,0c.087.011.091.028.074.218a1.178,1.178,0,0,0-.327.052c-.092.04-.156.142-.244.195a.656.656,0,0,1-.227.041V56.91l-.234-.061a.208.208,0,0,1-.009-.077c.011-.129.176-.135.205-.242-.059-.165-.223-.106-.328-.181l.068-.214c-.068,0-.14-.022-.182,0a.774.774,0,0,0-.34.375c-.036.088-.081.171-.118.257a.658.658,0,0,0-.072.317c.006.155-.124.189-.242.244a1.885,1.885,0,0,0,0,.191.582.582,0,0,1-.091.432.381.381,0,0,0-.023.426c.064.129.138.253.208.379-.006.012-.011.029-.019.034a1.587,1.587,0,0,1-.446.217,2.073,2.073,0,0,1-.486-.061c-.109-.009-.227-.077-.345.043v.244c-.114.015-.14-.084-.2-.127a.11.11,0,0,0-.1,0,.2.2,0,0,0-.036.109.144.144,0,0,0,.021.079c.137.262.275.521.414.783a.837.837,0,0,0-.242.614c-.094-.035-.21-.041-.273-.108a1.294,1.294,0,0,1-.223-.36c-.022-.047.028-.109.088-.1.116.009.227.037.342.043.068,0,.118-.035.107-.142-.155-.032-.318-.069-.49-.107a1.551,1.551,0,0,1-.589-1.341.741.741,0,0,0-.469-.329.166.166,0,0,1-.124-.081c-.043-.2-.209-.227-.346-.264a.5.5,0,0,1-.382-.41,2.862,2.862,0,0,0-.1-.288.665.665,0,0,0-.144.024.122.122,0,0,1-.163-.064.7.7,0,0,1-.042-.155c-.041-.116-.1-.146-.2-.109-.062.019-.116.053-.195.088.036.194.07.377.109.6a1.557,1.557,0,0,1,.523.713c.088.181.195.322.408.324a.167.167,0,0,1,.131.066c.1.185.27.247.426.343.084.05.191.1.161.244-.114.069-.175-.1-.275-.068-.14.178-.14.178.039.459-.111.163-.026.5-.4.486a.584.584,0,0,1,.039-.163.432.432,0,0,0-.035-.5,3.608,3.608,0,0,0-.316-.414.539.539,0,0,0-.2-.107c-.072-.028-.176-.017-.218-.067-.266-.319-.713-.443-.839-.914A.766.766,0,0,0,91.9,57.7a.326.326,0,0,0-.532.055c-.015.022-.019.05-.035.071a.479.479,0,0,1-.722.21c-.035-.017-.067-.039-.1-.054a.252.252,0,0,0-.321.052c-.1.111-.185.216-.09.4a.289.289,0,0,1-.11.388,2.032,2.032,0,0,1-.341.191.922.922,0,0,0-.44.548c-.07.172.032.32.056.477-.07.169-.17.308-.238.469a1.632,1.632,0,0,1-.358.39,1.976,1.976,0,0,0-.288.019,1.8,1.8,0,0,0-.29.092c-.1.035-.188.084-.283.116-.218.069-.234.076-.339-.124a.337.337,0,0,0-.386-.195c-.1.013-.2.028-.331.047a1.1,1.1,0,0,1,0-.205.4.4,0,0,0-.151-.447c.053-.244.1-.485.151-.727.028-.144.087-.294-.011-.436a.1.1,0,0,1-.021-.077c.1-.223,0-.423-.063-.635.09-.088.176-.165.257-.253.114-.122.227-.17.371-.05a.226.226,0,0,0,.146.037A6.827,6.827,0,0,1,88.5,58.1a.253.253,0,0,0,.3-.2c.047-.129.09-.257.131-.388s.083-.288.131-.452a1.009,1.009,0,0,0-.423-.726.109.109,0,0,1-.028-.026c-.066-.1-.1-.229-.227-.266-.1-.029-.2-.057-.324-.092-.015-.092-.036-.193-.059-.317a1.5,1.5,0,0,1,.229-.067,2.067,2.067,0,0,1,.231.006c.268,0,.292-.028.26-.334,0-.022.015-.045.035-.1.094.063.183.122.283.187.133-.116.227-.268.393-.327a.244.244,0,0,0,.118-.154.541.541,0,0,1,.26-.346,1.341,1.341,0,0,0,.5-.663.772.772,0,0,1,.541-.467c.051-.013.118-.006.146-.039a.53.53,0,0,1,.472-.164.254.254,0,0,0,.043-.32.551.551,0,0,1-.078-.467c.032-.082-.027-.15-.066-.224a.233.233,0,0,1,.1-.369c.058-.03.124-.039.185-.066l.029-.013a.893.893,0,0,0,.148-.127.4.4,0,0,1,.213.14.327.327,0,0,1,.062.188c-.1.082-.2.168-.3.257a1.471,1.471,0,0,0,.051.523l.34.227c.129-.029.262-.149.428-.055a3.684,3.684,0,0,0,.429.19c.328-.182.579-.517.971-.538.121.09.235.175.363.269a1.605,1.605,0,0,0,.158-.184c.019-.03,0-.085.017-.12a1.78,1.78,0,0,0,.172-.4,1.189,1.189,0,0,0-.052-.36.278.278,0,0,1-.009-.041.2.2,0,0,1,.022-.12,1.909,1.909,0,0,1,.273-.491.32.32,0,0,1,.3.227c.041.107.055.1.218.116a1.658,1.658,0,0,0,.063-.7c-.063-.014-.124-.027-.191-.044-.026-.082-.055-.17-.081-.253.013-.032.015-.065.032-.08a1.361,1.361,0,0,1,.205-.184.485.485,0,0,1,.547-.058.312.312,0,0,0,.395-.042.837.837,0,0,1,.469-.209c.054-.107.011-.159-.053-.184a.413.413,0,0,1-.294-.307,1.639,1.639,0,0,1-.687.174c-.052-.006-.111.057-.168.088l-.4.221a3.49,3.49,0,0,1-.332-.146.418.418,0,0,1-.234-.393c0-.291-.022-.579-.035-.868A.5.5,0,0,1,94.884,48a6.529,6.529,0,0,0,.592-.7,1.769,1.769,0,0,1,.15-.142c-.03-.116-.064-.236-.1-.356-.013-.048-.028-.1-.041-.144-.244-.116-.448.027-.637.144a.513.513,0,0,0-.208.265.5.5,0,0,0-.022.226c.038.294-.174.443-.277.654a.092.092,0,0,1-.063.042c-.227.026-.339.235-.5.361a.4.4,0,0,0-.15.358c0,.221,0,.439,0,.652.1.064.172.109.243.163a.6.6,0,0,1,.229.459.155.155,0,0,1-.133.172c-.089,0-.178-.019-.268-.019a.576.576,0,0,0-.135.037c.017.044.024.083.037.085.1.024.195.043.293.064.015.217-.182.213-.277.335a2.871,2.871,0,0,0-.008.676.527.527,0,0,1-.133.388.544.544,0,0,1-.266.193c-.209.061-.209.061-.233.329,0,.013-.011.025-.029.062-.065.017-.148.041-.222.063-.034-.032-.062-.045-.068-.067a5.048,5.048,0,0,1-.122-.579.9.9,0,0,0-.052-.161c-.1-.223-.19-.449-.283-.674a.87.87,0,0,1-.107-.472.212.212,0,0,0-.133-.227,5.233,5.233,0,0,1-.336.529,1.068,1.068,0,0,1-.344.257.554.554,0,0,1-.6-.251.394.394,0,0,1,.011-.234c.017-.059.077-.1.107-.14-.013-.127-.205-.077-.144-.262.035-.107-.049-.257-.081-.388-.028-.114-.124-.221-.011-.341.009-.006-.024-.061-.039-.092,0-.006-.006-.015-.011-.022-.064-.133-.066-.15.071-.228.1-.057.079-.118.047-.218l.329-.028c.011-.154-.148-.1-.176-.214.017-.024.039-.079.061-.079.238,0,.373-.194.543-.324,0-.092.006-.184.013-.294.147.039.274.076.4.11.013-.052.03-.08.024-.1-.047-.1-.092-.205.022-.293s.159.044.238.07l.058.015c.1-.085.21-.176.328-.277.063.013.131.026.217.045a.517.517,0,0,0-.024-.131c-.041-.08-.109-.127-.191-.078-.1.058-.19.133-.277.194a.15.15,0,0,1-.094-.234.125.125,0,0,1,.048-.061c.231-.107.283-.362.428-.554l.168.017c0-.03.019-.062.011-.079-.114-.231-.118-.327.074-.432.141-.079.068-.268.208-.317-.024-.063-.048-.127-.083-.213a1,1,0,0,0,.238-.182.368.368,0,0,1,.268-.153c-.03-.063-.056-.12-.093-.194a2.576,2.576,0,0,1,.754-.631c.034.041.057.071.092.116l.395-.229c-.006-.05-.015-.1-.022-.15.218-.1.345.017.438.185.205,0,.124-.176.173-.277h.187c-.013-.065-.022-.116-.035-.181a.261.261,0,0,1,.094-.038c.035,0,.087.016.1.044.077.142.149.032.229,0l.094.183a.814.814,0,0,1,.14-.194.2.2,0,0,1,.174-.013c.024.009.024.093.04.161.17.05.374-.165.575.05-.12.079-.225.146-.364.236.208.081.375.144.558.214.036-.024.077-.053.118-.079.151-.1.177-.085.255.075.042.082.094.157.14.23A1.386,1.386,0,0,1,98.8,45a1.971,1.971,0,0,0,.459.29.711.711,0,0,1,.234.927c-.015.022-.031.05-.053.058a.932.932,0,0,1-.7.122c-.159-.054-.323-.084-.482-.133a1.528,1.528,0,0,1-.362-.133A.821.821,0,0,0,97.611,46c-.1-.017-.144-.1-.189-.217.052-.135.249-.244.129-.465-.09.072-.175.146-.266.21-.029.022-.072.015-.14.028.048.122.009.266.124.36a.853.853,0,0,1-.006.22c.058.122.168.016.286.116l.455.358c.015.2.031.412.051.652a2.638,2.638,0,0,1,.279.244.394.394,0,0,0,.519.111c.054-.026.111-.049.194-.085-.14-.216-.355-.316-.429-.549.227-.122.343.127.534.176l.326-.135c.117-.187-.075-.288-.075-.445.155-.142.314-.288.491-.452.225,0,.225,0,.485.18a.454.454,0,0,0-.066-.561.43.43,0,0,1-.1-.3c-.009-.135-.037-.27-.058-.408.453-.229.6-.184.774.26a.856.856,0,0,0-.253.039.222.222,0,0,0-.064.367.525.525,0,0,0,.557.178,1.646,1.646,0,0,1,.3-.639,27.711,27.711,0,0,1,4.748,6.15,9.124,9.124,0,0,0-.944-.049,9.845,9.845,0,0,0-1.2.075,1.98,1.98,0,0,1,.028.3h-1.557c-.257.068-.517.148-.777.236a.436.436,0,0,0,.083.845c.185.026.373.048.56.069.41.049.8.094,1.186.168a.431.431,0,0,0-.146.293l0,.022a.309.309,0,0,0-.006.063.433.433,0,0,0,.364.463l.936.152a.446.446,0,0,0-.083.257.435.435,0,0,0,.362.427l.557.1c.813.14,1.607.277,2.386.443a7.854,7.854,0,0,0-2.952.794,1.61,1.61,0,0,1,.244.363,1.635,1.635,0,0,1,.127.36h-1.562a7.5,7.5,0,0,0-1.933,2.119,1.187,1.187,0,0,0-.161.39.435.435,0,0,0,.719.414,7.219,7.219,0,0,1,1.726-1.165.435.435,0,0,0,.181.414.447.447,0,0,0,.251.079.44.44,0,0,0,.281-.1,4.994,4.994,0,0,1,.536-.4l.006.011a.439.439,0,0,0,.38.22.459.459,0,0,0,.169-.032l.045-.019a1.5,1.5,0,0,0,.183-.081,8.563,8.563,0,0,1,2.649-.87C108.886,57.872,108.919,57.992,108.95,58.114Z" transform="translate(-54.064 -37.368)" fill="#fff" fill-rule="evenodd"/>
            <path id="Path_7266" data-name="Path 7266" d="M108.147,63.762c0,.081,0,.159,0,.24a1.6,1.6,0,0,0-.567-.4,1.179,1.179,0,0,1-.317-.247,2.161,2.161,0,0,0-.79.019,3.706,3.706,0,0,1-1.52-.043,1.1,1.1,0,0,1,.035-.111c.043-.124.092-.247.146-.369l.035.19a.436.436,0,0,0,.395.353.192.192,0,0,0,.036,0,.436.436,0,0,0,.41-.288,11.357,11.357,0,0,1,1.884-3.134A28.212,28.212,0,0,1,108.147,63.762Z" transform="translate(-52.379 -36.05)" fill="#fff" fill-rule="evenodd"/>
            <path id="Path_7267" data-name="Path 7267" d="M56.343,55.126l.013.015v-.006Z" transform="translate(-56.343 -36.445)" fill="#fff" fill-rule="evenodd"/>
            <path id="Path_7268" data-name="Path 7268" d="M58.39,63.386a.29.29,0,0,0-.161-.354.45.45,0,0,0,.1-.2l.036-.19c.054.122.1.244.146.369a9.133,9.133,0,0,1,.27,1.04c.035.165.071.33.111.493a.375.375,0,0,0,.03.082c-.187-.264-.328-.56-.5-.835A.537.537,0,0,1,58.39,63.386Z" transform="translate(-56.189 -35.833)" fill="#fff" fill-rule="evenodd"/>
            <path id="Path_7269" data-name="Path 7269" d="M59.21,66.618a.536.536,0,0,1-.131-.072c-.127-.116-.244-.243-.375-.353a.393.393,0,0,1-.15-.526c-.1-.177-.194-.339-.288-.5a3.7,3.7,0,0,1-.341-.188.135.135,0,0,1,0-.23.243.243,0,0,0,.1-.282.832.832,0,0,0-.114-.26,2.732,2.732,0,0,0-.268-.35,1.236,1.236,0,0,1-.335-.768c-.006-.137-.04-.273-.051-.41A.717.717,0,0,0,56.773,62a.359.359,0,0,1-.067-.026c.013-.227.03-.455.05-.68a8.761,8.761,0,0,1,.856,1.712.434.434,0,0,0,.3.275.953.953,0,0,0,.148.513,2.557,2.557,0,0,1,.332.685c.019.094.039.188.065.278a.756.756,0,0,0,.083.224,1.608,1.608,0,0,1,.288.843.349.349,0,0,0,.205.314C59.256,66.247,59.25,66.255,59.21,66.618Z" transform="translate(-56.313 -35.942)" fill="#fff" fill-rule="evenodd"/>
            <path id="Path_7270" data-name="Path 7270" d="M59.564,64.584a6.67,6.67,0,0,1,.273,1.388,4.04,4.04,0,0,0-.6-.685c0-.059,0-.127,0-.195a.373.373,0,0,0-.129-.327,1.688,1.688,0,0,1-.14-.153.427.427,0,0,0,.279.1h0A.433.433,0,0,0,59.564,64.584Z" transform="translate(-56.129 -35.674)" fill="#fff" fill-rule="evenodd"/>
            <path id="Path_7271" data-name="Path 7271" d="M60.092,66.89a.257.257,0,0,0,.081.015c-.026.116-.053.23-.077.346A.484.484,0,0,1,60.092,66.89Z" transform="translate(-56.04 -35.486)" fill="#fff" fill-rule="evenodd"/>
            <path id="Path_7272" data-name="Path 7272" d="M69.736,45.988c-.075.081.006.111.035.159l.1.171a.8.8,0,0,1-.716-.07,2.222,2.222,0,0,0-.1.2c-.028.076-.041.157-.065.247l-.212.091a.379.379,0,0,1-.493-.08.187.187,0,0,0-.26-.062c.047.153.188.2.282.3.115.117.253.1.414.024-.024.091-.024.137-.047.161a.551.551,0,0,0-.168.314.23.23,0,0,1-.242.221,1.108,1.108,0,0,0-.676.281c-.24-.116-.472-.226-.7-.34a.464.464,0,0,0-.5-.036c.026.1.111.1.181.122.161.044.33.075.485.131a.606.606,0,0,1,.408.367c-.05.035-.088.07-.129.094-.135.074-.294.109-.331.309-.01.042-.068.079-.111.107a.623.623,0,0,0-.319.44c-.011.068-.089.127-.146.182a1.094,1.094,0,0,0-.343,1.036,2.36,2.36,0,0,1,0,.4c.092.069.242-.077.313.061a1.311,1.311,0,0,1,.056.315c.036.161.075.32.111.48.07.078.142.009.212,0a.519.519,0,0,1,.187.015c.161.041.321.093.482.14a.4.4,0,0,1,.3.238.265.265,0,0,0,.262.2.221.221,0,0,1,.127.072c.12.122.236.249.345.363.244.018.48-.127.711.066-.006.1-.006.208-.024.314a.369.369,0,0,0,.032.275.175.175,0,0,1,.011.154.8.8,0,0,0-.017.554c.017.118.015.238.021.3.1.107.185.2.277.3l-2.284-.814a.623.623,0,0,0-.21-.037.641.641,0,0,0-.408.148l-1.232,1.019,2.15,1.631a22.712,22.712,0,0,0-6.28,9.417,8.02,8.02,0,0,0-.678-2.563,11.661,11.661,0,0,0-2.978-4.377c-.081-.07-.161-.138-.244-.2.064-.275.131-.549.205-.82a8.207,8.207,0,0,1,1.526.616,1.83,1.83,0,0,0,.188.085l.043.017a.457.457,0,0,0,.168.032.436.436,0,0,0,.38-.22l.006-.011a4.9,4.9,0,0,1,.538.4.44.44,0,0,0,.281.1.45.45,0,0,0,.251-.079.435.435,0,0,0,.181-.414A7.15,7.15,0,0,1,62.807,59.7a.431.431,0,0,0,.513.056.431.431,0,0,0,.208-.468,1.179,1.179,0,0,0-.161-.393,7.444,7.444,0,0,0-2.668-2.6,7.844,7.844,0,0,0-2.351-.89c.043-.127.094-.253.144-.38.39-.07.787-.14,1.186-.208l.556-.1a.434.434,0,0,0,.362-.427.459.459,0,0,0-.08-.257l.933-.152a.432.432,0,0,0,.364-.465l-.006-.082a.432.432,0,0,0-.147-.293c.384-.074.774-.119,1.185-.168.187-.022.374-.043.56-.069a.436.436,0,0,0,.083-.845,11.039,11.039,0,0,0-3.246-.607,27.774,27.774,0,0,1,4.63-6.016,1.689,1.689,0,0,0,.223.1c.29-.161.639.026.955-.142-.015-.064-.028-.124-.045-.2.262-.144.46-.019.646.164.013.14-.163.246-.045.39-.042.074-.083.15-.138.246.16.038.229-.08.339-.144a.8.8,0,0,1,.352-.641c.089-.074.165-.168.257-.26-.047-.1-.085-.176-.129-.268a.8.8,0,0,1,.045-.1c.107-.173.1-.257-.069-.291a.576.576,0,0,1-.443-.373l1.437,1.034c0,.038,0,.075,0,.111s.066.094.129.177c.022-.055.044-.107.062-.154l.39.28c.08.131.159.255.233.374a.179.179,0,0,0,.195-.067l.892.641a.271.271,0,0,1-.2-.045c-.041-.029-.074-.075-.116-.107A.916.916,0,0,0,69.736,45.988Z" transform="translate(-56.264 -37.368)" fill="#fff" fill-rule="evenodd"/>
            <path id="Path_7273" data-name="Path 7273" d="M69.532,59.33c.006.108.015.228.024.379l-.255.271c-.148-.147-.037-.343-.146-.5-.039.048-.1.087-.107.137a.644.644,0,0,0,.011.2c.017.164.049.328.051.489a.353.353,0,0,0,.069.225.166.166,0,0,1,.024.142c-.084.155-.1.354-.288.442a.9.9,0,0,0-.273.227.764.764,0,0,1-.408.29.293.293,0,0,0-.2.177.694.694,0,0,1-.283.329.713.713,0,0,0-.327.568,2.64,2.64,0,0,1-.109.77c-.015.03,0,.078.006.117.043.343.1.681.129,1.023a1.651,1.651,0,0,1-.022.45c-.028.165-.118.234-.234.217s-.174-.078-.189-.222a.95.95,0,0,0-.195-.526.469.469,0,0,1-.052-.234.593.593,0,0,1,.028-.161.566.566,0,0,0-.085-.576c-.074-.082-.039-.279-.183-.283-.088,0-.177.092-.266.14-.036.017-.075.024-.131.043-.059-.076-.12-.157-.184-.237a.482.482,0,0,0-.076-.018c-.225-.024-.446.079-.684.012a.038.038,0,0,0-.022,0,16.611,16.611,0,0,1,1.065-1.38,23.061,23.061,0,0,1,3.66-3.4l.063.109C69.864,58.845,69.881,59.187,69.532,59.33Z" transform="translate(-55.624 -36.175)" fill="#fff" fill-rule="evenodd"/>
            <path id="Path_7274" data-name="Path 7274" d="M73.329,56.56a2.433,2.433,0,0,1-.818.311c-.109.15-.2.3-.314.429a.2.2,0,0,1-.169.059l0,0-.093-.437a.649.649,0,0,1,.015-.069.276.276,0,0,1,.213-.214c.088-.022.169-.054.253-.08-.041-.158-.084-.2-.157-.164-.131.066-.262.131-.393.2l-.045-.216c.028-.022.346-.24.388-.27,0,0,.2-.137.242-.168l.058-.041c.045.069.111.127.161.194s.1.15.156.227c.112,0,.213-.006.314,0C73.264,56.326,73.307,56.418,73.329,56.56Z" transform="translate(-55.081 -36.382)" fill="#fff" fill-rule="evenodd"/>
            <path id="Path_7275" data-name="Path 7275" d="M70.021,51.622a3.922,3.922,0,0,0,.05-.532.508.508,0,0,0-.26-.51,1.716,1.716,0,0,1-.2-.17c.08-.1.146-.2.225-.289a1.231,1.231,0,0,0,.37-.959c-.013-.214.072-.419.047-.644a.213.213,0,0,1,.3-.2c.183.124.406.053.587.169.032.022.1-.011.144-.024.163-.049.32-.029.363.106a1.2,1.2,0,0,0,.692.69c-.042.093-.124.185-.107.251a1.4,1.4,0,0,1-.092.781.853.853,0,0,1,.247.087.611.611,0,0,1,.116.188.432.432,0,0,0,.09.03.728.728,0,0,0,.761-.5,1.318,1.318,0,0,1,.32-.5c.242.144.242.144.152.534a1.348,1.348,0,0,1,.184.517.819.819,0,0,0,.111.313c-1.547,1.5-3.015,2.931-3.964,3.856l-1.512-.539c.077-.076.151-.211.3-.257.1-.028.135-.163.093-.283a.618.618,0,0,1,.023-.478,1.044,1.044,0,0,0,0-.665,1.817,1.817,0,0,1,.22-.1A1.054,1.054,0,0,0,70.021,51.622Z" transform="translate(-55.339 -37.003)" fill="#fff" fill-rule="evenodd"/>
            <path id="Path_7276" data-name="Path 7276" d="M80.294,76.923a3.933,3.933,0,0,0-.46.5,3.428,3.428,0,0,0-.221.288.359.359,0,0,1-.39.165c.028.186.14.315.1.489a2.7,2.7,0,0,0-.006.5c-.006.163-.015.329-.031.493a.711.711,0,0,1-.063.235,1.248,1.248,0,0,0-.131.557.768.768,0,0,1-.172.449c-.055.077-.116.148-.173.223a.512.512,0,0,0-.148.466l-.3.282c-.133.009-.262.017-.39.024a.423.423,0,0,0-.4.2.236.236,0,0,1-.148.122c-.323.034-.513.3-.74.489a4.184,4.184,0,0,0-.286.318c0,.221,0,.452,0,.686a.516.516,0,0,1-.051.234c-.148.275-.307.539-.473.826-.042-.028-.079-.057-.116-.083-.022.011-.055.015-.068.036-.093.144-.183.294-.281.436a.484.484,0,0,0-.127.375.373.373,0,0,1-.111.331c-.067.085-.142.162-.2.249a.649.649,0,0,1-.536.27c-.28,0-.559-.011-.851-.015a.086.086,0,0,0,.026.15c.212.077.255.249.24.461l.212.12a.35.35,0,0,1-.019.118,1.3,1.3,0,0,1-.862.755c-.238.054-.474.115-.729.176a.534.534,0,0,1,.017.148c-.011.148-.028.3-.05.44l-.006.025a27.5,27.5,0,0,1-3.055-1.641.709.709,0,0,1,.054-.077,8.464,8.464,0,0,0,.155-1.165,3.734,3.734,0,0,1,.062-1.262.879.879,0,0,1,.035-.159.724.724,0,0,0,.056-.557.411.411,0,0,1,0-.244c.146-.294.062-.623.142-.923a2.935,2.935,0,0,0,.023-1.095,3.271,3.271,0,0,1-.042-.371.462.462,0,0,0-.181-.386,3.917,3.917,0,0,0-.352-.255,4.919,4.919,0,0,0-.453-.227,1.059,1.059,0,0,1-.712-.633.323.323,0,0,1-.061-.148,1.7,1.7,0,0,0-.332-.824,3.331,3.331,0,0,1-.342-.853,2.684,2.684,0,0,0-.382-.76,1.906,1.906,0,0,0-.274-.253,1.668,1.668,0,0,0-.03-.3.8.8,0,0,1,.161-.73c.057-.075.122-.142.182-.216s.048-.072,0-.286l-.21.065c-.017-.122-.032-.24-.048-.357.081-.149.163-.287.234-.435s.137-.314.32-.382a.386.386,0,0,0,.175-.255.654.654,0,0,1,.215-.373.524.524,0,0,0,.2-.505.49.49,0,0,1,.015-.244c.1-.268,0-.548.061-.817a.115.115,0,0,0-.011-.08,1.485,1.485,0,0,1-.26-.628c-.011-.072-.144-.118-.234-.1a.464.464,0,0,0-.376.4c-.04.218-.131.279-.31.2a1.024,1.024,0,0,1-.168-.1.351.351,0,0,0-.384-.024c-.048-.055-.133-.107-.144-.173-.049-.3-.3-.353-.489-.466-.161-.1-.17-.085-.144-.257.009-.053.024-.1.039-.165l-.586-.806a1.316,1.316,0,0,1-.551-.071c-.063-.019-.123-.064-.183-.059-.347.034-.536-.213-.725-.462a1.172,1.172,0,0,1-.1-.177.352.352,0,0,0-.493-.185,1.064,1.064,0,0,0-.205.1c.085-.352.182-.714.3-1.082.082.037.161.074.237.112a.352.352,0,0,0,.334,0,4.625,4.625,0,0,1,.53-.233.444.444,0,0,0,.292-.441,1.021,1.021,0,0,1,.111-.547c.223-.075.463-.163.709-.234.093-.024.215-.052.281.062a.308.308,0,0,1-.037.311,1.974,1.974,0,0,1-.109.17.474.474,0,0,0-.111.339.705.705,0,0,1-.09.436.172.172,0,0,0-.035.075,1.881,1.881,0,0,1-.281.818.709.709,0,0,0,.211.1,1.526,1.526,0,0,0,.343-.024c.127-.017.253-.044.38-.075.268-.067.436.1.591.292a.188.188,0,0,1,0,.231c-.165.218-.117.493-.176.74-.011.037.019.085.009.12a.691.691,0,0,0,.2.8c.069.062.084.2.133.319l.337.11a.733.733,0,0,0,.519-.44,1.166,1.166,0,0,1,.832.453c.089-.115.181-.228.268-.346a.832.832,0,0,0,.122-.205.98.98,0,0,1,.669-.669.557.557,0,0,0,.191-.133c.111-.094.214-.2.326-.288.024-.019.069-.009.1-.013,0,.05.024.127,0,.144a.287.287,0,0,0-.1.358.522.522,0,0,1-.035.237c-.021.077-.053.151-.083.238.085.077.161.142.244.216.037-.041.081-.068.081-.1a1.533,1.533,0,0,0-.018-.242c-.013-.107-.028-.213-.039-.3.15-.168.384-.191.4-.447a1.118,1.118,0,0,1,.517.526l.554-.066a.908.908,0,0,0,.223.12,1.393,1.393,0,0,0,.3.007c.135-.225.38-.122.561-.212l0,.005c.024.076.05.152.08.248l.345.066a.6.6,0,0,0,.305.434,1.265,1.265,0,0,1,.19.14.467.467,0,0,1,.209.45c.175.116.448.054.474.36a.782.782,0,0,0,.576-.042.344.344,0,0,1,.3,0,2.565,2.565,0,0,0,.322.133.766.766,0,0,1,.482.373.54.54,0,0,1,.127.371.528.528,0,0,0,.083.264,2.222,2.222,0,0,0,.135.2.241.241,0,0,1,0,.273c-.218.305-.439.608-.671.9a.792.792,0,0,1-.264.157c-.089.048-.185.08-.275.129-.022.013-.026.065-.043.12a1.991,1.991,0,0,0,1.182-.808,1.219,1.219,0,0,1,.5.031v.29a.888.888,0,0,0-.377.236c.294.061.294.061.395-.216a.694.694,0,0,1,.727-.054.718.718,0,0,1,.526.481c.231.042.464-.071.685.051a.148.148,0,0,0,.111-.015.834.834,0,0,1,.868.157,2.7,2.7,0,0,1,.324.29.494.494,0,0,0,.456.163,1.272,1.272,0,0,1,.311.009,1.347,1.347,0,0,1,.079.24c.026.231.048.463.061.7A.921.921,0,0,1,80.294,76.923Z" transform="translate(-55.83 -35.535)" fill="#fff" fill-rule="evenodd"/>
            <path id="Path_7277" data-name="Path 7277" d="M74.747,53.739l-.013.015v-.015Z" transform="translate(-54.843 -36.559)" fill="#fff" fill-rule="evenodd"/>
            <path id="Path_7278" data-name="Path 7278" d="M86.672,38.2a.391.391,0,0,0-.242.326c-.231.1-.472.006-.7.076-.041.111.09.064.1.137-.1.177-.316-.041-.429.114.017.028.026.068.041.07.1.019.2.03.292.043a.164.164,0,0,1-.1.242.647.647,0,0,0-.33.266,1.833,1.833,0,0,1-.292.244c-.013.091-.035.226-.056.38.106.144.366.133.4.386-.321-.04-.321-.04-.417.1a.828.828,0,0,0,.566.284c.009.032.032.074.026.106-.03.149-.1.208-.21.16-.14-.062-.273-.147-.41-.221-.114.024,0,.116-.067.194l-.249.053c-.006.03-.022.056-.017.078.017.133.071.234.211.253.062.009.12.029.2.049-.015.144-.028.273-.042.4l-.159.054c.015.1.028.188.047.292.112.055.228.109.344.162,0,.109-.076.107-.127.087a3.836,3.836,0,0,1-.348-.189.4.4,0,0,0-.31.29c.053.116.137.094.21.1s.124.015.209.026v.231a.235.235,0,0,0-.039,0,3.792,3.792,0,0,0-.547.043,1.15,1.15,0,0,0-.214-.08,2.9,2.9,0,0,1-.356-.135c-.133.1.036.2-.009.3l-.087.061c-.034.025-.068.049-.107.075-.017-.009-.032-.017-.05-.028a.537.537,0,0,0-.158-.07c-.045-.009-.1.04-.191.077l.09.08a8.3,8.3,0,0,0-.871.364V38.02h0a1.893,1.893,0,0,1,.526-.16c.292,0,.582.014.871.027-.038.037-.075.071-.111.108a1.055,1.055,0,0,0,.584-.032.48.48,0,0,0,.072-.041c.178.013.358.026.536.043a2.827,2.827,0,0,0-.423.566c-.011.013,0,.048.007.076a.158.158,0,0,0,.209-.043c.156-.242.4-.373.57-.566.144.014.288.031.429.049l.2.074c.011-.017.022-.032.032-.048C86.083,38.109,86.377,38.153,86.672,38.2Z" transform="translate(-54.228 -37.854)" fill="#fff" fill-rule="evenodd"/>
            <path id="Path_7279" data-name="Path 7279" d="M83.007,38.021v5.66a10.453,10.453,0,0,0-2.1,1.349c-.306.251-.814.711-1.555,1.4L77.4,45.812l.27-.208-.017,0,.065-.056.332-.291-.579-.65a.211.211,0,0,0,.019-.127.72.72,0,0,0-.2-.473.8.8,0,0,1-.225-.356c-.181.1-.037.262-.088.4l-.233-.264a.231.231,0,0,0-.015-.124c-.016-.037.039-.129.082-.168a.316.316,0,0,0,.037-.446c-.178-.2-.14-.447-.211-.667a.761.761,0,0,1-.026-.137c-.109-.052-.223-.109-.347-.168-.019-.221-.039-.437-.059-.667-.288-.085-.479-.332-.767-.388-.088-.019-.16-.124-.247-.2a.443.443,0,0,0-.094.047.891.891,0,0,0-.1.074l-.1-.045-.117-.062a1.664,1.664,0,0,1-.124.146c-.036.038-.094.094-.122.083-.154-.058-.255.144-.395.085a.688.688,0,0,1-.208-.171c-.052-.058-.081-.142-.135-.2a.678.678,0,0,0-.157-.1c0-.111.074-.146.148-.172.129-.044.26-.079.39-.118-.032-.133-.107-.1-.159-.081-.236.077-.413-.078-.6-.172-.024-.013-.026-.072-.041-.111.2-.109.373.12.582.039a.5.5,0,0,1,.068-.191.284.284,0,0,1,.174-.064,1.654,1.654,0,0,1,.231,0h.251c-.079-.078-.116-.14-.142-.135a2.037,2.037,0,0,0-.57.059.737.737,0,0,1-.209.017.551.551,0,0,0-.247-.225,27.621,27.621,0,0,1,9.467-1.669c-.006,0-.015.006-.023.011a.129.129,0,0,0-.03.1A.112.112,0,0,0,83.007,38.021Z" transform="translate(-54.954 -37.854)" fill="#fff" fill-rule="evenodd"/>
            <path id="Path_7280" data-name="Path 7280" d="M69.365,42.023a.407.407,0,0,0-.234.436,1.887,1.887,0,0,1,.019.289l-.877-.278a.406.406,0,0,1,.1-.069.263.263,0,0,0,.1-.161.383.383,0,0,1,.262-.278,1.268,1.268,0,0,1,.779-.1C69.522,41.989,69.426,41.993,69.365,42.023Z" transform="translate(-55.37 -37.53)" fill="#fff" fill-rule="evenodd"/>
            <path id="Path_7281" data-name="Path 7281" d="M70.417,46.906l.412.3c0,.176-.054.231-.225.229s-.176-.009-.359-.223a2.117,2.117,0,0,0,.124-.189C70.387,46.984,70.4,46.947,70.417,46.906Z" transform="translate(-55.209 -37.116)" fill="#fff" fill-rule="evenodd"/>
            <path id="Path_7282" data-name="Path 7282" d="M71.224,42.733c.133.042.262.1.376.145-.148.146-.3.3-.434.464l-.041.047-1.787-.566a.19.19,0,0,0,.032-.011.236.236,0,0,0,.062-.041c-.035-.129-.07-.255-.114-.412.081-.021.14-.031.2-.051s.111-.032.12-.063a.207.207,0,0,1,.184-.18c.183-.024.356-.211.556-.039.037.032-.019.178.011.257a.518.518,0,0,1-.054.541c-.022.032-.015.037.058.244l.3-.225c.049.077.027.223.145.218s.185-.05.187-.205A.145.145,0,0,1,71.224,42.733Z" transform="translate(-55.285 -37.52)" fill="#fff" fill-rule="evenodd"/>
            <path id="Path_7283" data-name="Path 7283" d="M72.954,48.742a.184.184,0,0,1-.05-.009c-.157-.061-.311-.127-.463-.2-.115-.062-.22-.144-.333-.208a.853.853,0,0,1-.408-.406,1.268,1.268,0,0,0-.072-.131Z" transform="translate(-55.096 -37.044)" fill="#fff" fill-rule="evenodd"/>
            <path id="Path_7284" data-name="Path 7284" d="M71.448,40.355a.215.215,0,0,0,.184-.175c-.133.061-.265.121-.4.184A.783.783,0,0,0,71.448,40.355Z" transform="translate(-55.128 -37.664)" fill="#fff" fill-rule="evenodd"/>
            <path id="Path_7285" data-name="Path 7285" d="M104.02,76.611a.777.777,0,0,0-.18.657.666.666,0,0,1-.048.32c-.045.142-.092.283-.14.426-.452.669-.936,1.317-1.444,1.944a.218.218,0,0,1-.022-.077A1.52,1.52,0,0,0,102,79.39c-.026-.063-.045-.129-.067-.191a.637.637,0,0,1,.015-.513l0,0,.369-.336a2.37,2.37,0,0,0,.421-.5.713.713,0,0,0-.212-1.025l-.011-.006a1.662,1.662,0,0,1,.221-.058.429.429,0,0,0,.314-.212c.1-.165.313-.242.317-.477a.054.054,0,0,1,.017-.036c.183-.118.222-.32.231-.6a1.523,1.523,0,0,1,.547,1.2Z" transform="translate(-52.629 -34.79)" fill="#fff" fill-rule="evenodd"/>
            <path id="Path_7286" data-name="Path 7286" d="M89.075,52.979c-.036-.011-.07-.03-.121-.052-.1-.306-.106-.633-.409-.756-.084-.422-.084-.422-.449-.615a.952.952,0,0,0,.262-.848c-.061-.016-.109-.03-.158-.042-.153-.039-.2.182-.341.188-.09-.291.293-.323.235-.584a.339.339,0,0,0-.109-.025.709.709,0,0,0-.622.525.287.287,0,0,0-.011.274c.076.12.021.239.014.358,0,.023.022.045.029.059l.163-.019a4.359,4.359,0,0,0-.084.433.752.752,0,0,0,.051.226h.459c-.181.233-.075.379.056.532a.17.17,0,0,1-.061.273c-.069.035-.149.047-.216.084a.744.744,0,0,0-.127.12l.12.229-.271.344.635.244a1.087,1.087,0,0,0-.811.553c.121.075.205-.016.3-.036s.2-.022.3-.032c.059-.082.12-.169.194-.27a.912.912,0,0,0,.6.026c.2-.055.438-.034.559-.283-.072-.057-.13-.1-.193-.153.038-.045.061-.077.087-.1C89.452,53.3,89.382,53.066,89.075,52.979Z" transform="translate(-53.818 -36.843)" fill="#fff" fill-rule="evenodd"/>
            <path id="Path_7287" data-name="Path 7287" d="M71.044,40.959a1.241,1.241,0,0,0-.379-.276q-.678.35-1.335.737l.01,0c.227-.045.448.111.676,0,.038-.018.115.044.171.074a.468.468,0,0,0,.372.047l.489-.153c.03-.082.063-.17.094-.258a.183.183,0,0,0,0-.056C71.112,41.039,71.081,41,71.044,40.959Z" transform="translate(-55.284 -37.623)" fill="#fff" fill-rule="evenodd"/>
            <path id="Path_7288" data-name="Path 7288" d="M85.807,47.127c-.043.142,0,.286-.07.435a.993.993,0,0,1-.661.5,1.292,1.292,0,0,0-.575.273c-.281-.121-.561-.241-.847-.366a9.837,9.837,0,0,0,1.169-1.209.188.188,0,0,0,.186-.185.14.14,0,0,1,.122-.068.491.491,0,0,0,.427-.041A.793.793,0,0,0,85.807,47.127Z" transform="translate(-54.116 -37.152)" fill="#fff" fill-rule="evenodd"/>
            <path id="Path_7289" data-name="Path 7289" d="M92.567,40.149c-.068.081-.145.154-.215.234-.014.015-.009.05-.014.084.074.064.151.131.23.195.005,0,.023-.009.019-.008a2.078,2.078,0,0,1,.307-.382.837.837,0,0,0,.1-.088c-.134-.062-.269-.12-.4-.18C92.578,40.076,92.586,40.125,92.567,40.149Z" transform="translate(-53.407 -37.679)" fill="#fff" fill-rule="evenodd"/>
            <path id="Path_7290" data-name="Path 7290" d="M92.311,40.064c0,.019.017.043.029.07l.249-.121-.233-.1A.543.543,0,0,0,92.311,40.064Z" transform="translate(-53.41 -37.686)" fill="#fff" fill-rule="evenodd"/>
            <path id="Path_7291" data-name="Path 7291" d="M92.568,40h0Z" transform="translate(-53.389 -37.679)" fill="#fff" fill-rule="evenodd"/>
            <path id="Path_7292" data-name="Path 7292" d="M91.807,39.73c.109.067.221.129.332.194l.036-.09q-.276-.115-.553-.224C91.686,39.653,91.746,39.692,91.807,39.73Z" transform="translate(-53.466 -37.711)" fill="#fff" fill-rule="evenodd"/>
            <path id="Path_7293" data-name="Path 7293" d="M87.335,51.871a.757.757,0,0,0-.613.1.138.138,0,0,0-.013.039c-.011.27-.017.277-.247.268a.753.753,0,0,0-.144.024l-.052.294.255.118-.169.233a.529.529,0,0,1,.071.056.785.785,0,0,1,.065.084c-.329.142-.329.142-.3.427a1.05,1.05,0,0,0,.273.067.524.524,0,0,0,.327-.077.846.846,0,0,1,.5-.214,2.431,2.431,0,0,0,.1-.359,1.289,1.289,0,0,0-.017-.37c-.024-.132.061-.238.058-.353A1.382,1.382,0,0,0,87.335,51.871Z" transform="translate(-53.91 -36.713)" fill="#fff" fill-rule="evenodd"/>
            <path id="Path_7294" data-name="Path 7294" d="M74.747,53.739v.015h-.013Z" transform="translate(-54.843 -36.559)" fill="#fff" fill-rule="evenodd"/>
            <path id="Path_7295" data-name="Path 7295" d="M75.519,55.74c-.1.006-.064-.1-.133-.155-.042,0-.107,0-.169.009-.1.009-.2.047-.26-.1-.017-.039-.107-.056-.165-.065a1.521,1.521,0,0,0-.7.028.2.2,0,0,1-.081-.264.455.455,0,0,1,.1-.174,1.333,1.333,0,0,0,.3-.448l.384-.27a.6.6,0,0,0-.024.144.547.547,0,0,0,.624.291,1.423,1.423,0,0,0,.224.588C75.713,55.433,75.667,55.56,75.519,55.74Z" transform="translate(-54.904 -36.513)" fill="#fff" fill-rule="evenodd"/>
            <path id="Path_7296" data-name="Path 7296" d="M69.477,47.5c-.04-.14-.089-.306-.134-.465a1.25,1.25,0,0,1-.841-.521.272.272,0,0,0-.214.287.71.71,0,0,1-.08.223.631.631,0,0,0-.078.227c.008.172-.093.275-.209.414.122.048.226.057.281.118s.05.165.076.267c.216-.058.394-.129.466-.376.068-.228.214-.269.361-.1a.54.54,0,0,0,.61.188C69.8,47.506,69.565,47.605,69.477,47.5Z" transform="translate(-55.399 -37.148)" fill="#fff" fill-rule="evenodd"/>
            <path id="Path_7297" data-name="Path 7297" d="M66.191,65.925l.013-.017-.021.008Z" transform="translate(-55.54 -35.566)" fill="#fff" fill-rule="evenodd"/>
            <path id="Path_7298" data-name="Path 7298" d="M67.858,65.945a2.984,2.984,0,0,1-.619-.3.833.833,0,0,0-1.037.294,1.273,1.273,0,0,1,.539-.117c.028.056.057.116.085.174a1.993,1.993,0,0,1,1.2.532c0,.054,0,.106,0,.159,0,.009.019.015.052.039.2-.013.413-.025.628-.047.058,0,.13-.015.128-.123-.132-.091-.266-.191-.407-.28A2.286,2.286,0,0,0,67.858,65.945Z" transform="translate(-55.539 -35.594)" fill="#fff" fill-rule="evenodd"/>
            <path id="Path_7299" data-name="Path 7299" d="M69.592,66.547a1.557,1.557,0,0,1-.527.077c.13.154.071.31.1.491-.134.018-.235.028-.332.05a.1.1,0,0,0-.05.087c.009.029.061.071.079.064a.751.751,0,0,1,.594-.016.121.121,0,0,0,.1-.018,1.047,1.047,0,0,1,.589-.145c.07-.008.155.013.2-.108-.178-.142-.355-.292-.542-.426A.266.266,0,0,0,69.592,66.547Z" transform="translate(-55.329 -35.515)" fill="#fff" fill-rule="evenodd"/>
            <path id="Path_7300" data-name="Path 7300" d="M70.87,42.04c-.137,0-.305-.042-.379.122-.065.146.078.244.137.359.01.019.044.023.071.036a.375.375,0,0,0,.108-.016.458.458,0,0,1,.4,0c.07.035.169.005.25.005a.356.356,0,0,0,.012-.059.269.269,0,0,0-.015-.079A.571.571,0,0,0,70.87,42.04Z" transform="translate(-55.19 -37.513)" fill="#fff" fill-rule="evenodd"/>
            <path id="Path_7301" data-name="Path 7301" d="M65.927,44.209a.2.2,0,0,0-.364.032.736.736,0,0,1-.3.318c.15.071.262.134.377.175a2.553,2.553,0,0,0,.369.092.138.138,0,0,0,.155-.2A2.58,2.58,0,0,0,65.927,44.209Z" transform="translate(-55.616 -37.344)" fill="#fff" fill-rule="evenodd"/>
            <path id="Path_7302" data-name="Path 7302" d="M91.388,58.167c.005-.11.023-.236-.1-.279s-.183.066-.275.151c.04.225-.01.468.051.745.345-.187.345-.187.324-.5A.924.924,0,0,1,91.388,58.167Z" transform="translate(-53.515 -36.221)" fill="#fff" fill-rule="evenodd"/>
            <path id="Path_7303" data-name="Path 7303" d="M92.128,59.108a3.368,3.368,0,0,1,.344.158.575.575,0,0,0,.361.121.917.917,0,0,0-.016-.438C92.288,58.97,92.288,58.97,92.128,59.108Z" transform="translate(-53.425 -36.134)" fill="#fff" fill-rule="evenodd"/>
            <path id="Path_7304" data-name="Path 7304" d="M68.6,48.3c-.057.083-.019.149.089.194.116-.109.3-.149.381-.361A.384.384,0,0,0,68.6,48.3Z" transform="translate(-55.346 -37.018)" fill="#fff" fill-rule="evenodd"/>
            <path id="Path_7305" data-name="Path 7305" d="M97.543,59.934a.2.2,0,0,0-.008.146.109.109,0,0,0,.093.051.452.452,0,0,0,.344-.384C97.8,59.8,97.643,59.788,97.543,59.934Z" transform="translate(-52.984 -36.069)" fill="#fff" fill-rule="evenodd"/>
            <path id="Path_7306" data-name="Path 7306" d="M69.656,48.357a.174.174,0,0,0-.143.1.281.281,0,0,0,.057.322.255.255,0,0,0,.2-.283A.189.189,0,0,0,69.656,48.357Z" transform="translate(-55.271 -36.997)" fill="#fff" fill-rule="evenodd"/>
            <path id="Path_7307" data-name="Path 7307" d="M67.589,67.274c.3.2.3.2.487.024C67.922,67.121,67.767,67.2,67.589,67.274Z" transform="translate(-55.426 -35.461)" fill="#fff" fill-rule="evenodd"/>
            <path id="Path_7308" data-name="Path 7308" d="M95.532,59.942c-.108-.018-.21-.1-.355,0,.4.21.477.21.7,0A2.156,2.156,0,0,1,95.532,59.942Z" transform="translate(-53.176 -36.057)" fill="#fff" fill-rule="evenodd"/>
            <path id="Path_7309" data-name="Path 7309" d="M91.047,50.854l.355-.075-.083-.3A.537.537,0,0,0,91.047,50.854Z" transform="translate(-53.513 -36.824)" fill="#fff" fill-rule="evenodd"/>
            <path id="Path_7310" data-name="Path 7310" d="M91.738,51.467l-.161.1a.624.624,0,0,0,.038.12c.092.127.152.152.208.094.085-.09.035-.172-.015-.251A.345.345,0,0,0,91.738,51.467Z" transform="translate(-53.469 -36.744)" fill="#fff" fill-rule="evenodd"/>
            <path id="Path_7311" data-name="Path 7311" d="M70.632,67.188a.408.408,0,0,0,.417-.077C70.816,66.961,70.763,66.97,70.632,67.188Z" transform="translate(-55.178 -35.476)" fill="#fff" fill-rule="evenodd"/>
            <path id="Path_7312" data-name="Path 7312" d="M73.378,56.293c.038-.138.08-.275.111-.415.006-.025-.028-.061-.047-.1C73.295,55.99,73.294,55.991,73.378,56.293Z" transform="translate(-54.958 -36.392)" fill="#fff" fill-rule="evenodd"/>
            <path id="Path_7313" data-name="Path 7313" d="M91.107,57.545a.126.126,0,0,0,.072.082.1.1,0,0,0,.084-.055.374.374,0,0,0-.055-.363C91.144,57.34,91.081,57.429,91.107,57.545Z" transform="translate(-53.508 -36.276)" fill="#fff" fill-rule="evenodd"/>
            <path id="Path_7314" data-name="Path 7314" d="M69.141,51.343a.421.421,0,0,0-.087.078c-.055.069-.057.154-.005.174a.13.13,0,0,0,.167-.055c.044-.067.071-.142,0-.212A.2.2,0,0,0,69.141,51.343Z" transform="translate(-55.31 -36.755)" fill="#fff" fill-rule="evenodd"/>
            <path id="Path_7315" data-name="Path 7315" d="M93.4,50.535c-.136.173-.162.269-.088.331a.035.035,0,0,0,.032,0c.128-.072.1-.191.079-.309C93.417,50.55,93.4,50.544,93.4,50.535Z" transform="translate(-53.332 -36.82)" fill="#fff" fill-rule="evenodd"/>
            <path id="Path_7316" data-name="Path 7316" d="M94.128,50.225c0,.059.035.109.09.1a.782.782,0,0,0,.183-.107c-.074-.05-.107-.089-.148-.1A.1.1,0,0,0,94.128,50.225Z" transform="translate(-53.261 -36.854)" fill="#fff" fill-rule="evenodd"/>
            <path id="Path_7317" data-name="Path 7317" d="M89.714,58.375a.745.745,0,0,0-.151.09c-.012.009-.013.051,0,.07s.037.028.072.054a1.647,1.647,0,0,0,.133-.109.078.078,0,0,0,.006-.069C89.762,58.392,89.727,58.37,89.714,58.375Z" transform="translate(-53.635 -36.18)" fill="#fff" fill-rule="evenodd"/>
            <path id="Path_7318" data-name="Path 7318" d="M92.242,45.135c.177-.048.177-.048.224-.174A.211.211,0,0,0,92.242,45.135Z" transform="translate(-53.415 -37.274)" fill="#fff" fill-rule="evenodd"/>
            <path id="Path_7319" data-name="Path 7319" d="M68.459,52.99c-.016,0-.05.032-.048.04a1.083,1.083,0,0,0,.07.167c.005.011.041,0,.064,0,.005-.01.016-.019.017-.031C68.573,53.079,68.522,52.991,68.459,52.99Z" transform="translate(-55.359 -36.62)" fill="#fff" fill-rule="evenodd"/>
            <path id="Path_7320" data-name="Path 7320" d="M91.746,40.02c.078.1.142.155.265.1a.753.753,0,0,0-.135-.1A.413.413,0,0,0,91.746,40.02Z" transform="translate(-53.456 -37.678)" fill="#fff" fill-rule="evenodd"/>
            <path id="Path_7321" data-name="Path 7321" d="M87.062,50.545a.259.259,0,0,0,.214-.222A.218.218,0,0,0,87.062,50.545Z" transform="translate(-53.838 -36.837)" fill="#fff" fill-rule="evenodd"/>
            <path id="Path_7322" data-name="Path 7322" d="M94.038,43.911c.03.013.068.042.092.034.039-.014.069-.054.175-.146a1.671,1.671,0,0,0-.227.048C94.06,43.854,94.052,43.889,94.038,43.911Z" transform="translate(-53.269 -37.369)" fill="#fff" fill-rule="evenodd"/>
            <path id="Path_7323" data-name="Path 7323" d="M104.05,67.6a.073.073,0,0,0-.046.048c0,.01.024.031.04.051q.052-.015.1-.032a.069.069,0,0,0,.029-.023.086.086,0,0,0,0-.036A.519.519,0,0,0,104.05,67.6Z" transform="translate(-52.456 -35.428)" fill="#fff" fill-rule="evenodd"/>
            <path id="Path_7324" data-name="Path 7324" d="M67.751,64.921a.27.27,0,0,0,.031.1c.03-.016.059-.031.1-.053-.024-.047-.041-.081-.057-.115C67.8,64.879,67.755,64.9,67.751,64.921Z" transform="translate(-55.413 -35.652)" fill="#fff" fill-rule="evenodd"/>
            <path id="Path_7325" data-name="Path 7325" d="M85.1,41.111a1.066,1.066,0,0,0,0,.156l.039.012a1.118,1.118,0,0,0,.048-.14c0-.018-.017-.042-.027-.064C85.134,41.087,85.1,41.1,85.1,41.111Z" transform="translate(-53.998 -37.591)" fill="#fff" fill-rule="evenodd"/>
            <path id="Path_7326" data-name="Path 7326" d="M92.1,52c-.006.021-.023.045-.017.059s.034.022.052.032c.008-.021.027-.047.021-.058S92.125,52.015,92.1,52Z" transform="translate(-53.428 -36.7)" fill="#fff" fill-rule="evenodd"/>
            <path id="Path_7327" data-name="Path 7327" d="M72.1,69.659a.081.081,0,0,0-.019.065c.005.017.032.029.062.052a.831.831,0,0,0,.012-.107S72.109,69.651,72.1,69.659Z" transform="translate(-55.06 -35.26)" fill="#fff" fill-rule="evenodd"/>
            <path id="Path_7328" data-name="Path 7328" d="M67.727,64.273c.027.012.057.036.066.029a.373.373,0,0,0,.061-.079c-.018-.011-.045-.035-.054-.029A.469.469,0,0,0,67.727,64.273Z" transform="translate(-55.415 -35.706)" fill="#fff" fill-rule="evenodd"/>
            <path id="Path_7329" data-name="Path 7329" d="M66.076,65.969c-.005,0-.01.034-.005.036s.042.032.057.026c.043-.018.085-.044.068-.106C66.154,65.94,66.114,65.953,66.076,65.969Z" transform="translate(-55.55 -35.565)" fill="#fff" fill-rule="evenodd"/>
            <path id="Path_7330" data-name="Path 7330" d="M66.186,65.926h0l-.008-.01Z" transform="translate(-55.54 -35.565)" fill="#fff" fill-rule="evenodd"/>
            <path id="Path_7331" data-name="Path 7331" d="M68.913,46.413a.4.4,0,0,0,.075.074.529.529,0,0,0,.048-.057.95.95,0,0,0-.087-.065Z" transform="translate(-55.318 -37.16)" fill="#fff" fill-rule="evenodd"/>
            <path id="Path_7332" data-name="Path 7332" d="M105.28,73.063c-.014-.009-.041.011-.063.017.011.024.015.055.032.065s.04-.011.059-.019C105.3,73.1,105.3,73.072,105.28,73.063Z" transform="translate(-52.357 -34.983)" fill="#fff" fill-rule="evenodd"/>
            <path id="Path_7333" data-name="Path 7333" d="M90.763,51.027a.177.177,0,0,0,.029.052c.042-.014.082-.035.125-.054l-.042-.077C90.838,50.973,90.8,51,90.763,51.027Z" transform="translate(-53.536 -36.786)" fill="#fff" fill-rule="evenodd"/>
            <path id="Path_7334" data-name="Path 7334" d="M91.066,72.157l.028.023.051-.031c-.01-.008-.022-.023-.028-.021A.187.187,0,0,0,91.066,72.157Z" transform="translate(-53.511 -35.059)" fill="#fff" fill-rule="evenodd"/>
            <path id="Path_7335" data-name="Path 7335" d="M84.741,63.026c-.018-.005-.042.011-.063.018.009.022.013.056.026.062s.041-.015.063-.024C84.758,63.064,84.753,63.029,84.741,63.026Z" transform="translate(-54.032 -35.801)" fill="#fff" fill-rule="evenodd"/>
            <path id="Path_7336" data-name="Path 7336" d="M91.9,45.294v.035c.023,0,.045,0,.067-.006v-.028Z" transform="translate(-53.443 -37.247)" fill="#fff" fill-rule="evenodd"/>
            <path id="Path_7337" data-name="Path 7337" d="M63.574,74.361l.024.013c.009-.023.017-.044.024-.068l-.028-.015A.479.479,0,0,0,63.574,74.361Z" transform="translate(-55.753 -34.882)" fill="#fff" fill-rule="evenodd"/>
            <path id="Path_7338" data-name="Path 7338" d="M91.445,51.669c-.013-.008-.039.011-.059.018.011.022.016.056.031.063s.043-.011.066-.018C91.47,51.709,91.464,51.68,91.445,51.669Z" transform="translate(-53.485 -36.727)" fill="#fff" fill-rule="evenodd"/>
            <path id="Path_7339" data-name="Path 7339" d="M82.727,67.942l.005.035.045-.016c-.005-.01-.01-.025-.017-.028S82.739,67.937,82.727,67.942Z" transform="translate(-54.191 -35.401)" fill="#fff" fill-rule="evenodd"/>
            <path id="Path_7340" data-name="Path 7340" d="M93.565,49.331l.028.013a.552.552,0,0,0,.021-.059l-.025-.012A.389.389,0,0,0,93.565,49.331Z" transform="translate(-53.307 -36.923)" fill="#fff" fill-rule="evenodd"/>
            <path id="Path_7341" data-name="Path 7341" d="M85.1,41.792l.005-.02-.025,0Z" transform="translate(-53.999 -37.534)" fill="#fff" fill-rule="evenodd"/>
            <path id="Path_7342" data-name="Path 7342" d="M68.347,64.79l.021.01a.1.1,0,0,0,.006-.029l-.018-.011A.117.117,0,0,0,68.347,64.79Z" transform="translate(-55.364 -35.66)" fill="#fff" fill-rule="evenodd"/>
            <path id="Path_7343" data-name="Path 7343" d="M93.026,50.929l.017-.025-.022-.006Z" transform="translate(-53.352 -36.79)" fill="#fff" fill-rule="evenodd"/>
            <path id="Path_7344" data-name="Path 7344" d="M92.729,44.592a.1.1,0,0,0-.008.037l.05-.015-.015-.032C92.746,44.584,92.733,44.585,92.729,44.592Z" transform="translate(-53.376 -37.305)" fill="#fff" fill-rule="evenodd"/>
            <path id="Path_7345" data-name="Path 7345" d="M69,66.158a.352.352,0,0,0-.065.022c.008.01.016.028.023.027a.37.37,0,0,0,.065-.019C69.013,66.176,69,66.157,69,66.158Z" transform="translate(-55.316 -35.546)" fill="#fff" fill-rule="evenodd"/>
            <path id="Path_7346" data-name="Path 7346" d="M73.106,39.664l0-.029-.034.011Z" transform="translate(-54.978 -37.709)" fill="#fff" fill-rule="evenodd"/>
            <path id="Path_7347" data-name="Path 7347" d="M85.247,39.575l0-.025-.027.012Z" transform="translate(-53.988 -37.716)" fill="#fff" fill-rule="evenodd"/>
            <path id="Path_7348" data-name="Path 7348" d="M71.695,69.705l.069.018L71.7,69.7Z" transform="translate(-55.091 -35.257)" fill="#fff" fill-rule="evenodd"/>
            <path id="Path_7349" data-name="Path 7349" d="M91.649,51.942a.214.214,0,0,0-.039.032l.032.012.031-.019Z" transform="translate(-53.467 -36.705)" fill="#fff" fill-rule="evenodd"/>
            <path id="Path_7350" data-name="Path 7350" d="M88.08,50.047l.026.01.005-.024a.036.036,0,0,0-.025-.009Z" transform="translate(-53.755 -36.861)" fill="#fff" fill-rule="evenodd"/>
            <path id="Path_7351" data-name="Path 7351" d="M72.406,49.5c0,.009.014.021.023.03l.027-.064-.023-.031A.413.413,0,0,0,72.406,49.5Z" transform="translate(-55.033 -36.91)" fill="#fff" fill-rule="evenodd"/>
            <path id="Path_7352" data-name="Path 7352" d="M75.1,73.718c.294.061.294.061.395-.217l-.018-.019A.881.881,0,0,0,75.1,73.718Z" transform="translate(-54.813 -34.948)" fill="#fff" fill-rule="evenodd"/>
          </g>
        </g>
        <path id="Path_7353" data-name="Path 7353" d="M103.7,51.5H89.254a2.445,2.445,0,0,1-.015-1.019,2.491,2.491,0,0,1,3.619-1.716c0-.037.011-.071.017-.109a2.584,2.584,0,0,1,4.842-.672,2.265,2.265,0,0,1,3.4,1.39,2.155,2.155,0,0,1,.807.006,2.186,2.186,0,0,1,1.748,1.819A1.98,1.98,0,0,1,103.7,51.5Z" transform="translate(-53.664 -37.144)" fill="#fff"/>
        <path id="Path_7354" data-name="Path 7354" d="M104.382,55.651a1.637,1.637,0,0,0-1.749-.893,1.473,1.473,0,0,0-2.5-.768,1.651,1.651,0,0,0-3.058.5,1.907,1.907,0,0,0-.024.19,1.429,1.429,0,0,0-.321-.1,1.444,1.444,0,0,0-1.693,1.141,1.385,1.385,0,0,0-.026.3h9.5A1.635,1.635,0,0,0,104.382,55.651Zm-4.513.313c.034-.035.066-.07.1-.107.015.019.03.041.045.062C99.963,55.931,99.915,55.946,99.868,55.963Z" transform="translate(-53.19 -36.606)" fill="#fff"/>
        <path id="Path_7355" data-name="Path 7355" d="M68.622,53.855l-.061-.066.1.035A.35.35,0,0,1,68.622,53.855Z" transform="translate(-55.347 -36.554)" fill="#fff"/>
        <rect id="Rectangle_1216" data-name="Rectangle 1216" width="0.013" height="0.015" transform="translate(19.891 17.18)" fill="#fff"/>
        <path id="Path_7356" data-name="Path 7356" d="M83.376,42.856c-.017-.009-.032-.017-.05-.028.052-.015.1-.034.157-.047C83.449,42.806,83.415,42.83,83.376,42.856Z" transform="translate(-54.142 -37.452)" fill="#fff"/>
        <path id="Path_7357" data-name="Path 7357" d="M85.278,55.359s-.124.1-.309.257c-.1.083-.214.186-.339.3-.09.078-.183.168-.281.262v0l-.286-1.682c.087-.044.174-.09.26-.14a10.656,10.656,0,0,0,1.3-.9c.191-.155.307-.257.307-.257l-.637-.718-.637-.717s-.124.1-.309.255c-.1.087-.223.194-.349.309-.084.077-.174.159-.266.249v0l-.294-1.719-.032-.195-.186-1.088v0c.86-.626,1.521-1.124,1.861-1.4,1.934-1.6,3.191-3.941,2.454-4.773S84.209,43.4,82.274,45c-.341.281-.949.835-1.721,1.557l-3.006-.95c.106-.076.2-.15.3-.22.14-.1.262-.2.364-.284.191-.153.309-.252.309-.252l-.637-.72-.637-.716s-.124.1-.309.255a10.114,10.114,0,0,0-1.109,1.087l0,0c-.069.08-.137.163-.2.244h0l-1.673-.53c.109-.077.212-.151.3-.223.137-.1.264-.2.367-.281.19-.152.307-.255.307-.255L74.291,43l-.637-.717s-.124.093-.31.255a10.2,10.2,0,0,0-1.108,1.086h0q-.105.122-.2.247L67.522,42.44s-.26-.048-.355.032l-.864.712,10.141,7.3c-2.068,2-4.177,4.055-5.468,5.316l-4.168-1.484a.186.186,0,0,0-.178.047l-.806.663,2.162,1.64A22.3,22.3,0,0,0,60.878,67.88c-.015.054-.028.107-.043.159-.041.159-.083.316-.122.472-3.531,14.252,8.363,19.853,8.688,20-8.16-4.777-7.729-13.042-7.395-15.662a18.894,18.894,0,0,1,4.3-9.982,23.8,23.8,0,0,1,4.127-3.75l1.86,3.192.8-.665c.1-.083.072-.163.072-.163l-.7-3.333h0l-.182-.86.142-.1a.492.492,0,0,1,.047-.031l.148-.1.172-.119c.072-.049.144-.1.218-.151s.161-.114.244-.172.161-.114.244-.17a.717.717,0,0,0,.061-.044c.058-.041.12-.082.181-.127l.4-.281c.089-.061.178-.124.268-.187l1-.7c.1-.067.2-.137.3-.207.593-.416,1.212-.851,1.836-1.291L78,53.291c.19-.133.38-.266.57-.4l.556,1.014.556,1.008.976,1.772L84.5,63.664s.766-.633.862-.711.087-.336.087-.336l-.475-2.781-.3-1.737c.1-.048.2-.1.292-.159a10.377,10.377,0,0,0,1.274-.888c.191-.152.307-.255.307-.255l-.637-.717Zm-12.885-.3-.24-.242.371-.342.24.241Zm12.145-6.841-.211-.266.41-.3.212.266Zm1.9-1.657a3.9,3.9,0,0,0-.187-.69l.457-.207A2.121,2.121,0,0,1,86.44,46.565Zm.264-1.126-.528.24a3.245,3.245,0,0,0-.305-.565c.155-.127.318-.265.517-.428A1.326,1.326,0,0,1,86.7,45.439ZM86.043,44.3c-.2.164-.362.3-.517.428a3.851,3.851,0,0,0-.539-.367l.333-.478A1.437,1.437,0,0,1,86.043,44.3Zm-.955-.458-.291.416a5.393,5.393,0,0,0-.669-.294A2.323,2.323,0,0,1,85.088,43.841ZM84,48.2l.212.266-.41.3-.21-.266Zm-3.064-1.513.262-.244.242.242-.373.344-.129-.129-.111-.114Zm-.406.374.239.242-.37.343-.24-.242Zm-.668.618.24.242-.369.345-.241-.242Zm-2,1.857.24.241-.371.343-.24-.242Zm-.667.616.181.182.059.061-.157.146-.214.2-.24-.242Zm-3.338,3.091.242.244-.371.343-.24-.242Zm-.8,1.206-.24-.242.371-.344.24.242Zm.45,1.9-.212-.266.408-.3.212.266Zm.734-.541-.211-.266.41-.3.211.266Zm.15-2.6-.241-.242.372-.345.24.242Zm.585,2.057L74.768,55l.41-.3.21.268Zm.08-2.677-.239-.24.37-.344.242.239Zm.8-1.2.241.242-.372.344-.24-.242Zm-.144,3.337-.212-.266.41-.3.212.266Zm.811-3.954.242.242-.373.343-.24-.242Zm-.077,3.413-.211-.266.41-.3.211.266Zm.735-.543-.212-.266.41-.3.212.268Zm.734-.541-.209-.266.408-.3.21.266Zm.236-3.842.373-.342.24.24L78.4,49.5Zm.9,3-.4.3-.213-.268.248-.182.077-.056.085-.062.019.025.191.241Zm.007-3.382-.242-.241.373-.343.24.242Zm.328,3.135-.214-.266.41-.3.212.266Zm.732-.542-.209-.266.408-.3.212.266Zm.735-.541-.209-.266.408-.3.211.266Zm1.021-.752-.286.211-.21-.268.408-.3.162.2.05.064Zm-.148-3.775-.24-.239.371-.345.24.242Zm.6,3.443-.054-.07-.155-.2.207-.153.2-.148.214.266Zm.07-4.059-.24-.242.371-.345.24.242Zm.667,3.518-.129-.163-.083-.1.409-.3.211.268-.311.231Z" transform="translate(-56.04 -37.493)" fill="#fff"/>
      </g>
      <g id="Group_3654" data-name="Group 3654" transform="translate(22.402 64.736)">
        <path id="Path_7358" data-name="Path 7358" d="M63.169,84.337l-.741.983,1.819,1.372-3.584,4.75,1.082.817,3.582-4.753,1.819,1.372.742-.984C66.225,86.643,64.823,85.584,63.169,84.337Z" transform="translate(-60.663 -84.337)" fill="#fff"/>
        <path id="Path_7359" data-name="Path 7359" d="M72.3,89.861c-1.051-.436-2.1-.881-3.152-1.317L66.393,95.19l1.251.517.918-2.218,1.2.5,1.014,3.019,1.489.618.035-.085-1.071-3.1a2.132,2.132,0,0,0,2.542-1.389A2.381,2.381,0,0,0,72.3,89.861Zm.216,2.7a1.119,1.119,0,0,1-1.577.591l-1.907-.79.879-2.122,1.906.787A1.126,1.126,0,0,1,72.514,92.56Z" transform="translate(-60.196 -83.994)" fill="#fff"/>
        <path id="Path_7360" data-name="Path 7360" d="M80.081,91.637l-1.468-.163-4,6.779,1.459.164.761-1.278,3.732.416.451,1.414,1.469.163Zm-2.567,4.309,1.666-2.891.986,3.187Z" transform="translate(-59.525 -83.755)" fill="#fff"/>
        <path id="Path_7361" data-name="Path 7361" d="M88.528,91.216l-1.376,5.841-2.921-5.237-1.5.211,3.961,6.727,1.392-.195L90.032,91Z" transform="translate(-58.864 -83.793)" fill="#fff"/>
        <path id="Path_7362" data-name="Path 7362" d="M98.55,93.76l-3.7,1.614-.648-1.485,3.563-1.557-.5-1.156L93.7,92.733l-.662-1.514,3.7-1.614-.526-1.2-4.928,2.152q1.436,3.285,2.875,6.581l4.928-2.153Z" transform="translate(-58.166 -84.006)" fill="#fff"/>
        <path id="Path_7363" data-name="Path 7363" d="M105.127,89.123l-2.942,2.233L98.6,86.632l-1.079.82,4.342,5.721,4.02-3.053Z" transform="translate(-57.657 -84.15)" fill="#fff"/>
      </g>
      <g id="Group_3655" data-name="Group 3655" transform="translate(15.692 5.221)">
        <path id="Path_7364" data-name="Path 7364" d="M61.959,44.579l.9-1.084-.063-.052-2.867.1a1.862,1.862,0,0,0-.507-2.484,2.083,2.083,0,0,0-3.048.414c-.635.768-1.278,1.529-1.913,2.3l4.848,4.016.757-.914-1.619-1.339.727-.879Zm-3.186-1.12-1.15,1.389-1.551-1.282,1.152-1.39a1.008,1.008,0,1,1,1.549,1.283Z" transform="translate(-54.459 -28.391)" fill="#fff"/>
        <path id="Path_7365" data-name="Path 7365" d="M65.881,39.615l-2.733,2.231-.9-1.1L64.887,38.6l-.7-.854-2.633,2.15-.916-1.118,2.733-2.232-.729-.889L59,38.626q1.982,2.432,3.975,4.867l3.643-2.975Z" transform="translate(-54.089 -28.792)" fill="#fff"/>
        <path id="Path_7366" data-name="Path 7366" d="M69.629,31.8l-1.182.611L69,37.626l-3.926-3.48-1.182.608,5.215,4.415L70.2,38.6Z" transform="translate(-53.69 -29.106)" fill="#fff"/>
        <path id="Path_7367" data-name="Path 7367" d="M77.912,32.7a3.23,3.23,0,1,0-6.261,1.582A3.229,3.229,0,1,0,77.912,32.7Zm-2.6,2.885a2,2,0,0,1-2.524-1.571,2.069,2.069,0,1,1,4-1.011A1.99,1.99,0,0,1,75.312,35.583Z" transform="translate(-53.066 -29.239)" fill="#fff"/>
        <path id="Path_7368" data-name="Path 7368" d="M83.465,34.449l-3.228.131-.212-5.185-1.184.049.255,6.28,4.415-.178Z" transform="translate(-52.471 -29.302)" fill="#fff"/>
        <path id="Path_7369" data-name="Path 7369" d="M88.927,29.937,88.408,33.5c-.157,1.064-.8,1.634-1.771,1.491a1.542,1.542,0,0,1-1.357-1.95l.521-3.564-1.165-.17-.521,3.564a2.622,2.622,0,0,0,2.356,3.185,2.554,2.554,0,0,0,3.1-2.387l.521-3.564Z" transform="translate(-52.044 -29.309)" fill="#fff"/>
        <path id="Path_7370" data-name="Path 7370" d="M91.665,30.537,91.3,31.549l1.871.685-1.786,4.893,1.114.406,1.787-4.893,1.871.685.371-1.011Z" transform="translate(-51.455 -29.209)" fill="#fff"/>
        <path id="Path_7371" data-name="Path 7371" d="M97.844,32.965l-2.936,5.558,1.038.549,2.939-5.558Z" transform="translate(-51.16 -29.011)" fill="#fff"/>
        <path id="Path_7372" data-name="Path 7372" d="M103.312,36.19a3.139,3.139,0,0,0-4.579.674,3.229,3.229,0,1,0,5.14,3.909A3.125,3.125,0,0,0,103.312,36.19Zm-.38,3.888a2.062,2.062,0,1,1-3.283-2.493,2.069,2.069,0,1,1,3.283,2.493Z" transform="translate(-50.908 -28.806)" fill="#fff"/>
        <path id="Path_7373" data-name="Path 7373" d="M109.8,42.744l-2.993,2.508,1.01-4.862-.618-.738-4.816,4.037.759.907,3.248-2.722-1.132,5.261.008-.006.473.566,4.823-4.042Z" transform="translate(-50.55 -28.465)" fill="#fff"/>
      </g>
      <path id="Path_7374" data-name="Path 7374" d="M64.519,59.044a7.978,7.978,0,0,0-2.767-1.629c.118.318.216.58.315.841a4.693,4.693,0,0,0-1.739-.957c.188.215.373.429.561.644l-.027.045a1.862,1.862,0,0,1-.191-.083,9.953,9.953,0,0,0-5.142-1.043.686.686,0,0,0-.217.1.868.868,0,0,0,.187.155,13.112,13.112,0,0,1,3.192,1.9,11.473,11.473,0,0,1,2.864,4.223,7.119,7.119,0,0,1,.652,3.265,9.787,9.787,0,0,1-.212,1.249.581.581,0,0,1-.14.262,7.666,7.666,0,0,0-.8-3.431c-.083.358-.168.713-.247,1.049-.127-.523-.214-1.064-.393-1.575a15.488,15.488,0,0,0-.672-1.463c-.032.009-.068.017-.1.024q-.125.664-.251,1.324a13.8,13.8,0,0,0-2.557-4.007c-.627-.761-1.311-1.478-1.976-2.212a.365.365,0,0,0-.225-.107c-.292-.015-.582-.017-.931-.024-.05,0-.1,0-.155,0-.1.264-.262.607-.369.967a25.39,25.39,0,0,0-.9,3.922A23.878,23.878,0,0,0,52.321,69a31.431,31.431,0,0,0,5.3,13.12A31.813,31.813,0,0,0,59.973,85l0,0A32.244,32.244,0,0,0,62.688,88l-1.642,1.978A34.9,34.9,0,0,1,51.3,73.052l0,0a31.437,31.437,0,0,1,.942-15.718,15.985,15.985,0,0,0-1.4,1.495v0A35.6,35.6,0,0,0,47.9,63.139c-.18-.19-.336-.356-.528-.561-.339.866-.663,1.7-1,2.565-.181-.152-.339-.281-.53-.442-.255.706-.5,1.387-.746,2.068h-.05a1.43,1.43,0,0,1-.038-.16,8.078,8.078,0,0,1,2.28-6.589,16.238,16.238,0,0,1,2.055-1.8,16.5,16.5,0,0,1,1.71-1.019c.039-.024.079-.045.12-.067v0c.176-.1.356-.2.543-.31a1.655,1.655,0,0,0-.455-.069,6.926,6.926,0,0,0-2.4.436,11.589,11.589,0,0,0-2.547,1.385c.071-.186.142-.373.213-.561l-.039-.043-2.13,1.348-.054-.032c.062-.187.12-.377.2-.641L41.693,60.53l-.055-.034c.077-.266.156-.532.251-.859-.665.311-1.277.6-1.939.912A.6.6,0,0,1,40,60.412a14.434,14.434,0,0,1,5.222-4.293,9.477,9.477,0,0,1,6.182-.694.545.545,0,0,0,.2.025c.088-.012.146-.085.308-.3l-.205-.069a21.723,21.723,0,0,0-5.383-1.045c.148-.092.235-.144.379-.231-.857-.056-1.648-.111-2.442-.163l-.013-.07.492-.236v-.058c-.713-.088-1.427-.172-2.223-.268.133-.1.208-.165.29-.218a5.491,5.491,0,0,1,3.99-.685,12.989,12.989,0,0,1,4.991,2.2,1.206,1.206,0,0,0,.131.08.518.518,0,0,0,.112.044c-.03-.038-.061-.077-.091-.114-1.1-1.375-2.3-2.655-3.55-3.968l.761-.194c-.68-.328-1.307-.633-1.931-.936l.014-.064.728-.133-1.607-1.049c0-.024.011-.048.015-.071a5.782,5.782,0,0,1,.807-.034c.454.042.907.111,1.357.193a5.231,5.231,0,0,1,3.115,1.867,7.182,7.182,0,0,1,1.162,1.952,10.065,10.065,0,0,1,.465,1.435c.03.12.075.238.111.358l.09,0a2.3,2.3,0,0,0,.058-.234,6.646,6.646,0,0,1,1.231-3.2,5.55,5.55,0,0,1,2.645-1.891,7.492,7.492,0,0,1,1.236-.311c.526-.09,1.07-.085,1.677-.129-.395.211-.728.363-1.032.56s-.571.427-.854.644c.011.028.019.054.03.082h.862c0,.018.006.038.009.057l-2.081,1.082c.006.026.015.051.022.075h.746l-1.392,1c.013.027.028.053.043.079l.539-.085a.785.785,0,0,1-.116.1,5.96,5.96,0,0,0-2.092,1.8c-.159.205-.311.421-.46.639-.059.088,0,.257.041.4l.062-.054a9.612,9.612,0,0,1,10.114-2.25c-.621.083-1.249.135-1.862.26s-1.219.317-1.828.478c0,.03,0,.061.009.092l1.706.168.006.083-2.948.481c0,.015,0,.029,0,.044l1.732.311A25.568,25.568,0,0,0,55,55.65c0,.024.011.049.017.072.448-.085.894-.186,1.347-.255a8.23,8.23,0,0,1,5.533.87,7,7,0,0,1,2.514,2.452A.829.829,0,0,1,64.519,59.044Z" transform="translate(-39.95 -22.575)" fill="#fff"/>
      <path id="Path_7375" data-name="Path 7375" d="M44,63.828c0,.506.011,1.012.03,1.514A9.625,9.625,0,0,1,44,63.828Z" transform="translate(-39.621 -21.273)" fill="#fff"/>
      <path id="Path_7376" data-name="Path 7376" d="M122.033,59.147a41.039,41.039,0,0,1-32.4,44.995v1.334a42.283,42.283,0,0,0,33.989-41.494q0-2.15-.211-4.262l-1.1-.738Z" transform="translate(-35.898 -21.668)" fill="#fff"/>
      <path id="Path_7377" data-name="Path 7377" d="M44.028,53.874l-.016.063.094-.058Z" transform="translate(-39.619 -22.085)" fill="#fff"/>
      <path id="Path_7378" data-name="Path 7378" d="M122.753,49.063c.158,0,.3.012.448.024l.069.005A42.332,42.332,0,0,0,46.4,49.065l.079,0c.081,0,.157,0,.231.01.328.029.674.075,1.069.14a41.007,41.007,0,0,1,74.068-.061c.237-.034.459-.059.672-.079C122.6,49.066,122.671,49.063,122.753,49.063Z" transform="translate(-39.424 -24.482)" fill="#fff"/>
      <path id="Path_7379" data-name="Path 7379" d="M43.781,54.087l.209.015c.014-.056.027-.114.041-.17Z" transform="translate(-39.638 -22.08)" fill="#fff"/>
      <path id="Path_7380" data-name="Path 7380" d="M44.071,63.153c-.034.233-.059.467-.075.705l-.657-.019a10.42,10.42,0,0,0,.032,1.627l.654-.044v.029a1.694,1.694,0,0,0,.045.212l.008.03.05.2c-.041-.745-.064-1.495-.064-2.249C44.068,63.479,44.069,63.315,44.071,63.153Z" transform="translate(-39.675 -21.328)" fill="#fff"/>
      <path id="Path_7381" data-name="Path 7381" d="M44.174,66.231c-.041-.745-.064-1.495-.064-2.249,0-.163,0-.327,0-.489a41.2,41.2,0,0,1,.289-4.411l-.27.171-.388-.243-.045-.028-.644.43a43.005,43.005,0,0,0-.246,4.57,42.277,42.277,0,0,0,33.963,41.487v-1.336A41.088,41.088,0,0,1,44.174,66.231Z" transform="translate(-39.717 -21.668)" fill="#fff"/>
      <path id="Path_7382" data-name="Path 7382" d="M123.454,59.638c.094.327.173.593.249.859l-.054.034-2.819-1.883c.083.264.144.454.2.641l-.055.032-2.129-1.348c-.013.015-.026.028-.04.043.072.188.145.375.214.561a11.541,11.541,0,0,0-2.547-1.385,7.111,7.111,0,0,0-2.286-.438,1.816,1.816,0,0,0-.565.071c.228.131.447.253.663.38l.006,0a13.039,13.039,0,0,1,3.758,2.81,8.077,8.077,0,0,1,2.279,6.589,1.424,1.424,0,0,1-.037.16h-.05c-.244-.681-.489-1.362-.744-2.068l-.532.442c-.339-.865-.665-1.7-1-2.565l-.528.561a37.669,37.669,0,0,0-2.793-4.145A15.955,15.955,0,0,0,113.1,57.33,31.589,31.589,0,0,1,113.852,74c-.076.347-.155.694-.242,1.036l0,.011a34.909,34.909,0,0,1-8.794,14.53l-1.75-1.875a32.524,32.524,0,0,0,3.209-3.728c.5-.6.984-1.223,1.448-1.86a28.926,28.926,0,0,0,1.639-2.6A29.3,29.3,0,0,0,113.024,69a24.008,24.008,0,0,0,.045-6.507,25.265,25.265,0,0,0-.9-3.922c-.106-.36-.266-.7-.369-.967h-.045c-.4.009-.719.009-1.04.026a.37.37,0,0,0-.225.107c-.663.733-1.345,1.45-1.974,2.212a13.8,13.8,0,0,0-2.558,4.007q-.125-.66-.249-1.324c-.036-.006-.07-.015-.1-.024a16.051,16.051,0,0,0-.672,1.463,16.1,16.1,0,0,0-.393,1.575l-.247-1.049a7.681,7.681,0,0,0-.8,3.431.617.617,0,0,1-.141-.262,10.389,10.389,0,0,1-.211-1.249,7.091,7.091,0,0,1,.652-3.265,11.46,11.46,0,0,1,2.864-4.223,13.146,13.146,0,0,1,3.191-1.9.874.874,0,0,0,.188-.155.691.691,0,0,0-.218-.1,9.941,9.941,0,0,0-5.138,1.043c-.064.034-.131.057-.195.083l-.026-.045c.187-.214.375-.428.56-.644a4.689,4.689,0,0,0-1.738.957c.1-.262.2-.523.314-.841a7.993,7.993,0,0,0-2.766,1.629.8.8,0,0,1,.107-.255,7.032,7.032,0,0,1,2.512-2.452,8.234,8.234,0,0,1,5.534-.87c.451.069.9.17,1.348.255,0-.024.011-.049.015-.072a25.56,25.56,0,0,0-6.574-1.695q.866-.157,1.734-.311a.308.308,0,0,1,0-.044l-2.949-.481c0-.029.006-.055.009-.083l1.706-.168.008-.092c-.609-.161-1.211-.356-1.829-.478s-1.241-.176-1.862-.26c3.84-1.3,7.187-.4,10.175,2.3a1.074,1.074,0,0,0,.031-.109.387.387,0,0,0,.011-.29c-.079-.116-.157-.229-.238-.343a6.3,6.3,0,0,0-2.315-2.1,1.109,1.109,0,0,1-.116-.1l.539.085a.815.815,0,0,0,.044-.079c-.452-.322-.9-.646-1.392-1h.746a.751.751,0,0,0,.022-.075L106,49.255c0-.019.006-.039.009-.057h.862c.011-.028.019-.054.03-.082-.283-.216-.554-.452-.853-.644s-.637-.349-1.034-.56c.611.043,1.152.039,1.677.129a6.963,6.963,0,0,1,1.566.438,5.487,5.487,0,0,1,2.317,1.764,6.656,6.656,0,0,1,1.231,3.2,2.307,2.307,0,0,0,.058.234l.09,0c.037-.12.08-.238.111-.358a10.756,10.756,0,0,1,.519-1.573,7.1,7.1,0,0,1,1.108-1.815,5.225,5.225,0,0,1,3.115-1.867c.45-.081.9-.15,1.357-.193a5.768,5.768,0,0,1,.807.034c0,.024.011.048.015.071l-1.608,1.049.729.133a.608.608,0,0,0,.015.064c-.626.3-1.251.608-1.931.936l.759.194c-1.215,1.283-2.392,2.531-3.469,3.868-.058.07-.115.142-.172.214a.687.687,0,0,0,.208-.1l.037-.024a12.985,12.985,0,0,1,4.99-2.2,5.488,5.488,0,0,1,3.99.685c.083.053.157.118.292.218-.8.1-1.511.181-2.225.268v.058l.5.236c-.007.024-.011.047-.015.07-.792.052-1.586.107-2.443.163.146.088.231.14.38.231a21.889,21.889,0,0,0-5.283,1.009c-.1.036-.2.07-.305.1.221.281.251.321.419.289a.638.638,0,0,0,.088-.018,9.478,9.478,0,0,1,6.182.694,14.416,14.416,0,0,1,5.222,4.293c.019.022.022.056.048.137C124.73,60.237,124.117,59.949,123.454,59.638Z" transform="translate(-35.006 -22.575)" fill="#fff"/>
      <g id="Group_3656" data-name="Group 3656" transform="translate(38.88 55.123)">
        <path id="Path_7383" data-name="Path 7383" d="M104.4,77.079a1.58,1.58,0,0,0-.412-.2,5.42,5.42,0,0,0-1.568-.21,25.636,25.636,0,0,0-4.795.432,60.743,60.743,0,0,0-8.489,2.112,80.9,80.9,0,0,0-13.1,5.525.233.233,0,0,0-.144.244c0,.178,0,.36,0,.541,0,.133,0,.264,0,.395v3.194a27.972,27.972,0,0,0,20.757-2.956l.8-1.119a21,21,0,0,1,1.656-2.1,61.613,61.613,0,0,1,5.036-5.021,1.94,1.94,0,0,0,.345-.411A.284.284,0,0,0,104.4,77.079ZM80.585,84.3c0,.035-.075.08-.122.1-.729.244-1.459.476-2.186.725-.6.2-1.193.423-1.789.637l-.178.061c0-.194-.011-.363,0-.532,0-.048.072-.111.124-.135q1.515-.68,3.032-1.35c.315-.137.635-.264.954-.395.048-.022.1-.038.168-.064C80.592,83.673,80.6,83.985,80.585,84.3Zm1.922-.589a.129.129,0,0,1-.077.088c-.466.142-.933.279-1.431.427,0-.345,0-.667,0-.991a.114.114,0,0,1,.068-.082c.464-.182.929-.358,1.393-.534.009,0,.021,0,.047.006C82.51,82.982,82.512,83.344,82.507,83.708Zm3.191-.774c-.852.221-1.706.446-2.558.669-.018,0-.038,0-.077.011V83.4c0-.3,0-.6,0-.9a.181.181,0,0,1,.09-.142c.859-.3,1.721-.6,2.583-.894a.322.322,0,0,1,.067,0V81.7c0,.361,0,.726,0,1.09C85.807,82.873,85.786,82.912,85.7,82.934Zm16.164-3.776a.162.162,0,0,1-.124.017,12.741,12.741,0,0,0-3.325-.185,49.512,49.512,0,0,0-8.971,1.345c-.451.1-.9.218-1.352.328-.029.006-.057.011-.085.015a.112.112,0,0,0,0-.024c.474-.129.949-.262,1.424-.388,2-.54,4.029-1,6.077-1.336a35.226,35.226,0,0,1,6.715-.584c.14,0,.28.015.42.024a.167.167,0,0,1,.054.022C102.409,78.654,102.139,78.909,101.862,79.158Z" transform="translate(-75.898 -75.349)" fill="#fff"/>
        <path id="Path_7384" data-name="Path 7384" d="M95.215,77.311c-.045-.049-.071-.078-.1-.106-.421-.427-.837-.858-1.264-1.276a.634.634,0,0,0-.3-.163,5.233,5.233,0,0,0-2.125.075,15.842,15.842,0,0,0-3.471,1.251,52.115,52.115,0,0,0-5,2.767c-2.193,1.349-4.378,2.713-6.567,4.069-.229.143-.23.141-.178.434A78.267,78.267,0,0,1,95.215,77.311Z" transform="translate(-75.875 -75.429)" fill="#fff"/>
        <path id="Path_7385" data-name="Path 7385" d="M76.3,83.613q.8-.493,1.607-.99c2.052-1.265,4.095-2.545,6.159-3.791a36.012,36.012,0,0,1,5.044-2.588l.316-.129a3.413,3.413,0,0,1-.347-.371.581.581,0,0,0-.644-.229l-.058.009a6.358,6.358,0,0,0-1.834.631,32.349,32.349,0,0,0-4.333,2.636c-2,1.388-3.923,2.889-5.838,4.394a.407.407,0,0,0-.173.483C76.245,83.646,76.275,83.631,76.3,83.613Z" transform="translate(-75.875 -75.444)" fill="#fff"/>
        <path id="Path_7386" data-name="Path 7386" d="M85.832,76.119a5.256,5.256,0,0,1-.428-.5.387.387,0,0,0-.481-.148,4.052,4.052,0,0,0-1.114.506A20.14,20.14,0,0,0,80.875,78.2c-1.374,1.22-2.721,2.468-4.079,3.706a.168.168,0,0,0-.059.1c-.006.142,0,.283,0,.454A70.28,70.28,0,0,1,85.832,76.119Z" transform="translate(-75.83 -75.448)" fill="#fff"/>
      </g>
      <g id="Group_3658" data-name="Group 3658" transform="translate(39.302 81.52)">
        <g id="Group_3657" data-name="Group 3657" transform="translate(0 0)">
          <path id="Path_7387" data-name="Path 7387" d="M79.483,103.312a1.948,1.948,0,0,1-1.457.383,1.813,1.813,0,0,1-1.723-2.116,1.856,1.856,0,0,1,2.167-1.707,1.9,1.9,0,0,1,1.281.716l-.513.392a1.266,1.266,0,0,0-.845-.448,1.21,1.21,0,0,0-1.41,1.126,1.184,1.184,0,0,0,1.118,1.388,1.361,1.361,0,0,0,.965-.265Z" transform="translate(-76.289 -99.855)" fill="#fff"/>
          <path id="Path_7388" data-name="Path 7388" d="M83.368,103.859l-.827-.01L81.48,102.6l-.669-.008-.015,1.233-.7-.008.044-3.7c.585.006,1.17.019,1.756.027a1.222,1.222,0,0,1,1.313,1.239,1.1,1.1,0,0,1-.947,1.149l1.1,1.273Zm-2.536-3.074-.014,1.181,1.06.013a.592.592,0,1,0,.014-1.181Z" transform="translate(-75.978 -99.833)" fill="#fff"/>
          <path id="Path_7389" data-name="Path 7389" d="M86.922,100.963l-1.071,1.694-.136.011-1.3-1.51.214,2.676-.693.055-.3-3.678.8-.064,1.277,1.489,1.024-1.674.793-.064.3,3.679-.693.055Z" transform="translate(-75.689 -99.851)" fill="#fff"/>
        </g>
      </g>
    </g>
    <g id="Group_3662" data-name="Group 3662" transform="translate(141.003 40.696)">
      <g id="Group_3660" data-name="Group 3660" transform="translate(1.743)">
        <path id="Path_7390" data-name="Path 7390" d="M134.995,39.949h8.392a8.69,8.69,0,0,1,3.149.546,7.286,7.286,0,0,1,2.429,1.512,6.568,6.568,0,0,1,1.56,2.3,7.592,7.592,0,0,1,.545,2.908,6.012,6.012,0,0,1-.385,2.171,6.579,6.579,0,0,1-1.06,1.833,7.9,7.9,0,0,1-1.577,1.447,7.986,7.986,0,0,1-1.9.981l-.032.224,6.174,8.843v.256h-4.984l-5.949-8.648h-2.024V62.97h-4.341Zm8.359,10.385a3.371,3.371,0,0,0,2.427-.9,3.005,3.005,0,0,0,.949-2.281,3.5,3.5,0,0,0-.209-1.191,2.974,2.974,0,0,0-.628-1.029,3.077,3.077,0,0,0-1.043-.725,3.572,3.572,0,0,0-1.433-.271h-4.081v6.4Z" transform="translate(-134.995 -39.434)" fill="#fff"/>
        <path id="Path_7391" data-name="Path 7391" d="M157.767,44.065V49.4h9.227v4.115h-9.227v5.339h10.256V62.97h-14.6V39.949h14.6v4.116Z" transform="translate(-133.492 -39.434)" fill="#fff"/>
        <path id="Path_7392" data-name="Path 7392" d="M168.825,39.949h4.694l4.758,13.859.837,2.956h.257l.9-2.956,4.952-13.859h4.7L181.526,62.97h-4.567Z" transform="translate(-132.236 -39.434)" fill="#fff"/>
        <path id="Path_7393" data-name="Path 7393" d="M200.916,63.525a12.148,12.148,0,0,1-4.775-.933,11.73,11.73,0,0,1-3.808-2.556,11.872,11.872,0,0,1-2.525-3.827,12.567,12.567,0,0,1,0-9.42,11.872,11.872,0,0,1,2.525-3.827,11.73,11.73,0,0,1,3.808-2.556,12.684,12.684,0,0,1,9.551,0,11.611,11.611,0,0,1,6.333,6.382,12.54,12.54,0,0,1,0,9.42,11.611,11.611,0,0,1-6.333,6.382A12.138,12.138,0,0,1,200.916,63.525Zm0-4.116a7.782,7.782,0,0,0,3.008-.579,7.575,7.575,0,0,0,2.443-1.607,7.32,7.32,0,0,0,1.64-2.493,9.058,9.058,0,0,0,0-6.462,7.341,7.341,0,0,0-1.64-2.493,7.593,7.593,0,0,0-2.443-1.607,8.1,8.1,0,0,0-6.012,0,7.61,7.61,0,0,0-2.444,1.607,7.36,7.36,0,0,0-1.641,2.493,9.088,9.088,0,0,0,0,6.462,7.339,7.339,0,0,0,1.641,2.493,7.592,7.592,0,0,0,2.444,1.607A7.769,7.769,0,0,0,200.916,59.408Z" transform="translate(-130.6 -39.473)" fill="#fff"/>
        <path id="Path_7394" data-name="Path 7394" d="M214.369,39.949h4.341V58.855h9.74V62.97H214.369Z" transform="translate(-128.522 -39.434)" fill="#fff"/>
        <path id="Path_7395" data-name="Path 7395" d="M238.409,63.486a9.887,9.887,0,0,1-3.683-.66,7.557,7.557,0,0,1-2.812-1.914,8.839,8.839,0,0,1-1.8-3.038,11.96,11.96,0,0,1-.641-4.066V39.949h4.339V54.064a7.245,7.245,0,0,0,.292,2.121,4.757,4.757,0,0,0,.865,1.673,4.047,4.047,0,0,0,1.449,1.109,4.684,4.684,0,0,0,1.992.4,4.78,4.78,0,0,0,2.027-.4,4.012,4.012,0,0,0,1.445-1.109,4.765,4.765,0,0,0,.87-1.673,7.4,7.4,0,0,0,.288-2.121V39.949h4.341V53.808a11.82,11.82,0,0,1-.626,3.937,8.67,8.67,0,0,1-1.8,3.054,8.161,8.161,0,0,1-2.83,1.979A9.361,9.361,0,0,1,238.409,63.486Z" transform="translate(-127.29 -39.434)" fill="#fff"/>
        <path id="Path_7396" data-name="Path 7396" d="M254.839,62.97v-18.9h-6.431V39.949h17.2v4.116h-6.432v18.9Z" transform="translate(-125.746 -39.434)" fill="#fff"/>
        <path id="Path_7397" data-name="Path 7397" d="M267.167,39.949h4.341V62.97h-4.341Z" transform="translate(-124.216 -39.434)" fill="#fff"/>
        <path id="Path_7398" data-name="Path 7398" d="M286.147,63.525a12.148,12.148,0,0,1-4.775-.933,11.636,11.636,0,0,1-6.334-6.382,12.567,12.567,0,0,1,0-9.42,11.636,11.636,0,0,1,6.334-6.382,12.684,12.684,0,0,1,9.551,0,11.611,11.611,0,0,1,6.332,6.382,12.54,12.54,0,0,1,0,9.42,11.611,11.611,0,0,1-6.332,6.382A12.142,12.142,0,0,1,286.147,63.525Zm0-4.116a7.786,7.786,0,0,0,3.008-.579,7.576,7.576,0,0,0,2.443-1.607,7.336,7.336,0,0,0,1.64-2.493,9.057,9.057,0,0,0,0-6.462,7.357,7.357,0,0,0-1.64-2.493,7.594,7.594,0,0,0-2.443-1.607,8.1,8.1,0,0,0-6.012,0,7.587,7.587,0,0,0-2.444,1.607,7.36,7.36,0,0,0-1.641,2.493,9.088,9.088,0,0,0,0,6.462,7.339,7.339,0,0,0,1.641,2.493,7.569,7.569,0,0,0,2.444,1.607A7.769,7.769,0,0,0,286.147,59.408Z" transform="translate(-123.648 -39.473)" fill="#fff"/>
        <path id="Path_7399" data-name="Path 7399" d="M299.6,39.949h5.049l9.259,15.434h.257l-.257-4.438v-11h4.309V62.97h-4.565l-9.775-16.3h-.257l.257,4.438V62.97H299.6Z" transform="translate(-121.571 -39.434)" fill="#fff"/>
      </g>
      <g id="Group_3661" data-name="Group 3661" transform="translate(0 35.272)">
        <path id="Path_7400" data-name="Path 7400" d="M138.157,89.532V75.493h-4.774V72.437h12.773v3.056h-4.774V89.532Z" transform="translate(-133.383 -72.056)" fill="#fff"/>
        <path id="Path_7401" data-name="Path 7401" d="M153.052,72.437h6.232a6.442,6.442,0,0,1,2.338.407,5.433,5.433,0,0,1,1.8,1.123,4.893,4.893,0,0,1,1.157,1.707,5.653,5.653,0,0,1,.407,2.161,4.48,4.48,0,0,1-.288,1.612,4.868,4.868,0,0,1-.787,1.361,5.84,5.84,0,0,1-1.17,1.075,5.967,5.967,0,0,1-1.408.728l-.025.167,4.585,6.566v.19h-3.7l-4.418-6.423h-1.5v6.423h-3.224Zm6.207,7.711a2.51,2.51,0,0,0,1.8-.668,2.236,2.236,0,0,0,.705-1.694,2.57,2.57,0,0,0-.157-.884,2.229,2.229,0,0,0-.464-.764,2.313,2.313,0,0,0-.778-.539,2.648,2.648,0,0,0-1.061-.2h-3.032v4.749Z" transform="translate(-131.779 -72.056)" fill="#fff"/>
        <path id="Path_7402" data-name="Path 7402" d="M177.573,72.437h3.679l6.422,17.1h-3.56l-1.406-4.084h-6.591l-1.408,4.084h-3.558Zm4.083,10.051-1.527-4.272-.621-2.077h-.191l-.621,2.077-1.528,4.272Z" transform="translate(-130.303 -72.056)" fill="#fff"/>
        <path id="Path_7403" data-name="Path 7403" d="M191.151,72.437h3.488l3.532,10.291.621,2.2h.19l.668-2.2,3.676-10.291h3.486l-6.231,17.1H197.19Z" transform="translate(-128.672 -72.056)" fill="#fff"/>
        <path id="Path_7404" data-name="Path 7404" d="M216.449,75.493v3.964H223.3v3.055h-6.852v3.963h7.616v3.056H213.224v-17.1h10.842v3.056Z" transform="translate(-126.872 -72.056)" fill="#fff"/>
        <path id="Path_7405" data-name="Path 7405" d="M231.723,72.437h3.224V86.476h7.232v3.056H231.723Z" transform="translate(-125.363 -72.056)" fill="#fff"/>
        <path id="Path_7406" data-name="Path 7406" d="M274.412,86.815a8.486,8.486,0,0,1-2.983,2.328,9.521,9.521,0,0,1-7.39.108,8.932,8.932,0,0,1,0-16.474,9.043,9.043,0,0,1,3.546-.691,8.608,8.608,0,0,1,3.616.716,8.409,8.409,0,0,1,2.782,2.077l-2.268,2.2a6.059,6.059,0,0,0-1.755-1.408,4.955,4.955,0,0,0-2.349-.526,6.031,6.031,0,0,0-2.245.417,5.446,5.446,0,0,0-1.828,1.182,5.549,5.549,0,0,0-1.229,1.852,6.688,6.688,0,0,0,0,4.845,5.544,5.544,0,0,0,1.229,1.851,5.446,5.446,0,0,0,1.828,1.182,6.031,6.031,0,0,0,2.245.417,5.349,5.349,0,0,0,2.541-.586,6.2,6.2,0,0,0,1.969-1.659Z" transform="translate(-123.168 -72.085)" fill="#fff"/>
        <path id="Path_7407" data-name="Path 7407" d="M281.346,72.437h6.231a6.448,6.448,0,0,1,2.339.407,5.439,5.439,0,0,1,1.8,1.123,4.864,4.864,0,0,1,1.157,1.707,5.611,5.611,0,0,1,.407,2.161A4.48,4.48,0,0,1,293,79.445a4.813,4.813,0,0,1-.786,1.361,5.8,5.8,0,0,1-1.172,1.075,5.953,5.953,0,0,1-1.406.728l-.025.167,4.585,6.566v.19h-3.7l-4.417-6.423h-1.5v6.423h-3.223Zm6.208,7.711a2.505,2.505,0,0,0,1.8-.668,2.233,2.233,0,0,0,.705-1.694,2.569,2.569,0,0,0-.156-.884,2.232,2.232,0,0,0-.465-.764,2.308,2.308,0,0,0-.777-.539,2.655,2.655,0,0,0-1.063-.2h-3.031v4.749Z" transform="translate(-121.316 -72.056)" fill="#fff"/>
        <path id="Path_7408" data-name="Path 7408" d="M300.771,72.437h3.174l5.23,9.049h.19l5.228-9.049h3.2v17.1h-3.2V81.1l.191-2.866h-.191L310.249,85.9h-1.935l-4.368-7.664h-.189l.189,2.866v8.427h-3.174Z" transform="translate(-119.732 -72.056)" fill="#fff"/>
      </g>
    </g>
  </g>
</svg>
