<svg xmlns="http://www.w3.org/2000/svg" width="222.694" height="144.438" viewBox="0 0 222.694 144.438">
  <g id="BC-HOME-2018" transform="translate(-0.004 -0.315)">
    <g id="_375-BC-Home" data-name="375-BC-Home" transform="translate(0.004 0.315)">
      <g id="Graphic-_-BC-Logo-_-Mono" data-name="Graphic-/-BC-Logo-/-Mono" transform="translate(0 0)">
        <g id="BC-Logo-2018" transform="translate(0 0)">
          <path id="Shape" d="M62.446,100.022H49.7V70.837H62.2c5.319,0,9.089,3.556,9.089,8.048a6.715,6.715,0,0,1-2.974,5.352c2.639,1.233,4.163,3.592,4.163,7.108C72.448,97.179,67.8,100.022,62.446,100.022Zm-.818-23.869H55.789v6.171h5.548c2.545,0,3.719-1.233,3.719-3.365C65.049,77.085,63.3,76.152,61.628,76.152Zm.113,11.223H55.789v7.148h6.137c2.181,0,3.977-1.31,3.977-3.629S63.969,87.375,61.741,87.375Z" transform="translate(5.678 7.747)" fill="#fff"/>
          <path id="Shape-2" data-name="Shape" d="M83.464,100.022a13.991,13.991,0,0,1-4.166.637c-4.5,0-6.319-2.506-6.319-6.321v-23.5H78.8V93.364c0,1.269.6,1.942,1.818,1.942a6.147,6.147,0,0,0,2.229-.41Z" transform="translate(8.339 7.747)" fill="#fff"/>
          <path id="Shape-3" data-name="Shape" d="M104.052,90.548H89.662a4.732,4.732,0,0,0,4.908,4.229,6.743,6.743,0,0,0,4.8-1.873l3.127,3.856A10.871,10.871,0,0,1,94.607,99.9c-7.064,0-10.969-5.052-10.969-11.34,0-6.135,3.719-11.113,10.3-11.113,7.271,0,10.6,5.538,10.18,12.16ZM98.29,86.36a4.043,4.043,0,0,0-4.316-3.929,4.326,4.326,0,0,0-4.239,3.929Z" transform="translate(9.558 8.503)" fill="#fff"/>
          <path id="Shape-4" data-name="Shape" d="M126.825,132.164a13.984,13.984,0,0,1-4.163.637c-4.5,0-6.322-2.506-6.322-6.321V102.972h5.839V125.5c0,1.273.593,1.946,1.818,1.946a6.147,6.147,0,0,0,2.229-.413Z" transform="translate(13.296 11.421)" fill="#fff"/>
          <path id="Shape-5" data-name="Shape" d="M123.473,99.269h-5.915V85.986c0-2.195-1.091-3.179-3.014-3.179-1.858,0-3.716.9-3.716,3.479V99.269h-5.912V78.019h5.915v1.346a7.685,7.685,0,0,1,4.944-1.946c5.057,0,7.7,3.179,7.7,7.335Z" transform="translate(11.99 8.5)" fill="#fff"/>
          <path id="Shape-6" data-name="Shape" d="M164.186,90.548H149.792a4.735,4.735,0,0,0,4.912,4.229,6.75,6.75,0,0,0,4.8-1.873l3.123,3.856A10.846,10.846,0,0,1,154.74,99.9c-7.068,0-10.969-5.052-10.969-11.34,0-6.135,3.716-11.113,10.3-11.113,7.271,0,10.6,5.538,10.18,12.16ZM158.42,86.36a4.04,4.04,0,0,0-4.312-3.929,4.323,4.323,0,0,0-4.239,3.929Z" transform="translate(16.433 8.503)" fill="#fff"/>
          <path id="Shape-7" data-name="Shape" d="M142.8,100.022H136.89V86.366a2.693,2.693,0,0,0-2.938-3.029,3.388,3.388,0,0,0-3.636,3.629v13.056h-5.882V70.837h5.875v9.094a7.968,7.968,0,0,1,4.868-1.723c4.908,0,7.635,3.106,7.635,7.485Z" transform="translate(14.222 7.747)" fill="#fff"/>
          <path id="Shape-8" data-name="Shape" d="M168.021,77.033a3.33,3.33,0,0,1-3.09-2.049,3.366,3.366,0,0,1,.7-3.657,3.315,3.315,0,0,1,3.626-.748,3.354,3.354,0,0,1-1.235,6.454Zm2.938,23.046h-5.875V78.829h5.875Z" transform="translate(18.822 7.689)" fill="#fff"/>
          <path id="Shape-9" data-name="Shape" d="M202.885,99.269H197.01V85.95c0-2.1-1.091-3.106-2.639-3.106a3.546,3.546,0,0,0-3.385,3.815v12.61H185.11l-.036-13.356c0-2.133-1-3.106-2.454-3.106-1.858,0-3.57,1.123-3.57,3.892V99.269h-5.875V78.019h5.875v1.31a6.618,6.618,0,0,1,4.465-1.873,6.341,6.341,0,0,1,5.541,2.769,7.132,7.132,0,0,1,6.21-2.806c4.8,0,7.635,2.883,7.635,7.858Z" transform="translate(19.794 8.5)" fill="#fff"/>
          <path id="Shape-10" data-name="Shape" d="M69.931,113.759c-1.04-3.256-3.232-5.538-6.544-5.538-5.577,0-7.7,4.192-7.7,9.54,0,5.2,1.861,9.394,7.362,9.394,3.2,0,5.541-1.686,6.733-5.279l5.984,1.946c-2.305,6.1-6.4,9.054-12.79,9.054-9.224,0-13.87-7.181-13.87-15.039,0-8.121,4.61-15.3,13.87-15.3,6.21,0,11.005,3.252,12.827,9.2Z" transform="translate(5.61 11.371)" fill="#fff"/>
          <path id="Shape-11" data-name="Shape" d="M94.3,132.164H88.387V118.5a2.693,2.693,0,0,0-2.938-3.029,3.39,3.39,0,0,0-3.636,3.629v13.067H75.931V102.972h5.875v9.09a7.968,7.968,0,0,1,4.872-1.719c4.908,0,7.635,3.1,7.635,7.481Z" transform="translate(8.677 11.421)" fill="#fff"/>
          <path id="Shape-12" data-name="Shape" d="M113.417,132.263a5.382,5.382,0,0,1-4.09-2.173c-1.378,1.31-3.163,1.946-5.839,1.946-4.239,0-8.107-2.195-8.107-6.658,0-6.548,6.322-7.148,8.329-7.316,1.043-.113,2.865-.263,4.2-.337v-.3c0-1.829-.745-2.619-2.825-2.619a11.774,11.774,0,0,0-6.4,1.829l-2.181-4.675a17.632,17.632,0,0,1,8.962-2.4c5.355,0,8.293,2.733,8.293,8.081v7c0,1.869.556,2.769,2.156,3.219Zm-5.541-9.877c-.894.04-2.011.113-2.679.19-1.709.146-3.865.26-3.865,2.429,0,1.423,1.454,2.195,3.047,2.195,2.545,0,3.5-.973,3.5-2.169Z" transform="translate(10.9 12.175)" fill="#fff"/>
          <path id="Shape-13" data-name="Shape" d="M141.938,118.084c-.931-2.283-2.341-3.365-4.363-3.365-3.05,0-4.614,3.029-4.614,6.171s1.749,6.025,4.726,6.025c1.9,0,3.272-.973,4.316-3.369l4.806,2.381c-1.749,3.658-4.984,6.135-9.111,6.135-7.028,0-10.707-5.012-10.707-11.26,0-5.575,3.308-11.263,10.522-11.263a9.928,9.928,0,0,1,9.3,6.175Z" transform="translate(14.514 12.172)" fill="#fff"/>
          <path id="Shape-14" data-name="Shape" d="M157.16,132.042c-6.468,0-10.671-4.675-10.671-11,0-6.508,3.756-11.523,10.671-11.523s10.6,5.088,10.6,11.523C167.772,127.33,163.646,132.042,157.16,132.042Zm0-17.321c-2.909,0-4.8,2.842-4.8,6.321,0,3.406,1.9,5.8,4.8,5.8s4.759-2.36,4.759-5.8S160,114.72,157.16,114.72Z" transform="translate(16.743 12.17)" fill="#fff"/>
          <path id="Shape-15" data-name="Shape" d="M182.337,131.879a13.133,13.133,0,0,1-5.243.969c-3.941,0-6.4-1.756-6.4-5.948v-11h-3.385v-4.975H170.7v-5.487l5.839-2.656v8.158h5.392v4.975h-5.392v9.167c0,2.019.593,2.561,2.007,2.561a8.188,8.188,0,0,0,2.861-.6Z" transform="translate(19.124 11.399)" fill="#fff"/>
          <path id="Shape-16" data-name="Shape" d="M95.53,20.417c-3.487-.615-5.992-2.125-8.646-3.724-1.156-.7-2.356-1.419-3.636-2.063a9.431,9.431,0,0,0-.233-.958C81.594,8.985,77.035,7.43,72.629,5.93c-.418-.143-.865-.285-1.331-.432-2.665-.849-5.981-1.906-8.253-4.419A4.744,4.744,0,0,0,61.384.407L60.991.315l.175.366c1.432,3,5.181,4.986,8.809,6.9,2.959,1.566,5.762,3.047,6.908,4.917-1.981-.293-5.7-.428-6.286-.135-.12.322.269,3.413,6.533,6.354C75.4,25.425,69.513,34.53,62.754,40.953c-8.38,1.2-15.488,3.658-21.243,7.272a7.774,7.774,0,0,1-2.181-4.5c-.269-.209-.385-.245-1.407.969a12,12,0,0,0-1.251,7.207,31.25,31.25,0,0,0-8.224,11.538,34.77,34.77,0,0,0-2.378,14.911c.189,3.987-.647,4.734-.909,4.865-.433.223-1.214-.219-1.505-.454l-1.305-1.054L22.1,83.373c-.327,2.162-2.4,6.043-6.3,9.855a26.4,26.4,0,0,1-13.95,7.506l-.5.077-.218.461a13.825,13.825,0,0,0-1.12,5.751l.04,1.1,1.073-.187c.215-.037,5.33-1.013,12.656-9.687a33.959,33.959,0,0,1,10.94-9.12,13.651,13.651,0,0,1,4.566-1.463l.727-.04.156-.706c.429-1.906,2.352-3.585,4.577-5.527,3.6-3.146,8.086-7.06,8.253-14.051a22.373,22.373,0,0,0-2.763-11.216,23.125,23.125,0,0,1-1.454-3.5c.836-.7,1.727-1.364,2.65-2a7.728,7.728,0,0,0,.938.5c3.512,1.588,8.3.593,14.23-2.959a42.754,42.754,0,0,0,7.02-5.377A87.15,87.15,0,0,1,79.584,42.2,22.124,22.124,0,0,1,75.1,51.094C69.28,58.1,63.373,58.352,57.126,58.615c-4.559.19-9.275.391-13.772,3.45l.007.326c.687.435,1.578.918,1.894.732,3.8-2.246,7.758-2.414,11.95-2.59,6.384-.271,12.987-.545,19.349-8.205a24.04,24.04,0,0,0,4.97-10.012c3.236.227,6.581.611,9.947,1.149a19.914,19.914,0,0,1-.669,4.093,5.2,5.2,0,0,0-.567-.827,5.76,5.76,0,0,0-5.624-1.884c-2.632.574-4.686,2.894-5.632,6.358l.222.241c.665-.124,1.818-.4,1.941-.765,1.091-2.952,2.909-3.753,3.876-3.965a3.843,3.843,0,0,1,3.759,1.244,3.688,3.688,0,0,1,.422,3.907c-.24.5-.5,1-.767,1.463-2.756,4.28-8.809,6.731-13.266,7.2l-.5.051-.24.45a14.678,14.678,0,0,0-1.287,6.362l.047,1.485,1.327-.658a39.657,39.657,0,0,0,11.22-8.088A29.9,29.9,0,0,0,90.2,54.061a9.9,9.9,0,0,0,.727-1.412c.131-.282.262-.56.385-.845a22.028,22.028,0,0,0,2.069-9.222l-.044-.765-.753-.128c-3.614-.6-7.209-1.032-10.685-1.28a51.727,51.727,0,0,0,.444-10.279l-.029-1.035c-.029-1.16-.065-2.455-.051-3.494,1.185.761,2.909.629,4.726.487a12.419,12.419,0,0,1,5.417.366l.4.165.385-.194a5.913,5.913,0,0,0,3.1-5.063v-.8ZM82.707,22.571a2.359,2.359,0,0,1,.931-1.789,2.963,2.963,0,0,1,2.4-.073,4.8,4.8,0,0,1,.64.249l.076.037,1.211.618S85.786,19,83.6,19.177a2.517,2.517,0,0,0-1.836,1.1c-1.542,2.063-1.454,5.352-1.356,8.531l.036,1.4a48.624,48.624,0,0,1-.458,10.1,91.5,91.5,0,0,0-14.143.289,64.264,64.264,0,0,0,8.046-10.3,40.476,40.476,0,0,0,5.09-11.077,4.415,4.415,0,0,0,2.81-.41A2.991,2.991,0,0,0,83.249,16.8c.891.483,1.745,1,2.647,1.54a27.47,27.47,0,0,0,8.4,3.79A3.839,3.839,0,0,1,92.7,24.514a13.681,13.681,0,0,0-5.188-.157l-.68.059c-1.56.161-3.141.26-3.817-.443A1.6,1.6,0,0,1,82.707,22.571ZM79.38,17.329a12.535,12.535,0,0,0,.153-2.195,19.144,19.144,0,0,1,1.938.765,1.342,1.342,0,0,1-.6,1.24A2.505,2.505,0,0,1,79.38,17.329ZM79.02,12.5a11.5,11.5,0,0,0-3.847-3.925,10.2,10.2,0,0,1,5.788,5.041c-.582-.223-1.16-.413-1.749-.582C79.155,12.852,79.089,12.669,79.02,12.5Zm-1.491,4.36c-.142-.055-.284-.113-.422-.176A15.221,15.221,0,0,1,73.2,14.125a21.266,21.266,0,0,1,4.4.468A9.333,9.333,0,0,1,77.53,16.861Zm-21.9,29.646c-5.21,3.12-9.471,4.126-12.361,2.927a50.749,50.749,0,0,1,16.822-6.091A37.491,37.491,0,0,1,55.625,46.506ZM38.8,47.794a8.411,8.411,0,0,0,1.12,1.54q-.763.532-1.483,1.094A8.911,8.911,0,0,1,38.8,47.794ZM30.194,64.175a29.072,29.072,0,0,1,7.013-10.188c.364.988.811,1.939,1.287,2.927a20.8,20.8,0,0,1,2.578,10.342c-.149,6.146-4.108,9.6-7.6,12.654-2.269,1.983-4.232,3.7-5,5.893a17.631,17.631,0,0,0-4.5,1.525c-.625.3-1.258.637-1.887,1.006a16.637,16.637,0,0,0,1.567-3.387,2.856,2.856,0,0,0,2.33-.026c1.509-.743,2.13-2.923,1.971-6.654A32.9,32.9,0,0,1,30.194,64.175ZM3.933,104.587a15.072,15.072,0,0,1-1.992,1.05,12.329,12.329,0,0,1,.727-3.106,24.42,24.42,0,0,0,6.682-2.3A31.159,31.159,0,0,1,3.933,104.587ZM75.1,65.752a11.524,11.524,0,0,1,.785-3.38A22.693,22.693,0,0,0,82.8,60.353,39,39,0,0,1,75.1,65.752Z" transform="translate(-0.004 -0.315)" fill="#fff"/>
        </g>
      </g>
    </g>
  </g>
</svg>
