<svg xmlns="http://www.w3.org/2000/svg" xmlns:xlink="http://www.w3.org/1999/xlink" width="46" height="46" viewBox="0 0 46 46">
  <defs>
    <clipPath id="clip-path">
      <rect id="Rectangle_1150" data-name="Rectangle 1150" width="46" height="46" transform="translate(110 6697)" fill="#6302dd" stroke="#6302dd" stroke-width="1"/>
    </clipPath>
  </defs>
  <g id="Mask_Group_49" data-name="Mask Group 49" transform="translate(-110 -6697)" clip-path="url(#clip-path)">
    <path id="Path_2263" data-name="Path 2263" d="M57.566,434.7a17.55,17.55,0,0,0-16.591,11.888A17.52,17.52,0,1,0,63.2,468.814a17.29,17.29,0,0,0,2.441-1.039,17.674,17.674,0,0,0,6.092-5.24,1.8,1.8,0,1,0-2.9-2.118,13.954,13.954,0,0,1-4.753,4.109q.051-.666.051-1.344a17.539,17.539,0,0,0-17.517-17.519q-.68,0-1.349.052a13.924,13.924,0,0,1,26.233,6.509,1.8,1.8,0,0,0,3.594,0A17.539,17.539,0,0,0,57.566,434.7Zm-10.959,42.4A13.924,13.924,0,0,1,40.1,450.874q-.051.667-.052,1.349a17.539,17.539,0,0,0,17.519,17.519q.676,0,1.349-.052A13.939,13.939,0,0,1,46.607,477.108Zm13.925-13.925a13.96,13.96,0,0,1-.262,2.7,13.828,13.828,0,0,1-2.7.267q-.534,0-1.057-.04l3.983-3.983q.038.524.038,1.058Zm-1-5.181-7.145,7.145a13.932,13.932,0,0,1-3.176-1.793l8.528-8.528A13.92,13.92,0,0,1,59.532,458Zm-4.3-5.747-8.591,8.589a13.927,13.927,0,0,1-1.89-3.18l7.3-7.3a13.925,13.925,0,0,1,3.18,1.89Zm-8.622-3a13.958,13.958,0,0,1,1.4.07l-4.294,4.294a14.026,14.026,0,0,1,.193-4.1A13.97,13.97,0,0,1,46.607,449.257Z" transform="translate(80.914 6262.296)" fill="#6302dd"/>
  </g>
</svg>
