<svg xmlns="http://www.w3.org/2000/svg" xmlns:xlink="http://www.w3.org/1999/xlink" width="46" height="46" viewBox="0 0 46 46">
  <defs>
    <clipPath id="clip-path">
      <rect id="Rectangle_1150" data-name="Rectangle 1150" width="46" height="46" transform="translate(110 6697)" fill="#6302dd" stroke="#6302dd" stroke-width="1"/>
    </clipPath>
  </defs>
  <g id="Mask_Group_50" data-name="Mask Group 50" transform="translate(-110 -6697)" clip-path="url(#clip-path)">
    <g id="Experienced_iPhone_mobile_app_developers" data-name="Experienced iPhone mobile app developers" transform="translate(-17.227 6554.348)">
      <g id="Group_818" data-name="Group 818" transform="translate(-166.376 73.891)">
        <g id="Group_318" data-name="Group 318">
          <path id="Path_1258" data-name="Path 1258" d="M328.889,68.76H304.318a1.69,1.69,0,0,0-1.69,1.69V113.07a1.69,1.69,0,0,0,1.69,1.69h24.53a1.69,1.69,0,0,0,1.69-1.69V70.82a1.713,1.713,0,0,0,.04-.369A1.69,1.69,0,0,0,328.889,68.76Zm-1.73,42.619h-21.15V72.141h21.15Z" fill="#6302dd"/>
        </g>
        <g id="Group_319" data-name="Group 319">
          <path id="Path_1259" data-name="Path 1259" d="M313.731,106.75H319.7a1.69,1.69,0,1,0,0-3.381h-5.972a1.69,1.69,0,0,0,0,3.381Z" fill="#6302dd"/>
        </g>
      </g>
      <g id="Group_832" data-name="Group 832" transform="translate(128.456 71.552)">
        <g id="Group_827" data-name="Group 827" transform="translate(13.55 88.511)">
          <g id="Group_826" data-name="Group 826">
            <path id="Path_2267" data-name="Path 2267" d="M16.992,123.668l-1.062,1.123-1.7,1.787c-.128.135-.256.271-.386.407a1.038,1.038,0,0,0-.3.715,1.072,1.072,0,0,0,.3.715l1.062,1.123,1.7,1.787c.128.135.256.271.386.407a1.035,1.035,0,0,0,.715.3,1.014,1.014,0,0,0,1.014-1.014,1.072,1.072,0,0,0-.3-.715l-1.062-1.123-1.7-1.787c-.128-.135-.256-.271-.386-.407v1.433l1.062-1.123,1.7-1.787c.128-.135.256-.271.386-.407a1.053,1.053,0,0,0,.3-.715,1.014,1.014,0,0,0-1.727-.717Z" transform="translate(-13.55 -123.372)" fill="#6302dd"/>
          </g>
        </g>
        <g id="Group_829" data-name="Group 829" transform="translate(24.707 88.508)">
          <g id="Group_828" data-name="Group 828">
            <path id="Path_2268" data-name="Path 2268" d="M333.271,125.026l1.063,1.123,1.7,1.787c.128.135.256.271.386.407v-1.432l-1.062,1.123-1.7,1.787c-.128.135-.256.271-.386.407a1.053,1.053,0,0,0-.3.715,1.011,1.011,0,0,0,1.727.715l1.063-1.123,1.7-1.787c.128-.135.256-.271.386-.407a1.038,1.038,0,0,0,.3-.715,1.072,1.072,0,0,0-.3-.715l-1.063-1.123-1.7-1.787c-.128-.135-.256-.271-.386-.407a1.034,1.034,0,0,0-.715-.3,1.014,1.014,0,0,0-1.014,1.014,1.07,1.07,0,0,0,.3.717Z" transform="translate(-332.973 -123.297)" fill="#6302dd"/>
          </g>
        </g>
        <g id="Group_831" data-name="Group 831" transform="translate(18.788 87.249)">
          <g id="Group_830" data-name="Group 830">
            <path id="Path_2269" data-name="Path 2269" d="M167.384,87.989c-.128.305-.255.612-.383.918q-.455,1.093-.913,2.186l-1.1,2.642-.956,2.291c-.155.371-.317.739-.464,1.111,0,0,0,.01-.007.015a1.132,1.132,0,0,0,.1.779,1.04,1.04,0,0,0,.606.466,1.029,1.029,0,0,0,.779-.1l.2-.158a1.007,1.007,0,0,0,.26-.447c.128-.305.255-.612.383-.918q.455-1.093.912-2.186l1.1-2.642.956-2.291c.155-.371.317-.739.464-1.111,0,0,0-.01.007-.015a1.133,1.133,0,0,0-.1-.779,1.04,1.04,0,0,0-.606-.466,1.029,1.029,0,0,0-.779.1l-.2.158a1.023,1.023,0,0,0-.26.447Z" transform="translate(-163.521 -87.249)" fill="#6302dd"/>
          </g>
        </g>
      </g>
    </g>
  </g>
</svg>
