<svg xmlns="http://www.w3.org/2000/svg" xmlns:xlink="http://www.w3.org/1999/xlink" width="46" height="46" viewBox="0 0 46 46">
  <defs>
    <clipPath id="clip-path">
      <rect id="Rectangle_1150" data-name="Rectangle 1150" width="46" height="46" transform="translate(110 6697)" fill="#6302dd" stroke="#6302dd" stroke-width="1"/>
    </clipPath>
  </defs>
  <g id="Mask_Group_51" data-name="Mask Group 51" transform="translate(-110 -6697)" clip-path="url(#clip-path)">
    <g id="Flexible_Engagement_Models" data-name="Flexible Engagement Models" transform="translate(-98.68 6614.673)">
      <g id="Layer_1" data-name="Layer 1" transform="translate(208.678 82.325)">
        <path id="Path_2275" data-name="Path 2275" d="M254.676,96.957V84.411a2.08,2.08,0,0,0-2.085-2.085H240.045a2.089,2.089,0,0,0-2.095,2.085v3.152l-15.825,20.151-2.525-1.8v6.1a7.862,7.862,0,0,0-1.527-.343,11.6,11.6,0,0,0-2.378.049,8.359,8.359,0,1,0,9.64,9.288h7.389v2.085a1.046,1.046,0,0,0,1.675.841l3.66-2.74a8.355,8.355,0,1,0,9.295-9.522v-7.391h2.1a1.046,1.046,0,0,0,.842-1.675l-2.672-3.553h4.962a2.09,2.09,0,0,0,2.093-2.093Zm-37.631,27.178A4.177,4.177,0,1,1,220,122.912a4.179,4.179,0,0,1-2.955,1.223Zm21.013-5.412-3.66-2.74a1.055,1.055,0,0,0-1.1-.1,1.045,1.045,0,0,0-.577.929v2.095h-7.39a8.365,8.365,0,0,0-4.11-6.186l5.324-1.527-2.417-2.016,13.819-17.147v4.923a2.1,2.1,0,0,0,2.095,2.095h4.962l-2.662,3.553a1.033,1.033,0,0,0-.1,1.1,1.045,1.045,0,0,0,.929.578h2.095v7.389a8.368,8.368,0,0,0-7.214,7.056Zm12.439,1.233a4.179,4.179,0,1,1-4.179-4.179,4.179,4.179,0,0,1,4.179,4.179Zm0-25.094h-8.368V86.5H250.5Z" transform="translate(-208.678 -82.325)" fill="#6302dd"/>
      </g>
    </g>
  </g>
</svg>
