<svg xmlns="http://www.w3.org/2000/svg" xmlns:xlink="http://www.w3.org/1999/xlink" width="46" height="46" viewBox="0 0 46 46">
  <defs>
    <clipPath id="clip-path">
      <rect id="Rectangle_1150" data-name="Rectangle 1150" width="46" height="46" transform="translate(110 6697)" fill="#6302dd" stroke="#6302dd" stroke-width="1"/>
    </clipPath>
  </defs>
  <g id="Mask_Group_53" data-name="Mask Group 53" transform="translate(-110 -6697)" clip-path="url(#clip-path)">
    <g id="Technical_Support" data-name="Technical Support" transform="translate(-980.533 6292.106)">
      <path id="Path_1724" data-name="Path 1724" d="M1102.158,410.424a1.508,1.508,0,0,0-1.508-1.508h-6.775a1.508,1.508,0,0,0-1.507,1.508v19.693a1.508,1.508,0,0,0,3.015,0V411.932h5.267A1.508,1.508,0,0,0,1102.158,410.424Z" transform="translate(0 -0.105)" fill="#6302dd"/>
      <path id="Path_1725" data-name="Path 1725" d="M1133.4,408.917h-5.385a1.508,1.508,0,1,0,0,3.016h3.877v22.945h-15.587a1.51,1.51,0,0,0-1.337.81l-5.4,10.347-6.135-13.685a1.508,1.508,0,0,0-2.751,1.233l7.408,16.525a1.507,1.507,0,0,0,1.33.89h.044a1.507,1.507,0,0,0,1.336-.81l6.414-12.3H1133.4a1.508,1.508,0,0,0,1.508-1.508V410.424a1.508,1.508,0,0,0-1.508-1.508Z" transform="translate(-0.214 -0.105)" fill="#6302dd"/>
      <path id="Path_1726" data-name="Path 1726" d="M1103.069,421.09a1.508,1.508,0,0,0,2.837-1.021,9.089,9.089,0,1,1,17.242-.39,1.508,1.508,0,0,0,2.88.891,12.105,12.105,0,1,0-22.96.52Z" transform="translate(-0.261)" fill="#6302dd"/>
      <path id="Path_1727" data-name="Path 1727" d="M1123.142,426.458a9.649,9.649,0,0,1-2.7,2.085,1.508,1.508,0,1,0,1.394,2.674,12.651,12.651,0,0,0,3.538-2.735,1.5,1.5,0,0,0,.258-1.623,13.888,13.888,0,0,0,3.351-9.058,14.039,14.039,0,0,0-.271-2.744.431.431,0,1,0-.844.171,13.213,13.213,0,0,1,.253,2.574,13.031,13.031,0,0,1-3.06,8.4,1.5,1.5,0,0,0-1.923.256Z" transform="translate(-0.713 -0.257)" fill="#6302dd"/>
    </g>
  </g>
</svg>
