<svg xmlns="http://www.w3.org/2000/svg" xmlns:xlink="http://www.w3.org/1999/xlink" width="46" height="46" viewBox="0 0 46 46">
  <defs>
    <clipPath id="clip-path">
      <rect id="Rectangle_1150" data-name="Rectangle 1150" width="46" height="46" transform="translate(110 6697)" fill="#6302dd" stroke="#6302dd" stroke-width="1"/>
    </clipPath>
  </defs>
  <g id="Mask_Group_54" data-name="Mask Group 54" transform="translate(-110 -6697)" clip-path="url(#clip-path)">
    <g id="Timely_Delivery" data-name="Timely Delivery" transform="translate(-104.008 6621.77)">
      <g id="ICO" transform="translate(217.479 75.228)">
        <path id="Path_1750" data-name="Path 1750" d="M256.332,102.857l-5.714-9.333a1.367,1.367,0,0,0-1.166-.654h-2.3a11.8,11.8,0,1,0-20.519,0h-2.071a1.367,1.367,0,0,0-1.167.654l-5.714,9.333a1.368,1.368,0,0,0,1.166,2.082h4.346v11.012a1.368,1.368,0,0,0,.96,1.306l12.1,3.784a1.364,1.364,0,0,0,.69.189h.127a1.364,1.364,0,0,0,.69-.189l12.1-3.784a1.368,1.368,0,0,0,.96-1.306V104.94h4.343a1.368,1.368,0,0,0,1.167-2.082ZM228.754,82.2a9.465,9.465,0,1,1-1.023,7.171,9.465,9.465,0,0,1,1.023-7.171Zm-3.424,13.407h3.176a1.32,1.32,0,0,0,.252-.025,11.907,11.907,0,0,0,4.287,2.611l-2.455,4.01h-9.3Zm.6,9.333h5.425a1.367,1.367,0,0,0,1.167-.654l3.051-4.984v18.66l-9.644-3.014Zm22.15,10.011-9.644,3.014V99.308l3.051,4.985a1.368,1.368,0,0,0,1.167.654h5.427Zm-4.657-12.745-2.494-4.076a11.721,11.721,0,0,0,4.1-2.531,1.267,1.267,0,0,0,.146.015h3.512l4.039,6.6Z" transform="translate(-217.479 -75.228)" fill="#6302dd"/>
      </g>
      <path id="Path_1707" data-name="Path 1707" d="M231.384,86.477a1.194,1.194,0,0,0,.44-2.347c-.024,0-.05-.008-.074-.011l-5.921-.935.029-4.95a1.194,1.194,0,0,0-2.384-.011l-.039,5.976a1.2,1.2,0,0,0,1.013,1.186Z" transform="translate(11.624 3.664)" fill="#6302dd"/>
    </g>
  </g>
</svg>
