<svg xmlns="http://www.w3.org/2000/svg" viewBox="0 0 339.26 337.89"><defs><style>.cls-1{fill:#fff;}</style></defs><g id="Layer_2" data-name="Layer 2"><g id="Layer_1-2" data-name="Layer 1"><path class="cls-1" d="M32,170.11A13.72,13.72,0,0,1,30,177.76a11,11,0,0,1-5.61,4.42l-3-5.21q4.72-1.78,4.75-7.06a6.44,6.44,0,0,0-.86-3.7,2.9,2.9,0,0,0-4.89.19,21.76,21.76,0,0,0-2,5.18A22.81,22.81,0,0,1,15.45,178a7.37,7.37,0,0,1-6.35,2.87,8.12,8.12,0,0,1-6.63-3A10.74,10.74,0,0,1,0,170.65a11.77,11.77,0,0,1,7-11l2.93,5.12a6.14,6.14,0,0,0-4,5.87,4.65,4.65,0,0,0,.84,3A2.72,2.72,0,0,0,9,174.75a2.9,2.9,0,0,0,2.39-1.18,17.89,17.89,0,0,0,2-4.65l.71-2.11c.12-.38.37-1,.76-2a9.17,9.17,0,0,1,.93-1.93A7.85,7.85,0,0,1,18.45,160a8.13,8.13,0,0,1,4.36-1.12,8.26,8.26,0,0,1,6.76,3.16A12.44,12.44,0,0,1,32,170.11Z"/><path class="cls-1" d="M34.39,145.67a11.35,11.35,0,0,1-13.45,9.42,11.67,11.67,0,0,1-6.9-19,10.26,10.26,0,0,1,4.77-3.22l2,5.3a5,5,0,0,0-2.47,1.6,5.73,5.73,0,0,0-1.3,2.83,5.64,5.64,0,0,0,.93,4.45,5.88,5.88,0,0,0,4,2.4,6,6,0,0,0,4.54-.9,5.73,5.73,0,0,0,2.38-3.87,6.11,6.11,0,0,0-.23-3.14,4.84,4.84,0,0,0-1.76-2.34l3.63-4.37a10.66,10.66,0,0,1,3.4,4.78A11.33,11.33,0,0,1,34.39,145.67Z"/><path class="cls-1" d="M17.14,121.67l3.61,1.13a5.84,5.84,0,0,1-2.23-3.38,7.83,7.83,0,0,1,.21-4.27l6,1.91a6.48,6.48,0,0,0-.39,4.76,5.08,5.08,0,0,0,3.71,3.3l10,3.16-1.7,5.41-21-6.61Z"/><path class="cls-1" d="M46,102.28a11.91,11.91,0,0,1-7,15,11.23,11.23,0,0,1-8.91-.49,11.49,11.49,0,0,1-5.58-15.45A11.56,11.56,0,0,1,39.91,95.7,11.25,11.25,0,0,1,46,102.28ZM37.1,112a6.18,6.18,0,0,0,3.62-7.73,5.9,5.9,0,0,0-3.22-3.4,5.89,5.89,0,0,0-4.67-.3,6.18,6.18,0,0,0-3.62,7.73A6.52,6.52,0,0,0,37.1,112Z"/><path class="cls-1" d="M54.86,93.09l-3,4.81L24.64,80.81l3-4.81Z"/><path class="cls-1" d="M60.84,84.66l-3.36,4.58-25.9-19,3.36-4.57Z"/><path class="cls-1" d="M49.69,49.86l9.17-8.09a14,14,0,0,1,10.86-3.66,15.11,15.11,0,0,1,10.45,5.38,15.14,15.14,0,0,1,4,11,13.93,13.93,0,0,1-5,10.32L70.08,73Zm21.1,14.72,4.62-4.08a8.6,8.6,0,0,0,3.13-6.29,9.88,9.88,0,0,0-2.72-6.87,9.61,9.61,0,0,0-6.46-3.52,8.5,8.5,0,0,0-6.65,2.3L58.09,50.2Z"/><path class="cls-1" d="M107.55,41.9a11.61,11.61,0,0,1-21.33,2.93,11.5,11.5,0,0,1,4.14-15.9,11.66,11.66,0,0,1,17.19,13Zm-12.79,3a6.16,6.16,0,0,0,7.36-4.32A6.38,6.38,0,0,0,97.71,33a6.17,6.17,0,0,0-7.36,4.31,6.5,6.5,0,0,0,4.41,7.52Z"/><path class="cls-1" d="M130.42,26.65l-.95-14,5.69-2,.66,23.07-5.1,1.79-8.23-11.25.58,13.92L118,40,104.1,21.5l5.69-2,8,11.52L117.1,17l5.06-1.78Z"/><path class="cls-1" d="M153.17,7.48A7.84,7.84,0,0,1,159.4,9a9.26,9.26,0,0,1,3.29,6.29l1.89,13.38L159,29.5l-1.79-12.67a4.59,4.59,0,0,0-1.63-3.15,4.24,4.24,0,0,0-3.32-.73,4.63,4.63,0,0,0-3.32,1.87,5.79,5.79,0,0,0-.71,4.21l1.67,11.76-5.62.8L141.15,9.81l5.62-.8.35,2.44Q148.68,8.12,153.17,7.48Z"/><path class="cls-1" d="M175.5,25.56a3.59,3.59,0,0,1-1.05,2.66,3.66,3.66,0,0,1-2.63,1.14,3.77,3.77,0,0,1-3.8-3.68A3.66,3.66,0,0,1,169.08,23a3.72,3.72,0,0,1,5.28-.08A3.58,3.58,0,0,1,175.5,25.56Z"/><path class="cls-1" d="M200.35,31.84a13.79,13.79,0,0,1-7.16-3.38,11,11,0,0,1-3.35-6.3l5.66-2q.92,4.95,6.11,5.92a6.39,6.39,0,0,0,3.79-.2,2.89,2.89,0,0,0,.67-4.84,21.18,21.18,0,0,0-4.74-2.89,22.7,22.7,0,0,1-5.75-4,7.38,7.38,0,0,1-1.71-6.75,8.18,8.18,0,0,1,4.11-6A10.69,10.69,0,0,1,205.49.22a12.07,12.07,0,0,1,6.12,3A12.08,12.08,0,0,1,215.05,9l-5.56,2a6.14,6.14,0,0,0-5.07-5,4.65,4.65,0,0,0-3.06.3,2.68,2.68,0,0,0-1.48,2,2.88,2.88,0,0,0,.73,2.55,17.91,17.91,0,0,0,4.24,2.75l2,1.08c.35.18.95.55,1.81,1.1a8.15,8.15,0,0,1,1.73,1.26,7.69,7.69,0,0,1,2.36,3.21,8,8,0,0,1,.33,4.49,8.19,8.19,0,0,1-4.3,6.09A12.44,12.44,0,0,1,200.35,31.84Z"/><path class="cls-1" d="M224,38.48a11.37,11.37,0,0,1-6.91-14.9A11.69,11.69,0,0,1,237,20.12a10.27,10.27,0,0,1,2.34,5.27l-5.57,1a5,5,0,0,0-1.14-2.71,5.74,5.74,0,0,0-2.56-1.78,5.66,5.66,0,0,0-4.55.14,5.92,5.92,0,0,0-3.06,3.49,6.05,6.05,0,0,0,.09,4.62,5.73,5.73,0,0,0,3.39,3,6.12,6.12,0,0,0,3.14.33,4.94,4.94,0,0,0,2.61-1.32l3.66,4.34A10.71,10.71,0,0,1,230,39,11.47,11.47,0,0,1,224,38.48Z"/><path class="cls-1" d="M250.68,25.71l-1.75,3.35a5.86,5.86,0,0,1,3.72-1.6,7.91,7.91,0,0,1,4.16,1L253.88,34a6.48,6.48,0,0,0-4.62-1.22,5.07,5.07,0,0,0-3.9,3.08l-4.87,9.32-5-2.63,10.19-19.5Z"/><path class="cls-1" d="M264.71,57.47a11.89,11.89,0,0,1-13.52-9.53,11.65,11.65,0,1,1,13.52,9.53Zm-8-10.43a6.16,6.16,0,0,0,7,4.92,6.39,6.39,0,0,0,5-7.12,6.17,6.17,0,0,0-7-4.92,6.51,6.51,0,0,0-5,7.12Z"/><path class="cls-1" d="M272.2,67.84,268,64l21.59-23.78,4.2,3.82Z"/><path class="cls-1" d="M279.44,75.2l-3.92-4.11,23.27-22.15,3.91,4.11Z"/><path class="cls-1" d="M315.68,70.41,322,80.87a14,14,0,0,1,1.68,11.33A16.22,16.22,0,0,1,305,103.57a13.94,13.94,0,0,1-9.27-6.73l-6.35-10.45ZM297.47,88.56l3.19,5.27A8.58,8.58,0,0,0,306.3,98a9.85,9.85,0,0,0,7.24-1.46,9.61,9.61,0,0,0,4.6-5.73,8.45,8.45,0,0,0-1.08-7l-3.19-5.26Z"/><path class="cls-1" d="M313.27,128.73a11.75,11.75,0,1,1,8.93.31A11.19,11.19,0,0,1,313.27,128.73Zm-.67-13.12a6.16,6.16,0,0,0,2.95,8,6.38,6.38,0,0,0,8.18-3,6.17,6.17,0,0,0-3-8,6.5,6.5,0,0,0-8.17,3Z"/><path class="cls-1" d="M324.32,153.93l14,1.51,1,5.95L316.42,158l-.87-5.34,12.51-6.14-13.81-1.85-.87-5.34L334,128.91l1,5.94-12.73,5.87,14,1.78.86,5.3Z"/><path class="cls-1" d="M339.18,179.7a7.78,7.78,0,0,1-2.64,5.84,9.26,9.26,0,0,1-6.77,2.13l-13.5-.5.21-5.67,12.79.47a4.58,4.58,0,0,0,3.39-1,4.27,4.27,0,0,0,1.3-3.14,4.58,4.58,0,0,0-1.25-3.59,5.71,5.71,0,0,0-4-1.45l-11.87-.44.21-5.67,22,.81-.21,5.67-2.46-.09Q339.34,175.18,339.18,179.7Z"/><path class="cls-1" d="M317.42,198.5a3.76,3.76,0,0,1-3.08-4.29,3.73,3.73,0,1,1,3.08,4.29Z"/><path class="cls-1" d="M302.8,231.44a13.78,13.78,0,0,1,5.05-6.1,11,11,0,0,1,6.94-1.69l.57,6q-5-.33-7.24,4.46a6.32,6.32,0,0,0-.75,3.72,2.9,2.9,0,0,0,4.53,1.85,21.45,21.45,0,0,0,4-3.88,22.61,22.61,0,0,1,5.27-4.59,7.38,7.38,0,0,1,7,0,8.12,8.12,0,0,1,4.8,5.46,10.71,10.71,0,0,1-.73,7.56,11.74,11.74,0,0,1-10.89,7.09l-.53-5.87a6.14,6.14,0,0,0,6.06-3.69,4.67,4.67,0,0,0,.46-3,2.7,2.7,0,0,0-1.55-1.93,2.91,2.91,0,0,0-2.66.08,17.67,17.67,0,0,0-3.71,3.43l-1.53,1.62c-.26.3-.77.79-1.51,1.48a8.24,8.24,0,0,1-1.65,1.37,7.71,7.71,0,0,1-3.69,1.5,8.9,8.9,0,0,1-9.28-6.47A12.47,12.47,0,0,1,302.8,231.44Z"/><path class="cls-1" d="M290.52,252.76a11.62,11.62,0,1,1,14.6,17.08,10.26,10.26,0,0,1-5.68,1l.4-5.64a5,5,0,0,0,2.91-.44,5.84,5.84,0,0,0,2.36-2,5.65,5.65,0,0,0,1-4.44,5.9,5.9,0,0,0-2.63-3.83,6,6,0,0,0-4.5-1,5.71,5.71,0,0,0-3.77,2.54,6.06,6.06,0,0,0-1.09,3,4.86,4.86,0,0,0,.63,2.85l-5.1,2.48a10.65,10.65,0,0,1-1.13-5.76A11.45,11.45,0,0,1,290.52,252.76Z"/><path class="cls-1" d="M296.35,281.72l-2.82-2.52a5.86,5.86,0,0,1,.64,4,8,8,0,0,1-2,3.8l-4.72-4.23a6.47,6.47,0,0,0,2.33-4.18,5.06,5.06,0,0,0-2-4.53L280,267l3.79-4.23,16.38,14.68Z"/><path class="cls-1" d="M262.08,287.48a11.73,11.73,0,1,1,2.79,8.49A11.24,11.24,0,0,1,262.08,287.48Zm12.08-5.16a6.17,6.17,0,0,0-6.49,5.54,6.38,6.38,0,0,0,5.65,6.63,6.19,6.19,0,0,0,6.5-5.54,6.52,6.52,0,0,0-5.66-6.63Z"/><path class="cls-1" d="M250.19,292.14l4.75-3.12,17.65,26.83L267.85,319Z"/><path class="cls-1" d="M241.24,297.33l5-2.77,15.65,28.05-5,2.77Z"/><path class="cls-1" d="M236.68,333.84l-11.75,3.41a14,14,0,0,1-11.38-1.32,16.2,16.2,0,0,1-6.1-21.05,14,14,0,0,1,8.9-7.21l11.75-3.41Zm-12.79-22.31L218,313.25a8.58,8.58,0,0,0-5.52,4.35A9.88,9.88,0,0,0,212,325a9.6,9.6,0,0,0,4.33,5.94,8.51,8.51,0,0,0,7,.76l5.91-1.71Z"/><path class="cls-1" d="M181,316.9a11.73,11.73,0,1,1-2.5,8.59A11.24,11.24,0,0,1,181,316.9Zm12.88,2.58a6.15,6.15,0,0,0-8.48.9,6.39,6.39,0,0,0,.91,8.66,6.16,6.16,0,0,0,8.49-.9,6.49,6.49,0,0,0-.92-8.66Z"/><path class="cls-1" d="M153.87,321.34l-4.94,13.16-6-.54,9-21.28,5.39.49,2.83,13.64,5.24-12.91,5.39.48,5,22.54-6-.54-2.51-13.79L162,335.68l-5.35-.48Z"/><path class="cls-1" d="M125.2,329.32a7.79,7.79,0,0,1-5-4,9.2,9.2,0,0,1-.38-7.09l3.84-13,5.44,1.61-3.64,12.28a4.57,4.57,0,0,0,.17,3.54,4.26,4.26,0,0,0,2.72,2,4.6,4.6,0,0,0,3.79-.32,5.77,5.77,0,0,0,2.4-3.53l3.38-11.39,5.44,1.61-6.25,21.09-5.45-1.61.7-2.36C130.49,329.81,128.1,330.18,125.2,329.32Z"/><path class="cls-1" d="M112.38,303.59a3.78,3.78,0,1,1,0,2.86A3.6,3.6,0,0,1,112.38,303.59Z"/><path class="cls-1" d="M92.35,287.59a13.65,13.65,0,0,1,5.12,6,11,11,0,0,1,.45,7.13l-6-.48q1.21-4.89-3.12-7.91A6.31,6.31,0,0,0,85.27,291a2.89,2.89,0,0,0-2.61,4.13,21.51,21.51,0,0,0,3.13,4.59,23.22,23.22,0,0,1,3.6,6,7.41,7.41,0,0,1-1.24,6.85,8.11,8.11,0,0,1-6.22,3.77,10.68,10.68,0,0,1-7.32-2,11.72,11.72,0,0,1-5.07-12l5.87.5A6.15,6.15,0,0,0,78,309.43a4.69,4.69,0,0,0,2.91,1,2.71,2.71,0,0,0,2.18-1.19,2.89,2.89,0,0,0,.38-2.63,17.93,17.93,0,0,0-2.72-4.26l-1.33-1.78c-.25-.32-.64-.9-1.2-1.75a9.11,9.11,0,0,1-1.06-1.86,7.8,7.8,0,0,1-.82-3.9,8.88,8.88,0,0,1,8-8A12.48,12.48,0,0,1,92.35,287.59Z"/><path class="cls-1" d="M73.54,271.78a11.62,11.62,0,1,1-16.28,16.57,11.4,11.4,0,0,1-3.1-5.2,10.31,10.31,0,0,1,0-5.75l5.49,1.38a5,5,0,0,0-.08,2.94,5.84,5.84,0,0,0,1.59,2.68,5.73,5.73,0,0,0,4.2,1.75,5.86,5.86,0,0,0,4.23-1.92A6,6,0,0,0,71.46,280a5.68,5.68,0,0,0-1.84-4.15,6.1,6.1,0,0,0-2.72-1.6,4.85,4.85,0,0,0-2.92.12l-1.54-5.46a10.7,10.7,0,0,1,5.86-.1A11.52,11.52,0,0,1,73.54,271.78Z"/><path class="cls-1" d="M44,272.39l3-2.33a5.81,5.81,0,0,1-4-.07,7.9,7.9,0,0,1-3.39-2.6l5-3.9a6.49,6.49,0,0,0,3.7,3A5.07,5.07,0,0,0,53,265.33l8.29-6.47,3.49,4.47L47.48,276.87Z"/><path class="cls-1" d="M44.39,237.66a11.68,11.68,0,1,1-13,17.17,11.57,11.57,0,0,1,4.16-15.92A11.27,11.27,0,0,1,44.39,237.66Zm2.94,12.81A6.17,6.17,0,0,0,43,243.1a5.86,5.86,0,0,0-4.63.71,5.93,5.93,0,0,0-2.9,3.68,6.16,6.16,0,0,0,4.31,7.37,6.51,6.51,0,0,0,7.52-4.39Z"/><path class="cls-1" d="M41.9,225.12l2.23,5.22L14.61,243l-2.24-5.22Z"/><path class="cls-1" d="M38.37,215.4l1.85,5.37L9.86,231.25,8,225.89Z"/><path class="cls-1" d="M190,202.69A33.74,33.74,0,1,1,223.74,169,33.78,33.78,0,0,1,190,202.69Zm0-64.48A30.74,30.74,0,1,0,220.74,169,30.77,30.77,0,0,0,190,138.21Z"/><path class="cls-1" d="M149.27,202.69A33.74,33.74,0,1,1,183,169,33.78,33.78,0,0,1,149.27,202.69Zm0-64.48A30.74,30.74,0,1,0,180,169,30.77,30.77,0,0,0,149.27,138.21Z"/></g></g></svg>