<svg id="Group_3989" data-name="Group 3989" xmlns="http://www.w3.org/2000/svg" xmlns:xlink="http://www.w3.org/1999/xlink" width="138.294" height="162.906" viewBox="0 0 138.294 162.906">
  <defs>
    <clipPath id="clip-path">
      <rect id="Rectangle_1229" data-name="Rectangle 1229" width="111.532" height="142.501" fill="none"/>
    </clipPath>
    <linearGradient id="linear-gradient" x1="0.5" y1="1" x2="0.5" gradientUnits="objectBoundingBox">
      <stop offset="0.203" stop-color="#fff"/>
      <stop offset="0.321" stop-color="#e3f1fb"/>
      <stop offset="0.512" stop-color="#bbdff7"/>
      <stop offset="0.612" stop-color="#acd8f6"/>
      <stop offset="1" stop-color="#538de1"/>
    </linearGradient>
    <linearGradient id="linear-gradient-2" x1="0.5" y1="1.111" x2="0.5" gradientUnits="objectBoundingBox">
      <stop offset="0.255" stop-color="#b2d9ff" stop-opacity="0"/>
      <stop offset="0.334" stop-color="#97c5f7" stop-opacity="0.227"/>
      <stop offset="0.416" stop-color="#7fb3f1" stop-opacity="0.431"/>
      <stop offset="0.502" stop-color="#6ba4eb" stop-opacity="0.608"/>
      <stop offset="0.591" stop-color="#5b97e7" stop-opacity="0.749"/>
      <stop offset="0.682" stop-color="#4e8ee3" stop-opacity="0.859"/>
      <stop offset="0.777" stop-color="#4587e0" stop-opacity="0.937"/>
      <stop offset="0.879" stop-color="#3f83df" stop-opacity="0.984"/>
      <stop offset="1" stop-color="#3e82df"/>
    </linearGradient>
    <linearGradient id="linear-gradient-3" x1="0.5" y1="1" x2="0.5" gradientUnits="objectBoundingBox">
      <stop offset="0" stop-color="#91a8cc"/>
      <stop offset="0.044" stop-color="#87a1c9"/>
      <stop offset="0.234" stop-color="#618ac2"/>
      <stop offset="0.424" stop-color="#47b"/>
      <stop offset="0.611" stop-color="#2f6ab7"/>
      <stop offset="0.795" stop-color="#2362b4"/>
      <stop offset="0.97" stop-color="#1f60b4"/>
      <stop offset="0.979" stop-color="#1f60a4"/>
      <stop offset="0.989" stop-color="#1f6099"/>
      <stop offset="1" stop-color="#206195"/>
    </linearGradient>
    <linearGradient id="linear-gradient-4" x1="0.5" y1="1" x2="0.5" gradientUnits="objectBoundingBox">
      <stop offset="0" stop-color="#dcc8ab"/>
      <stop offset="0.534" stop-color="#ab6e4a"/>
      <stop offset="1" stop-color="#206195"/>
    </linearGradient>
    <linearGradient id="linear-gradient-5" x1="0.5" y1="1" x2="0.5" gradientUnits="objectBoundingBox">
      <stop offset="0" stop-color="#dcc8ab"/>
      <stop offset="0.534" stop-color="#8a5b29"/>
      <stop offset="1" stop-color="#134974"/>
    </linearGradient>
    <radialGradient id="radial-gradient" cx="0.5" cy="0.5" r="0.5" gradientTransform="translate(0)" gradientUnits="objectBoundingBox">
      <stop offset="0.429" stop-color="#faf5d1"/>
      <stop offset="1" stop-color="#fccd92"/>
    </radialGradient>
    <linearGradient id="linear-gradient-6" x1="0.5" y1="1" x2="0.5" gradientUnits="objectBoundingBox">
      <stop offset="0" stop-color="#93bce9"/>
      <stop offset="0.131" stop-color="#749cd7"/>
      <stop offset="0.31" stop-color="#5179c3"/>
      <stop offset="0.477" stop-color="#375fb5"/>
      <stop offset="0.629" stop-color="#2850ad"/>
      <stop offset="0.749" stop-color="#234baa"/>
      <stop offset="0.997" stop-color="#162e78"/>
    </linearGradient>
    <linearGradient id="linear-gradient-7" x1="0.5" y1="1" x2="0.5" y2="-0.144" gradientUnits="objectBoundingBox">
      <stop offset="0" stop-color="#93bce9"/>
      <stop offset="0.067" stop-color="#83abdd"/>
      <stop offset="0.294" stop-color="#5376b8"/>
      <stop offset="0.491" stop-color="#30509d"/>
      <stop offset="0.649" stop-color="#1a398d"/>
      <stop offset="0.748" stop-color="#133187"/>
      <stop offset="1" stop-color="#10265e"/>
    </linearGradient>
  </defs>
  <g id="Group_3988" data-name="Group 3988" transform="translate(0 0)">
    <path id="Path_9580" data-name="Path 9580" d="M170.1,1231.663v-7.089H163.1a3.488,3.488,0,0,1-6.97.223v-.223h-7.015a3.485,3.485,0,1,1-6.97,0h-7.015a3.485,3.485,0,1,1-6.97,0h-7.016a3.5,3.5,0,0,1-3.485,3.495c-.078,0-.151-.017-.227-.022a3.535,3.535,0,0,1-.458-.047,3.457,3.457,0,0,1-.592-.18c-.014-.005-.029-.008-.043-.013a3.5,3.5,0,0,1-2.152-3.1v-.131h-7.029a3.479,3.479,0,1,1-6.957,0H93.188A3.5,3.5,0,0,1,90.4,1228c-.053.011-.11.009-.164.017a3.412,3.412,0,0,1-4.016-3.442H79.2a3.485,3.485,0,1,1-6.97,0H65.217a3.485,3.485,0,1,1-6.97,0H51.254a3.5,3.5,0,0,1-6.993,0H37.268v7.089a3.5,3.5,0,0,1,0,6.993v7.186a3.5,3.5,0,0,1,0,6.993v7.186a3.5,3.5,0,0,1,0,6.993v7.186a3.5,3.5,0,0,1,0,6.993v7.186a3.5,3.5,0,0,1,0,6.993v7.186a3.468,3.468,0,1,1,0,6.936v7.186a3.5,3.5,0,0,1,0,6.993v7.186a3.5,3.5,0,0,1,0,6.993v7.186a3.5,3.5,0,0,1,0,6.993v7.186a3.5,3.5,0,0,1,0,6.993v7.186a3.5,3.5,0,0,1,0,6.993v7.09h6.993a3.5,3.5,0,1,1,6.993,0h6.993a3.485,3.485,0,1,1,6.97,0h7.016a3.485,3.485,0,1,1,6.97,0h7.015a3.5,3.5,0,0,1,3.486-3.5c.078,0,.151.017.227.022a3.514,3.514,0,0,1,.458.047,3.456,3.456,0,0,1,.593.18c.014.005.028.008.042.013a3.5,3.5,0,0,1,2.152,3.1v.131H100.2a3.479,3.479,0,1,1,6.957,0h7.029v-.131a3.5,3.5,0,0,1,2.152-3.1c.014-.005.029-.008.043-.013a3.446,3.446,0,0,1,.592-.18,3.514,3.514,0,0,1,.458-.047c.076-.005.15-.022.227-.022a3.5,3.5,0,0,1,3.485,3.5h7.016a3.485,3.485,0,1,1,6.97,0h7.015a3.485,3.485,0,1,1,6.97,0h7.015v-.224a3.488,3.488,0,0,1,6.97.224H170.1v-7.09a3.5,3.5,0,1,1,0-6.993v-7.186a3.5,3.5,0,1,1,0-6.993v-7.186a3.5,3.5,0,1,1,0-6.993v-7.186a3.5,3.5,0,1,1,0-6.993v-7.186a3.5,3.5,0,1,1,0-6.993v-7.186a3.468,3.468,0,1,1,0-6.936v-7.186a3.5,3.5,0,1,1,0-6.993v-7.186a3.5,3.5,0,1,1,0-6.993v-7.186a3.5,3.5,0,1,1,0-6.993v-7.186a3.5,3.5,0,1,1,0-6.993v-7.186a3.5,3.5,0,1,1,0-6.993Z" transform="translate(-31.802 -1224.574)" fill="#68888e" opacity="0.4"/>
    <path id="Path_9581" data-name="Path 9581" d="M149.519,1231.663v-7.089h-6.993a3.488,3.488,0,0,1-6.97.223v-.223H128.54a3.485,3.485,0,1,1-6.971,0h-7.015a3.485,3.485,0,1,1-6.97,0h-7.016a3.5,3.5,0,0,1-3.486,3.495c-.077,0-.151-.017-.227-.022A3.53,3.53,0,0,1,96.4,1228a3.468,3.468,0,0,1-.593-.18c-.014-.006-.029-.008-.042-.013a3.5,3.5,0,0,1-2.152-3.1v-.131H86.583a3.479,3.479,0,1,1-6.957,0H72.61A3.5,3.5,0,0,1,69.82,1228c-.053.011-.11.009-.164.017a3.412,3.412,0,0,1-4.016-3.442H58.625a3.485,3.485,0,1,1-6.97,0H44.639a3.485,3.485,0,1,1-6.97,0H30.676a3.5,3.5,0,0,1-6.993,0H16.69v7.089a3.5,3.5,0,1,1,0,6.993v7.186a3.5,3.5,0,0,1,0,6.993v7.186a3.5,3.5,0,1,1,0,6.993v7.186a3.5,3.5,0,0,1,0,6.993v7.186a3.5,3.5,0,0,1,0,6.993v7.186a3.468,3.468,0,1,1,0,6.936v7.186a3.5,3.5,0,0,1,0,6.993v7.186a3.5,3.5,0,0,1,0,6.993v7.186a3.5,3.5,0,0,1,0,6.993v7.186a3.5,3.5,0,0,1,0,6.993v7.186a3.5,3.5,0,0,1,0,6.993v7.09h6.993a3.5,3.5,0,1,1,6.993,0h6.993a3.485,3.485,0,1,1,6.97,0h7.016a3.485,3.485,0,1,1,6.97,0H65.64a3.5,3.5,0,0,1,3.485-3.5c.078,0,.151.017.227.022a3.514,3.514,0,0,1,.458.047,3.435,3.435,0,0,1,.592.18c.014.005.029.008.042.013a3.5,3.5,0,0,1,2.152,3.1v.131h7.029a3.479,3.479,0,1,1,6.957,0h7.029v-.131a3.5,3.5,0,0,1,2.152-3.1c.014-.005.029-.008.042-.013a3.446,3.446,0,0,1,.593-.18,3.509,3.509,0,0,1,.458-.047c.076-.005.15-.022.227-.022a3.5,3.5,0,0,1,3.486,3.5h7.016a3.485,3.485,0,1,1,6.97,0h7.015a3.485,3.485,0,1,1,6.971,0h7.015v-.224a3.488,3.488,0,0,1,6.97.224h6.993v-7.09a3.5,3.5,0,1,1,0-6.993v-7.186a3.5,3.5,0,1,1,0-6.993v-7.186a3.5,3.5,0,1,1,0-6.993v-7.186a3.5,3.5,0,1,1,0-6.993v-7.186a3.5,3.5,0,1,1,0-6.993v-7.186a3.468,3.468,0,1,1,0-6.936v-7.186a3.5,3.5,0,1,1,0-6.993v-7.186a3.5,3.5,0,1,1,0-6.993v-7.186a3.5,3.5,0,1,1,0-6.993v-7.186a3.5,3.5,0,0,1,0-6.993v-7.186a3.5,3.5,0,1,1,0-6.993Z" transform="translate(-16.69 -1224.574)" fill="#e9eef4"/>
    <g id="Group_3987" data-name="Group 3987" transform="translate(10.648 10.202)">
      <g id="Group_3986" data-name="Group 3986" clip-path="url(#clip-path)">
        <g id="Group_3985" data-name="Group 3985" transform="translate(-94.642 -0.895)">
          <rect id="Rectangle_1228" data-name="Rectangle 1228" width="235.714" height="144.244" fill="url(#linear-gradient)"/>
          <path id="Path_9582" data-name="Path 9582" d="M270.823,1507.793a2.4,2.4,0,0,0,1.66-.629,36.456,36.456,0,0,0,.606,5.854,2.613,2.613,0,0,0-1.763-.533c-1.122.035-1.986.623-1.93,1.313s1.012,1.222,2.134,1.188a2.2,2.2,0,0,0,1.8-.8,36.159,36.159,0,0,0,1.973,6.224,2.661,2.661,0,0,0-1.732-.5c-1.122.035-1.986.623-1.93,1.313s1.012,1.222,2.134,1.188c1.011-.031,1.806-.513,1.913-1.112a36.433,36.433,0,0,0,2.824,5.109,2.919,2.919,0,0,0-1.386-.285c-1.122.035-1.986.623-1.93,1.313s1.012,1.222,2.134,1.188c1.029-.032,1.832-.53,1.916-1.145a36.767,36.767,0,0,0,3.364,4.06,3.2,3.2,0,0,0-.8-.075c-1.122.035-1.986.623-1.93,1.314s1.012,1.222,2.134,1.188c1.015-.031,1.812-.517,1.914-1.12a36.784,36.784,0,0,0,3.6,2.986c-1.059.074-1.858.638-1.8,1.3.057.691,1.012,1.222,2.134,1.188a1.978,1.978,0,0,0,1.883-1,36.452,36.452,0,0,0,4.391,2.334c-1.113.04-1.969.625-1.913,1.312s1.012,1.222,2.134,1.188a2.824,2.824,0,0,0,1.191-.289l-4.7,14.818h3.132l4.851-15.308q1.143.331,2.317.587c-.943.133-1.626.665-1.575,1.28.057.691,1.012,1.222,2.134,1.188s1.986-.623,1.93-1.313a1.091,1.091,0,0,0-.547-.785,36.493,36.493,0,0,0,4.652.451,1.124,1.124,0,0,0-.672.924c0,.691.911,1.252,2.035,1.252s2.035-.561,2.035-1.252a1.136,1.136,0,0,0-.694-.935,36.428,36.428,0,0,0,4.361-.44,1.092,1.092,0,0,0-.547.785c-.057.691.807,1.278,1.93,1.313s2.078-.5,2.134-1.188c.05-.615-.632-1.147-1.575-1.28q1.173-.257,2.317-.587l4.851,15.308h3.132l-4.7-14.818a2.828,2.828,0,0,0,1.191.289c1.122.035,2.078-.5,2.134-1.188s-.8-1.271-1.912-1.312a36.483,36.483,0,0,0,4.391-2.333,1.979,1.979,0,0,0,1.883,1c1.122.035,2.078-.5,2.134-1.187.054-.664-.745-1.228-1.8-1.3a36.792,36.792,0,0,0,3.6-2.986c.1.6.9,1.089,1.914,1.12,1.122.035,2.078-.5,2.134-1.187s-.808-1.279-1.93-1.314a3.2,3.2,0,0,0-.8.075,36.792,36.792,0,0,0,3.364-4.06c.085.614.887,1.113,1.916,1.145,1.122.035,2.078-.5,2.134-1.188s-.808-1.279-1.93-1.313a2.917,2.917,0,0,0-1.386.285,36.428,36.428,0,0,0,2.824-5.109c.108.6.9,1.081,1.914,1.112,1.122.035,2.078-.5,2.134-1.188s-.808-1.278-1.93-1.313a2.661,2.661,0,0,0-1.732.5,36.162,36.162,0,0,0,1.973-6.224,2.2,2.2,0,0,0,1.8.8c1.122.035,2.078-.5,2.134-1.188s-.808-1.278-1.93-1.313a2.611,2.611,0,0,0-1.763.533,36.459,36.459,0,0,0,.606-5.854,2.4,2.4,0,0,0,1.66.629c1.122.035,2.078-.5,2.134-1.188s-.808-1.279-1.93-1.313a2.491,2.491,0,0,0-1.859.629,36.534,36.534,0,0,0-.584-6.133,2.484,2.484,0,0,0,1.583.556c1.122.035,2.078-.5,2.134-1.188s-.807-1.278-1.93-1.313a2.258,2.258,0,0,0-2.009.831,36.152,36.152,0,0,0-1.777-5.835,2.64,2.64,0,0,0,1.435.433c1.122.035,2.078-.5,2.134-1.188s-.808-1.279-1.93-1.313a2.08,2.08,0,0,0-2.087,1,36.42,36.42,0,0,0-2.653-4.979,2.861,2.861,0,0,0,1.156.27c1.122.035,2.078-.5,2.134-1.188s-.808-1.278-1.93-1.313c-1.073-.033-1.985.453-2.112,1.1a36.743,36.743,0,0,0-3.968-4.812,3.045,3.045,0,0,0,.957.154c1.124,0,2.034-.561,2.034-1.252s-.911-1.252-2.034-1.252-2.035.561-2.035,1.252c0,.016.007.031.008.048a36.746,36.746,0,0,0-4.315-3.489,3.18,3.18,0,0,0,.6.062c1.124,0,2.035-.56,2.035-1.252s-.911-1.252-2.035-1.252-2.035.561-2.035,1.252a.8.8,0,0,0,.059.287,36.448,36.448,0,0,0-4.268-2.3c.913-.123,1.6-.622,1.6-1.221,0-.692-.911-1.252-2.035-1.252s-2.035.561-2.035,1.252a.8.8,0,0,0,.036.22,36.129,36.129,0,0,0-4.4-1.316c.7-.2,1.183-.63,1.183-1.134,0-.692-.911-1.252-2.035-1.252s-2.035.56-2.035,1.252a.922.922,0,0,0,.29.635,36.538,36.538,0,0,0-4.225-.4,1.13,1.13,0,0,0,.685-.93c0-.691-.911-1.252-2.035-1.252h-.047c-1.124,0-2.035.56-2.035,1.252a1.13,1.13,0,0,0,.684.93,36.572,36.572,0,0,0-4.225.4.921.921,0,0,0,.29-.635c0-.692-.911-1.252-2.035-1.252s-2.034.56-2.034,1.252c0,.5.486.935,1.183,1.134a36.193,36.193,0,0,0-4.4,1.316.785.785,0,0,0,.036-.22c0-.692-.911-1.252-2.035-1.252s-2.034.561-2.034,1.252c0,.6.684,1.1,1.6,1.222a36.405,36.405,0,0,0-4.268,2.3.8.8,0,0,0,.059-.287c0-.691-.911-1.252-2.035-1.252s-2.035.561-2.035,1.252.911,1.252,2.035,1.252a3.18,3.18,0,0,0,.6-.062,36.752,36.752,0,0,0-4.315,3.489c0-.016.008-.031.008-.048,0-.691-.911-1.252-2.034-1.252s-2.035.561-2.035,1.252.911,1.252,2.035,1.252a3.044,3.044,0,0,0,.957-.154,36.765,36.765,0,0,0-3.967,4.812c-.128-.646-1.04-1.133-2.112-1.1-1.122.035-1.987.623-1.93,1.313s1.012,1.222,2.134,1.188a2.862,2.862,0,0,0,1.156-.27,36.417,36.417,0,0,0-2.653,4.979,2.08,2.08,0,0,0-2.087-1c-1.122.035-1.986.623-1.93,1.313s1.012,1.222,2.134,1.188a2.641,2.641,0,0,0,1.435-.433,36.125,36.125,0,0,0-1.777,5.835,2.258,2.258,0,0,0-2.009-.831c-1.122.035-1.986.623-1.93,1.313s1.012,1.222,2.134,1.188a2.484,2.484,0,0,0,1.582-.556,36.534,36.534,0,0,0-.584,6.133,2.491,2.491,0,0,0-1.859-.629c-1.122.035-1.986.623-1.93,1.313S269.7,1507.828,270.823,1507.793Zm39.048,34,2.376-1.916.089.051,2.407,1.4A35.486,35.486,0,0,1,309.871,1541.794Zm2.269-2.206-2.451-1.426a31.865,31.865,0,0,0,5.006-.512l-2.466,1.988Zm2.907,1.691-2.635-1.533,2.628-2.12.7,3.524Q315.395,1541.217,315.047,1541.278Zm5.775-63.957-9.988,24.112a5.208,5.208,0,0,0-.747-.228l5.093-25.6A31.086,31.086,0,0,1,320.822,1477.322Zm-5.055-2.1,2.89-.919,1.9,2.377A31.541,31.541,0,0,0,315.767,1475.224Zm10.482,4.98-14.5,21.693a5.222,5.222,0,0,0-.688-.37l9.988-24.115A31.307,31.307,0,0,1,326.249,1480.2Zm-4.555-3.051,3.021-.338,1.4,2.716A31.8,31.8,0,0,0,321.694,1477.153Zm-.641,58.094-3.421-8.258-4.477-14.129,13.093,19.6A31.315,31.315,0,0,1,321.053,1535.248Zm5.154-2.175-1.492,2.886-3.223-.36A31.814,31.814,0,0,0,326.208,1533.073Zm-8.126,5.214-2.522-.8c.71-.151,1.409-.33,2.1-.527Zm-5.2-26.276-.533-1.68c.074-.063.146-.129.216-.2l18.442,18.442a31.614,31.614,0,0,1-4.553,3.747Zm18.176,17.2-.893,3.1-.1.009-3.123.265A32.069,32.069,0,0,0,331.063,1529.213Zm-18.317-19.254a5.3,5.3,0,0,0,.5-.605l21.691,14.494a31.61,31.61,0,0,1-3.747,4.553Zm22.334,14.541-.269,3.173-.1.028-2.993.863A32.081,32.081,0,0,0,335.079,1524.5Zm-.011-.861-21.688-14.492a5.264,5.264,0,0,0,.371-.69l24.109,9.986A31.329,31.329,0,0,1,335.068,1523.638Zm3.041-4.533.348,3.112-.091.048-2.734,1.414A31.822,31.822,0,0,0,338.109,1519.1Zm-.159-.893-24.107-9.985a5.228,5.228,0,0,0,.228-.749l25.6,5.092A31.074,31.074,0,0,1,337.95,1518.212Zm2.082-4.99.934,2.938-.08.065-2.363,1.887A31.575,31.575,0,0,0,340.032,1513.222Zm-.319-.9-25.6-5.091a5.256,5.256,0,0,0,.076-.779h26.1A31.385,31.385,0,0,1,339.713,1512.324Zm1.06-5.261,1.471,2.663-1.982,2.352A31.843,31.843,0,0,0,340.773,1507.063Zm-.485-6.336,1.957,2.321-1.469,2.658A31.877,31.877,0,0,0,340.288,1500.728Zm0,5.479h-26.1a5.252,5.252,0,0,0-.077-.778l25.6-5.091A31.384,31.384,0,0,1,340.291,1506.206Zm-1.7-11.49,2.377,1.9-.919,2.89A31.6,31.6,0,0,0,338.589,1494.716Zm1.08,5.376-25.6,5.092a5.21,5.21,0,0,0-.229-.748l24.11-9.986A31.055,31.055,0,0,1,339.669,1500.092Zm-3.929-10.94,2.716,1.4-.338,3.022A31.8,31.8,0,0,0,335.741,1489.152Zm2.118,5.065-24.112,9.988a5.258,5.258,0,0,0-.371-.689l21.693-14.494A31.334,31.334,0,0,1,337.858,1494.218Zm-5.992-9.964,2.943.848.258,3.043A32.108,32.108,0,0,0,331.867,1484.254Zm3.067,4.56-21.7,14.5a5.317,5.317,0,0,0-.5-.6l18.446-18.446A31.579,31.579,0,0,1,334.933,1488.814Zm-3.922-4.729-18.447,18.446a5.257,5.257,0,0,0-.6-.5l14.5-21.7A31.591,31.591,0,0,1,331.011,1484.085Zm-3.886-3.881,3.044.258.848,2.943A32.075,32.075,0,0,0,327.126,1480.2Zm-9.615,56.28c-.766.218-1.541.415-2.33.575l-4.235-21.291Zm-.839,4.471c-.228.051-.457.1-.686.147l-.7-3.5,2.865.911.132.417Zm.307-.068,1.381-1.728.4,1.264Q317.877,1540.677,316.977,1540.887Zm1.533-11.13,2.312,5.581c-.16.066-.322.128-.483.191Zm1.98,6.247.2-.079-.16.2Zm1.2,3.43-.127-.04-.964-3.041.421-.527-.026-.021.018-.007,1.389,3.353Q322.048,1539.3,321.691,1539.434Zm1.562-.647c-.206.091-.413.182-.622.269l-1.36-3.284,3.347.374Zm.287-.126,1.288-2.491,2.785.311A35.446,35.446,0,0,1,323.54,1538.661Zm4.343-2.348-2.957-.33,1.594-3.082-.024-.012.029-.019,2.015,3.015Q328.213,1536.1,327.882,1536.313Zm.865-.564-1.972-2.951,3.336-.282-.824,2.859C329.108,1535.5,328.929,1535.626,328.747,1535.749Zm.8-.556.776-2.7.1-.01,2.7-.229A35.738,35.738,0,0,1,329.544,1535.193Zm3.813-3.15-2.978.252.961-3.333-.011,0,.033-.031,2.563,2.563Q333.644,1531.77,333.357,1532.043Zm.744-.728-2.51-2.51,3.2-.923-.253,2.984Q334.322,1531.093,334.1,1531.315Zm.655-.678.238-2.813.1-.028,2.635-.76A35.721,35.721,0,0,1,334.756,1530.636Zm3.159-3.859-2.9.836.291-3.429.043-.061,3.013,2.013Q338.141,1526.46,337.915,1526.778Zm.581-.849-2.961-1.979,2.945-1.522.337,3.015C338.712,1525.606,338.6,1525.767,338.5,1525.929Zm.489-.755-.317-2.842.091-.048,2.48-1.282A35.4,35.4,0,0,1,338.985,1525.174Zm2.382-4.46-2.723,1.407-.376-3.367c.017-.04.033-.08.05-.121l3.35,1.388Q341.521,1520.369,341.367,1520.713Zm.395-.923-3.309-1.371,2.578-2.059.933,2.934C341.9,1519.461,341.829,1519.625,341.761,1519.791Zm.315-.792-.881-2.77.08-.064,2.216-1.77A35.162,35.162,0,0,1,342.076,1519Zm1.483-4.911-2.428,1.94-1.012-3.183c.012-.06.025-.12.037-.179l3.557.707C343.665,1513.613,343.613,1513.851,343.56,1514.088Zm.2-.959-3.535-.7,2.121-2.515,1.508,2.729C343.824,1512.8,343.792,1512.967,343.76,1513.13Zm.147-.8-1.425-2.578.066-.079,1.848-2.191A35.478,35.478,0,0,1,343.907,1512.328Zm.5-5.165-2.026,2.4-1.6-2.891c0-.074.005-.146.006-.22h3.627Q344.413,1506.81,344.406,1507.164Zm.009-.958h-3.627c0-.037,0-.073,0-.11l1.595-2.886,2.027,2.4C344.411,1505.81,344.414,1506.008,344.415,1506.206Zm-.015-.906-1.918-2.275,1.439-2.6A35.52,35.52,0,0,1,344.4,1505.3Zm-.531-5.192-1.523,2.756-2.127-2.523c-.006-.034-.012-.068-.018-.1l3.56-.708C343.8,1499.723,343.835,1499.915,343.869,1500.107Zm-.156-.82-3.557.708c-.007-.038-.014-.076-.022-.114l1-3.135,2.458,1.964C343.632,1498.9,343.674,1499.094,343.713,1499.287Zm-.19-.882-2.328-1.86.9-2.832A35.169,35.169,0,0,1,343.523,1498.406Zm-1.54-4.988-.953,3-2.587-2.067c-.012-.029-.023-.058-.035-.088l3.353-1.389C341.836,1493.053,341.911,1493.235,341.983,1493.418Zm-.316-.778-3.35,1.388c-.014-.033-.026-.066-.04-.1l.366-3.275.194.1,2.594,1.341C341.511,1492.276,341.591,1492.458,341.667,1492.64ZM339,1487.5a35.445,35.445,0,0,1,2.31,4.3l-2.639-1.365Zm-.168-.269-.348,3.111-.194-.1-2.759-1.427c-.016-.024-.031-.049-.047-.073l3.016-2.015C338.607,1486.9,338.719,1487.066,338.827,1487.236Zm-.468-.711-3.013,2.013c-.018-.026-.037-.051-.054-.077l-.28-3.3,3,.865C338.13,1486.192,338.246,1486.357,338.359,1486.524Zm-.525-.755-2.84-.819-.249-2.937A35.71,35.71,0,0,1,337.834,1485.769Zm-3.733-4.423q.216.217.427.438l.263,3.107-3.194-.92-.06-.062Zm-.176-.176-2.563,2.563-.062-.059-.92-3.194.217.017,2.891.246Q333.709,1480.955,333.926,1481.171Zm-.667-.645-2.937-.249-.818-2.84A35.727,35.727,0,0,1,333.259,1480.526Zm-4.012-3.268.865,3-3.3-.279-.077-.055,2.013-3.013C328.915,1477.026,329.08,1477.142,329.246,1477.258Zm-.707-.482-2.015,3.016-.073-.047-1.527-2.953,3.111-.347C328.206,1476.553,328.373,1476.664,328.54,1476.776Zm-.773-.5-2.939.329-1.365-2.639A35.467,35.467,0,0,1,327.767,1476.276Zm-4.59-2.436,1.442,2.788-3.275.366-.1-.04,1.388-3.35C322.814,1473.681,323,1473.761,323.177,1473.84Zm-1.323-.552c.183.072.365.147.547.222l-1.389,3.353-.088-.035-2.066-2.587Zm-.3-.113-2.832.9-1.86-2.328A35.182,35.182,0,0,1,321.559,1473.176Zm-5-1.494,1.965,2.459-3.134,1-.114-.023.708-3.557C316.177,1471.6,316.369,1471.64,316.561,1471.682Zm-.82-.17-.708,3.56-.115-.021-2.506-2.02.188-.11,2.6-1.512C315.381,1471.44,315.56,1471.477,315.741,1471.512Zm-1.226,3.467a31.8,31.8,0,0,0-4.637-.474l2.352-1.368.08.064Zm.381-3.621-2.648,1.54-.081-.064-2.44-1.968A35.536,35.536,0,0,1,314.9,1471.358Zm-5.83-.5c.115,0,.229,0,.343,0l2.656,2.142-2.563,1.491c-.146,0-.29-.011-.436-.011Zm0,4.123a31.384,31.384,0,0,1,5.87.578l-5.092,25.6a5.293,5.293,0,0,0-.778-.076Zm0,36.607a5.279,5.279,0,0,0,.542-.041l.658,2.076,4.671,23.481a31.353,31.353,0,0,1-5.87.578Zm0,26.591c.108,0,.215-.007.323-.008l-.02.034,2.7,1.568-2.514,2.027c-.161,0-.323.005-.485.006Zm-35.579-30.7,1.914,2.27-1.425,2.579A35.5,35.5,0,0,1,273.486,1507.479Zm.542,5.161,1.508-2.73,2.121,2.515-3.536.7C274.09,1512.967,274.058,1512.8,274.028,1512.641Zm22.8-35.227,9.989,24.114a5.224,5.224,0,0,0-.689.37l-14.5-21.693A31.309,31.309,0,0,1,296.828,1477.413Zm-5.066,2.118,1.4-2.716,3.021.338A31.8,31.8,0,0,0,291.763,1479.531Zm10.94-3.929,5.093,25.6a5.21,5.21,0,0,0-.748.228l-9.988-24.112A31.062,31.062,0,0,1,302.7,1475.6Zm-5.376,1.08,1.9-2.378,2.89.92A31.551,31.551,0,0,0,297.326,1476.683Zm-5.693,55.774,13.093-19.6-4.476,14.125-3.422,8.261A31.3,31.3,0,0,1,291.634,1532.457Zm4.757,3.142-3.223.36-1.492-2.886A31.8,31.8,0,0,0,296.39,1535.6Zm-17.031-17.488-2.443-1.952.934-2.938A31.566,31.566,0,0,0,279.359,1518.111Zm-1.768-11.657h26.1a5.252,5.252,0,0,0,.076.779l-25.6,5.091A31.387,31.387,0,0,1,277.591,1506.454Zm.622,6.115,25.6-5.092a5.214,5.214,0,0,0,.228.749l-24.106,9.985A31.061,31.061,0,0,1,278.213,1512.569Zm4.038,11.11-2.825-1.461.348-3.113A31.828,31.828,0,0,0,282.251,1523.679Zm-2.227-5.236,24.108-9.986a5.267,5.267,0,0,0,.371.69l-21.688,14.492A31.3,31.3,0,0,1,280.024,1518.443Zm6.141,10.121-3.093-.891-.269-3.173A32.066,32.066,0,0,0,286.166,1528.564Zm-3.216-4.717,21.69-14.493a5.33,5.33,0,0,0,.5.605L286.7,1528.4A31.6,31.6,0,0,1,282.949,1523.847Zm3.922,4.729,18.441-18.441c.07.067.142.133.216.2l-.532,1.68-13.572,20.312A31.59,31.59,0,0,1,286.871,1528.576Zm4.067,4.01-3.224-.273-.894-3.1A32.093,32.093,0,0,0,290.938,1532.586Zm9.284,4.371c.692.2,1.391.376,2.1.527l-2.523.8Zm.15-.474,6.566-20.717-4.235,21.292C301.913,1536.9,301.138,1536.7,300.372,1536.484Zm5.549-34.449a5.309,5.309,0,0,0-.6.5l-18.446-18.446a31.579,31.579,0,0,1,4.553-3.746Zm-19.056-18.63.848-2.943.1-.01,2.942-.249A32.094,32.094,0,0,0,286.865,1483.405Zm18.277,19.3a5.261,5.261,0,0,0-.5.6l-21.7-14.5a31.587,31.587,0,0,1,3.746-4.553Zm-22.327-14.561.258-3.044.1-.028,2.844-.82A32.111,32.111,0,0,0,282.815,1488.146Zm0,.877,21.692,14.494a5.262,5.262,0,0,0-.371.689l-24.112-9.987A31.293,31.293,0,0,1,282.815,1489.023Zm-3.051,4.555-.338-3.021.091-.048,2.625-1.357A31.794,31.794,0,0,0,279.764,1493.578Zm.169.871,24.11,9.986a5.214,5.214,0,0,0-.229.748l-25.6-5.092A31.073,31.073,0,0,1,279.933,1494.45Zm-2.1,5.055-.919-2.89.08-.064,2.3-1.835A31.6,31.6,0,0,0,277.835,1499.505Zm.334.831,25.6,5.091a5.248,5.248,0,0,0-.077.778h-26.1A31.384,31.384,0,0,1,278.17,1500.336Zm-1.062,5.37-1.468-2.657.066-.079,1.89-2.241A31.865,31.865,0,0,0,277.107,1505.706Zm0,1.357a31.84,31.84,0,0,0,.511,5.014l-1.982-2.351Zm-2.941,6.31,3.557-.708c.012.06.025.12.038.18l-1.012,3.182-2.429-1.94C274.269,1513.851,274.217,1513.613,274.169,1513.373Zm.222,1.021,2.3,1.834-.881,2.771A35.236,35.236,0,0,1,274.391,1514.395Zm1.528,4.9.933-2.935,2.577,2.059-3.309,1.371C276.053,1519.626,275.985,1519.461,275.919,1519.3Zm.3.725,3.35-1.388c.017.04.033.081.05.121l-.376,3.367-.194-.1-2.53-1.308Q276.362,1520.369,276.215,1520.021Zm.429.98,2.572,1.33-.318,2.844A35.422,35.422,0,0,1,276.644,1521Zm2.422,4.442.337-3.015.194.1,2.751,1.423-2.961,1.979C279.279,1525.768,279.171,1525.607,279.066,1525.443Zm.457.693,3.013-2.013c.014.021.03.041.044.061l.291,3.429-2.9-.836Q279.742,1526.459,279.523,1526.136Zm.63.9,2.735.789.238,2.813A35.7,35.7,0,0,1,280.153,1527.036Zm3.628,4.279q-.221-.222-.438-.448l-.253-2.984,3.2.922Zm.176.176,2.563-2.563.033.032-.011,0,.96,3.333-.217-.018-2.762-.234Q284.238,1531.77,283.957,1531.49Zm.8.77,2.8.238.777,2.7A35.728,35.728,0,0,1,284.758,1532.26Zm3.838,3.115-.824-2.859,3.335.282-1.972,2.951C288.954,1535.626,288.775,1535.5,288.6,1535.375Zm.747.51,2.015-3.016.03.019-.024.012,1.594,3.082-2.957.33Q289.669,1536.1,289.343,1535.885Zm.927.6,2.785-.311,1.288,2.491A35.441,35.441,0,0,1,290.27,1536.481Zm4.36,2.306-1.366-2.641,3.347-.373-1.36,3.284C295.042,1538.969,294.836,1538.879,294.63,1538.787Zm1.689.607-.127.04q-.357-.138-.711-.284l1.389-3.353.018.007-.026.021.421.527Zm1.035-3.268-.16-.2.2.079Zm.189-.6c-.161-.063-.323-.125-.483-.191l2.313-5.585Zm1.581,4.893.4-1.264,1.381,1.728Q300.005,1540.678,299.124,1540.423Zm2.088.533-1.616-2.023.132-.417,2.865-.911-.7,3.5C301.668,1541.056,301.44,1541.006,301.212,1540.955Zm1.624.323c-.232-.04-.464-.084-.694-.129l.7-3.524,2.628,2.119-.188.11Zm.352-3.628a31.869,31.869,0,0,0,5.006.512l-2.54,1.477-.08-.064Zm-.047,3.679,2.5-1.452.08.065,2.3,1.852A35.491,35.491,0,0,1,303.14,1541.329Zm5.677.475c-.162,0-.324,0-.485-.006l-2.513-2.027,2.7-1.568-.019-.034c.108,0,.214.008.322.008Zm0-4.124a31.353,31.353,0,0,1-5.87-.578l4.671-23.481.657-2.075a5.278,5.278,0,0,0,.542.041Zm0-36.6a5.293,5.293,0,0,0-.778.076l-5.092-25.6a31.353,31.353,0,0,1,5.87-.579Zm-5.448-26.1,2.284-1.842.089.051,2.263,1.317A31.783,31.783,0,0,0,303.369,1474.979Zm5.448-4.122v3.626c-.146,0-.29.009-.436.011L305.818,1473l2.657-2.143C308.589,1470.86,308.7,1470.857,308.817,1470.857Zm-.661.008-2.52,2.032-.089-.051-2.559-1.489A35.532,35.532,0,0,1,308.156,1470.865Zm-5.473.543,2.788,1.622-2.506,2.021-.116.021-.708-3.56C302.322,1471.477,302.5,1471.44,302.683,1471.408Zm-.785.151.708,3.557-.114.023-3.134-1,1.965-2.459C301.514,1471.64,301.705,1471.6,301.9,1471.559Zm-.881.19-1.861,2.329-2.833-.9A35.176,35.176,0,0,1,301.017,1471.748Zm-4.989,1.54,3,.953-2.066,2.587-.088.035-1.389-3.353C295.663,1473.436,295.845,1473.361,296.028,1473.289Zm-.777.316,1.388,3.35-.1.04-3.275-.366,1.442-2.788C294.887,1473.761,295.068,1473.681,295.251,1473.6Zm-.831.361-1.365,2.639-2.939-.329A35.464,35.464,0,0,1,294.419,1473.966Zm-4.573,2.479,3.111.348-1.527,2.952-.073.047-2.015-3.016C289.51,1476.664,289.677,1476.553,289.846,1476.445Zm-.711.468,2.013,3.013-.077.055-3.3.279.865-3C288.8,1477.142,288.967,1477.026,289.135,1476.912Zm-.755.525-.818,2.84-.1.01-2.836.24A35.715,35.715,0,0,1,288.38,1477.437Zm-3.985,3.306,3.109-.263-.921,3.194c-.02.02-.042.039-.063.06l-2.563-2.563Q284.174,1480.955,284.395,1480.743Zm-.613.6,2.563,2.563c-.02.021-.039.042-.059.062l-3.194.92.263-3.108Q283.566,1481.563,283.781,1481.347Zm-.644.666-.249,2.938-.1.028-2.741.791A35.742,35.742,0,0,1,283.137,1482.013Zm-3.269,4.014,3-.865-.28,3.3c-.018.026-.037.051-.054.077l-3.013-2.014C279.636,1486.357,279.752,1486.192,279.868,1486.026Zm-.482.705,3.016,2.015c-.016.024-.031.049-.047.074l-2.952,1.526-.348-3.112C279.164,1487.066,279.275,1486.9,279.386,1486.732Zm-.5.772.328,2.939-.091.048-2.548,1.318A35.374,35.374,0,0,1,278.887,1487.5Zm-2.437,4.591,2.788-1.442.366,3.276c-.014.033-.026.066-.04.1l-3.35-1.388C276.292,1492.458,276.371,1492.276,276.451,1492.1Zm-.33.775,3.353,1.389c-.012.029-.023.058-.035.087l-2.587,2.067-.953-3C275.971,1493.234,276.046,1493.052,276.121,1492.871Zm-.334.842.9,2.832-.08.064-2.248,1.8A35.125,35.125,0,0,1,275.787,1493.713Zm-1.494,5,2.459-1.965,1,3.134c-.008.038-.015.076-.023.114l-3.557-.708C274.208,1499.095,274.25,1498.9,274.292,1498.712Zm-.17.82,3.56.708c-.007.034-.012.068-.018.1l-2.127,2.523-1.524-2.757C274.047,1499.914,274.085,1499.723,274.122,1499.531Zm-.161.888,1.439,2.6-.066.079-1.853,2.2A35.484,35.484,0,0,1,273.961,1500.42Zm-.486,5.194,2.027-2.4,1.595,2.886c0,.037,0,.074,0,.111h-3.627C273.468,1506.008,273.471,1505.811,273.475,1505.613Zm3.62.841c0,.074,0,.146.006.22l-1.6,2.891-2.026-2.4q-.008-.353-.009-.708Z" transform="translate(-117.757 -1412.434)" fill="url(#linear-gradient-2)"/>
          <path id="Path_9583" data-name="Path 9583" d="M-65.245,1619.479l-1.264-1.316H-78.7v3.82h-.979v-2.292h-1.386v2.547h-1.06v-7.447l-2.482-2.535-2.492,2.535v6.513h-1.223v-3.65h-12.92v-1.443h-.979v1.358h-1.06v1.4h-.612l-1.264-1.316h-2.365l-1.3-1.358h-2.324v2.674l-7.529,1.061v-2.377h-.734v-5.6l-.979-2.512h-14.276l-.979,2.512v9.338h-6.164v-4.859l-.979-2.512h-10.752l-.979,2.512v1.124h-.734v2.377l-2.512-1.061V1616.3h-2.324l-1.3,1.358h-.872l-1.264,1.316h-.612V1611.6h-1.06v-1.358h-.979v1.443l-4.241,5.972v3.65h-2.65l-1.264-1.316h-12.189v3.82h-.979v-2.292h-1.386v2.547h-1.06v-7.447l-2.482-2.535-2.492,2.535v6.513h-1.223v-3.65h-12.92v-1.443h-.979v1.358h-1.06v1.4h-.612l-1.264-1.316h-2.365l-1.3-1.358h-2.324v2.674l-7.529,1.061v-2.377h-.734v-8.9l-.979-2.512h-17.57l-.979,2.512v12.632h-2.87v-4.859l-.979-2.511h-10.752l-.979,2.511v1.124h-.734v2.377l-2.512-1.061v-2.674h-2.324l-1.3,1.358h-.872l-1.264,1.316h-.612v-7.373h-1.06v-1.358h-.979v1.443l-4.241,5.972v3.65h-1.223v-6.513h-4.975v7.447h-1.06v-2.547h-1.386v2.292h-.979v-3.82h-8.971l-1.264,1.316h-1.427v38.453H-63.817v-40.279Z" transform="translate(299.531 -1515.514)" fill="url(#linear-gradient-3)"/>
          <g id="Group_3984" data-name="Group 3984" transform="translate(163.772 5.71)">
            <g id="Group_3979" data-name="Group 3979">
              <path id="Path_9584" data-name="Path 9584" d="M341.233,1327.627l-.815,4.714h-.946v-4.961h.534v-2.043l-.442-5.735-.694,5.629-4.648-8.959v-7.1h.492v-2.043l-.649-4.572-.674,4.572-3.813-20.411s0-.008,0-.012v-.113h1.052v-.766H329.58v-2.592a1.086,1.086,0,1,0-.644,0v2.592h-1.052v.766h1.052v.113s0,.008,0,.012l-3.812,20.411-.674-4.572-.649,4.572v2.043h.492v7.1l-4.648,8.959-.694-5.629-.442,5.735v2.043h.534v4.961H318.1l-.815-4.714-.245,4.714v2.043h.99v18.331h1.016v14.062h-.66v2.885h.66v14.782h-.66v2.885h.66v14.783h-.66V1405h.66v13.761h20.428V1405h.66v-2.884h-.66v-14.783h.66v-2.885h-.66v-14.782h.66v-2.885h-.66v-14.062h1.016v-18.331h.99v-2.043Zm-16.98.3a6.013,6.013,0,0,1,1.3,0v3.535a5.951,5.951,0,0,1-1.3,0Zm-2.869,0a6.015,6.015,0,0,1,1.3,0v3.535a5.953,5.953,0,0,1-1.3,0Zm-.709,23.309v-2.217a7.331,7.331,0,0,1,1.419,0v2.217a7.279,7.279,0,0,1-1.419,0Zm2.206,65.926a.631.631,0,1,1-1.262,0V1405h1.262Zm0-15.053h-1.262v-14.783h1.262Zm0-17.667h-1.262v-14.782h1.262Zm0-17.667h-1.262v-12.289a.631.631,0,0,1,1.262,0Zm.923-17.755a7.328,7.328,0,0,1,1.419,0v2.217a7.277,7.277,0,0,1-1.419,0Zm1.86,68.142a.631.631,0,1,1-1.262,0V1405h1.262Zm0-15.053H324.4v-14.783h1.262Zm0-17.667H324.4v-14.782h1.262Zm0-17.667H324.4v-12.289a.631.631,0,0,1,1.262,0Zm.222-51.171c0,.032-.148.058-.331.058s-.331-.026-.331-.058v-5.773c0-.032.148-.058.331-.058s.331.026.331.058Zm.8-5.773c0-.032.148-.058.331-.058s.331.026.331.058v5.773c0,.032-.148.058-.331.058s-.331-.026-.331-.058Zm1.089,18.061a3.033,3.033,0,0,1,.65.035v3.535a5.951,5.951,0,0,1-1.3,0v-3.535A3.034,3.034,0,0,1,327.772,1327.894Zm-.84,21.128a7.328,7.328,0,0,1,1.419,0v2.217a7.277,7.277,0,0,1-1.419,0Zm1.513,68.142a.631.631,0,1,1-1.262,0V1405h1.262Zm0-15.053h-1.262v-14.783h1.262Zm0-17.667h-1.262v-14.782h1.262Zm0-17.667h-1.262v-12.289a.631.631,0,0,1,1.262,0Zm.361-51.171c0,.032-.148.058-.331.058s-.331-.026-.331-.058v-5.773c0-.032.148-.058.331-.058s.331.026.331.058Zm7.025,12.324a6.017,6.017,0,0,1,1.3,0v3.535a5.956,5.956,0,0,1-1.3,0Zm-2.218-.035a3.036,3.036,0,0,1,.65.035v3.535a5.953,5.953,0,0,1-1.3,0v-3.535A3.035,3.035,0,0,1,333.614,1327.894Zm-3.9-12.289v-5.773c0-.032.148-.058.331-.058s.332.026.332.058v5.773c0,.032-.148.058-.332.058S329.709,1315.637,329.709,1315.605Zm1.035,12.289a3.038,3.038,0,0,1,.651.035v3.535a5.953,5.953,0,0,1-1.3,0v-3.535A3.033,3.033,0,0,1,330.744,1327.894Zm.588,89.27a.631.631,0,1,1-1.262,0V1405h1.262Zm0-15.053H330.07v-14.783h1.262Zm0-17.667H330.07v-14.782h1.262Zm0-17.667H330.07v-12.289a.631.631,0,0,1,1.262,0Zm.252-15.538a7.277,7.277,0,0,1-1.419,0v-2.217a7.328,7.328,0,0,1,1.419,0Zm.249-35.633c0,.032-.148.058-.331.058s-.331-.026-.331-.058v-5.773c0-.032.148-.058.331-.058s.331.026.331.058Zm.8-5.773c0-.032.148-.058.331-.058s.331.026.331.058v5.773c0,.032-.148.058-.331.058s-.331-.026-.331-.058Zm1.483,107.331a.631.631,0,1,1-1.262,0V1405h1.262Zm0-15.053h-1.262v-14.783h1.262Zm0-17.667h-1.262v-14.782h1.262Zm0-17.667h-1.262v-12.289a.631.631,0,0,1,1.262,0Zm.6-15.538a7.277,7.277,0,0,1-1.419,0v-2.217a7.328,7.328,0,0,1,1.419,0Zm2.185,65.926a.631.631,0,1,1-1.262,0V1405H336.9Zm0-15.053h-1.262v-14.783H336.9Zm0-17.667h-1.262v-14.782H336.9Zm0-17.667h-1.262v-12.289a.631.631,0,0,1,1.262,0Zm.945-15.538a7.277,7.277,0,0,1-1.419,0v-2.217a7.328,7.328,0,0,1,1.419,0Z" transform="translate(-317.038 -1281.113)" fill="url(#linear-gradient-4)"/>
              <path id="Path_9585" data-name="Path 9585" d="M345.884,1407.172a6.017,6.017,0,0,1,1.3,0v3.535a5.956,5.956,0,0,1-1.3,0Zm2.011,21.093v2.217a7.28,7.28,0,0,1-1.419,0v-2.217a7.331,7.331,0,0,1,1.419,0Zm-10.659,5.466a.631.631,0,0,1,1.262,0v12.289h-1.262Zm-.252-3.249v-2.217a7.328,7.328,0,0,1,1.419,0v2.217a7.277,7.277,0,0,1-1.419,0Zm4.651,0a7.277,7.277,0,0,1-1.419,0v-2.217a7.328,7.328,0,0,1,1.419,0Zm-.883,2.619a.631.631,0,0,1,.631.631v12.289h-1.262V1433.73A.631.631,0,0,1,340.753,1433.1Zm-.631,15.8h1.262v14.782h-1.262Zm-1.624,14.782h-1.262V1448.9H338.5Zm-2.783-17.667h-1.262V1433.73a.631.631,0,0,1,1.262,0Zm0,2.885v14.782h-1.262V1448.9Zm0,17.667v14.782h-1.262v-14.782Zm1.521,0H338.5v14.782h-1.262Zm2.886,0h1.262v14.782h-1.262Zm2.783,0h1.262v14.782H342.9Zm0-2.885V1448.9h1.262v14.782Zm0-17.667V1433.73a.631.631,0,0,1,1.262,0v12.289Zm1.86-15.538a7.277,7.277,0,0,1-1.419,0v-2.217a7.329,7.329,0,0,1,1.419,0Zm-1.1-23.344a3.036,3.036,0,0,1,.651.035v3.535a5.954,5.954,0,0,1-1.3,0v-3.535A3.034,3.034,0,0,1,343.665,1407.136Zm-.982-18.061c0-.032.148-.058.331-.058s.331.026.331.058v5.773c0,.032-.148.058-.331.058s-.331-.026-.331-.058Zm-1.461,0c0-.032.148-.058.331-.058s.331.026.331.058v5.773c0,.032-.148.058-.331.058s-.331-.026-.331-.058Zm.224,18.1v3.535a5.951,5.951,0,0,1-1.3,0v-3.535a6.012,6.012,0,0,1,1.3,0Zm-1.686-18.1c0-.032.148-.058.331-.058s.331.026.331.058v5.773c0,.032-.148.058-.331.058s-.331-.026-.331-.058Zm-1.565,0c0-.032.148-.058.332-.058s.331.026.331.058v5.773c0,.032-.148.058-.331.058s-.332-.026-.332-.058Zm.278,18.1v3.535a5.951,5.951,0,0,1-1.3,0v-3.535a6.013,6.013,0,0,1,1.3,0Zm-1.739-18.1c0-.032.148-.058.331-.058s.331.026.331.058v5.773c0,.032-.148.058-.331.058s-.331-.026-.331-.058Zm-1.461,0c0-.032.148-.058.331-.058s.331.026.331.058v5.773c0,.032-.148.058-.331.058s-.331-.026-.331-.058Zm-.97,18.1a6.012,6.012,0,0,1,1.3,0v3.535a5.951,5.951,0,0,1-1.3,0Zm-.449,21.093a7.328,7.328,0,0,1,1.419,0v2.217a7.277,7.277,0,0,1-1.419,0Zm-2.42-21.093a6.015,6.015,0,0,1,1.3,0v3.535a5.953,5.953,0,0,1-1.3,0Zm-.709,21.093a7.331,7.331,0,0,1,1.419,0v2.217a7.279,7.279,0,0,1-1.419,0Zm.945,5.466a.631.631,0,0,1,1.262,0v12.289H331.67Zm0,15.173h1.262v14.782H331.67Zm0,17.667h1.262v14.782H331.67Zm.631,30.467a.631.631,0,0,1-.631-.631v-12.168h1.262v12.168A.631.631,0,0,1,332.3,1497.038Zm2.783,0a.631.631,0,0,1-.631-.631v-12.168h1.262v12.168A.631.631,0,0,1,335.084,1497.038Zm2.783,0a.631.631,0,0,1-.631-.631v-12.168H338.5v12.168A.631.631,0,0,1,337.867,1497.038Zm2.886,0a.631.631,0,0,1-.631-.631v-12.168h1.262v12.168A.631.631,0,0,1,340.753,1497.038Zm2.783,0a.631.631,0,0,1-.631-.631v-12.168h1.262v12.168A.631.631,0,0,1,343.536,1497.038Zm3.414-.631a.631.631,0,1,1-1.262,0v-12.168h1.262Zm0-15.053h-1.262v-14.782h1.262Zm0-17.667h-1.262V1448.9h1.262Zm-1.262-17.667V1433.73a.631.631,0,0,1,1.262,0v12.289Z" transform="translate(-327.089 -1360.356)" fill="url(#linear-gradient-5)"/>
            </g>
            <g id="Group_3981" data-name="Group 3981" transform="translate(4.581 53.496)">
              <g id="Group_3980" data-name="Group 3980">
                <path id="Path_9586" data-name="Path 9586" d="M349.564,1495.726H334.286v-13.213h15.278Zm-14.658-.62h14.039v-11.974H334.905Z" transform="translate(-334.286 -1482.513)" fill="#825a40"/>
              </g>
            </g>
            <g id="Group_3982" data-name="Group 3982" transform="translate(6.971 54.756)">
              <path id="Path_9587" data-name="Path 9587" d="M348.531,1497.755a5.249,5.249,0,1,1,5.249-5.249A5.255,5.255,0,0,1,348.531,1497.755Zm0-9.944a4.7,4.7,0,1,0,4.7,4.7A4.7,4.7,0,0,0,348.531,1487.811Z" transform="translate(-343.282 -1487.257)" fill="#825a40"/>
              <path id="Path_9588" data-name="Path 9588" d="M350.063,1489.343a4.7,4.7,0,1,0,4.7,4.7A4.7,4.7,0,0,0,350.063,1489.343Z" transform="translate(-344.814 -1488.789)" fill="url(#radial-gradient)"/>
            </g>
            <g id="Group_3983" data-name="Group 3983" transform="translate(11.737 58.811)">
              <path id="Path_9589" data-name="Path 9589" d="M363.18,1504.007l-.136-.414,3.955-1.068Z" transform="translate(-362.561 -1502.525)" fill="#1b335a"/>
              <path id="Path_9590" data-name="Path 9590" d="M362.159,1506.8l.348-.513,2.206,1.87Z" transform="translate(-361.911 -1505.286)" fill="#1b335a"/>
              <path id="Path_9591" data-name="Path 9591" d="M362.071,1506.369a.483.483,0,1,1-.043-.682A.484.484,0,0,1,362.071,1506.369Z" transform="translate(-361.225 -1504.758)" fill="#1b335a"/>
            </g>
          </g>
          <path id="Path_9592" data-name="Path 9592" d="M-67.084,1645.532l-2.893-3.012H-90.513v8.745h-2.24v-5.247h-3.174v5.83h-2.427V1634.8h-11.387v14.908h-2.8v-8.356l-9.707-13.671v-3.3h-2.24v3.109h-2.427v16.877h-1.4l-2.893-3.012h-2l-2.987-3.109h-5.32v6.121l-5.751,2.429v-5.441h-1.68v-2.572l-2.24-5.75H-175.8l-2.24,5.75V1649.9h-14.11v-21.375l-2.24-5.75h-17.778l-2.24,5.75v12.825h-1.68v5.441l-2.333-2.429v-6.121h-5.32l-2.987,3.109h-5.414l-2.893,3.012h-1.4v-3.206h-2.427v-3.109h-2.24v3.3h-9.707v8.356h-2.8V1634.8l-5.7-5.8-5.682,5.8v17.046h-2.427v-5.83h-3.173v5.247h-2.24v-8.745h-20.535l-2.894,3.012h-3.267v25.028H-63.817v-25.028Z" transform="translate(299.531 -1526.316)" fill="url(#linear-gradient-6)"/>
          <path id="Path_9593" data-name="Path 9593" d="M-63.817,1730.377h-44.906v6.757h-3.395v-9.062h-15.929v6.585h-3.917v-9.685l-5.379-6.277h-14.729v9.768h-1.959l-4.048-3.491h-2.792l-4.178-3.6h-7.442v7.095l-8.045,2.815v-2.741h-2.35v-2.981l-3.134-4.7h-34.431l-3.134,4.7v9.326h-7.927v-9.5l-3.134-3.007h-24.869l-3.134,3.007v2.085H-265v3.811l-3.264-2.815v-7.095h-7.442l-4.178,3.6h-7.573l-4.048,3.491h-1.959v-3.717h-3.395v-3.6h-2.673V1741H-63.817Z" transform="translate(299.531 -1596.754)" fill="url(#linear-gradient-7)"/>
        </g>
      </g>
    </g>
  </g>
  <text id="U.K." transform="translate(28.256 30.44) rotate(-90)" fill="#fff" font-size="18" font-family="Gilroy-Semibold, Gilroy" font-weight="600"><tspan x="-15.642" y="0">U.K.</tspan></text>
</svg>
