<svg xmlns="http://www.w3.org/2000/svg" width="97.139" height="100" viewBox="0 0 97.139 100">
  <path id="_" data-name="#" d="M97.084,22.623a1.578,1.578,0,0,1,.055.409V44.5a1.565,1.565,0,0,1-.786,1.358L78.337,56.226V76.785a1.569,1.569,0,0,1-.782,1.358L39.948,99.792a1.686,1.686,0,0,1-.274.113c-.035.012-.069.033-.106.043a1.572,1.572,0,0,1-.8,0,1.329,1.329,0,0,1-.123-.051,1.6,1.6,0,0,1-.258-.106L.786,78.143A1.567,1.567,0,0,1,0,76.785V12.391a1.6,1.6,0,0,1,.055-.411c.012-.045.039-.086.055-.131a1.542,1.542,0,0,1,.1-.243,1.465,1.465,0,0,1,.108-.139,1.593,1.593,0,0,1,.139-.182,1.527,1.527,0,0,1,.155-.117,1.276,1.276,0,0,1,.172-.135h0L19.585.209a1.569,1.569,0,0,1,1.565,0l18.8,10.824h0a1.9,1.9,0,0,1,.172.133,1.828,1.828,0,0,1,.153.117,1.8,1.8,0,0,1,.141.184,1.425,1.425,0,0,1,.106.139,1.622,1.622,0,0,1,.1.243c.016.045.043.086.055.133a1.586,1.586,0,0,1,.055.409v40.22L56.4,43.59V23.03a1.582,1.582,0,0,1,.055-.407c.014-.047.039-.088.055-.133a1.736,1.736,0,0,1,.1-.243c.029-.051.072-.092.106-.139a1.592,1.592,0,0,1,.141-.182,1.521,1.521,0,0,1,.153-.117,1.57,1.57,0,0,1,.172-.135h0l18.8-10.824a1.567,1.567,0,0,1,1.565,0l18.8,10.824a1.741,1.741,0,0,1,.176.133c.049.039.106.074.151.117a1.845,1.845,0,0,1,.141.184,1.176,1.176,0,0,1,.106.139,1.544,1.544,0,0,1,.1.243,1.1,1.1,0,0,1,.055.133ZM94,43.59V25.741l-6.579,3.787-9.089,5.233V52.611l15.67-9.021ZM75.2,75.879V58.018l-8.94,5.106L40.734,77.695V95.724ZM3.134,15.1V75.879L37.6,95.722V77.7L19.594,67.506l-.006,0-.008,0a60.021,60.021,0,0,0-.317-.243l0-.006a1.5,1.5,0,0,1-.129-.164,1.666,1.666,0,0,1-.117-.153l0-.006a1.258,1.258,0,0,1-.082-.2,1.162,1.162,0,0,1-.074-.176v0a1.5,1.5,0,0,1-.031-.229,1.357,1.357,0,0,1-.023-.176V24.121L9.713,18.886,3.134,15.1ZM20.369,3.374,4.7,12.391l15.66,9.017,15.662-9.019L20.365,3.374Zm8.146,56.272L37.6,54.415V15.1l-6.579,3.787-9.089,5.233V63.435ZM76.772,14.015,61.11,23.031l15.662,9.017,15.66-9.019ZM75.2,34.762l-9.089-5.233-6.579-3.787V43.59l9.087,5.231L75.2,52.611ZM39.166,74.985,62.139,61.87l11.484-6.554L57.972,46.306,39.952,56.68,23.529,66.135Z" fill="#fff"/>
</svg>
