<svg xmlns="http://www.w3.org/2000/svg" width="115.38" height="100" viewBox="0 0 115.38 100">
  <g id="Group_3099" data-name="Group 3099" transform="translate(880.672 -702.496)">
    <path id="Path_575" data-name="Path 575" d="M-765.312,702.515a.444.444,0,0,0,.021.093c-.832,1.454-1.66,2.911-2.5,4.362q-6.489,11.245-12.981,22.488-6.295,10.906-12.589,21.813-7.04,12.2-14.082,24.389l-15.277,26.46c-.073.126-.15.249-.227.376-.163-.041-.189-.183-.248-.285q-6.361-11.009-12.716-22.021l-12.224-21.178-13.3-23.038-12.982-22.487q-3.1-5.368-6.2-10.736a1.325,1.325,0,0,1-.059-.133.276.276,0,0,1,.255-.11h22.144c.211,0,.423-.006.634-.009l.046.014a4.612,4.612,0,0,1,.851,1.294q5.856,10.175,11.737,20.336,4.7,8.163,9.419,16.319,5.584,9.685,11.177,19.365c.4.691.809,1.375,1.194,2.072.176.319.286.329.469,0,.787-1.406,1.6-2.794,2.409-4.19q2.987-5.181,5.98-10.358,3.981-6.918,7.977-13.827,2.936-5.1,5.883-10.188,3.8-6.572,7.588-13.149,2.072-3.6,4.149-7.187a1.136,1.136,0,0,1,.391-.49l.046-.013c.211,0,.422.008.634.008h21.743C-765.735,702.506-765.524,702.512-765.312,702.515Z" fill="#fff"/>
    <path id="Path_576" data-name="Path 576" d="M-646.376,702.57c-.4.816-.888,1.587-1.341,2.376q-1.215,2.114-2.436,4.224l-3.023,5.237q-1.231,2.133-2.461,4.266-1.512,2.618-3.027,5.234-1.219,2.111-2.435,4.225-1.511,2.618-3.024,5.236-1.219,2.111-2.437,4.223l-3.022,5.237-2.461,4.266-2.755,4.772-2.706,4.687-2.753,4.773c-.226.392-.454.783-.7,1.206a2.327,2.327,0,0,1-.47-.7q-2.535-4.364-5.055-8.737-2.107-3.654-4.207-7.312c-1.259-2.182-2.53-4.358-3.789-6.54-1.178-2.041-2.345-4.089-3.523-6.13-1.129-1.957-2.27-3.907-3.4-5.863-1.049-1.816-2.088-3.637-3.136-5.453s-2.087-3.6-3.127-5.4q-1.707-2.956-3.408-5.915-2.11-3.652-4.226-7.3c-.113-.2-.2-.406-.3-.61l21.277,0c.778,1.334,1.56,2.665,2.333,4q5.355,9.272,10.706,18.545a1.461,1.461,0,0,0,.3.445,2.34,2.34,0,0,0,.341-.533q6.379-11.046,12.757-22.092c.073-.126.156-.245.235-.368h20.741C-646.734,702.565-646.555,702.568-646.376,702.57Z" transform="translate(-141.993 -0.059)" fill="#b7b7b7"/>
  </g>
</svg>
