<svg xmlns="http://www.w3.org/2000/svg" xmlns:xlink="http://www.w3.org/1999/xlink" width="100" height="100" viewBox="0 0 100 100">
  <defs>
    <clipPath id="clip-path">
      <rect id="Rectangle_1133" data-name="Rectangle 1133" width="100" height="100" transform="translate(60 2347)" fill="#fff"/>
    </clipPath>
  </defs>
  <g id="Mask_Group_48" data-name="Mask Group 48" transform="translate(-60 -2347)" clip-path="url(#clip-path)">
    <g id="physics" transform="translate(65.675 2347)">
      <path id="Path_569" data-name="Path 569" d="M86.419,23.07c-3.726-5.835-11.737-8.259-22.532-6.867-.381.045-.785.112-1.167.157-.157-.359-.314-.718-.494-1.076C57.581,5.431,51.23,0,44.318,0S31.033,5.431,26.409,15.283c-.157.359-.337.718-.494,1.076-.4-.067-.785-.112-1.167-.157C13.932,14.789,5.943,17.235,2.217,23.07S-.364,37.186,5.426,46.387C6.19,47.6,7.02,48.81,7.918,50c-.9,1.211-1.728,2.4-2.491,3.613-5.79,9.2-6.934,17.5-3.209,23.317,3.03,4.757,8.91,7.249,16.831,7.249a46.058,46.058,0,0,0,5.678-.382c.381-.045.785-.112,1.167-.157.158.359.315.718.494,1.077C31.033,94.568,37.384,100,44.3,100S57.581,94.568,62.2,84.717c.157-.359.337-.718.494-1.077.4.068.785.112,1.168.157a42.251,42.251,0,0,0,5.677.382c7.922,0,13.8-2.491,16.831-7.249C90.1,71.1,88.954,62.814,83.165,53.613,82.4,52.4,81.571,51.19,80.673,50c.9-1.212,1.728-2.4,2.491-3.613,5.857-9.223,7-17.5,3.254-23.316Zm-55.947-5.88c3.792-8.079,8.842-12.7,13.846-12.7s10.054,4.623,13.846,12.7a.081.081,0,0,0,.023.045A79.52,79.52,0,0,0,44.295,21.97,77.664,77.664,0,0,0,30.4,17.235c.045,0,.045-.023.068-.045ZM64.538,50a98.731,98.731,0,0,1-.584,10.749A95.719,95.719,0,0,1,55.2,67.033,95.493,95.493,0,0,1,44.295,73.07a101.251,101.251,0,0,1-10.906-6.037,98.8,98.8,0,0,1-8.752-6.284,99.254,99.254,0,0,1,0-21.5A99.282,99.282,0,0,1,44.295,26.93,101.1,101.1,0,0,1,55.2,32.966a98.8,98.8,0,0,1,8.752,6.284A98.747,98.747,0,0,1,64.538,50Zm4.286-6.531A72.658,72.658,0,0,1,75.018,50a72.765,72.765,0,0,1-6.194,6.53q.2-3.231.2-6.53T68.824,43.469Zm-5.79,23.654a71.71,71.71,0,0,1-3.074,11.422A70.7,70.7,0,0,1,49.727,75.4c2.647-1.391,5.3-2.917,7.921-4.578Q60.409,69.042,63.034,67.123ZM38.909,75.4a66.329,66.329,0,0,1-10.233,3.142A71.708,71.708,0,0,1,25.6,67.123c1.728,1.279,3.523,2.513,5.386,3.68C33.613,72.486,36.262,74.012,38.909,75.4ZM19.812,56.53A72.89,72.89,0,0,1,13.617,50a72.783,72.783,0,0,1,6.194-6.531q-.2,3.232-.2,6.531t.2,6.53ZM25.6,32.877a71.659,71.659,0,0,1,3.074-11.422A70.45,70.45,0,0,1,38.909,24.6c-2.647,1.391-5.3,2.917-7.921,4.578Q28.226,30.958,25.6,32.877Zm32.024-3.7c-2.6-1.66-5.252-3.209-7.922-4.578a66.31,66.31,0,0,1,10.234-3.142,71.844,71.844,0,0,1,3.074,11.422Q60.42,30.958,57.626,29.174ZM9.219,43.986c-4.758-7.541-5.925-14.3-3.232-18.514,2.155-3.366,6.823-5.184,13.128-5.184a40.693,40.693,0,0,1,5.049.337h.045a80.767,80.767,0,0,0-3.769,16.27,83.7,83.7,0,0,0-9.628,9.448c-.561-.763-1.1-1.548-1.593-2.356ZM24.143,79.354a40.523,40.523,0,0,1-5.049.337c-6.306,0-10.974-1.8-13.128-5.184C3.272,70.287,4.439,63.533,9.2,55.992c.494-.785,1.033-1.594,1.594-2.379a83.547,83.547,0,0,0,9.627,9.448,80.8,80.8,0,0,0,3.77,16.27c0,.023-.023.023-.045.023ZM58.164,82.81c-3.792,8.079-8.842,12.7-13.846,12.7s-10.054-4.623-13.846-12.7a.081.081,0,0,0-.023-.045,79.451,79.451,0,0,0,13.892-4.736,77.6,77.6,0,0,0,13.891,4.736c-.045,0-.045.022-.068.045ZM79.416,56.015c4.758,7.54,5.925,14.3,3.232,18.514s-9.313,5.992-18.156,4.825h-.045a80.769,80.769,0,0,0,3.77-16.27,83.617,83.617,0,0,0,9.627-9.448C78.384,54.421,78.923,55.207,79.416,56.015ZM68.2,36.917a80.739,80.739,0,0,0-3.769-16.27h.045c8.842-1.145,15.462.606,18.155,4.825s1.526,10.974-3.231,18.514c-.494.785-1.033,1.594-1.594,2.379A81.55,81.55,0,0,0,68.2,36.917Zm0,0" fill="#fff"/>
      <path id="Path_570" data-name="Path 570" d="M44.318,41.113A8.887,8.887,0,1,0,53.2,50a8.887,8.887,0,0,0-8.887-8.887Zm0,13.285a4.4,4.4,0,1,1,4.4-4.4,4.4,4.4,0,0,1-4.4,4.4Zm0,0" fill="#fff"/>
    </g>
  </g>
</svg>
