<svg id="golang.611371dc" xmlns="http://www.w3.org/2000/svg" width="168.6" height="62.99" viewBox="0 0 168.6 62.99">
  <path id="Path_584" data-name="Path 584" d="M12.724,19.073c-.328,0-.41-.164-.246-.41L14.2,16.446a1.176,1.176,0,0,1,.9-.41H44.41c.328,0,.41.246.246.492l-1.4,2.134a1.251,1.251,0,0,1-.821.492ZM.328,26.625c-.328,0-.41-.164-.246-.41L1.806,24a1.176,1.176,0,0,1,.9-.41H40.141a.377.377,0,0,1,.41.492l-.657,1.97a.718.718,0,0,1-.739.492Zm19.865,7.552c-.328,0-.41-.246-.246-.493L21.1,31.632a1.089,1.089,0,0,1,.821-.492H38.335c.328,0,.493.246.493.575l-.164,1.97a.617.617,0,0,1-.575.575ZM105.4,17.6c-5.172,1.313-8.7,2.3-13.791,3.612-1.231.328-1.313.41-2.381-.821a10.988,10.988,0,0,0-3.858-3.119C80.2,14.722,75.193,15.461,70.514,18.5a17.457,17.457,0,0,0-8.373,15.6A12.869,12.869,0,0,0,73.223,46.983a15.151,15.151,0,0,0,13.955-5.418c.739-.9,1.4-1.888,2.216-3.037H73.551c-1.724,0-2.134-1.067-1.56-2.463,1.067-2.545,3.037-6.813,4.186-8.948A2.217,2.217,0,0,1,78.23,25.8h29.88c-.164,2.216-.164,4.433-.492,6.649a35.01,35.01,0,0,1-6.731,16.089c-5.91,7.8-13.627,12.642-23.4,13.955C69.447,63.565,61.977,62,55.41,57.08A25.784,25.784,0,0,1,44.984,38.856c-1.067-8.948,1.56-16.992,6.978-24.052A36.428,36.428,0,0,1,74.947.6C82.663-.793,90.051.11,96.7,4.625A25.732,25.732,0,0,1,106.222,16.2C106.715,16.938,106.386,17.349,105.4,17.6Z" transform="translate(0 0)" fill="#fff"/>
  <path id="Path_585" data-name="Path 585" d="M849,68.263c-7.47-.164-14.283-2.3-20.029-7.224A25.743,25.743,0,0,1,820.1,45.2c-1.478-9.276,1.067-17.485,6.649-24.791,5.992-7.88,13.216-11.985,22.985-13.709,8.373-1.478,16.253-.657,23.394,4.186,6.485,4.433,10.508,10.425,11.575,18.306,1.4,11.082-1.807,20.112-9.441,27.828a37.611,37.611,0,0,1-19.7,10.507c-2.216.41-4.433.492-6.567.739ZM868.532,35.1a23.671,23.671,0,0,0-.246-2.709A13.523,13.523,0,0,0,851.54,21.473c-7.634,1.724-12.559,6.567-14.365,14.283a13.519,13.519,0,0,0,7.552,15.515,15.049,15.049,0,0,0,13.38-.493c6.485-3.366,10.014-8.619,10.425-15.679Z" transform="translate(-716.423 -5.273)" fill="#fff"/>
</svg>
