<svg xmlns="http://www.w3.org/2000/svg" width="93.096" height="100" viewBox="0 0 93.096 100">
  <g id="Group_3101" data-name="Group 3101" transform="translate(884.699 -722.124)">
    <g id="Group_3100" data-name="Group 3100" transform="translate(-884.699 722.124)">
      <path id="Path_578" data-name="Path 578" d="M-792.52,738.29c-12.066-4.272-24.115-8.593-36.177-12.878-3.147-1.118-6.249-2.368-9.465-3.288-.494.155-.993.293-1.48.466q-21.883,7.793-43.765,15.592c-1.42.506-1.387.5-1.2,2.069q1.022,8.583,2,17.17,1.2,10.4,2.384,20.8c.806,7,1.632,14,2.41,21a1.815,1.815,0,0,0,1.043,1.6q12.623,6.946,25.214,13.95c4.457,2.465,8.928,4.905,13.392,7.357h0c.278-.12.57-.217.833-.364q18.54-10.268,37.086-20.524a2.832,2.832,0,0,0,1.833-2.507c.318-3.935.875-7.851,1.326-11.775.448-3.89.874-7.783,1.324-11.673.454-3.924.933-7.846,1.385-11.77.448-3.89.871-7.784,1.315-11.674.464-4.063.913-8.127,1.432-12.183C-791.522,738.827-791.765,738.557-792.52,738.29Zm-18.153,59.839q-3.806.012-7.612,0c-1.549,0-1.549,0-2.123-1.446-1.581-3.972-3.181-7.937-4.755-11.912a1.59,1.59,0,0,0-1.578-1.243c-3.511.006-7.021-.007-10.532.012a1.239,1.239,0,0,0-.947.258c-.357-.389-.852-.258-1.292-.26-3.232-.015-6.464-.011-9.7-.007-1.511,0-1.555.029-2.122,1.469-1.579,4.01-3.269,7.974-4.823,11.993a1.555,1.555,0,0,1-1.7,1.155c-2.605-.048-5.212-.011-7.819-.02-1.04,0-1.116-.132-.694-1.078q6.826-15.328,13.662-30.652,7.274-16.326,14.559-32.647c.105.306.215.609.348.905,3.365,7.517,6.69,15.051,10.041,22.574q8.885,19.951,17.75,39.911C-809.607,798.047-809.654,798.126-810.673,798.129Z" transform="translate(884.699 -722.124)" fill="#fff"/>
      <path id="Path_579" data-name="Path 579" d="M-693.435,877.906h0a1.078,1.078,0,0,0-.1-.159c-.016-.019-.083-.026-.091-.014a11.87,11.87,0,0,0-1.049,2.336c-2.36,5.648-4.7,11.3-7.074,16.948-.283.674-.329.94.564.918,2.529-.065,5.06-.043,7.59-.056h8.38a1.285,1.285,0,0,0-.023-.3Q-689.331,887.743-693.435,877.906Z" transform="translate(740.127 -845.206)" fill="#fff"/>
    </g>
  </g>
</svg>
