<svg id="nodejs.7fcba3ab" xmlns="http://www.w3.org/2000/svg" width="90.746" height="100" viewBox="0 0 90.746 100">
  <path id="Path_582" data-name="Path 582" d="M41.278,1.067a8.386,8.386,0,0,1,8.187,0q18.7,10.564,37.393,21.121a7.7,7.7,0,0,1,3.888,6.629V71.188a7.781,7.781,0,0,1-4.178,6.774Q67.933,88.468,49.308,98.982a8.149,8.149,0,0,1-8.277-.23q-5.587-3.238-11.18-6.464a6.581,6.581,0,0,1-2.157-1.553c.475-.64,1.325-.72,2.015-1a26.1,26.1,0,0,0,4.411-2.058,1.029,1.029,0,0,1,1.148.069c3.185,1.826,6.341,3.7,9.537,5.514.682.393,1.372-.129,1.955-.454Q65.045,82.471,83.344,72.16a1.21,1.21,0,0,0,.665-1.191q.013-20.966,0-41.934a1.311,1.311,0,0,0-.781-1.307Q64.663,17.27,46.1,6.8a1.289,1.289,0,0,0-1.458,0Q26.078,17.261,7.518,27.733a1.3,1.3,0,0,0-.785,1.3q0,20.966,0,41.936a1.185,1.185,0,0,0,.673,1.176q4.954,2.81,9.915,5.6a7.662,7.662,0,0,0,6.2.83,4.7,4.7,0,0,0,3.045-4.419c.017-13.9-.009-27.794.013-41.687a1.047,1.047,0,0,1,1.14-1.068c1.587-.011,3.176-.021,4.763,0a1.1,1.1,0,0,1,1.036,1.271c-.006,13.984.017,27.968-.011,41.951,0,3.727-1.527,7.782-4.974,9.605-4.247,2.2-9.5,1.733-13.691-.376-3.632-1.813-7.1-3.952-10.666-5.894A7.763,7.763,0,0,1,0,71.188V28.817A7.712,7.712,0,0,1,4.021,22.1Q22.652,11.59,41.278,1.067Z" transform="translate(0 0)" fill="#fff"/>
  <path id="Path_583" data-name="Path 583" d="M200.524,151.537c5.417-.349,11.216-.207,16.091,2.462,3.774,2.045,5.866,6.337,5.933,10.53a1.14,1.14,0,0,1-1.236.839c-1.572,0-3.144.021-4.716-.011a1.215,1.215,0,0,1-1.138-1.179,7.178,7.178,0,0,0-3.434-4.961c-2.9-1.451-6.26-1.378-9.421-1.348-2.307.122-4.789.322-6.744,1.679a4.273,4.273,0,0,0-1.421,4.774c.5,1.2,1.89,1.587,3.023,1.944,6.528,1.707,13.446,1.538,19.85,3.784,2.651.916,5.245,2.7,6.152,5.473a11.691,11.691,0,0,1-1.98,11.154,15.629,15.629,0,0,1-8.391,4.522,40.313,40.313,0,0,1-12.666.538c-3.961-.452-8.083-1.492-11.141-4.191a11.692,11.692,0,0,1-3.765-9.223,1.056,1.056,0,0,1,1.157-.931c1.583-.013,3.165-.017,4.748,0a1.109,1.109,0,0,1,1.133,1.1,7.2,7.2,0,0,0,2.677,5.051c3.217,2.075,7.253,1.933,10.936,1.991,3.052-.135,6.477-.176,8.967-2.193a4.953,4.953,0,0,0,1.348-4.731c-.385-1.4-1.847-2.049-3.1-2.475-6.445-2.039-13.44-1.3-19.822-3.6-2.591-.916-5.1-2.647-6.092-5.309a10.874,10.874,0,0,1,2.172-11.313c2.851-2.871,6.967-3.976,10.881-4.372Z" transform="translate(-148.41 -121.119)" fill="#fff"/>
</svg>
