<svg xmlns="http://www.w3.org/2000/svg" width="20.974" height="15.739" viewBox="0 0 20.974 15.739">
    <path d="M17.4,15.97l6.517,3.9L17.4,23.825V15.971Zm2.619-3.84s-4.364,0-7.331.2a2.986,2.986,0,0,0-2.1.93,4.712,4.712,0,0,0-.873,2.211s-.2,1.8-.2,3.637V20.8c0,1.8.2,3.636.2,3.636a4.709,4.709,0,0,0,.873,2.211,3.574,3.574,0,0,0,2.27,1.018c1.686.2,7.126.2,7.126.2s4.364,0,7.331-.262a2.986,2.986,0,0,0,2.095-.93,4.715,4.715,0,0,0,.873-2.212s.2-1.8.2-3.636V19.113a35.655,35.655,0,0,0-.2-3.637,4.706,4.706,0,0,0-.873-2.21,2.546,2.546,0,0,0-2.095-.931c-2.938-.2-7.3-.2-7.3-.2Z"
          transform="translate(-9.513 -12.13)" fill="#fff"/>
</svg>